%TF.GenerationSoftware,KiCad,Pcbnew,(5.99.0-8408-g2f86419c55)*%
%TF.CreationDate,2021-01-19T22:19:36+01:00*%
%TF.ProjectId,ax5243-test-board,61783532-3433-42d7-9465-73742d626f61,rev?*%
%TF.SameCoordinates,PX8954400PY4e33880*%
%TF.FileFunction,Copper,L2,Bot*%
%TF.FilePolarity,Positive*%
%FSLAX46Y46*%
G04 Gerber Fmt 4.6, Leading zero omitted, Abs format (unit mm)*
G04 Created by KiCad (PCBNEW (5.99.0-8408-g2f86419c55)) date 2021-01-19 22:19:36*
%MOMM*%
%LPD*%
G01*
G04 APERTURE LIST*
%TA.AperFunction,ComponentPad*%
%ADD10C,0.510000*%
%TD*%
%TA.AperFunction,ComponentPad*%
%ADD11C,2.050000*%
%TD*%
%TA.AperFunction,ComponentPad*%
%ADD12C,2.250000*%
%TD*%
%TA.AperFunction,ComponentPad*%
%ADD13R,1.700000X1.700000*%
%TD*%
%TA.AperFunction,ComponentPad*%
%ADD14O,1.700000X1.700000*%
%TD*%
%TA.AperFunction,ViaPad*%
%ADD15C,0.500000*%
%TD*%
%TA.AperFunction,Conductor*%
%ADD16C,0.200000*%
%TD*%
%TA.AperFunction,Conductor*%
%ADD17C,0.500000*%
%TD*%
%TA.AperFunction,Conductor*%
%ADD18C,0.250000*%
%TD*%
G04 APERTURE END LIST*
D10*
%TO.P,U1,21,GND*%
%TO.N,GND*%
X5130000Y-130000D03*
X5130000Y730000D03*
X4270000Y730000D03*
X4270000Y-130000D03*
%TD*%
D11*
%TO.P,J1,1,In*%
%TO.N,/ANT*%
X-15000000Y0D03*
D12*
%TO.P,J1,2,Ext*%
%TO.N,GND*%
X-12460000Y2540000D03*
X-17540000Y2540000D03*
X-12460000Y-2540000D03*
X-17540000Y-2540000D03*
%TD*%
D13*
%TO.P,J2,1,Pin_1*%
%TO.N,no_connect_28*%
X-17780000Y6350000D03*
D14*
%TO.P,J2,2,Pin_2*%
%TO.N,no_connect_31*%
X-15240000Y6350000D03*
%TO.P,J2,3,Pin_3*%
%TO.N,no_connect_32*%
X-12700000Y6350000D03*
%TO.P,J2,4,Pin_4*%
%TO.N,GND*%
X-10160000Y6350000D03*
%TO.P,J2,5,Pin_5*%
%TO.N,no_connect_33*%
X-7620000Y6350000D03*
%TO.P,J2,6,Pin_6*%
%TO.N,no_connect_34*%
X-5080000Y6350000D03*
%TO.P,J2,7,Pin_7*%
%TO.N,no_connect_35*%
X-2540000Y6350000D03*
%TO.P,J2,8,Pin_8*%
%TO.N,no_connect_36*%
X0Y6350000D03*
%TO.P,J2,9,Pin_9*%
%TO.N,no_connect_37*%
X2540000Y6350000D03*
%TO.P,J2,10,Pin_10*%
%TO.N,no_connect_29*%
X5080000Y6350000D03*
%TO.P,J2,11,Pin_11*%
%TO.N,no_connect_30*%
X7620000Y6350000D03*
%TO.P,J2,12,Pin_12*%
%TO.N,IRQ*%
X10160000Y6350000D03*
%TO.P,J2,13,Pin_13*%
%TO.N,SEL*%
X12700000Y6350000D03*
%TO.P,J2,14,Pin_14*%
%TO.N,MOSI*%
X15240000Y6350000D03*
%TO.P,J2,15,Pin_15*%
%TO.N,MISO*%
X17780000Y6350000D03*
%TD*%
D13*
%TO.P,J3,1,Pin_1*%
%TO.N,no_connect_38*%
X-17780000Y-6350000D03*
D14*
%TO.P,J3,2,Pin_2*%
%TO.N,GND*%
X-15240000Y-6350000D03*
%TO.P,J3,3,Pin_3*%
%TO.N,no_connect_41*%
X-12700000Y-6350000D03*
%TO.P,J3,4,Pin_4*%
%TO.N,no_connect_42*%
X-10160000Y-6350000D03*
%TO.P,J3,5,Pin_5*%
%TO.N,no_connect_43*%
X-7620000Y-6350000D03*
%TO.P,J3,6,Pin_6*%
%TO.N,no_connect_44*%
X-5080000Y-6350000D03*
%TO.P,J3,7,Pin_7*%
%TO.N,no_connect_45*%
X-2540000Y-6350000D03*
%TO.P,J3,8,Pin_8*%
%TO.N,no_connect_46*%
X0Y-6350000D03*
%TO.P,J3,9,Pin_9*%
%TO.N,no_connect_47*%
X2540000Y-6350000D03*
%TO.P,J3,10,Pin_10*%
%TO.N,no_connect_39*%
X5080000Y-6350000D03*
%TO.P,J3,11,Pin_11*%
%TO.N,DAC_OUT*%
X7620000Y-6350000D03*
%TO.P,J3,12,Pin_12*%
%TO.N,SYSCLK*%
X10160000Y-6350000D03*
%TO.P,J3,13,Pin_13*%
%TO.N,no_connect_40*%
X12700000Y-6350000D03*
%TO.P,J3,14,Pin_14*%
%TO.N,VDD*%
X15240000Y-6350000D03*
%TO.P,J3,15,Pin_15*%
%TO.N,CLK*%
X17780000Y-6350000D03*
%TD*%
D15*
%TO.N,GND*%
X8800000Y-4050000D03*
X7300000Y-3000000D03*
X-7000000Y-1700000D03*
X-5800000Y-1700000D03*
X-4050000Y-1650000D03*
X-2850000Y-1650000D03*
X-4100000Y1700000D03*
X-2900000Y1700000D03*
X850000Y-4300000D03*
X800000Y4400000D03*
X2400000Y3600000D03*
X2350000Y-2750000D03*
%TO.N,VDD*%
X10500000Y250000D03*
X9506885Y1410497D03*
%TO.N,GND*%
X15726107Y-1700000D03*
X2700000Y2800000D03*
X13950000Y2450000D03*
X7650000Y3700000D03*
X7650000Y2950000D03*
X6150000Y3000000D03*
X2900000Y-1450000D03*
X2000000Y950000D03*
X250000Y4400000D03*
X1800000Y4150000D03*
X13450000Y-2850000D03*
X15750000Y-600000D03*
X13300000Y3050000D03*
X10500000Y2300000D03*
%TO.N,SEL*%
X6750000Y-1600000D03*
%TO.N,GND*%
X-6400000Y-2200000D03*
X-10200000Y-1200000D03*
X-9600000Y-1700000D03*
X-5000000Y1600000D03*
X200000Y-4300000D03*
X-800000Y-3800000D03*
X-800000Y3900000D03*
X-3450000Y-2200000D03*
X-3500000Y2200000D03*
X-20500000Y-4000000D03*
X-20500000Y-2000000D03*
X-20500000Y2000000D03*
X-20500000Y4000000D03*
X-20500000Y0D03*
X20500000Y4000000D03*
X20500000Y2000000D03*
X20500000Y-4000000D03*
X20500000Y-2000000D03*
X20500000Y0D03*
X1250000Y8000000D03*
X-3830000Y8000000D03*
X-13990000Y8000000D03*
X-11450000Y8000000D03*
X-8910000Y8000000D03*
X-1290000Y8000000D03*
X-19070000Y8000000D03*
X-6370000Y8000000D03*
X-16530000Y8000000D03*
X8870000Y8000000D03*
X3790000Y8000000D03*
X6330000Y8000000D03*
X11410000Y8000000D03*
X13950000Y8000000D03*
X19030000Y8000000D03*
X16490000Y8000000D03*
X-19070000Y-7900000D03*
X-16530000Y-7900000D03*
X-13990000Y-7900000D03*
X-11450000Y-7900000D03*
X-8910000Y-7900000D03*
X-6370000Y-7900000D03*
X-3830000Y-7900000D03*
X-1290000Y-7900000D03*
X19030000Y-7900000D03*
X16490000Y-7900000D03*
X13950000Y-7900000D03*
X11410000Y-7900000D03*
X8870000Y-7900000D03*
X6330000Y-7900000D03*
X3790000Y-7900000D03*
X1250000Y-7900000D03*
X-1400000Y3400000D03*
X-1400000Y-3250000D03*
X-1900000Y-1600000D03*
X-5000000Y-1600000D03*
X-7900000Y-1600000D03*
X-6800000Y1550000D03*
X-1900000Y1600000D03*
X-8300000Y1700000D03*
X-9600000Y1150000D03*
%TO.N,DAC_OUT*%
X12100000Y-2700000D03*
%TO.N,SEL*%
X16144938Y-2844938D03*
%TO.N,VDD*%
X9500000Y700000D03*
X9506885Y2010497D03*
%TO.N,GND*%
X6700000Y3600000D03*
X1750000Y-3250000D03*
X2800000Y-3900000D03*
%TD*%
D16*
%TO.N,SEL*%
X10500000Y-1300000D02*
X12900000Y-1300000D01*
X10124916Y-1675084D02*
X10500000Y-1300000D01*
X6750000Y-1600000D02*
X10124916Y-1675084D01*
X12900000Y-1300000D02*
X14444938Y-2844938D01*
X14444938Y-2844938D02*
X16144938Y-2844938D01*
D17*
%TO.N,VDD*%
X14500000Y900000D02*
X16500000Y900000D01*
X16500000Y900000D02*
X17900000Y-500000D01*
X17900000Y-500000D02*
X17900000Y-3700000D01*
X17900000Y-3700000D02*
X17450000Y-4150000D01*
X14100000Y900000D02*
X14500000Y900000D01*
X11800000Y700000D02*
X9500000Y700000D01*
X14500000Y900000D02*
X12000000Y900000D01*
X12000000Y900000D02*
X11800000Y700000D01*
X17450000Y-4150000D02*
X17150000Y-4450000D01*
X17450000Y-4150000D02*
X15250000Y-6350000D01*
X15250000Y-6350000D02*
X15240000Y-6350000D01*
D18*
%TO.N,DAC_OUT*%
X11270000Y-2700000D02*
X7620000Y-6350000D01*
X12100000Y-2700000D02*
X11270000Y-2700000D01*
%TD*%
%TA.AperFunction,Conductor*%
%TO.N,GND*%
G36*
X21259191Y8681093D02*
G01*
X21295155Y8631593D01*
X21300000Y8601000D01*
X21300000Y7237388D01*
X21281093Y7179197D01*
X21231593Y7143233D01*
X21170407Y7143233D01*
X21133799Y7164690D01*
X21026754Y7263642D01*
X21026753Y7263643D01*
X21023424Y7266720D01*
X20991056Y7287143D01*
X20868956Y7364182D01*
X20844586Y7379558D01*
X20648180Y7457916D01*
X20440783Y7499170D01*
X20335062Y7500554D01*
X20233880Y7501879D01*
X20233875Y7501879D01*
X20229341Y7501938D01*
X20224866Y7501169D01*
X20224865Y7501169D01*
X20025404Y7466895D01*
X20020935Y7466127D01*
X19944566Y7437953D01*
X19826807Y7394510D01*
X19826804Y7394509D01*
X19822544Y7392937D01*
X19818641Y7390615D01*
X19818639Y7390614D01*
X19761643Y7356705D01*
X19640814Y7284819D01*
X19637399Y7281824D01*
X19637396Y7281822D01*
X19544588Y7200431D01*
X19481830Y7145394D01*
X19350916Y6979330D01*
X19252457Y6792191D01*
X19251113Y6787862D01*
X19194658Y6606047D01*
X19189750Y6590242D01*
X19189216Y6585732D01*
X19189216Y6585731D01*
X19186239Y6560573D01*
X19164896Y6380247D01*
X19178726Y6169240D01*
X19179842Y6164847D01*
X19179842Y6164845D01*
X19209973Y6046206D01*
X19230778Y5964286D01*
X19319308Y5772250D01*
X19441351Y5599563D01*
X19592820Y5452008D01*
X19596595Y5449486D01*
X19596597Y5449484D01*
X19667327Y5402224D01*
X19768643Y5334527D01*
X19772810Y5332737D01*
X19772815Y5332734D01*
X19856883Y5296616D01*
X19962931Y5251054D01*
X20169177Y5204385D01*
X20294150Y5199475D01*
X20375941Y5196262D01*
X20375942Y5196262D01*
X20380474Y5196084D01*
X20589746Y5226427D01*
X20594045Y5227886D01*
X20594048Y5227887D01*
X20785683Y5292938D01*
X20789984Y5294398D01*
X20811823Y5306628D01*
X20966057Y5393004D01*
X20974482Y5397722D01*
X21030988Y5444717D01*
X21137062Y5532938D01*
X21138456Y5531262D01*
X21185513Y5555238D01*
X21245945Y5545667D01*
X21289210Y5502402D01*
X21300000Y5457457D01*
X21300000Y-5462612D01*
X21281093Y-5520803D01*
X21231593Y-5556767D01*
X21170407Y-5556767D01*
X21133799Y-5535310D01*
X21026754Y-5436358D01*
X21026753Y-5436357D01*
X21023424Y-5433280D01*
X20991056Y-5412857D01*
X20856685Y-5328076D01*
X20844586Y-5320442D01*
X20648180Y-5242084D01*
X20440783Y-5200830D01*
X20335062Y-5199446D01*
X20233880Y-5198121D01*
X20233875Y-5198121D01*
X20229341Y-5198062D01*
X20224866Y-5198831D01*
X20224865Y-5198831D01*
X20025404Y-5233105D01*
X20020935Y-5233873D01*
X19945859Y-5261570D01*
X19826807Y-5305490D01*
X19826804Y-5305491D01*
X19822544Y-5307063D01*
X19818641Y-5309385D01*
X19818639Y-5309386D01*
X19761643Y-5343295D01*
X19640814Y-5415181D01*
X19637399Y-5418176D01*
X19637396Y-5418178D01*
X19544588Y-5499569D01*
X19481830Y-5554606D01*
X19350916Y-5720670D01*
X19348803Y-5724685D01*
X19348803Y-5724686D01*
X19265277Y-5883443D01*
X19252457Y-5907809D01*
X19241227Y-5943976D01*
X19194658Y-6093953D01*
X19189750Y-6109758D01*
X19189216Y-6114268D01*
X19189216Y-6114269D01*
X19186239Y-6139427D01*
X19164896Y-6319753D01*
X19178726Y-6530760D01*
X19179842Y-6535153D01*
X19179842Y-6535155D01*
X19209973Y-6653794D01*
X19230778Y-6735714D01*
X19319308Y-6927750D01*
X19441351Y-7100437D01*
X19592820Y-7247992D01*
X19596595Y-7250514D01*
X19596597Y-7250516D01*
X19667327Y-7297776D01*
X19768643Y-7365473D01*
X19772810Y-7367263D01*
X19772815Y-7367266D01*
X19856883Y-7403384D01*
X19962931Y-7448946D01*
X20169177Y-7495615D01*
X20294150Y-7500525D01*
X20375941Y-7503738D01*
X20375942Y-7503738D01*
X20380474Y-7503916D01*
X20589746Y-7473573D01*
X20594045Y-7472114D01*
X20594048Y-7472113D01*
X20785683Y-7407062D01*
X20789984Y-7405602D01*
X20811823Y-7393372D01*
X20966057Y-7306996D01*
X20974482Y-7302278D01*
X21030988Y-7255283D01*
X21137062Y-7167062D01*
X21138456Y-7168738D01*
X21185513Y-7144762D01*
X21245945Y-7154333D01*
X21289210Y-7197598D01*
X21300000Y-7242543D01*
X21300000Y-8601000D01*
X21281093Y-8659191D01*
X21231593Y-8695155D01*
X21201000Y-8700000D01*
X-21201000Y-8700000D01*
X-21259191Y-8681093D01*
X-21295155Y-8631593D01*
X-21300000Y-8601000D01*
X-21300000Y-7236357D01*
X-21281093Y-7178166D01*
X-21231593Y-7142202D01*
X-21170407Y-7142202D01*
X-21131919Y-7165443D01*
X-21101432Y-7195142D01*
X-21047180Y-7247992D01*
X-21043405Y-7250514D01*
X-21043403Y-7250516D01*
X-20972673Y-7297776D01*
X-20871357Y-7365473D01*
X-20867190Y-7367263D01*
X-20867185Y-7367266D01*
X-20783117Y-7403384D01*
X-20677069Y-7448946D01*
X-20470823Y-7495615D01*
X-20345850Y-7500525D01*
X-20264059Y-7503738D01*
X-20264058Y-7503738D01*
X-20259526Y-7503916D01*
X-20050254Y-7473573D01*
X-20045955Y-7472114D01*
X-20045952Y-7472113D01*
X-19854317Y-7407062D01*
X-19850016Y-7405602D01*
X-19828177Y-7393372D01*
X-19673943Y-7306996D01*
X-19665518Y-7302278D01*
X-19609012Y-7255283D01*
X-19536701Y-7195142D01*
X-19502938Y-7167062D01*
X-19367722Y-7004482D01*
X-19283227Y-6853605D01*
X-19266616Y-6823945D01*
X-19266615Y-6823943D01*
X-19264398Y-6819984D01*
X-19247401Y-6769911D01*
X-19197887Y-6624048D01*
X-19197886Y-6624045D01*
X-19196427Y-6619746D01*
X-19184162Y-6535155D01*
X-19166504Y-6413374D01*
X-19166503Y-6413366D01*
X-19166084Y-6410474D01*
X-19164714Y-6358197D01*
X-19164576Y-6352913D01*
X-19164576Y-6352908D01*
X-19164500Y-6350000D01*
X-19173979Y-6246835D01*
X-19183434Y-6143945D01*
X-19183849Y-6139427D01*
X-19241248Y-5935906D01*
X-19291983Y-5833025D01*
X-19332763Y-5750330D01*
X-19332765Y-5750326D01*
X-19334774Y-5746253D01*
X-19461296Y-5576820D01*
X-19507273Y-5534319D01*
X-19544399Y-5500000D01*
X-18885500Y-5500000D01*
X-18885500Y-7200000D01*
X-18866051Y-7297776D01*
X-18810666Y-7380666D01*
X-18727776Y-7436051D01*
X-18630000Y-7455500D01*
X-16930000Y-7455500D01*
X-16832224Y-7436051D01*
X-16749334Y-7380666D01*
X-16693949Y-7297776D01*
X-16674500Y-7200000D01*
X-16674500Y-6616264D01*
X-16309103Y-6616264D01*
X-16302004Y-6653655D01*
X-16299386Y-6662665D01*
X-16225425Y-6848993D01*
X-16221145Y-6857356D01*
X-16113289Y-7026331D01*
X-16107511Y-7033727D01*
X-15969641Y-7179267D01*
X-15962571Y-7185435D01*
X-15799666Y-7302278D01*
X-15791559Y-7306996D01*
X-15609496Y-7390928D01*
X-15600648Y-7394027D01*
X-15509222Y-7416568D01*
X-15496620Y-7415654D01*
X-15494000Y-7406473D01*
X-15494000Y-6619680D01*
X-15496417Y-6612243D01*
X-14986000Y-6612243D01*
X-14986000Y-7409528D01*
X-14981878Y-7422213D01*
X-14980598Y-7423144D01*
X-14979108Y-7423274D01*
X-14789732Y-7358622D01*
X-14781188Y-7354764D01*
X-14607133Y-7255283D01*
X-14599468Y-7249876D01*
X-14447370Y-7119282D01*
X-14440857Y-7112514D01*
X-14316200Y-6955518D01*
X-14311089Y-6947647D01*
X-14218368Y-6769911D01*
X-14214834Y-6761207D01*
X-14172312Y-6619024D01*
X-14172590Y-6607216D01*
X-14182901Y-6604000D01*
X-14970320Y-6604000D01*
X-14983005Y-6608122D01*
X-14986000Y-6612243D01*
X-15496417Y-6612243D01*
X-15498122Y-6606995D01*
X-15502243Y-6604000D01*
X-16295751Y-6604000D01*
X-16308436Y-6608122D01*
X-16308601Y-6608348D01*
X-16309103Y-6616264D01*
X-16674500Y-6616264D01*
X-16674500Y-6452116D01*
X-13800774Y-6452116D01*
X-13799896Y-6456738D01*
X-13799896Y-6456743D01*
X-13774637Y-6589782D01*
X-13761605Y-6658425D01*
X-13684130Y-6853605D01*
X-13681590Y-6857584D01*
X-13573684Y-7026639D01*
X-13573680Y-7026644D01*
X-13571146Y-7030614D01*
X-13426728Y-7183064D01*
X-13422898Y-7185811D01*
X-13422897Y-7185812D01*
X-13264570Y-7299373D01*
X-13256089Y-7305456D01*
X-13251808Y-7307429D01*
X-13251809Y-7307429D01*
X-13070685Y-7390928D01*
X-13065384Y-7393372D01*
X-13060817Y-7394498D01*
X-13060814Y-7394499D01*
X-13024776Y-7403384D01*
X-12861495Y-7443641D01*
X-12777073Y-7447991D01*
X-12656484Y-7454206D01*
X-12656479Y-7454206D01*
X-12651779Y-7454448D01*
X-12647118Y-7453797D01*
X-12647115Y-7453797D01*
X-12448470Y-7426056D01*
X-12448467Y-7426055D01*
X-12443803Y-7425404D01*
X-12434456Y-7422213D01*
X-12249531Y-7359079D01*
X-12249528Y-7359078D01*
X-12245071Y-7357556D01*
X-12062754Y-7253354D01*
X-11903431Y-7116556D01*
X-11900497Y-7112861D01*
X-11775781Y-6955790D01*
X-11775779Y-6955787D01*
X-11772850Y-6952098D01*
X-11675723Y-6765916D01*
X-11615554Y-6564726D01*
X-11604215Y-6452116D01*
X-11260774Y-6452116D01*
X-11259896Y-6456738D01*
X-11259896Y-6456743D01*
X-11234637Y-6589782D01*
X-11221605Y-6658425D01*
X-11144130Y-6853605D01*
X-11141590Y-6857584D01*
X-11033684Y-7026639D01*
X-11033680Y-7026644D01*
X-11031146Y-7030614D01*
X-10886728Y-7183064D01*
X-10882898Y-7185811D01*
X-10882897Y-7185812D01*
X-10724570Y-7299373D01*
X-10716089Y-7305456D01*
X-10711808Y-7307429D01*
X-10711809Y-7307429D01*
X-10530685Y-7390928D01*
X-10525384Y-7393372D01*
X-10520817Y-7394498D01*
X-10520814Y-7394499D01*
X-10484776Y-7403384D01*
X-10321495Y-7443641D01*
X-10237073Y-7447991D01*
X-10116484Y-7454206D01*
X-10116479Y-7454206D01*
X-10111779Y-7454448D01*
X-10107118Y-7453797D01*
X-10107115Y-7453797D01*
X-9908470Y-7426056D01*
X-9908467Y-7426055D01*
X-9903803Y-7425404D01*
X-9894456Y-7422213D01*
X-9709531Y-7359079D01*
X-9709528Y-7359078D01*
X-9705071Y-7357556D01*
X-9522754Y-7253354D01*
X-9363431Y-7116556D01*
X-9360497Y-7112861D01*
X-9235781Y-6955790D01*
X-9235779Y-6955787D01*
X-9232850Y-6952098D01*
X-9135723Y-6765916D01*
X-9075554Y-6564726D01*
X-9064215Y-6452116D01*
X-8720774Y-6452116D01*
X-8719896Y-6456738D01*
X-8719896Y-6456743D01*
X-8694637Y-6589782D01*
X-8681605Y-6658425D01*
X-8604130Y-6853605D01*
X-8601590Y-6857584D01*
X-8493684Y-7026639D01*
X-8493680Y-7026644D01*
X-8491146Y-7030614D01*
X-8346728Y-7183064D01*
X-8342898Y-7185811D01*
X-8342897Y-7185812D01*
X-8184570Y-7299373D01*
X-8176089Y-7305456D01*
X-8171808Y-7307429D01*
X-8171809Y-7307429D01*
X-7990685Y-7390928D01*
X-7985384Y-7393372D01*
X-7980817Y-7394498D01*
X-7980814Y-7394499D01*
X-7944776Y-7403384D01*
X-7781495Y-7443641D01*
X-7697073Y-7447991D01*
X-7576484Y-7454206D01*
X-7576479Y-7454206D01*
X-7571779Y-7454448D01*
X-7567118Y-7453797D01*
X-7567115Y-7453797D01*
X-7368470Y-7426056D01*
X-7368467Y-7426055D01*
X-7363803Y-7425404D01*
X-7354456Y-7422213D01*
X-7169531Y-7359079D01*
X-7169528Y-7359078D01*
X-7165071Y-7357556D01*
X-6982754Y-7253354D01*
X-6823431Y-7116556D01*
X-6820497Y-7112861D01*
X-6695781Y-6955790D01*
X-6695779Y-6955787D01*
X-6692850Y-6952098D01*
X-6595723Y-6765916D01*
X-6535554Y-6564726D01*
X-6524215Y-6452116D01*
X-6180774Y-6452116D01*
X-6179896Y-6456738D01*
X-6179896Y-6456743D01*
X-6154637Y-6589782D01*
X-6141605Y-6658425D01*
X-6064130Y-6853605D01*
X-6061590Y-6857584D01*
X-5953684Y-7026639D01*
X-5953680Y-7026644D01*
X-5951146Y-7030614D01*
X-5806728Y-7183064D01*
X-5802898Y-7185811D01*
X-5802897Y-7185812D01*
X-5644570Y-7299373D01*
X-5636089Y-7305456D01*
X-5631808Y-7307429D01*
X-5631809Y-7307429D01*
X-5450685Y-7390928D01*
X-5445384Y-7393372D01*
X-5440817Y-7394498D01*
X-5440814Y-7394499D01*
X-5404776Y-7403384D01*
X-5241495Y-7443641D01*
X-5157073Y-7447991D01*
X-5036484Y-7454206D01*
X-5036479Y-7454206D01*
X-5031779Y-7454448D01*
X-5027118Y-7453797D01*
X-5027115Y-7453797D01*
X-4828470Y-7426056D01*
X-4828467Y-7426055D01*
X-4823803Y-7425404D01*
X-4814456Y-7422213D01*
X-4629531Y-7359079D01*
X-4629528Y-7359078D01*
X-4625071Y-7357556D01*
X-4442754Y-7253354D01*
X-4283431Y-7116556D01*
X-4280497Y-7112861D01*
X-4155781Y-6955790D01*
X-4155779Y-6955787D01*
X-4152850Y-6952098D01*
X-4055723Y-6765916D01*
X-3995554Y-6564726D01*
X-3984215Y-6452116D01*
X-3640774Y-6452116D01*
X-3639896Y-6456738D01*
X-3639896Y-6456743D01*
X-3614637Y-6589782D01*
X-3601605Y-6658425D01*
X-3524130Y-6853605D01*
X-3521590Y-6857584D01*
X-3413684Y-7026639D01*
X-3413680Y-7026644D01*
X-3411146Y-7030614D01*
X-3266728Y-7183064D01*
X-3262898Y-7185811D01*
X-3262897Y-7185812D01*
X-3104570Y-7299373D01*
X-3096089Y-7305456D01*
X-3091808Y-7307429D01*
X-3091809Y-7307429D01*
X-2910685Y-7390928D01*
X-2905384Y-7393372D01*
X-2900817Y-7394498D01*
X-2900814Y-7394499D01*
X-2864776Y-7403384D01*
X-2701495Y-7443641D01*
X-2617073Y-7447991D01*
X-2496484Y-7454206D01*
X-2496479Y-7454206D01*
X-2491779Y-7454448D01*
X-2487118Y-7453797D01*
X-2487115Y-7453797D01*
X-2288470Y-7426056D01*
X-2288467Y-7426055D01*
X-2283803Y-7425404D01*
X-2274456Y-7422213D01*
X-2089531Y-7359079D01*
X-2089528Y-7359078D01*
X-2085071Y-7357556D01*
X-1902754Y-7253354D01*
X-1743431Y-7116556D01*
X-1740497Y-7112861D01*
X-1615781Y-6955790D01*
X-1615779Y-6955787D01*
X-1612850Y-6952098D01*
X-1515723Y-6765916D01*
X-1455554Y-6564726D01*
X-1444215Y-6452116D01*
X-1100774Y-6452116D01*
X-1099896Y-6456738D01*
X-1099896Y-6456743D01*
X-1074637Y-6589782D01*
X-1061605Y-6658425D01*
X-984130Y-6853605D01*
X-981590Y-6857584D01*
X-873684Y-7026639D01*
X-873680Y-7026644D01*
X-871146Y-7030614D01*
X-726728Y-7183064D01*
X-722898Y-7185811D01*
X-722897Y-7185812D01*
X-564570Y-7299373D01*
X-556089Y-7305456D01*
X-551808Y-7307429D01*
X-551809Y-7307429D01*
X-370685Y-7390928D01*
X-365384Y-7393372D01*
X-360817Y-7394498D01*
X-360814Y-7394499D01*
X-324776Y-7403384D01*
X-161495Y-7443641D01*
X-77073Y-7447991D01*
X43516Y-7454206D01*
X43521Y-7454206D01*
X48221Y-7454448D01*
X52882Y-7453797D01*
X52885Y-7453797D01*
X251530Y-7426056D01*
X251533Y-7426055D01*
X256197Y-7425404D01*
X265544Y-7422213D01*
X450469Y-7359079D01*
X450472Y-7359078D01*
X454929Y-7357556D01*
X637246Y-7253354D01*
X796569Y-7116556D01*
X799503Y-7112861D01*
X924219Y-6955790D01*
X924221Y-6955787D01*
X927150Y-6952098D01*
X1024277Y-6765916D01*
X1084446Y-6564726D01*
X1095785Y-6452116D01*
X1439226Y-6452116D01*
X1440104Y-6456738D01*
X1440104Y-6456743D01*
X1465363Y-6589782D01*
X1478395Y-6658425D01*
X1555870Y-6853605D01*
X1558410Y-6857584D01*
X1666316Y-7026639D01*
X1666320Y-7026644D01*
X1668854Y-7030614D01*
X1813272Y-7183064D01*
X1817102Y-7185811D01*
X1817103Y-7185812D01*
X1975430Y-7299373D01*
X1983911Y-7305456D01*
X1988192Y-7307429D01*
X1988191Y-7307429D01*
X2169315Y-7390928D01*
X2174616Y-7393372D01*
X2179183Y-7394498D01*
X2179186Y-7394499D01*
X2215224Y-7403384D01*
X2378505Y-7443641D01*
X2462927Y-7447991D01*
X2583516Y-7454206D01*
X2583521Y-7454206D01*
X2588221Y-7454448D01*
X2592882Y-7453797D01*
X2592885Y-7453797D01*
X2791530Y-7426056D01*
X2791533Y-7426055D01*
X2796197Y-7425404D01*
X2805544Y-7422213D01*
X2990469Y-7359079D01*
X2990472Y-7359078D01*
X2994929Y-7357556D01*
X3177246Y-7253354D01*
X3336569Y-7116556D01*
X3339503Y-7112861D01*
X3464219Y-6955790D01*
X3464221Y-6955787D01*
X3467150Y-6952098D01*
X3564277Y-6765916D01*
X3624446Y-6564726D01*
X3635785Y-6452116D01*
X3979226Y-6452116D01*
X3980104Y-6456738D01*
X3980104Y-6456743D01*
X4005363Y-6589782D01*
X4018395Y-6658425D01*
X4095870Y-6853605D01*
X4098410Y-6857584D01*
X4206316Y-7026639D01*
X4206320Y-7026644D01*
X4208854Y-7030614D01*
X4353272Y-7183064D01*
X4357102Y-7185811D01*
X4357103Y-7185812D01*
X4515430Y-7299373D01*
X4523911Y-7305456D01*
X4528192Y-7307429D01*
X4528191Y-7307429D01*
X4709315Y-7390928D01*
X4714616Y-7393372D01*
X4719183Y-7394498D01*
X4719186Y-7394499D01*
X4755224Y-7403384D01*
X4918505Y-7443641D01*
X5002927Y-7447991D01*
X5123516Y-7454206D01*
X5123521Y-7454206D01*
X5128221Y-7454448D01*
X5132882Y-7453797D01*
X5132885Y-7453797D01*
X5331530Y-7426056D01*
X5331533Y-7426055D01*
X5336197Y-7425404D01*
X5345544Y-7422213D01*
X5530469Y-7359079D01*
X5530472Y-7359078D01*
X5534929Y-7357556D01*
X5717246Y-7253354D01*
X5876569Y-7116556D01*
X5879503Y-7112861D01*
X6004219Y-6955790D01*
X6004221Y-6955787D01*
X6007150Y-6952098D01*
X6104277Y-6765916D01*
X6164446Y-6564726D01*
X6175785Y-6452116D01*
X6519226Y-6452116D01*
X6520104Y-6456738D01*
X6520104Y-6456743D01*
X6545363Y-6589782D01*
X6558395Y-6658425D01*
X6635870Y-6853605D01*
X6638410Y-6857584D01*
X6746316Y-7026639D01*
X6746320Y-7026644D01*
X6748854Y-7030614D01*
X6893272Y-7183064D01*
X6897102Y-7185811D01*
X6897103Y-7185812D01*
X7055430Y-7299373D01*
X7063911Y-7305456D01*
X7068192Y-7307429D01*
X7068191Y-7307429D01*
X7249315Y-7390928D01*
X7254616Y-7393372D01*
X7259183Y-7394498D01*
X7259186Y-7394499D01*
X7295224Y-7403384D01*
X7458505Y-7443641D01*
X7542927Y-7447991D01*
X7663516Y-7454206D01*
X7663521Y-7454206D01*
X7668221Y-7454448D01*
X7672882Y-7453797D01*
X7672885Y-7453797D01*
X7871530Y-7426056D01*
X7871533Y-7426055D01*
X7876197Y-7425404D01*
X7885544Y-7422213D01*
X8070469Y-7359079D01*
X8070472Y-7359078D01*
X8074929Y-7357556D01*
X8257246Y-7253354D01*
X8416569Y-7116556D01*
X8419503Y-7112861D01*
X8544219Y-6955790D01*
X8544221Y-6955787D01*
X8547150Y-6952098D01*
X8644277Y-6765916D01*
X8704446Y-6564726D01*
X8715785Y-6452116D01*
X9059226Y-6452116D01*
X9060104Y-6456738D01*
X9060104Y-6456743D01*
X9085363Y-6589782D01*
X9098395Y-6658425D01*
X9175870Y-6853605D01*
X9178410Y-6857584D01*
X9286316Y-7026639D01*
X9286320Y-7026644D01*
X9288854Y-7030614D01*
X9433272Y-7183064D01*
X9437102Y-7185811D01*
X9437103Y-7185812D01*
X9595430Y-7299373D01*
X9603911Y-7305456D01*
X9608192Y-7307429D01*
X9608191Y-7307429D01*
X9789315Y-7390928D01*
X9794616Y-7393372D01*
X9799183Y-7394498D01*
X9799186Y-7394499D01*
X9835224Y-7403384D01*
X9998505Y-7443641D01*
X10082927Y-7447991D01*
X10203516Y-7454206D01*
X10203521Y-7454206D01*
X10208221Y-7454448D01*
X10212882Y-7453797D01*
X10212885Y-7453797D01*
X10411530Y-7426056D01*
X10411533Y-7426055D01*
X10416197Y-7425404D01*
X10425544Y-7422213D01*
X10610469Y-7359079D01*
X10610472Y-7359078D01*
X10614929Y-7357556D01*
X10797246Y-7253354D01*
X10956569Y-7116556D01*
X10959503Y-7112861D01*
X11084219Y-6955790D01*
X11084221Y-6955787D01*
X11087150Y-6952098D01*
X11184277Y-6765916D01*
X11244446Y-6564726D01*
X11255785Y-6452116D01*
X11599226Y-6452116D01*
X11600104Y-6456738D01*
X11600104Y-6456743D01*
X11625363Y-6589782D01*
X11638395Y-6658425D01*
X11715870Y-6853605D01*
X11718410Y-6857584D01*
X11826316Y-7026639D01*
X11826320Y-7026644D01*
X11828854Y-7030614D01*
X11973272Y-7183064D01*
X11977102Y-7185811D01*
X11977103Y-7185812D01*
X12135430Y-7299373D01*
X12143911Y-7305456D01*
X12148192Y-7307429D01*
X12148191Y-7307429D01*
X12329315Y-7390928D01*
X12334616Y-7393372D01*
X12339183Y-7394498D01*
X12339186Y-7394499D01*
X12375224Y-7403384D01*
X12538505Y-7443641D01*
X12622927Y-7447991D01*
X12743516Y-7454206D01*
X12743521Y-7454206D01*
X12748221Y-7454448D01*
X12752882Y-7453797D01*
X12752885Y-7453797D01*
X12951530Y-7426056D01*
X12951533Y-7426055D01*
X12956197Y-7425404D01*
X12965544Y-7422213D01*
X13150469Y-7359079D01*
X13150472Y-7359078D01*
X13154929Y-7357556D01*
X13337246Y-7253354D01*
X13496569Y-7116556D01*
X13499503Y-7112861D01*
X13624219Y-6955790D01*
X13624221Y-6955787D01*
X13627150Y-6952098D01*
X13724277Y-6765916D01*
X13784446Y-6564726D01*
X13805485Y-6355788D01*
X13805500Y-6350000D01*
X13785555Y-6140955D01*
X13726441Y-5939453D01*
X13710144Y-5907809D01*
X13632447Y-5756952D01*
X13630290Y-5752764D01*
X13622316Y-5742612D01*
X13503485Y-5591334D01*
X13503483Y-5591332D01*
X13500572Y-5587626D01*
X13497016Y-5584540D01*
X13497012Y-5584536D01*
X13345527Y-5453084D01*
X13345526Y-5453083D01*
X13341967Y-5449995D01*
X13160198Y-5344839D01*
X13071147Y-5313915D01*
X12966270Y-5277495D01*
X12966264Y-5277494D01*
X12961825Y-5275952D01*
X12754003Y-5245820D01*
X12629289Y-5251592D01*
X12548942Y-5255311D01*
X12548941Y-5255311D01*
X12544234Y-5255529D01*
X12340084Y-5304729D01*
X12335796Y-5306679D01*
X12335795Y-5306679D01*
X12319881Y-5313915D01*
X12148922Y-5391646D01*
X11977644Y-5513142D01*
X11832430Y-5664834D01*
X11718520Y-5841249D01*
X11716762Y-5845610D01*
X11716762Y-5845611D01*
X11677045Y-5944163D01*
X11640025Y-6036021D01*
X11639124Y-6040634D01*
X11639123Y-6040638D01*
X11618616Y-6145650D01*
X11599776Y-6242122D01*
X11599226Y-6452116D01*
X11255785Y-6452116D01*
X11265485Y-6355788D01*
X11265500Y-6350000D01*
X11245555Y-6140955D01*
X11186441Y-5939453D01*
X11170144Y-5907809D01*
X11092447Y-5756952D01*
X11090290Y-5752764D01*
X11082316Y-5742612D01*
X10963485Y-5591334D01*
X10963483Y-5591332D01*
X10960572Y-5587626D01*
X10957016Y-5584540D01*
X10957012Y-5584536D01*
X10805527Y-5453084D01*
X10805526Y-5453083D01*
X10801967Y-5449995D01*
X10620198Y-5344839D01*
X10531147Y-5313915D01*
X10426270Y-5277495D01*
X10426264Y-5277494D01*
X10421825Y-5275952D01*
X10214003Y-5245820D01*
X10089289Y-5251592D01*
X10008942Y-5255311D01*
X10008941Y-5255311D01*
X10004234Y-5255529D01*
X9800084Y-5304729D01*
X9795796Y-5306679D01*
X9795795Y-5306679D01*
X9779881Y-5313915D01*
X9608922Y-5391646D01*
X9437644Y-5513142D01*
X9292430Y-5664834D01*
X9178520Y-5841249D01*
X9176762Y-5845610D01*
X9176762Y-5845611D01*
X9137045Y-5944163D01*
X9100025Y-6036021D01*
X9099124Y-6040634D01*
X9099123Y-6040638D01*
X9078616Y-6145650D01*
X9059776Y-6242122D01*
X9059226Y-6452116D01*
X8715785Y-6452116D01*
X8725485Y-6355788D01*
X8725500Y-6350000D01*
X8705555Y-6140955D01*
X8646441Y-5939453D01*
X8646016Y-5938628D01*
X8642043Y-5878736D01*
X8668012Y-5833025D01*
X11396541Y-3104496D01*
X11451058Y-3076719D01*
X11466545Y-3075500D01*
X11731121Y-3075500D01*
X11785979Y-3092089D01*
X11882377Y-3156257D01*
X11889104Y-3158359D01*
X11889107Y-3158360D01*
X12012448Y-3196894D01*
X12012449Y-3196894D01*
X12019180Y-3198997D01*
X12090831Y-3200311D01*
X12155427Y-3201495D01*
X12155429Y-3201495D01*
X12162481Y-3201624D01*
X12169284Y-3199769D01*
X12169286Y-3199769D01*
X12216065Y-3187015D01*
X12300758Y-3163925D01*
X12422897Y-3088931D01*
X12435054Y-3075500D01*
X12514346Y-2987900D01*
X12514346Y-2987899D01*
X12519078Y-2982672D01*
X12581570Y-2853689D01*
X12583043Y-2844938D01*
X12604715Y-2716120D01*
X12604715Y-2716117D01*
X12605349Y-2712350D01*
X12605500Y-2700000D01*
X12585182Y-2558123D01*
X12581983Y-2551086D01*
X12528780Y-2434073D01*
X12528780Y-2434072D01*
X12525860Y-2427651D01*
X12432303Y-2319074D01*
X12312033Y-2241118D01*
X12305275Y-2239097D01*
X12305273Y-2239096D01*
X12181479Y-2202074D01*
X12174718Y-2200052D01*
X12088694Y-2199527D01*
X12038448Y-2199220D01*
X12031396Y-2199177D01*
X12024620Y-2201114D01*
X12024617Y-2201114D01*
X11900369Y-2236624D01*
X11900367Y-2236625D01*
X11893589Y-2238562D01*
X11887627Y-2242323D01*
X11887624Y-2242325D01*
X11781591Y-2309227D01*
X11728763Y-2324500D01*
X11319724Y-2324500D01*
X11298888Y-2322282D01*
X11297284Y-2321937D01*
X11287925Y-2319922D01*
X11255042Y-2323814D01*
X11245622Y-2324369D01*
X11244037Y-2324500D01*
X11239961Y-2324500D01*
X11235939Y-2325169D01*
X11235933Y-2325170D01*
X11219415Y-2327920D01*
X11214795Y-2328578D01*
X11171971Y-2333646D01*
X11171970Y-2333646D01*
X11163844Y-2334608D01*
X11156941Y-2337923D01*
X11154297Y-2338759D01*
X11146749Y-2340015D01*
X11101608Y-2364372D01*
X11097458Y-2366487D01*
X11051211Y-2388694D01*
X11045302Y-2393660D01*
X11043799Y-2395163D01*
X11043643Y-2395306D01*
X11042519Y-2396254D01*
X11036789Y-2399346D01*
X11022939Y-2414329D01*
X11003558Y-2435295D01*
X11000864Y-2438098D01*
X9546881Y-3892082D01*
X8134405Y-5304558D01*
X8079888Y-5332335D01*
X8031926Y-5328076D01*
X7983970Y-5311423D01*
X7886270Y-5277495D01*
X7886264Y-5277494D01*
X7881825Y-5275952D01*
X7674003Y-5245820D01*
X7549289Y-5251592D01*
X7468942Y-5255311D01*
X7468941Y-5255311D01*
X7464234Y-5255529D01*
X7260084Y-5304729D01*
X7255796Y-5306679D01*
X7255795Y-5306679D01*
X7239881Y-5313915D01*
X7068922Y-5391646D01*
X6897644Y-5513142D01*
X6752430Y-5664834D01*
X6638520Y-5841249D01*
X6636762Y-5845610D01*
X6636762Y-5845611D01*
X6597045Y-5944163D01*
X6560025Y-6036021D01*
X6559124Y-6040634D01*
X6559123Y-6040638D01*
X6538616Y-6145650D01*
X6519776Y-6242122D01*
X6519226Y-6452116D01*
X6175785Y-6452116D01*
X6185485Y-6355788D01*
X6185500Y-6350000D01*
X6165555Y-6140955D01*
X6106441Y-5939453D01*
X6090144Y-5907809D01*
X6012447Y-5756952D01*
X6010290Y-5752764D01*
X6002316Y-5742612D01*
X5883485Y-5591334D01*
X5883483Y-5591332D01*
X5880572Y-5587626D01*
X5877016Y-5584540D01*
X5877012Y-5584536D01*
X5725527Y-5453084D01*
X5725526Y-5453083D01*
X5721967Y-5449995D01*
X5540198Y-5344839D01*
X5451147Y-5313915D01*
X5346270Y-5277495D01*
X5346264Y-5277494D01*
X5341825Y-5275952D01*
X5134003Y-5245820D01*
X5009289Y-5251592D01*
X4928942Y-5255311D01*
X4928941Y-5255311D01*
X4924234Y-5255529D01*
X4720084Y-5304729D01*
X4715796Y-5306679D01*
X4715795Y-5306679D01*
X4699881Y-5313915D01*
X4528922Y-5391646D01*
X4357644Y-5513142D01*
X4212430Y-5664834D01*
X4098520Y-5841249D01*
X4096762Y-5845610D01*
X4096762Y-5845611D01*
X4057045Y-5944163D01*
X4020025Y-6036021D01*
X4019124Y-6040634D01*
X4019123Y-6040638D01*
X3998616Y-6145650D01*
X3979776Y-6242122D01*
X3979226Y-6452116D01*
X3635785Y-6452116D01*
X3645485Y-6355788D01*
X3645500Y-6350000D01*
X3625555Y-6140955D01*
X3566441Y-5939453D01*
X3550144Y-5907809D01*
X3472447Y-5756952D01*
X3470290Y-5752764D01*
X3462316Y-5742612D01*
X3343485Y-5591334D01*
X3343483Y-5591332D01*
X3340572Y-5587626D01*
X3337016Y-5584540D01*
X3337012Y-5584536D01*
X3185527Y-5453084D01*
X3185526Y-5453083D01*
X3181967Y-5449995D01*
X3000198Y-5344839D01*
X2911147Y-5313915D01*
X2806270Y-5277495D01*
X2806264Y-5277494D01*
X2801825Y-5275952D01*
X2594003Y-5245820D01*
X2469289Y-5251592D01*
X2388942Y-5255311D01*
X2388941Y-5255311D01*
X2384234Y-5255529D01*
X2180084Y-5304729D01*
X2175796Y-5306679D01*
X2175795Y-5306679D01*
X2159881Y-5313915D01*
X1988922Y-5391646D01*
X1817644Y-5513142D01*
X1672430Y-5664834D01*
X1558520Y-5841249D01*
X1556762Y-5845610D01*
X1556762Y-5845611D01*
X1517045Y-5944163D01*
X1480025Y-6036021D01*
X1479124Y-6040634D01*
X1479123Y-6040638D01*
X1458616Y-6145650D01*
X1439776Y-6242122D01*
X1439226Y-6452116D01*
X1095785Y-6452116D01*
X1105485Y-6355788D01*
X1105500Y-6350000D01*
X1085555Y-6140955D01*
X1026441Y-5939453D01*
X1010144Y-5907809D01*
X932447Y-5756952D01*
X930290Y-5752764D01*
X922316Y-5742612D01*
X803485Y-5591334D01*
X803483Y-5591332D01*
X800572Y-5587626D01*
X797016Y-5584540D01*
X797012Y-5584536D01*
X645527Y-5453084D01*
X645526Y-5453083D01*
X641967Y-5449995D01*
X460198Y-5344839D01*
X371147Y-5313915D01*
X266270Y-5277495D01*
X266264Y-5277494D01*
X261825Y-5275952D01*
X54003Y-5245820D01*
X-70711Y-5251592D01*
X-151058Y-5255311D01*
X-151059Y-5255311D01*
X-155766Y-5255529D01*
X-359916Y-5304729D01*
X-364204Y-5306679D01*
X-364205Y-5306679D01*
X-380119Y-5313915D01*
X-551078Y-5391646D01*
X-722356Y-5513142D01*
X-867570Y-5664834D01*
X-981480Y-5841249D01*
X-983238Y-5845610D01*
X-983238Y-5845611D01*
X-1022955Y-5944163D01*
X-1059975Y-6036021D01*
X-1060876Y-6040634D01*
X-1060877Y-6040638D01*
X-1081384Y-6145650D01*
X-1100224Y-6242122D01*
X-1100774Y-6452116D01*
X-1444215Y-6452116D01*
X-1434515Y-6355788D01*
X-1434500Y-6350000D01*
X-1454445Y-6140955D01*
X-1513559Y-5939453D01*
X-1529856Y-5907809D01*
X-1607553Y-5756952D01*
X-1609710Y-5752764D01*
X-1617684Y-5742612D01*
X-1736515Y-5591334D01*
X-1736517Y-5591332D01*
X-1739428Y-5587626D01*
X-1742984Y-5584540D01*
X-1742988Y-5584536D01*
X-1894473Y-5453084D01*
X-1894474Y-5453083D01*
X-1898033Y-5449995D01*
X-2079802Y-5344839D01*
X-2168853Y-5313915D01*
X-2273730Y-5277495D01*
X-2273736Y-5277494D01*
X-2278175Y-5275952D01*
X-2485997Y-5245820D01*
X-2610711Y-5251592D01*
X-2691058Y-5255311D01*
X-2691059Y-5255311D01*
X-2695766Y-5255529D01*
X-2899916Y-5304729D01*
X-2904204Y-5306679D01*
X-2904205Y-5306679D01*
X-2920119Y-5313915D01*
X-3091078Y-5391646D01*
X-3262356Y-5513142D01*
X-3407570Y-5664834D01*
X-3521480Y-5841249D01*
X-3523238Y-5845610D01*
X-3523238Y-5845611D01*
X-3562955Y-5944163D01*
X-3599975Y-6036021D01*
X-3600876Y-6040634D01*
X-3600877Y-6040638D01*
X-3621384Y-6145650D01*
X-3640224Y-6242122D01*
X-3640774Y-6452116D01*
X-3984215Y-6452116D01*
X-3974515Y-6355788D01*
X-3974500Y-6350000D01*
X-3994445Y-6140955D01*
X-4053559Y-5939453D01*
X-4069856Y-5907809D01*
X-4147553Y-5756952D01*
X-4149710Y-5752764D01*
X-4157684Y-5742612D01*
X-4276515Y-5591334D01*
X-4276517Y-5591332D01*
X-4279428Y-5587626D01*
X-4282984Y-5584540D01*
X-4282988Y-5584536D01*
X-4434473Y-5453084D01*
X-4434474Y-5453083D01*
X-4438033Y-5449995D01*
X-4619802Y-5344839D01*
X-4708853Y-5313915D01*
X-4813730Y-5277495D01*
X-4813736Y-5277494D01*
X-4818175Y-5275952D01*
X-5025997Y-5245820D01*
X-5150711Y-5251592D01*
X-5231058Y-5255311D01*
X-5231059Y-5255311D01*
X-5235766Y-5255529D01*
X-5439916Y-5304729D01*
X-5444204Y-5306679D01*
X-5444205Y-5306679D01*
X-5460119Y-5313915D01*
X-5631078Y-5391646D01*
X-5802356Y-5513142D01*
X-5947570Y-5664834D01*
X-6061480Y-5841249D01*
X-6063238Y-5845610D01*
X-6063238Y-5845611D01*
X-6102955Y-5944163D01*
X-6139975Y-6036021D01*
X-6140876Y-6040634D01*
X-6140877Y-6040638D01*
X-6161384Y-6145650D01*
X-6180224Y-6242122D01*
X-6180774Y-6452116D01*
X-6524215Y-6452116D01*
X-6514515Y-6355788D01*
X-6514500Y-6350000D01*
X-6534445Y-6140955D01*
X-6593559Y-5939453D01*
X-6609856Y-5907809D01*
X-6687553Y-5756952D01*
X-6689710Y-5752764D01*
X-6697684Y-5742612D01*
X-6816515Y-5591334D01*
X-6816517Y-5591332D01*
X-6819428Y-5587626D01*
X-6822984Y-5584540D01*
X-6822988Y-5584536D01*
X-6974473Y-5453084D01*
X-6974474Y-5453083D01*
X-6978033Y-5449995D01*
X-7159802Y-5344839D01*
X-7248853Y-5313915D01*
X-7353730Y-5277495D01*
X-7353736Y-5277494D01*
X-7358175Y-5275952D01*
X-7565997Y-5245820D01*
X-7690711Y-5251592D01*
X-7771058Y-5255311D01*
X-7771059Y-5255311D01*
X-7775766Y-5255529D01*
X-7979916Y-5304729D01*
X-7984204Y-5306679D01*
X-7984205Y-5306679D01*
X-8000119Y-5313915D01*
X-8171078Y-5391646D01*
X-8342356Y-5513142D01*
X-8487570Y-5664834D01*
X-8601480Y-5841249D01*
X-8603238Y-5845610D01*
X-8603238Y-5845611D01*
X-8642955Y-5944163D01*
X-8679975Y-6036021D01*
X-8680876Y-6040634D01*
X-8680877Y-6040638D01*
X-8701384Y-6145650D01*
X-8720224Y-6242122D01*
X-8720774Y-6452116D01*
X-9064215Y-6452116D01*
X-9054515Y-6355788D01*
X-9054500Y-6350000D01*
X-9074445Y-6140955D01*
X-9133559Y-5939453D01*
X-9149856Y-5907809D01*
X-9227553Y-5756952D01*
X-9229710Y-5752764D01*
X-9237684Y-5742612D01*
X-9356515Y-5591334D01*
X-9356517Y-5591332D01*
X-9359428Y-5587626D01*
X-9362984Y-5584540D01*
X-9362988Y-5584536D01*
X-9514473Y-5453084D01*
X-9514474Y-5453083D01*
X-9518033Y-5449995D01*
X-9699802Y-5344839D01*
X-9788853Y-5313915D01*
X-9893730Y-5277495D01*
X-9893736Y-5277494D01*
X-9898175Y-5275952D01*
X-10105997Y-5245820D01*
X-10230711Y-5251592D01*
X-10311058Y-5255311D01*
X-10311059Y-5255311D01*
X-10315766Y-5255529D01*
X-10519916Y-5304729D01*
X-10524204Y-5306679D01*
X-10524205Y-5306679D01*
X-10540119Y-5313915D01*
X-10711078Y-5391646D01*
X-10882356Y-5513142D01*
X-11027570Y-5664834D01*
X-11141480Y-5841249D01*
X-11143238Y-5845610D01*
X-11143238Y-5845611D01*
X-11182955Y-5944163D01*
X-11219975Y-6036021D01*
X-11220876Y-6040634D01*
X-11220877Y-6040638D01*
X-11241384Y-6145650D01*
X-11260224Y-6242122D01*
X-11260774Y-6452116D01*
X-11604215Y-6452116D01*
X-11594515Y-6355788D01*
X-11594500Y-6350000D01*
X-11614445Y-6140955D01*
X-11673559Y-5939453D01*
X-11689856Y-5907809D01*
X-11767553Y-5756952D01*
X-11769710Y-5752764D01*
X-11777684Y-5742612D01*
X-11896515Y-5591334D01*
X-11896517Y-5591332D01*
X-11899428Y-5587626D01*
X-11902984Y-5584540D01*
X-11902988Y-5584536D01*
X-12054473Y-5453084D01*
X-12054474Y-5453083D01*
X-12058033Y-5449995D01*
X-12239802Y-5344839D01*
X-12328853Y-5313915D01*
X-12433730Y-5277495D01*
X-12433736Y-5277494D01*
X-12438175Y-5275952D01*
X-12645997Y-5245820D01*
X-12770711Y-5251592D01*
X-12851058Y-5255311D01*
X-12851059Y-5255311D01*
X-12855766Y-5255529D01*
X-13059916Y-5304729D01*
X-13064204Y-5306679D01*
X-13064205Y-5306679D01*
X-13080119Y-5313915D01*
X-13251078Y-5391646D01*
X-13422356Y-5513142D01*
X-13567570Y-5664834D01*
X-13681480Y-5841249D01*
X-13683238Y-5845610D01*
X-13683238Y-5845611D01*
X-13722955Y-5944163D01*
X-13759975Y-6036021D01*
X-13760876Y-6040634D01*
X-13760877Y-6040638D01*
X-13781384Y-6145650D01*
X-13800224Y-6242122D01*
X-13800774Y-6452116D01*
X-16674500Y-6452116D01*
X-16674500Y-6080613D01*
X-16308176Y-6080613D01*
X-16306563Y-6093849D01*
X-16306466Y-6093953D01*
X-16298565Y-6096000D01*
X-15509680Y-6096000D01*
X-15496995Y-6091878D01*
X-15494000Y-6087757D01*
X-15494000Y-5295395D01*
X-15496822Y-5286708D01*
X-14986000Y-5286708D01*
X-14986000Y-6080320D01*
X-14981878Y-6093005D01*
X-14977757Y-6096000D01*
X-14183832Y-6096000D01*
X-14172514Y-6092323D01*
X-14172361Y-6081653D01*
X-14212696Y-5944163D01*
X-14216180Y-5935451D01*
X-14307974Y-5757222D01*
X-14313044Y-5749326D01*
X-14436878Y-5591677D01*
X-14443347Y-5584884D01*
X-14594763Y-5453491D01*
X-14602405Y-5448041D01*
X-14775934Y-5347652D01*
X-14784457Y-5343750D01*
X-14973527Y-5278093D01*
X-14983627Y-5279829D01*
X-14984638Y-5280867D01*
X-14986000Y-5286708D01*
X-15496822Y-5286708D01*
X-15497932Y-5283293D01*
X-15507333Y-5282928D01*
X-15595170Y-5304097D01*
X-15604042Y-5307152D01*
X-15786540Y-5390129D01*
X-15794672Y-5394805D01*
X-15958187Y-5510794D01*
X-15965287Y-5516923D01*
X-16103920Y-5661740D01*
X-16109734Y-5669103D01*
X-16218483Y-5837525D01*
X-16222794Y-5845841D01*
X-16297735Y-6031793D01*
X-16300399Y-6040789D01*
X-16308176Y-6080613D01*
X-16674500Y-6080613D01*
X-16674500Y-5500000D01*
X-16693949Y-5402224D01*
X-16749334Y-5319334D01*
X-16832224Y-5263949D01*
X-16930000Y-5244500D01*
X-18630000Y-5244500D01*
X-18727776Y-5263949D01*
X-18810666Y-5319334D01*
X-18866051Y-5402224D01*
X-18885500Y-5500000D01*
X-19544399Y-5500000D01*
X-19613246Y-5436358D01*
X-19613247Y-5436357D01*
X-19616576Y-5433280D01*
X-19648944Y-5412857D01*
X-19783315Y-5328076D01*
X-19795414Y-5320442D01*
X-19991820Y-5242084D01*
X-20199217Y-5200830D01*
X-20304938Y-5199446D01*
X-20406120Y-5198121D01*
X-20406125Y-5198121D01*
X-20410659Y-5198062D01*
X-20415134Y-5198831D01*
X-20415135Y-5198831D01*
X-20614596Y-5233105D01*
X-20619065Y-5233873D01*
X-20694141Y-5261570D01*
X-20813193Y-5305490D01*
X-20813196Y-5305491D01*
X-20817456Y-5307063D01*
X-20821359Y-5309385D01*
X-20821361Y-5309386D01*
X-20878357Y-5343295D01*
X-20999186Y-5415181D01*
X-21002601Y-5418176D01*
X-21002604Y-5418178D01*
X-21135725Y-5534922D01*
X-21191942Y-5559075D01*
X-21251618Y-5545571D01*
X-21291960Y-5499569D01*
X-21300000Y-5460490D01*
X-21300000Y-3676273D01*
X-18311391Y-3676273D01*
X-18305336Y-3682922D01*
X-18180752Y-3761833D01*
X-18173342Y-3765690D01*
X-17965736Y-3852322D01*
X-17957770Y-3854879D01*
X-17738527Y-3905294D01*
X-17730262Y-3906470D01*
X-17505649Y-3919225D01*
X-17497303Y-3918991D01*
X-17273762Y-3893719D01*
X-17265566Y-3892082D01*
X-17049476Y-3829506D01*
X-17041684Y-3826515D01*
X-16839222Y-3728423D01*
X-16832040Y-3724158D01*
X-16776569Y-3684518D01*
X-16770479Y-3676273D01*
X-13231391Y-3676273D01*
X-13225336Y-3682922D01*
X-13100752Y-3761833D01*
X-13093342Y-3765690D01*
X-12885736Y-3852322D01*
X-12877770Y-3854879D01*
X-12658527Y-3905294D01*
X-12650262Y-3906470D01*
X-12425649Y-3919225D01*
X-12417303Y-3918991D01*
X-12193762Y-3893719D01*
X-12185566Y-3892082D01*
X-11969476Y-3829506D01*
X-11961684Y-3826515D01*
X-11759222Y-3728423D01*
X-11752040Y-3724158D01*
X-11696569Y-3684518D01*
X-11688643Y-3673787D01*
X-11688636Y-3672899D01*
X-11692233Y-3666977D01*
X-12448914Y-2910296D01*
X-12460797Y-2904242D01*
X-12465828Y-2905038D01*
X-13225500Y-3664710D01*
X-13231391Y-3676273D01*
X-16770479Y-3676273D01*
X-16768643Y-3673787D01*
X-16768636Y-3672899D01*
X-16772233Y-3666977D01*
X-17528914Y-2910296D01*
X-17540797Y-2904242D01*
X-17545828Y-2905038D01*
X-18305500Y-3664710D01*
X-18311391Y-3676273D01*
X-21300000Y-3676273D01*
X-21300000Y-2639279D01*
X-18916075Y-2639279D01*
X-18915448Y-2647609D01*
X-18879675Y-2869711D01*
X-18877652Y-2877823D01*
X-18804970Y-3090715D01*
X-18801610Y-3098371D01*
X-18694094Y-3295980D01*
X-18689490Y-3302961D01*
X-18687155Y-3305923D01*
X-18676065Y-3313333D01*
X-18673919Y-3313248D01*
X-18669861Y-3310651D01*
X-17910296Y-2551086D01*
X-17905054Y-2540797D01*
X-17175758Y-2540797D01*
X-17174962Y-2545828D01*
X-16415827Y-3304963D01*
X-16403944Y-3311017D01*
X-16403298Y-3310915D01*
X-16397773Y-3306117D01*
X-16349706Y-3237597D01*
X-16345507Y-3230380D01*
X-16249185Y-3027071D01*
X-16246262Y-3019253D01*
X-16185574Y-2802621D01*
X-16184010Y-2794420D01*
X-16167840Y-2639279D01*
X-13836075Y-2639279D01*
X-13835448Y-2647609D01*
X-13799675Y-2869711D01*
X-13797652Y-2877823D01*
X-13724970Y-3090715D01*
X-13721610Y-3098371D01*
X-13614094Y-3295980D01*
X-13609490Y-3302961D01*
X-13607155Y-3305923D01*
X-13596065Y-3313333D01*
X-13593919Y-3313248D01*
X-13589861Y-3310651D01*
X-12830296Y-2551086D01*
X-12825054Y-2540797D01*
X-12095758Y-2540797D01*
X-12094962Y-2545828D01*
X-11335827Y-3304963D01*
X-11323944Y-3311017D01*
X-11323298Y-3310915D01*
X-11317773Y-3306117D01*
X-11269706Y-3237597D01*
X-11265507Y-3230380D01*
X-11169185Y-3027071D01*
X-11166262Y-3019253D01*
X-11105574Y-2802621D01*
X-11104010Y-2794420D01*
X-11080495Y-2568802D01*
X-11080232Y-2564160D01*
X-11080022Y-2542345D01*
X-11080197Y-2537673D01*
X-11099375Y-2311656D01*
X-11100781Y-2303431D01*
X-11157300Y-2085674D01*
X-11160073Y-2077800D01*
X-11252474Y-1872675D01*
X-11256533Y-1865382D01*
X-11316033Y-1777005D01*
X-11326535Y-1768785D01*
X-11326676Y-1768780D01*
X-11333709Y-1772919D01*
X-12089704Y-2528914D01*
X-12095758Y-2540797D01*
X-12825054Y-2540797D01*
X-12824242Y-2539203D01*
X-12825038Y-2534172D01*
X-13587498Y-1771712D01*
X-13598367Y-1766174D01*
X-13605761Y-1773235D01*
X-13710658Y-1957511D01*
X-13714164Y-1965098D01*
X-13790920Y-2176558D01*
X-13793099Y-2184634D01*
X-13833130Y-2406003D01*
X-13833916Y-2414329D01*
X-13836075Y-2639279D01*
X-16167840Y-2639279D01*
X-16160495Y-2568802D01*
X-16160232Y-2564160D01*
X-16160022Y-2542345D01*
X-16160197Y-2537673D01*
X-16179375Y-2311656D01*
X-16180781Y-2303431D01*
X-16237300Y-2085674D01*
X-16240073Y-2077800D01*
X-16332474Y-1872675D01*
X-16336533Y-1865382D01*
X-16396033Y-1777005D01*
X-16406535Y-1768785D01*
X-16406676Y-1768780D01*
X-16413709Y-1772919D01*
X-17169704Y-2528914D01*
X-17175758Y-2540797D01*
X-17905054Y-2540797D01*
X-17904242Y-2539203D01*
X-17905038Y-2534172D01*
X-18667498Y-1771712D01*
X-18678367Y-1766174D01*
X-18685761Y-1773235D01*
X-18790658Y-1957511D01*
X-18794164Y-1965098D01*
X-18870920Y-2176558D01*
X-18873099Y-2184634D01*
X-18913130Y-2406003D01*
X-18913916Y-2414329D01*
X-18916075Y-2639279D01*
X-21300000Y-2639279D01*
X-21300000Y-1404806D01*
X-18312309Y-1404806D01*
X-18307686Y-1413104D01*
X-17551086Y-2169704D01*
X-17539203Y-2175758D01*
X-17534172Y-2174962D01*
X-16774322Y-1415112D01*
X-16768268Y-1403229D01*
X-16768487Y-1401846D01*
X-16772408Y-1397202D01*
X-16809433Y-1369654D01*
X-16816542Y-1365246D01*
X-17017079Y-1263287D01*
X-17024809Y-1260149D01*
X-17239666Y-1193434D01*
X-17247815Y-1191642D01*
X-17470841Y-1162082D01*
X-17479181Y-1161689D01*
X-17703990Y-1170129D01*
X-17712283Y-1171147D01*
X-17932458Y-1217345D01*
X-17940452Y-1219743D01*
X-18149704Y-1302381D01*
X-18157177Y-1306090D01*
X-18304041Y-1395210D01*
X-18312309Y-1404806D01*
X-21300000Y-1404806D01*
X-21300000Y-107257D01*
X-16426473Y-107257D01*
X-16388008Y-346069D01*
X-16309855Y-574986D01*
X-16307850Y-578671D01*
X-16231189Y-719570D01*
X-16194250Y-787463D01*
X-16044497Y-977423D01*
X-16041383Y-980231D01*
X-16041381Y-980234D01*
X-15906301Y-1102074D01*
X-15864879Y-1139436D01*
X-15660531Y-1268869D01*
X-15580221Y-1302381D01*
X-15441166Y-1360407D01*
X-15441161Y-1360409D01*
X-15437297Y-1362021D01*
X-15201559Y-1416229D01*
X-15073209Y-1423517D01*
X-14964239Y-1429705D01*
X-14964234Y-1429705D01*
X-14960058Y-1429942D01*
X-14737717Y-1404806D01*
X-13232309Y-1404806D01*
X-13227686Y-1413104D01*
X-12471086Y-2169704D01*
X-12459203Y-2175758D01*
X-12454172Y-2174962D01*
X-11873034Y-1593824D01*
X6244538Y-1593824D01*
X6263121Y-1735939D01*
X6265962Y-1742395D01*
X6265962Y-1742396D01*
X6281191Y-1777005D01*
X6320845Y-1867126D01*
X6325382Y-1872523D01*
X6325383Y-1872525D01*
X6379003Y-1936313D01*
X6413068Y-1976838D01*
X6418939Y-1980746D01*
X6418940Y-1980747D01*
X6436778Y-1992621D01*
X6532377Y-2056257D01*
X6539104Y-2058359D01*
X6539107Y-2058360D01*
X6662448Y-2096894D01*
X6662449Y-2096894D01*
X6669180Y-2098997D01*
X6740831Y-2100311D01*
X6805427Y-2101495D01*
X6805429Y-2101495D01*
X6812481Y-2101624D01*
X6819284Y-2099769D01*
X6819286Y-2099769D01*
X6870984Y-2085674D01*
X6950758Y-2063925D01*
X7007269Y-2029227D01*
X7066888Y-1992621D01*
X7066890Y-1992619D01*
X7072897Y-1988931D01*
X7077629Y-1983703D01*
X7079466Y-1982178D01*
X7136315Y-1959554D01*
X7144906Y-1959372D01*
X10073416Y-2024525D01*
X10092047Y-2026718D01*
X10108170Y-2030189D01*
X10139978Y-2026425D01*
X10143739Y-2026089D01*
X10147152Y-2026165D01*
X10154293Y-2025139D01*
X10169252Y-2022990D01*
X10171695Y-2022670D01*
X10215971Y-2017430D01*
X10215972Y-2017430D01*
X10224098Y-2016468D01*
X10228131Y-2014531D01*
X10232560Y-2013895D01*
X10279573Y-1989862D01*
X10281769Y-1988774D01*
X10329330Y-1965936D01*
X10331938Y-1963744D01*
X10333268Y-1962414D01*
X10336502Y-1960761D01*
X10381558Y-1914145D01*
X10382738Y-1912944D01*
X10616186Y-1679496D01*
X10670703Y-1651719D01*
X10686190Y-1650500D01*
X12713810Y-1650500D01*
X12772001Y-1669407D01*
X12783814Y-1679496D01*
X14162684Y-3058366D01*
X14175847Y-3074667D01*
X14181999Y-3084194D01*
X14188425Y-3089260D01*
X14188427Y-3089262D01*
X14208182Y-3104836D01*
X14212315Y-3108508D01*
X14212330Y-3108490D01*
X14215459Y-3111141D01*
X14218338Y-3114020D01*
X14221654Y-3116389D01*
X14221658Y-3116393D01*
X14232439Y-3124097D01*
X14236148Y-3126881D01*
X14273675Y-3156465D01*
X14280986Y-3159033D01*
X14282234Y-3159681D01*
X14288540Y-3164187D01*
X14334318Y-3177877D01*
X14338746Y-3179316D01*
X14377942Y-3193081D01*
X14377943Y-3193081D01*
X14383817Y-3195144D01*
X14387211Y-3195438D01*
X14389350Y-3195438D01*
X14391483Y-3195530D01*
X14391476Y-3195689D01*
X14394518Y-3195880D01*
X14400382Y-3197634D01*
X14408556Y-3197313D01*
X14408557Y-3197313D01*
X14454352Y-3195514D01*
X14458238Y-3195438D01*
X15742244Y-3195438D01*
X15800435Y-3214345D01*
X15804552Y-3217667D01*
X15808006Y-3221776D01*
X15813877Y-3225684D01*
X15813878Y-3225685D01*
X15826173Y-3233869D01*
X15927315Y-3301195D01*
X15934042Y-3303297D01*
X15934045Y-3303298D01*
X16057386Y-3341832D01*
X16057387Y-3341832D01*
X16064118Y-3343935D01*
X16135769Y-3345249D01*
X16200365Y-3346433D01*
X16200367Y-3346433D01*
X16207419Y-3346562D01*
X16214222Y-3344707D01*
X16214224Y-3344707D01*
X16261003Y-3331953D01*
X16345696Y-3308863D01*
X16467835Y-3233869D01*
X16534302Y-3160438D01*
X16559284Y-3132838D01*
X16559284Y-3132837D01*
X16564016Y-3127610D01*
X16626508Y-2998627D01*
X16629193Y-2982672D01*
X16649653Y-2861058D01*
X16649653Y-2861055D01*
X16650287Y-2857288D01*
X16650438Y-2844938D01*
X16630120Y-2703061D01*
X16627005Y-2696208D01*
X16573718Y-2579011D01*
X16573718Y-2579010D01*
X16570798Y-2572589D01*
X16477241Y-2464012D01*
X16356971Y-2386056D01*
X16350213Y-2384035D01*
X16350211Y-2384034D01*
X16226417Y-2347012D01*
X16219656Y-2344990D01*
X16133632Y-2344465D01*
X16083386Y-2344158D01*
X16076334Y-2344115D01*
X16069558Y-2346052D01*
X16069555Y-2346052D01*
X15945307Y-2381562D01*
X15945305Y-2381563D01*
X15938527Y-2383500D01*
X15817313Y-2459980D01*
X15812644Y-2465267D01*
X15807274Y-2469837D01*
X15805315Y-2467536D01*
X15763751Y-2492071D01*
X15742233Y-2494438D01*
X14631128Y-2494438D01*
X14572937Y-2475531D01*
X14561124Y-2465442D01*
X13182254Y-1086572D01*
X13169091Y-1070271D01*
X13162939Y-1060744D01*
X13156513Y-1055678D01*
X13156511Y-1055676D01*
X13136756Y-1040102D01*
X13132623Y-1036430D01*
X13132608Y-1036448D01*
X13129479Y-1033797D01*
X13126600Y-1030918D01*
X13123284Y-1028549D01*
X13123280Y-1028545D01*
X13112499Y-1020841D01*
X13108790Y-1018057D01*
X13071263Y-988473D01*
X13063952Y-985905D01*
X13062704Y-985257D01*
X13056398Y-980751D01*
X13010620Y-967061D01*
X13006192Y-965622D01*
X12966996Y-951857D01*
X12966995Y-951857D01*
X12961121Y-949794D01*
X12957727Y-949500D01*
X12955588Y-949500D01*
X12953455Y-949408D01*
X12953462Y-949249D01*
X12950420Y-949058D01*
X12944556Y-947304D01*
X12936382Y-947625D01*
X12936381Y-947625D01*
X12890586Y-949424D01*
X12886700Y-949500D01*
X10548675Y-949500D01*
X10527839Y-947282D01*
X10526166Y-946922D01*
X10516746Y-944894D01*
X10483629Y-948814D01*
X10478116Y-949139D01*
X10478118Y-949163D01*
X10474043Y-949500D01*
X10469961Y-949500D01*
X10452864Y-952346D01*
X10448285Y-952998D01*
X10423894Y-955885D01*
X10408944Y-957654D01*
X10408943Y-957654D01*
X10400818Y-958616D01*
X10393836Y-961969D01*
X10392487Y-962395D01*
X10384847Y-963667D01*
X10377646Y-967552D01*
X10377647Y-967552D01*
X10342803Y-986352D01*
X10338649Y-988468D01*
X10301204Y-1006450D01*
X10295586Y-1009148D01*
X10292978Y-1011340D01*
X10291467Y-1012851D01*
X10289880Y-1014306D01*
X10289773Y-1014189D01*
X10287501Y-1016192D01*
X10282112Y-1019100D01*
X10276556Y-1025111D01*
X10276554Y-1025112D01*
X10245463Y-1058746D01*
X10242770Y-1061548D01*
X10012891Y-1291427D01*
X9958374Y-1319204D01*
X9940685Y-1320399D01*
X9130802Y-1302381D01*
X7159491Y-1258524D01*
X7101736Y-1238327D01*
X7087588Y-1225012D01*
X7086910Y-1224420D01*
X7082303Y-1219074D01*
X6962033Y-1141118D01*
X6955275Y-1139097D01*
X6955273Y-1139096D01*
X6831479Y-1102074D01*
X6824718Y-1100052D01*
X6738694Y-1099527D01*
X6688448Y-1099220D01*
X6681396Y-1099177D01*
X6674620Y-1101114D01*
X6674617Y-1101114D01*
X6550369Y-1136624D01*
X6550367Y-1136625D01*
X6543589Y-1138562D01*
X6422375Y-1215042D01*
X6327499Y-1322469D01*
X6266588Y-1452206D01*
X6244538Y-1593824D01*
X-11873034Y-1593824D01*
X-11694322Y-1415112D01*
X-11688268Y-1403229D01*
X-11688487Y-1401846D01*
X-11692408Y-1397202D01*
X-11729433Y-1369654D01*
X-11736542Y-1365246D01*
X-11937079Y-1263287D01*
X-11944809Y-1260149D01*
X-12159666Y-1193434D01*
X-12167815Y-1191642D01*
X-12390841Y-1162082D01*
X-12399181Y-1161689D01*
X-12623990Y-1170129D01*
X-12632283Y-1171147D01*
X-12852458Y-1217345D01*
X-12860452Y-1219743D01*
X-13069704Y-1302381D01*
X-13077177Y-1306090D01*
X-13224041Y-1395210D01*
X-13232309Y-1404806D01*
X-14737717Y-1404806D01*
X-14719699Y-1402769D01*
X-14715676Y-1401604D01*
X-14715671Y-1401603D01*
X-14491388Y-1336655D01*
X-14491387Y-1336654D01*
X-14487355Y-1335487D01*
X-14269668Y-1230019D01*
X-14089283Y-1101114D01*
X-14076281Y-1091823D01*
X-14076280Y-1091822D01*
X-14072864Y-1089381D01*
X-13970054Y-985670D01*
X-13905520Y-920570D01*
X-13905519Y-920569D01*
X-13902570Y-917594D01*
X-13811282Y-787463D01*
X-13766060Y-722999D01*
X-13766058Y-722995D01*
X-13763655Y-719570D01*
X-13660090Y-500972D01*
X-13594838Y-268049D01*
X-13580640Y-131814D01*
X-13570005Y-29776D01*
X-13570005Y-29773D01*
X-13569764Y-27462D01*
X-13569500Y0D01*
X-13569719Y2591D01*
X-13589597Y236853D01*
X-13589597Y236854D01*
X-13589951Y241024D01*
X-13604000Y295152D01*
X-13649667Y471100D01*
X-13649668Y471103D01*
X-13650720Y475156D01*
X-13750069Y695703D01*
X-13885157Y896357D01*
X-14052122Y1071381D01*
X-14165626Y1155830D01*
X-14242824Y1213267D01*
X-14242827Y1213269D01*
X-14246190Y1215771D01*
X-14357701Y1272466D01*
X-14458079Y1323502D01*
X-14458083Y1323504D01*
X-14461811Y1325399D01*
X-14692821Y1397130D01*
X-14742595Y1403727D01*
X-13231391Y1403727D01*
X-13225336Y1397078D01*
X-13100752Y1318167D01*
X-13093342Y1314310D01*
X-12885736Y1227678D01*
X-12877770Y1225121D01*
X-12658527Y1174706D01*
X-12650262Y1173530D01*
X-12425649Y1160775D01*
X-12417303Y1161009D01*
X-12193762Y1186281D01*
X-12185566Y1187918D01*
X-11969476Y1250494D01*
X-11961684Y1253485D01*
X-11759222Y1351577D01*
X-11752040Y1355842D01*
X-11696569Y1395482D01*
X-11688643Y1406213D01*
X-11688636Y1407101D01*
X-11692233Y1413023D01*
X-12448914Y2169704D01*
X-12460797Y2175758D01*
X-12465828Y2174962D01*
X-13225500Y1415290D01*
X-13231391Y1403727D01*
X-14742595Y1403727D01*
X-14747137Y1404329D01*
X-14928462Y1428362D01*
X-14928466Y1428362D01*
X-14932614Y1428912D01*
X-14936799Y1428755D01*
X-14936802Y1428755D01*
X-15030678Y1425230D01*
X-15174334Y1419837D01*
X-15411069Y1370165D01*
X-15636051Y1281316D01*
X-15639627Y1279146D01*
X-15639631Y1279144D01*
X-15797218Y1183517D01*
X-15842845Y1155830D01*
X-16025541Y997295D01*
X-16178913Y810244D01*
X-16298576Y600026D01*
X-16381109Y372652D01*
X-16424151Y134622D01*
X-16424191Y130424D01*
X-16425845Y-41884D01*
X-16426473Y-107257D01*
X-21300000Y-107257D01*
X-21300000Y1403727D01*
X-18311391Y1403727D01*
X-18305336Y1397078D01*
X-18180752Y1318167D01*
X-18173342Y1314310D01*
X-17965736Y1227678D01*
X-17957770Y1225121D01*
X-17738527Y1174706D01*
X-17730262Y1173530D01*
X-17505649Y1160775D01*
X-17497303Y1161009D01*
X-17273762Y1186281D01*
X-17265566Y1187918D01*
X-17049476Y1250494D01*
X-17041684Y1253485D01*
X-16839222Y1351577D01*
X-16832040Y1355842D01*
X-16776569Y1395482D01*
X-16768643Y1406213D01*
X-16768636Y1407101D01*
X-16772233Y1413023D01*
X-17528914Y2169704D01*
X-17540797Y2175758D01*
X-17545828Y2174962D01*
X-18305500Y1415290D01*
X-18311391Y1403727D01*
X-21300000Y1403727D01*
X-21300000Y2440721D01*
X-18916075Y2440721D01*
X-18915448Y2432391D01*
X-18879675Y2210289D01*
X-18877652Y2202177D01*
X-18804970Y1989285D01*
X-18801610Y1981629D01*
X-18694094Y1784020D01*
X-18689490Y1777039D01*
X-18687155Y1774077D01*
X-18676065Y1766667D01*
X-18673919Y1766752D01*
X-18669861Y1769349D01*
X-17910296Y2528914D01*
X-17905054Y2539203D01*
X-17175758Y2539203D01*
X-17174962Y2534172D01*
X-16415827Y1775037D01*
X-16403944Y1768983D01*
X-16403298Y1769085D01*
X-16397773Y1773883D01*
X-16349706Y1842403D01*
X-16345507Y1849620D01*
X-16249185Y2052929D01*
X-16246262Y2060747D01*
X-16185574Y2277379D01*
X-16184010Y2285580D01*
X-16167840Y2440721D01*
X-13836075Y2440721D01*
X-13835448Y2432391D01*
X-13799675Y2210289D01*
X-13797652Y2202177D01*
X-13724970Y1989285D01*
X-13721610Y1981629D01*
X-13614094Y1784020D01*
X-13609490Y1777039D01*
X-13607155Y1774077D01*
X-13596065Y1766667D01*
X-13593919Y1766752D01*
X-13589861Y1769349D01*
X-12830296Y2528914D01*
X-12825054Y2539203D01*
X-12095758Y2539203D01*
X-12094962Y2534172D01*
X-11335827Y1775037D01*
X-11323944Y1768983D01*
X-11323298Y1769085D01*
X-11317773Y1773883D01*
X-11269706Y1842403D01*
X-11265507Y1849620D01*
X-11169185Y2052929D01*
X-11166262Y2060747D01*
X-11105574Y2277379D01*
X-11104010Y2285580D01*
X-11091980Y2401000D01*
X7650000Y2401000D01*
X7650000Y1445533D01*
X7651707Y1416365D01*
X7654402Y1393424D01*
X7656143Y1388381D01*
X7656144Y1388378D01*
X7687559Y1297398D01*
X7687561Y1297394D01*
X7689305Y1292343D01*
X7721182Y1240118D01*
X7771874Y1180553D01*
X7774828Y1178021D01*
X7774831Y1178018D01*
X8688755Y394655D01*
X9459496Y-265980D01*
X9467224Y-272340D01*
X9467599Y-272636D01*
X9470017Y-274547D01*
X9470022Y-274550D01*
X9473461Y-277267D01*
X9551178Y-318858D01*
X9609369Y-337765D01*
X9613213Y-338374D01*
X9613218Y-338375D01*
X9682774Y-349391D01*
X9682779Y-349391D01*
X9686622Y-350000D01*
X10901000Y-350000D01*
X10926270Y-348012D01*
X10938174Y-347075D01*
X10938175Y-347075D01*
X10940105Y-346923D01*
X10970698Y-342078D01*
X10971666Y-341885D01*
X10971674Y-341884D01*
X10974660Y-341290D01*
X10989955Y-338247D01*
X11078540Y-297409D01*
X11112637Y-272636D01*
X11125690Y-263153D01*
X11125697Y-263148D01*
X11128040Y-261445D01*
X11132870Y-256981D01*
X11165472Y-226843D01*
X11171196Y-221552D01*
X11218858Y-136444D01*
X11220360Y-131820D01*
X11220363Y-131814D01*
X11224718Y-118409D01*
X11260681Y-68908D01*
X11318873Y-50000D01*
X12301000Y-50000D01*
X12326270Y-48012D01*
X12338174Y-47075D01*
X12338175Y-47075D01*
X12340105Y-46923D01*
X12370698Y-42078D01*
X12371666Y-41885D01*
X12371674Y-41884D01*
X12374660Y-41290D01*
X12389955Y-38247D01*
X12478540Y2591D01*
X12497127Y16095D01*
X12525690Y36847D01*
X12525697Y36852D01*
X12528040Y38555D01*
X12571196Y78448D01*
X12618858Y163556D01*
X12637765Y221747D01*
X12638375Y225596D01*
X12649391Y295152D01*
X12649391Y295157D01*
X12650000Y299000D01*
X12650000Y302892D01*
X12650305Y306769D01*
X12651994Y306636D01*
X12668907Y358691D01*
X12718407Y394655D01*
X12749000Y399500D01*
X16251678Y399500D01*
X16309869Y380593D01*
X16321682Y370504D01*
X17370504Y-678318D01*
X17398281Y-732835D01*
X17399500Y-748322D01*
X17399500Y-3451678D01*
X17380593Y-3509869D01*
X17370504Y-3521682D01*
X15630616Y-5261570D01*
X15576099Y-5289347D01*
X15528138Y-5285088D01*
X15506278Y-5277497D01*
X15506265Y-5277494D01*
X15501825Y-5275952D01*
X15294003Y-5245820D01*
X15169289Y-5251592D01*
X15088942Y-5255311D01*
X15088941Y-5255311D01*
X15084234Y-5255529D01*
X14880084Y-5304729D01*
X14875796Y-5306679D01*
X14875795Y-5306679D01*
X14859881Y-5313915D01*
X14688922Y-5391646D01*
X14517644Y-5513142D01*
X14372430Y-5664834D01*
X14258520Y-5841249D01*
X14256762Y-5845610D01*
X14256762Y-5845611D01*
X14217045Y-5944163D01*
X14180025Y-6036021D01*
X14179124Y-6040634D01*
X14179123Y-6040638D01*
X14158616Y-6145650D01*
X14139776Y-6242122D01*
X14139226Y-6452116D01*
X14140104Y-6456738D01*
X14140104Y-6456743D01*
X14165363Y-6589782D01*
X14178395Y-6658425D01*
X14255870Y-6853605D01*
X14258410Y-6857584D01*
X14366316Y-7026639D01*
X14366320Y-7026644D01*
X14368854Y-7030614D01*
X14513272Y-7183064D01*
X14517102Y-7185811D01*
X14517103Y-7185812D01*
X14675430Y-7299373D01*
X14683911Y-7305456D01*
X14688192Y-7307429D01*
X14688191Y-7307429D01*
X14869315Y-7390928D01*
X14874616Y-7393372D01*
X14879183Y-7394498D01*
X14879186Y-7394499D01*
X14915224Y-7403384D01*
X15078505Y-7443641D01*
X15162927Y-7447991D01*
X15283516Y-7454206D01*
X15283521Y-7454206D01*
X15288221Y-7454448D01*
X15292882Y-7453797D01*
X15292885Y-7453797D01*
X15491530Y-7426056D01*
X15491533Y-7426055D01*
X15496197Y-7425404D01*
X15505544Y-7422213D01*
X15690469Y-7359079D01*
X15690472Y-7359078D01*
X15694929Y-7357556D01*
X15877246Y-7253354D01*
X16036569Y-7116556D01*
X16039503Y-7112861D01*
X16164219Y-6955790D01*
X16164221Y-6955787D01*
X16167150Y-6952098D01*
X16264277Y-6765916D01*
X16324446Y-6564726D01*
X16345485Y-6355788D01*
X16345500Y-6350000D01*
X16325555Y-6140955D01*
X16306090Y-6074604D01*
X16307851Y-6013445D01*
X16331082Y-5976732D01*
X16745718Y-5562096D01*
X16800235Y-5534319D01*
X16860667Y-5543890D01*
X16903932Y-5587155D01*
X16913503Y-5647587D01*
X16898891Y-5685802D01*
X16798520Y-5841249D01*
X16796762Y-5845610D01*
X16796762Y-5845611D01*
X16757045Y-5944163D01*
X16720025Y-6036021D01*
X16719124Y-6040634D01*
X16719123Y-6040638D01*
X16698616Y-6145650D01*
X16679776Y-6242122D01*
X16679226Y-6452116D01*
X16680104Y-6456738D01*
X16680104Y-6456743D01*
X16705363Y-6589782D01*
X16718395Y-6658425D01*
X16795870Y-6853605D01*
X16798410Y-6857584D01*
X16906316Y-7026639D01*
X16906320Y-7026644D01*
X16908854Y-7030614D01*
X17053272Y-7183064D01*
X17057102Y-7185811D01*
X17057103Y-7185812D01*
X17215430Y-7299373D01*
X17223911Y-7305456D01*
X17228192Y-7307429D01*
X17228191Y-7307429D01*
X17409315Y-7390928D01*
X17414616Y-7393372D01*
X17419183Y-7394498D01*
X17419186Y-7394499D01*
X17455224Y-7403384D01*
X17618505Y-7443641D01*
X17702927Y-7447991D01*
X17823516Y-7454206D01*
X17823521Y-7454206D01*
X17828221Y-7454448D01*
X17832882Y-7453797D01*
X17832885Y-7453797D01*
X18031530Y-7426056D01*
X18031533Y-7426055D01*
X18036197Y-7425404D01*
X18045544Y-7422213D01*
X18230469Y-7359079D01*
X18230472Y-7359078D01*
X18234929Y-7357556D01*
X18417246Y-7253354D01*
X18576569Y-7116556D01*
X18579503Y-7112861D01*
X18704219Y-6955790D01*
X18704221Y-6955787D01*
X18707150Y-6952098D01*
X18804277Y-6765916D01*
X18864446Y-6564726D01*
X18885485Y-6355788D01*
X18885500Y-6350000D01*
X18865555Y-6140955D01*
X18806441Y-5939453D01*
X18790144Y-5907809D01*
X18712447Y-5756952D01*
X18710290Y-5752764D01*
X18702316Y-5742612D01*
X18583485Y-5591334D01*
X18583483Y-5591332D01*
X18580572Y-5587626D01*
X18577016Y-5584540D01*
X18577012Y-5584536D01*
X18425527Y-5453084D01*
X18425526Y-5453083D01*
X18421967Y-5449995D01*
X18240198Y-5344839D01*
X18151147Y-5313915D01*
X18046270Y-5277495D01*
X18046264Y-5277494D01*
X18041825Y-5275952D01*
X17834003Y-5245820D01*
X17709289Y-5251592D01*
X17628942Y-5255311D01*
X17628941Y-5255311D01*
X17624234Y-5255529D01*
X17420084Y-5304729D01*
X17415796Y-5306679D01*
X17415795Y-5306679D01*
X17399881Y-5313915D01*
X17228922Y-5391646D01*
X17225079Y-5394372D01*
X17109466Y-5476382D01*
X17051065Y-5494628D01*
X16993092Y-5475061D01*
X16957692Y-5425157D01*
X16958387Y-5363975D01*
X16982184Y-5325630D01*
X18206882Y-4100932D01*
X18216351Y-4093366D01*
X18216289Y-4093293D01*
X18221661Y-4088721D01*
X18227625Y-4084958D01*
X18261642Y-4046441D01*
X18265842Y-4041972D01*
X18278595Y-4029219D01*
X18280707Y-4026401D01*
X18280714Y-4026393D01*
X18285987Y-4019357D01*
X18291003Y-4013196D01*
X18322501Y-3977531D01*
X18325495Y-3971153D01*
X18325498Y-3971149D01*
X18326858Y-3968251D01*
X18337252Y-3950953D01*
X18339169Y-3948395D01*
X18343398Y-3942753D01*
X18360105Y-3898188D01*
X18363190Y-3890867D01*
X18370991Y-3874251D01*
X18383412Y-3847794D01*
X18384989Y-3837664D01*
X18390108Y-3818152D01*
X18391233Y-3815152D01*
X18391233Y-3815150D01*
X18393708Y-3808549D01*
X18397235Y-3761086D01*
X18398141Y-3753194D01*
X18400500Y-3738045D01*
X18400500Y-3720822D01*
X18400772Y-3713486D01*
X18400983Y-3710651D01*
X18404329Y-3665618D01*
X18402681Y-3657898D01*
X18400500Y-3637230D01*
X18400500Y-566504D01*
X18401846Y-554459D01*
X18401750Y-554451D01*
X18402316Y-547419D01*
X18403872Y-540541D01*
X18400690Y-489252D01*
X18400500Y-483122D01*
X18400500Y-465086D01*
X18398754Y-452892D01*
X18397944Y-444990D01*
X18395434Y-404529D01*
X18395434Y-404527D01*
X18394997Y-397491D01*
X18391518Y-387854D01*
X18386635Y-368270D01*
X18385182Y-358123D01*
X18380090Y-346923D01*
X18365481Y-314792D01*
X18362485Y-307432D01*
X18348726Y-269318D01*
X18348725Y-269316D01*
X18346330Y-262682D01*
X18342169Y-256986D01*
X18342166Y-256981D01*
X18340286Y-254408D01*
X18330103Y-236982D01*
X18328780Y-234073D01*
X18328779Y-234072D01*
X18325860Y-227651D01*
X18321258Y-222310D01*
X18321256Y-222307D01*
X18294789Y-191590D01*
X18289850Y-185370D01*
X18283064Y-176081D01*
X18283060Y-176077D01*
X18280809Y-172995D01*
X18268629Y-160815D01*
X18263634Y-155435D01*
X18236906Y-124416D01*
X18232303Y-119074D01*
X18225679Y-114780D01*
X18209526Y-101712D01*
X16900932Y1206882D01*
X16893366Y1216351D01*
X16893293Y1216289D01*
X16888721Y1221661D01*
X16884958Y1227625D01*
X16846441Y1261642D01*
X16841972Y1265842D01*
X16829219Y1278595D01*
X16826401Y1280707D01*
X16826393Y1280714D01*
X16819357Y1285987D01*
X16813196Y1291003D01*
X16805955Y1297398D01*
X16777531Y1322501D01*
X16771153Y1325495D01*
X16771149Y1325498D01*
X16768251Y1326858D01*
X16750953Y1337252D01*
X16748395Y1339169D01*
X16742753Y1343398D01*
X16709559Y1355842D01*
X16698188Y1360105D01*
X16690867Y1363190D01*
X16674178Y1371025D01*
X16647794Y1383412D01*
X16637664Y1384989D01*
X16618152Y1390108D01*
X16615152Y1391233D01*
X16615150Y1391233D01*
X16608549Y1393708D01*
X16578253Y1395959D01*
X16561086Y1397235D01*
X16553197Y1398141D01*
X16538045Y1400500D01*
X16520822Y1400500D01*
X16513486Y1400772D01*
X16510651Y1400983D01*
X16465618Y1404329D01*
X16458717Y1402856D01*
X16457895Y1402681D01*
X16437230Y1400500D01*
X12696760Y1400500D01*
X12638569Y1419407D01*
X12606855Y1458049D01*
X12597409Y1478540D01*
X12583905Y1497127D01*
X12563153Y1525690D01*
X12563148Y1525697D01*
X12561445Y1528040D01*
X12521552Y1571196D01*
X12514752Y1575004D01*
X12514751Y1575005D01*
X12489183Y1589323D01*
X12436444Y1618858D01*
X12378253Y1637765D01*
X12374409Y1638374D01*
X12374404Y1638375D01*
X12304848Y1649391D01*
X12304843Y1649391D01*
X12301000Y1650000D01*
X10349000Y1650000D01*
X10290809Y1668907D01*
X10254845Y1718407D01*
X10250000Y1749000D01*
X10250000Y2401000D01*
X10246923Y2440105D01*
X10242078Y2470698D01*
X10238247Y2489955D01*
X10197409Y2578540D01*
X10166159Y2621552D01*
X10163153Y2625690D01*
X10163148Y2625697D01*
X10161445Y2628040D01*
X10121552Y2671196D01*
X10114752Y2675004D01*
X10114751Y2675005D01*
X10089183Y2689323D01*
X10036444Y2718858D01*
X9978253Y2737765D01*
X9974409Y2738374D01*
X9974404Y2738375D01*
X9904848Y2749391D01*
X9904843Y2749391D01*
X9901000Y2750000D01*
X7999000Y2750000D01*
X7973730Y2748012D01*
X7961826Y2747075D01*
X7961825Y2747075D01*
X7959895Y2746923D01*
X7929302Y2742078D01*
X7928334Y2741885D01*
X7928326Y2741884D01*
X7925340Y2741290D01*
X7910045Y2738247D01*
X7821460Y2697409D01*
X7817524Y2694549D01*
X7774310Y2663153D01*
X7774303Y2663148D01*
X7771960Y2661445D01*
X7728804Y2621552D01*
X7681142Y2536444D01*
X7662235Y2478253D01*
X7661626Y2474409D01*
X7661625Y2474404D01*
X7654972Y2432391D01*
X7650000Y2401000D01*
X-11091980Y2401000D01*
X-11080495Y2511198D01*
X-11080232Y2515840D01*
X-11080022Y2537655D01*
X-11080197Y2542327D01*
X-11099375Y2768344D01*
X-11100781Y2776569D01*
X-11157300Y2994326D01*
X-11160073Y3002200D01*
X-11252474Y3207325D01*
X-11256533Y3214618D01*
X-11316033Y3302995D01*
X-11326535Y3311215D01*
X-11326676Y3311220D01*
X-11333709Y3307081D01*
X-12089704Y2551086D01*
X-12095758Y2539203D01*
X-12825054Y2539203D01*
X-12824242Y2540797D01*
X-12825038Y2545828D01*
X-13587498Y3308288D01*
X-13598367Y3313826D01*
X-13605761Y3306765D01*
X-13710658Y3122489D01*
X-13714164Y3114902D01*
X-13790920Y2903442D01*
X-13793099Y2895366D01*
X-13833130Y2673997D01*
X-13833916Y2665671D01*
X-13836075Y2440721D01*
X-16167840Y2440721D01*
X-16160495Y2511198D01*
X-16160232Y2515840D01*
X-16160022Y2537655D01*
X-16160197Y2542327D01*
X-16179375Y2768344D01*
X-16180781Y2776569D01*
X-16237300Y2994326D01*
X-16240073Y3002200D01*
X-16332474Y3207325D01*
X-16336533Y3214618D01*
X-16396033Y3302995D01*
X-16406535Y3311215D01*
X-16406676Y3311220D01*
X-16413709Y3307081D01*
X-17169704Y2551086D01*
X-17175758Y2539203D01*
X-17905054Y2539203D01*
X-17904242Y2540797D01*
X-17905038Y2545828D01*
X-18667498Y3308288D01*
X-18678367Y3313826D01*
X-18685761Y3306765D01*
X-18790658Y3122489D01*
X-18794164Y3114902D01*
X-18870920Y2903442D01*
X-18873099Y2895366D01*
X-18913130Y2673997D01*
X-18913916Y2665671D01*
X-18916075Y2440721D01*
X-21300000Y2440721D01*
X-21300000Y3675194D01*
X-18312309Y3675194D01*
X-18307686Y3666896D01*
X-17551086Y2910296D01*
X-17539203Y2904242D01*
X-17534172Y2905038D01*
X-16774322Y3664888D01*
X-16769071Y3675194D01*
X-13232309Y3675194D01*
X-13227686Y3666896D01*
X-12471086Y2910296D01*
X-12459203Y2904242D01*
X-12454172Y2905038D01*
X-11694322Y3664888D01*
X-11688268Y3676771D01*
X-11688487Y3678154D01*
X-11692408Y3682798D01*
X-11729433Y3710346D01*
X-11736542Y3714754D01*
X-11937079Y3816713D01*
X-11944809Y3819851D01*
X-12159666Y3886566D01*
X-12167815Y3888358D01*
X-12390841Y3917918D01*
X-12399181Y3918311D01*
X-12623990Y3909871D01*
X-12632283Y3908853D01*
X-12852458Y3862655D01*
X-12860452Y3860257D01*
X-13069704Y3777619D01*
X-13077177Y3773910D01*
X-13224041Y3684790D01*
X-13232309Y3675194D01*
X-16769071Y3675194D01*
X-16768268Y3676771D01*
X-16768487Y3678154D01*
X-16772408Y3682798D01*
X-16809433Y3710346D01*
X-16816542Y3714754D01*
X-17017079Y3816713D01*
X-17024809Y3819851D01*
X-17239666Y3886566D01*
X-17247815Y3888358D01*
X-17470841Y3917918D01*
X-17479181Y3918311D01*
X-17703990Y3909871D01*
X-17712283Y3908853D01*
X-17932458Y3862655D01*
X-17940452Y3860257D01*
X-18149704Y3777619D01*
X-18157177Y3773910D01*
X-18304041Y3684790D01*
X-18312309Y3675194D01*
X-21300000Y3675194D01*
X-21300000Y5463643D01*
X-21281093Y5521834D01*
X-21231593Y5557798D01*
X-21170407Y5557798D01*
X-21131919Y5534557D01*
X-21101432Y5504858D01*
X-21047180Y5452008D01*
X-21043405Y5449486D01*
X-21043403Y5449484D01*
X-20972673Y5402224D01*
X-20871357Y5334527D01*
X-20867190Y5332737D01*
X-20867185Y5332734D01*
X-20783117Y5296616D01*
X-20677069Y5251054D01*
X-20470823Y5204385D01*
X-20345850Y5199475D01*
X-20264059Y5196262D01*
X-20264058Y5196262D01*
X-20259526Y5196084D01*
X-20050254Y5226427D01*
X-20045955Y5227886D01*
X-20045952Y5227887D01*
X-19854317Y5292938D01*
X-19850016Y5294398D01*
X-19828177Y5306628D01*
X-19673943Y5393004D01*
X-19665518Y5397722D01*
X-19609012Y5444717D01*
X-19536701Y5504858D01*
X-19502938Y5532938D01*
X-19367722Y5695518D01*
X-19283227Y5846395D01*
X-19266616Y5876055D01*
X-19266615Y5876057D01*
X-19264398Y5880016D01*
X-19247401Y5930089D01*
X-19197887Y6075952D01*
X-19197886Y6075955D01*
X-19196427Y6080254D01*
X-19184162Y6164845D01*
X-19166504Y6286626D01*
X-19166503Y6286634D01*
X-19166084Y6289526D01*
X-19164714Y6341803D01*
X-19164576Y6347087D01*
X-19164576Y6347092D01*
X-19164500Y6350000D01*
X-19173979Y6453165D01*
X-19183434Y6556055D01*
X-19183849Y6560573D01*
X-19241248Y6764094D01*
X-19289877Y6862705D01*
X-19332763Y6949670D01*
X-19332765Y6949674D01*
X-19334774Y6953747D01*
X-19461296Y7123180D01*
X-19506621Y7165078D01*
X-19544399Y7200000D01*
X-18885500Y7200000D01*
X-18885500Y5500000D01*
X-18866051Y5402224D01*
X-18810666Y5319334D01*
X-18727776Y5263949D01*
X-18630000Y5244500D01*
X-16930000Y5244500D01*
X-16832224Y5263949D01*
X-16749334Y5319334D01*
X-16693949Y5402224D01*
X-16674500Y5500000D01*
X-16674500Y6247884D01*
X-16340774Y6247884D01*
X-16339896Y6243262D01*
X-16339896Y6243257D01*
X-16314637Y6110218D01*
X-16301605Y6041575D01*
X-16224130Y5846395D01*
X-16221590Y5842416D01*
X-16113684Y5673361D01*
X-16113680Y5673356D01*
X-16111146Y5669386D01*
X-15966728Y5516936D01*
X-15962898Y5514189D01*
X-15962897Y5514188D01*
X-15804570Y5400627D01*
X-15796089Y5394544D01*
X-15791808Y5392571D01*
X-15791809Y5392571D01*
X-15610685Y5309072D01*
X-15605384Y5306628D01*
X-15600817Y5305502D01*
X-15600814Y5305501D01*
X-15564776Y5296616D01*
X-15401495Y5256359D01*
X-15317073Y5252009D01*
X-15196484Y5245794D01*
X-15196479Y5245794D01*
X-15191779Y5245552D01*
X-15187118Y5246203D01*
X-15187115Y5246203D01*
X-14988470Y5273944D01*
X-14988467Y5273945D01*
X-14983803Y5274596D01*
X-14974456Y5277787D01*
X-14789531Y5340921D01*
X-14789528Y5340922D01*
X-14785071Y5342444D01*
X-14602754Y5446646D01*
X-14443431Y5583444D01*
X-14440497Y5587139D01*
X-14315781Y5744210D01*
X-14315779Y5744213D01*
X-14312850Y5747902D01*
X-14215723Y5934084D01*
X-14155554Y6135274D01*
X-14144215Y6247884D01*
X-13800774Y6247884D01*
X-13799896Y6243262D01*
X-13799896Y6243257D01*
X-13774637Y6110218D01*
X-13761605Y6041575D01*
X-13684130Y5846395D01*
X-13681590Y5842416D01*
X-13573684Y5673361D01*
X-13573680Y5673356D01*
X-13571146Y5669386D01*
X-13426728Y5516936D01*
X-13422898Y5514189D01*
X-13422897Y5514188D01*
X-13264570Y5400627D01*
X-13256089Y5394544D01*
X-13251808Y5392571D01*
X-13251809Y5392571D01*
X-13070685Y5309072D01*
X-13065384Y5306628D01*
X-13060817Y5305502D01*
X-13060814Y5305501D01*
X-13024776Y5296616D01*
X-12861495Y5256359D01*
X-12777073Y5252009D01*
X-12656484Y5245794D01*
X-12656479Y5245794D01*
X-12651779Y5245552D01*
X-12647118Y5246203D01*
X-12647115Y5246203D01*
X-12448470Y5273944D01*
X-12448467Y5273945D01*
X-12443803Y5274596D01*
X-12434456Y5277787D01*
X-12249531Y5340921D01*
X-12249528Y5340922D01*
X-12245071Y5342444D01*
X-12062754Y5446646D01*
X-11903431Y5583444D01*
X-11900497Y5587139D01*
X-11775781Y5744210D01*
X-11775779Y5744213D01*
X-11772850Y5747902D01*
X-11675723Y5934084D01*
X-11630967Y6083736D01*
X-11229103Y6083736D01*
X-11222004Y6046345D01*
X-11219386Y6037335D01*
X-11145425Y5851007D01*
X-11141145Y5842644D01*
X-11033289Y5673669D01*
X-11027511Y5666273D01*
X-10889641Y5520733D01*
X-10882571Y5514565D01*
X-10719666Y5397722D01*
X-10711559Y5393004D01*
X-10529496Y5309072D01*
X-10520648Y5305973D01*
X-10429222Y5283432D01*
X-10416620Y5284346D01*
X-10414000Y5293527D01*
X-10414000Y6080320D01*
X-10416417Y6087757D01*
X-9906000Y6087757D01*
X-9906000Y5290472D01*
X-9901878Y5277787D01*
X-9900598Y5276856D01*
X-9899108Y5276726D01*
X-9709732Y5341378D01*
X-9701188Y5345236D01*
X-9527133Y5444717D01*
X-9519468Y5450124D01*
X-9367370Y5580718D01*
X-9360857Y5587486D01*
X-9236200Y5744482D01*
X-9231089Y5752353D01*
X-9138368Y5930089D01*
X-9134834Y5938793D01*
X-9092312Y6080976D01*
X-9092590Y6092784D01*
X-9102901Y6096000D01*
X-9890320Y6096000D01*
X-9903005Y6091878D01*
X-9906000Y6087757D01*
X-10416417Y6087757D01*
X-10418122Y6093005D01*
X-10422243Y6096000D01*
X-11215751Y6096000D01*
X-11228436Y6091878D01*
X-11228601Y6091652D01*
X-11229103Y6083736D01*
X-11630967Y6083736D01*
X-11615554Y6135274D01*
X-11604215Y6247884D01*
X-8720774Y6247884D01*
X-8719896Y6243262D01*
X-8719896Y6243257D01*
X-8694637Y6110218D01*
X-8681605Y6041575D01*
X-8604130Y5846395D01*
X-8601590Y5842416D01*
X-8493684Y5673361D01*
X-8493680Y5673356D01*
X-8491146Y5669386D01*
X-8346728Y5516936D01*
X-8342898Y5514189D01*
X-8342897Y5514188D01*
X-8184570Y5400627D01*
X-8176089Y5394544D01*
X-8171808Y5392571D01*
X-8171809Y5392571D01*
X-7990685Y5309072D01*
X-7985384Y5306628D01*
X-7980817Y5305502D01*
X-7980814Y5305501D01*
X-7944776Y5296616D01*
X-7781495Y5256359D01*
X-7697073Y5252009D01*
X-7576484Y5245794D01*
X-7576479Y5245794D01*
X-7571779Y5245552D01*
X-7567118Y5246203D01*
X-7567115Y5246203D01*
X-7368470Y5273944D01*
X-7368467Y5273945D01*
X-7363803Y5274596D01*
X-7354456Y5277787D01*
X-7169531Y5340921D01*
X-7169528Y5340922D01*
X-7165071Y5342444D01*
X-6982754Y5446646D01*
X-6823431Y5583444D01*
X-6820497Y5587139D01*
X-6695781Y5744210D01*
X-6695779Y5744213D01*
X-6692850Y5747902D01*
X-6595723Y5934084D01*
X-6535554Y6135274D01*
X-6524215Y6247884D01*
X-6180774Y6247884D01*
X-6179896Y6243262D01*
X-6179896Y6243257D01*
X-6154637Y6110218D01*
X-6141605Y6041575D01*
X-6064130Y5846395D01*
X-6061590Y5842416D01*
X-5953684Y5673361D01*
X-5953680Y5673356D01*
X-5951146Y5669386D01*
X-5806728Y5516936D01*
X-5802898Y5514189D01*
X-5802897Y5514188D01*
X-5644570Y5400627D01*
X-5636089Y5394544D01*
X-5631808Y5392571D01*
X-5631809Y5392571D01*
X-5450685Y5309072D01*
X-5445384Y5306628D01*
X-5440817Y5305502D01*
X-5440814Y5305501D01*
X-5404776Y5296616D01*
X-5241495Y5256359D01*
X-5157073Y5252009D01*
X-5036484Y5245794D01*
X-5036479Y5245794D01*
X-5031779Y5245552D01*
X-5027118Y5246203D01*
X-5027115Y5246203D01*
X-4828470Y5273944D01*
X-4828467Y5273945D01*
X-4823803Y5274596D01*
X-4814456Y5277787D01*
X-4629531Y5340921D01*
X-4629528Y5340922D01*
X-4625071Y5342444D01*
X-4442754Y5446646D01*
X-4283431Y5583444D01*
X-4280497Y5587139D01*
X-4155781Y5744210D01*
X-4155779Y5744213D01*
X-4152850Y5747902D01*
X-4055723Y5934084D01*
X-3995554Y6135274D01*
X-3984215Y6247884D01*
X-3640774Y6247884D01*
X-3639896Y6243262D01*
X-3639896Y6243257D01*
X-3614637Y6110218D01*
X-3601605Y6041575D01*
X-3524130Y5846395D01*
X-3521590Y5842416D01*
X-3413684Y5673361D01*
X-3413680Y5673356D01*
X-3411146Y5669386D01*
X-3266728Y5516936D01*
X-3262898Y5514189D01*
X-3262897Y5514188D01*
X-3104570Y5400627D01*
X-3096089Y5394544D01*
X-3091808Y5392571D01*
X-3091809Y5392571D01*
X-2910685Y5309072D01*
X-2905384Y5306628D01*
X-2900817Y5305502D01*
X-2900814Y5305501D01*
X-2864776Y5296616D01*
X-2701495Y5256359D01*
X-2617073Y5252009D01*
X-2496484Y5245794D01*
X-2496479Y5245794D01*
X-2491779Y5245552D01*
X-2487118Y5246203D01*
X-2487115Y5246203D01*
X-2288470Y5273944D01*
X-2288467Y5273945D01*
X-2283803Y5274596D01*
X-2274456Y5277787D01*
X-2089531Y5340921D01*
X-2089528Y5340922D01*
X-2085071Y5342444D01*
X-1902754Y5446646D01*
X-1743431Y5583444D01*
X-1740497Y5587139D01*
X-1615781Y5744210D01*
X-1615779Y5744213D01*
X-1612850Y5747902D01*
X-1515723Y5934084D01*
X-1455554Y6135274D01*
X-1444215Y6247884D01*
X-1100774Y6247884D01*
X-1099896Y6243262D01*
X-1099896Y6243257D01*
X-1074637Y6110218D01*
X-1061605Y6041575D01*
X-984130Y5846395D01*
X-981590Y5842416D01*
X-873684Y5673361D01*
X-873680Y5673356D01*
X-871146Y5669386D01*
X-726728Y5516936D01*
X-722898Y5514189D01*
X-722897Y5514188D01*
X-564570Y5400627D01*
X-556089Y5394544D01*
X-551808Y5392571D01*
X-551809Y5392571D01*
X-370685Y5309072D01*
X-365384Y5306628D01*
X-360817Y5305502D01*
X-360814Y5305501D01*
X-324776Y5296616D01*
X-161495Y5256359D01*
X-77073Y5252009D01*
X43516Y5245794D01*
X43521Y5245794D01*
X48221Y5245552D01*
X52882Y5246203D01*
X52885Y5246203D01*
X251530Y5273944D01*
X251533Y5273945D01*
X256197Y5274596D01*
X265544Y5277787D01*
X450469Y5340921D01*
X450472Y5340922D01*
X454929Y5342444D01*
X637246Y5446646D01*
X796569Y5583444D01*
X799503Y5587139D01*
X924219Y5744210D01*
X924221Y5744213D01*
X927150Y5747902D01*
X1024277Y5934084D01*
X1084446Y6135274D01*
X1095785Y6247884D01*
X1439226Y6247884D01*
X1440104Y6243262D01*
X1440104Y6243257D01*
X1465363Y6110218D01*
X1478395Y6041575D01*
X1555870Y5846395D01*
X1558410Y5842416D01*
X1666316Y5673361D01*
X1666320Y5673356D01*
X1668854Y5669386D01*
X1813272Y5516936D01*
X1817102Y5514189D01*
X1817103Y5514188D01*
X1975430Y5400627D01*
X1983911Y5394544D01*
X1988192Y5392571D01*
X1988191Y5392571D01*
X2169315Y5309072D01*
X2174616Y5306628D01*
X2179183Y5305502D01*
X2179186Y5305501D01*
X2215224Y5296616D01*
X2378505Y5256359D01*
X2462927Y5252009D01*
X2583516Y5245794D01*
X2583521Y5245794D01*
X2588221Y5245552D01*
X2592882Y5246203D01*
X2592885Y5246203D01*
X2791530Y5273944D01*
X2791533Y5273945D01*
X2796197Y5274596D01*
X2805544Y5277787D01*
X2990469Y5340921D01*
X2990472Y5340922D01*
X2994929Y5342444D01*
X3177246Y5446646D01*
X3336569Y5583444D01*
X3339503Y5587139D01*
X3464219Y5744210D01*
X3464221Y5744213D01*
X3467150Y5747902D01*
X3564277Y5934084D01*
X3624446Y6135274D01*
X3635785Y6247884D01*
X3979226Y6247884D01*
X3980104Y6243262D01*
X3980104Y6243257D01*
X4005363Y6110218D01*
X4018395Y6041575D01*
X4095870Y5846395D01*
X4098410Y5842416D01*
X4206316Y5673361D01*
X4206320Y5673356D01*
X4208854Y5669386D01*
X4353272Y5516936D01*
X4357102Y5514189D01*
X4357103Y5514188D01*
X4515430Y5400627D01*
X4523911Y5394544D01*
X4528192Y5392571D01*
X4528191Y5392571D01*
X4709315Y5309072D01*
X4714616Y5306628D01*
X4719183Y5305502D01*
X4719186Y5305501D01*
X4755224Y5296616D01*
X4918505Y5256359D01*
X5002927Y5252009D01*
X5123516Y5245794D01*
X5123521Y5245794D01*
X5128221Y5245552D01*
X5132882Y5246203D01*
X5132885Y5246203D01*
X5331530Y5273944D01*
X5331533Y5273945D01*
X5336197Y5274596D01*
X5345544Y5277787D01*
X5530469Y5340921D01*
X5530472Y5340922D01*
X5534929Y5342444D01*
X5717246Y5446646D01*
X5876569Y5583444D01*
X5879503Y5587139D01*
X6004219Y5744210D01*
X6004221Y5744213D01*
X6007150Y5747902D01*
X6104277Y5934084D01*
X6164446Y6135274D01*
X6175785Y6247884D01*
X6519226Y6247884D01*
X6520104Y6243262D01*
X6520104Y6243257D01*
X6545363Y6110218D01*
X6558395Y6041575D01*
X6635870Y5846395D01*
X6638410Y5842416D01*
X6746316Y5673361D01*
X6746320Y5673356D01*
X6748854Y5669386D01*
X6893272Y5516936D01*
X6897102Y5514189D01*
X6897103Y5514188D01*
X7055430Y5400627D01*
X7063911Y5394544D01*
X7068192Y5392571D01*
X7068191Y5392571D01*
X7249315Y5309072D01*
X7254616Y5306628D01*
X7259183Y5305502D01*
X7259186Y5305501D01*
X7295224Y5296616D01*
X7458505Y5256359D01*
X7542927Y5252009D01*
X7663516Y5245794D01*
X7663521Y5245794D01*
X7668221Y5245552D01*
X7672882Y5246203D01*
X7672885Y5246203D01*
X7871530Y5273944D01*
X7871533Y5273945D01*
X7876197Y5274596D01*
X7885544Y5277787D01*
X8070469Y5340921D01*
X8070472Y5340922D01*
X8074929Y5342444D01*
X8257246Y5446646D01*
X8416569Y5583444D01*
X8419503Y5587139D01*
X8544219Y5744210D01*
X8544221Y5744213D01*
X8547150Y5747902D01*
X8644277Y5934084D01*
X8704446Y6135274D01*
X8715785Y6247884D01*
X9059226Y6247884D01*
X9060104Y6243262D01*
X9060104Y6243257D01*
X9085363Y6110218D01*
X9098395Y6041575D01*
X9175870Y5846395D01*
X9178410Y5842416D01*
X9286316Y5673361D01*
X9286320Y5673356D01*
X9288854Y5669386D01*
X9433272Y5516936D01*
X9437102Y5514189D01*
X9437103Y5514188D01*
X9595430Y5400627D01*
X9603911Y5394544D01*
X9608192Y5392571D01*
X9608191Y5392571D01*
X9789315Y5309072D01*
X9794616Y5306628D01*
X9799183Y5305502D01*
X9799186Y5305501D01*
X9835224Y5296616D01*
X9998505Y5256359D01*
X10082927Y5252009D01*
X10203516Y5245794D01*
X10203521Y5245794D01*
X10208221Y5245552D01*
X10212882Y5246203D01*
X10212885Y5246203D01*
X10411530Y5273944D01*
X10411533Y5273945D01*
X10416197Y5274596D01*
X10425544Y5277787D01*
X10610469Y5340921D01*
X10610472Y5340922D01*
X10614929Y5342444D01*
X10797246Y5446646D01*
X10956569Y5583444D01*
X10959503Y5587139D01*
X11084219Y5744210D01*
X11084221Y5744213D01*
X11087150Y5747902D01*
X11184277Y5934084D01*
X11244446Y6135274D01*
X11255785Y6247884D01*
X11599226Y6247884D01*
X11600104Y6243262D01*
X11600104Y6243257D01*
X11625363Y6110218D01*
X11638395Y6041575D01*
X11715870Y5846395D01*
X11718410Y5842416D01*
X11826316Y5673361D01*
X11826320Y5673356D01*
X11828854Y5669386D01*
X11973272Y5516936D01*
X11977102Y5514189D01*
X11977103Y5514188D01*
X12135430Y5400627D01*
X12143911Y5394544D01*
X12148192Y5392571D01*
X12148191Y5392571D01*
X12329315Y5309072D01*
X12334616Y5306628D01*
X12339183Y5305502D01*
X12339186Y5305501D01*
X12375224Y5296616D01*
X12538505Y5256359D01*
X12622927Y5252009D01*
X12743516Y5245794D01*
X12743521Y5245794D01*
X12748221Y5245552D01*
X12752882Y5246203D01*
X12752885Y5246203D01*
X12951530Y5273944D01*
X12951533Y5273945D01*
X12956197Y5274596D01*
X12965544Y5277787D01*
X13150469Y5340921D01*
X13150472Y5340922D01*
X13154929Y5342444D01*
X13337246Y5446646D01*
X13496569Y5583444D01*
X13499503Y5587139D01*
X13624219Y5744210D01*
X13624221Y5744213D01*
X13627150Y5747902D01*
X13724277Y5934084D01*
X13784446Y6135274D01*
X13795785Y6247884D01*
X14139226Y6247884D01*
X14140104Y6243262D01*
X14140104Y6243257D01*
X14165363Y6110218D01*
X14178395Y6041575D01*
X14255870Y5846395D01*
X14258410Y5842416D01*
X14366316Y5673361D01*
X14366320Y5673356D01*
X14368854Y5669386D01*
X14513272Y5516936D01*
X14517102Y5514189D01*
X14517103Y5514188D01*
X14675430Y5400627D01*
X14683911Y5394544D01*
X14688192Y5392571D01*
X14688191Y5392571D01*
X14869315Y5309072D01*
X14874616Y5306628D01*
X14879183Y5305502D01*
X14879186Y5305501D01*
X14915224Y5296616D01*
X15078505Y5256359D01*
X15162927Y5252009D01*
X15283516Y5245794D01*
X15283521Y5245794D01*
X15288221Y5245552D01*
X15292882Y5246203D01*
X15292885Y5246203D01*
X15491530Y5273944D01*
X15491533Y5273945D01*
X15496197Y5274596D01*
X15505544Y5277787D01*
X15690469Y5340921D01*
X15690472Y5340922D01*
X15694929Y5342444D01*
X15877246Y5446646D01*
X16036569Y5583444D01*
X16039503Y5587139D01*
X16164219Y5744210D01*
X16164221Y5744213D01*
X16167150Y5747902D01*
X16264277Y5934084D01*
X16324446Y6135274D01*
X16335785Y6247884D01*
X16679226Y6247884D01*
X16680104Y6243262D01*
X16680104Y6243257D01*
X16705363Y6110218D01*
X16718395Y6041575D01*
X16795870Y5846395D01*
X16798410Y5842416D01*
X16906316Y5673361D01*
X16906320Y5673356D01*
X16908854Y5669386D01*
X17053272Y5516936D01*
X17057102Y5514189D01*
X17057103Y5514188D01*
X17215430Y5400627D01*
X17223911Y5394544D01*
X17228192Y5392571D01*
X17228191Y5392571D01*
X17409315Y5309072D01*
X17414616Y5306628D01*
X17419183Y5305502D01*
X17419186Y5305501D01*
X17455224Y5296616D01*
X17618505Y5256359D01*
X17702927Y5252009D01*
X17823516Y5245794D01*
X17823521Y5245794D01*
X17828221Y5245552D01*
X17832882Y5246203D01*
X17832885Y5246203D01*
X18031530Y5273944D01*
X18031533Y5273945D01*
X18036197Y5274596D01*
X18045544Y5277787D01*
X18230469Y5340921D01*
X18230472Y5340922D01*
X18234929Y5342444D01*
X18417246Y5446646D01*
X18576569Y5583444D01*
X18579503Y5587139D01*
X18704219Y5744210D01*
X18704221Y5744213D01*
X18707150Y5747902D01*
X18804277Y5934084D01*
X18864446Y6135274D01*
X18885485Y6344212D01*
X18885500Y6350000D01*
X18865555Y6559045D01*
X18806441Y6760547D01*
X18790144Y6792191D01*
X18712447Y6943048D01*
X18710290Y6947236D01*
X18702316Y6957388D01*
X18583485Y7108666D01*
X18583483Y7108668D01*
X18580572Y7112374D01*
X18577016Y7115460D01*
X18577012Y7115464D01*
X18425527Y7246916D01*
X18425526Y7246917D01*
X18421967Y7250005D01*
X18240198Y7355161D01*
X18151147Y7386085D01*
X18046270Y7422505D01*
X18046264Y7422506D01*
X18041825Y7424048D01*
X17834003Y7454180D01*
X17709289Y7448408D01*
X17628942Y7444689D01*
X17628941Y7444689D01*
X17624234Y7444471D01*
X17420084Y7395271D01*
X17415796Y7393321D01*
X17415795Y7393321D01*
X17399881Y7386085D01*
X17228922Y7308354D01*
X17057644Y7186858D01*
X16912430Y7035166D01*
X16798520Y6858751D01*
X16796762Y6854390D01*
X16796762Y6854389D01*
X16757045Y6755837D01*
X16720025Y6663979D01*
X16719124Y6659366D01*
X16719123Y6659362D01*
X16698616Y6554350D01*
X16679776Y6457878D01*
X16679226Y6247884D01*
X16335785Y6247884D01*
X16345485Y6344212D01*
X16345500Y6350000D01*
X16325555Y6559045D01*
X16266441Y6760547D01*
X16250144Y6792191D01*
X16172447Y6943048D01*
X16170290Y6947236D01*
X16162316Y6957388D01*
X16043485Y7108666D01*
X16043483Y7108668D01*
X16040572Y7112374D01*
X16037016Y7115460D01*
X16037012Y7115464D01*
X15885527Y7246916D01*
X15885526Y7246917D01*
X15881967Y7250005D01*
X15700198Y7355161D01*
X15611147Y7386085D01*
X15506270Y7422505D01*
X15506264Y7422506D01*
X15501825Y7424048D01*
X15294003Y7454180D01*
X15169289Y7448408D01*
X15088942Y7444689D01*
X15088941Y7444689D01*
X15084234Y7444471D01*
X14880084Y7395271D01*
X14875796Y7393321D01*
X14875795Y7393321D01*
X14859881Y7386085D01*
X14688922Y7308354D01*
X14517644Y7186858D01*
X14372430Y7035166D01*
X14258520Y6858751D01*
X14256762Y6854390D01*
X14256762Y6854389D01*
X14217045Y6755837D01*
X14180025Y6663979D01*
X14179124Y6659366D01*
X14179123Y6659362D01*
X14158616Y6554350D01*
X14139776Y6457878D01*
X14139226Y6247884D01*
X13795785Y6247884D01*
X13805485Y6344212D01*
X13805500Y6350000D01*
X13785555Y6559045D01*
X13726441Y6760547D01*
X13710144Y6792191D01*
X13632447Y6943048D01*
X13630290Y6947236D01*
X13622316Y6957388D01*
X13503485Y7108666D01*
X13503483Y7108668D01*
X13500572Y7112374D01*
X13497016Y7115460D01*
X13497012Y7115464D01*
X13345527Y7246916D01*
X13345526Y7246917D01*
X13341967Y7250005D01*
X13160198Y7355161D01*
X13071147Y7386085D01*
X12966270Y7422505D01*
X12966264Y7422506D01*
X12961825Y7424048D01*
X12754003Y7454180D01*
X12629289Y7448408D01*
X12548942Y7444689D01*
X12548941Y7444689D01*
X12544234Y7444471D01*
X12340084Y7395271D01*
X12335796Y7393321D01*
X12335795Y7393321D01*
X12319881Y7386085D01*
X12148922Y7308354D01*
X11977644Y7186858D01*
X11832430Y7035166D01*
X11718520Y6858751D01*
X11716762Y6854390D01*
X11716762Y6854389D01*
X11677045Y6755837D01*
X11640025Y6663979D01*
X11639124Y6659366D01*
X11639123Y6659362D01*
X11618616Y6554350D01*
X11599776Y6457878D01*
X11599226Y6247884D01*
X11255785Y6247884D01*
X11265485Y6344212D01*
X11265500Y6350000D01*
X11245555Y6559045D01*
X11186441Y6760547D01*
X11170144Y6792191D01*
X11092447Y6943048D01*
X11090290Y6947236D01*
X11082316Y6957388D01*
X10963485Y7108666D01*
X10963483Y7108668D01*
X10960572Y7112374D01*
X10957016Y7115460D01*
X10957012Y7115464D01*
X10805527Y7246916D01*
X10805526Y7246917D01*
X10801967Y7250005D01*
X10620198Y7355161D01*
X10531147Y7386085D01*
X10426270Y7422505D01*
X10426264Y7422506D01*
X10421825Y7424048D01*
X10214003Y7454180D01*
X10089289Y7448408D01*
X10008942Y7444689D01*
X10008941Y7444689D01*
X10004234Y7444471D01*
X9800084Y7395271D01*
X9795796Y7393321D01*
X9795795Y7393321D01*
X9779881Y7386085D01*
X9608922Y7308354D01*
X9437644Y7186858D01*
X9292430Y7035166D01*
X9178520Y6858751D01*
X9176762Y6854390D01*
X9176762Y6854389D01*
X9137045Y6755837D01*
X9100025Y6663979D01*
X9099124Y6659366D01*
X9099123Y6659362D01*
X9078616Y6554350D01*
X9059776Y6457878D01*
X9059226Y6247884D01*
X8715785Y6247884D01*
X8725485Y6344212D01*
X8725500Y6350000D01*
X8705555Y6559045D01*
X8646441Y6760547D01*
X8630144Y6792191D01*
X8552447Y6943048D01*
X8550290Y6947236D01*
X8542316Y6957388D01*
X8423485Y7108666D01*
X8423483Y7108668D01*
X8420572Y7112374D01*
X8417016Y7115460D01*
X8417012Y7115464D01*
X8265527Y7246916D01*
X8265526Y7246917D01*
X8261967Y7250005D01*
X8080198Y7355161D01*
X7991147Y7386085D01*
X7886270Y7422505D01*
X7886264Y7422506D01*
X7881825Y7424048D01*
X7674003Y7454180D01*
X7549289Y7448408D01*
X7468942Y7444689D01*
X7468941Y7444689D01*
X7464234Y7444471D01*
X7260084Y7395271D01*
X7255796Y7393321D01*
X7255795Y7393321D01*
X7239881Y7386085D01*
X7068922Y7308354D01*
X6897644Y7186858D01*
X6752430Y7035166D01*
X6638520Y6858751D01*
X6636762Y6854390D01*
X6636762Y6854389D01*
X6597045Y6755837D01*
X6560025Y6663979D01*
X6559124Y6659366D01*
X6559123Y6659362D01*
X6538616Y6554350D01*
X6519776Y6457878D01*
X6519226Y6247884D01*
X6175785Y6247884D01*
X6185485Y6344212D01*
X6185500Y6350000D01*
X6165555Y6559045D01*
X6106441Y6760547D01*
X6090144Y6792191D01*
X6012447Y6943048D01*
X6010290Y6947236D01*
X6002316Y6957388D01*
X5883485Y7108666D01*
X5883483Y7108668D01*
X5880572Y7112374D01*
X5877016Y7115460D01*
X5877012Y7115464D01*
X5725527Y7246916D01*
X5725526Y7246917D01*
X5721967Y7250005D01*
X5540198Y7355161D01*
X5451147Y7386085D01*
X5346270Y7422505D01*
X5346264Y7422506D01*
X5341825Y7424048D01*
X5134003Y7454180D01*
X5009289Y7448408D01*
X4928942Y7444689D01*
X4928941Y7444689D01*
X4924234Y7444471D01*
X4720084Y7395271D01*
X4715796Y7393321D01*
X4715795Y7393321D01*
X4699881Y7386085D01*
X4528922Y7308354D01*
X4357644Y7186858D01*
X4212430Y7035166D01*
X4098520Y6858751D01*
X4096762Y6854390D01*
X4096762Y6854389D01*
X4057045Y6755837D01*
X4020025Y6663979D01*
X4019124Y6659366D01*
X4019123Y6659362D01*
X3998616Y6554350D01*
X3979776Y6457878D01*
X3979226Y6247884D01*
X3635785Y6247884D01*
X3645485Y6344212D01*
X3645500Y6350000D01*
X3625555Y6559045D01*
X3566441Y6760547D01*
X3550144Y6792191D01*
X3472447Y6943048D01*
X3470290Y6947236D01*
X3462316Y6957388D01*
X3343485Y7108666D01*
X3343483Y7108668D01*
X3340572Y7112374D01*
X3337016Y7115460D01*
X3337012Y7115464D01*
X3185527Y7246916D01*
X3185526Y7246917D01*
X3181967Y7250005D01*
X3000198Y7355161D01*
X2911147Y7386085D01*
X2806270Y7422505D01*
X2806264Y7422506D01*
X2801825Y7424048D01*
X2594003Y7454180D01*
X2469289Y7448408D01*
X2388942Y7444689D01*
X2388941Y7444689D01*
X2384234Y7444471D01*
X2180084Y7395271D01*
X2175796Y7393321D01*
X2175795Y7393321D01*
X2159881Y7386085D01*
X1988922Y7308354D01*
X1817644Y7186858D01*
X1672430Y7035166D01*
X1558520Y6858751D01*
X1556762Y6854390D01*
X1556762Y6854389D01*
X1517045Y6755837D01*
X1480025Y6663979D01*
X1479124Y6659366D01*
X1479123Y6659362D01*
X1458616Y6554350D01*
X1439776Y6457878D01*
X1439226Y6247884D01*
X1095785Y6247884D01*
X1105485Y6344212D01*
X1105500Y6350000D01*
X1085555Y6559045D01*
X1026441Y6760547D01*
X1010144Y6792191D01*
X932447Y6943048D01*
X930290Y6947236D01*
X922316Y6957388D01*
X803485Y7108666D01*
X803483Y7108668D01*
X800572Y7112374D01*
X797016Y7115460D01*
X797012Y7115464D01*
X645527Y7246916D01*
X645526Y7246917D01*
X641967Y7250005D01*
X460198Y7355161D01*
X371147Y7386085D01*
X266270Y7422505D01*
X266264Y7422506D01*
X261825Y7424048D01*
X54003Y7454180D01*
X-70711Y7448408D01*
X-151058Y7444689D01*
X-151059Y7444689D01*
X-155766Y7444471D01*
X-359916Y7395271D01*
X-364204Y7393321D01*
X-364205Y7393321D01*
X-380119Y7386085D01*
X-551078Y7308354D01*
X-722356Y7186858D01*
X-867570Y7035166D01*
X-981480Y6858751D01*
X-983238Y6854390D01*
X-983238Y6854389D01*
X-1022955Y6755837D01*
X-1059975Y6663979D01*
X-1060876Y6659366D01*
X-1060877Y6659362D01*
X-1081384Y6554350D01*
X-1100224Y6457878D01*
X-1100774Y6247884D01*
X-1444215Y6247884D01*
X-1434515Y6344212D01*
X-1434500Y6350000D01*
X-1454445Y6559045D01*
X-1513559Y6760547D01*
X-1529856Y6792191D01*
X-1607553Y6943048D01*
X-1609710Y6947236D01*
X-1617684Y6957388D01*
X-1736515Y7108666D01*
X-1736517Y7108668D01*
X-1739428Y7112374D01*
X-1742984Y7115460D01*
X-1742988Y7115464D01*
X-1894473Y7246916D01*
X-1894474Y7246917D01*
X-1898033Y7250005D01*
X-2079802Y7355161D01*
X-2168853Y7386085D01*
X-2273730Y7422505D01*
X-2273736Y7422506D01*
X-2278175Y7424048D01*
X-2485997Y7454180D01*
X-2610711Y7448408D01*
X-2691058Y7444689D01*
X-2691059Y7444689D01*
X-2695766Y7444471D01*
X-2899916Y7395271D01*
X-2904204Y7393321D01*
X-2904205Y7393321D01*
X-2920119Y7386085D01*
X-3091078Y7308354D01*
X-3262356Y7186858D01*
X-3407570Y7035166D01*
X-3521480Y6858751D01*
X-3523238Y6854390D01*
X-3523238Y6854389D01*
X-3562955Y6755837D01*
X-3599975Y6663979D01*
X-3600876Y6659366D01*
X-3600877Y6659362D01*
X-3621384Y6554350D01*
X-3640224Y6457878D01*
X-3640774Y6247884D01*
X-3984215Y6247884D01*
X-3974515Y6344212D01*
X-3974500Y6350000D01*
X-3994445Y6559045D01*
X-4053559Y6760547D01*
X-4069856Y6792191D01*
X-4147553Y6943048D01*
X-4149710Y6947236D01*
X-4157684Y6957388D01*
X-4276515Y7108666D01*
X-4276517Y7108668D01*
X-4279428Y7112374D01*
X-4282984Y7115460D01*
X-4282988Y7115464D01*
X-4434473Y7246916D01*
X-4434474Y7246917D01*
X-4438033Y7250005D01*
X-4619802Y7355161D01*
X-4708853Y7386085D01*
X-4813730Y7422505D01*
X-4813736Y7422506D01*
X-4818175Y7424048D01*
X-5025997Y7454180D01*
X-5150711Y7448408D01*
X-5231058Y7444689D01*
X-5231059Y7444689D01*
X-5235766Y7444471D01*
X-5439916Y7395271D01*
X-5444204Y7393321D01*
X-5444205Y7393321D01*
X-5460119Y7386085D01*
X-5631078Y7308354D01*
X-5802356Y7186858D01*
X-5947570Y7035166D01*
X-6061480Y6858751D01*
X-6063238Y6854390D01*
X-6063238Y6854389D01*
X-6102955Y6755837D01*
X-6139975Y6663979D01*
X-6140876Y6659366D01*
X-6140877Y6659362D01*
X-6161384Y6554350D01*
X-6180224Y6457878D01*
X-6180774Y6247884D01*
X-6524215Y6247884D01*
X-6514515Y6344212D01*
X-6514500Y6350000D01*
X-6534445Y6559045D01*
X-6593559Y6760547D01*
X-6609856Y6792191D01*
X-6687553Y6943048D01*
X-6689710Y6947236D01*
X-6697684Y6957388D01*
X-6816515Y7108666D01*
X-6816517Y7108668D01*
X-6819428Y7112374D01*
X-6822984Y7115460D01*
X-6822988Y7115464D01*
X-6974473Y7246916D01*
X-6974474Y7246917D01*
X-6978033Y7250005D01*
X-7159802Y7355161D01*
X-7248853Y7386085D01*
X-7353730Y7422505D01*
X-7353736Y7422506D01*
X-7358175Y7424048D01*
X-7565997Y7454180D01*
X-7690711Y7448408D01*
X-7771058Y7444689D01*
X-7771059Y7444689D01*
X-7775766Y7444471D01*
X-7979916Y7395271D01*
X-7984204Y7393321D01*
X-7984205Y7393321D01*
X-8000119Y7386085D01*
X-8171078Y7308354D01*
X-8342356Y7186858D01*
X-8487570Y7035166D01*
X-8601480Y6858751D01*
X-8603238Y6854390D01*
X-8603238Y6854389D01*
X-8642955Y6755837D01*
X-8679975Y6663979D01*
X-8680876Y6659366D01*
X-8680877Y6659362D01*
X-8701384Y6554350D01*
X-8720224Y6457878D01*
X-8720774Y6247884D01*
X-11604215Y6247884D01*
X-11594515Y6344212D01*
X-11594500Y6350000D01*
X-11614445Y6559045D01*
X-11632147Y6619387D01*
X-11228176Y6619387D01*
X-11226563Y6606151D01*
X-11226466Y6606047D01*
X-11218565Y6604000D01*
X-10429680Y6604000D01*
X-10416995Y6608122D01*
X-10414000Y6612243D01*
X-10414000Y7404605D01*
X-10416822Y7413292D01*
X-9906000Y7413292D01*
X-9906000Y6619680D01*
X-9901878Y6606995D01*
X-9897757Y6604000D01*
X-9103832Y6604000D01*
X-9092514Y6607677D01*
X-9092361Y6618347D01*
X-9132696Y6755837D01*
X-9136180Y6764549D01*
X-9227974Y6942778D01*
X-9233044Y6950674D01*
X-9356878Y7108323D01*
X-9363347Y7115116D01*
X-9514763Y7246509D01*
X-9522405Y7251959D01*
X-9695934Y7352348D01*
X-9704457Y7356250D01*
X-9893527Y7421907D01*
X-9903627Y7420171D01*
X-9904638Y7419133D01*
X-9906000Y7413292D01*
X-10416822Y7413292D01*
X-10417932Y7416707D01*
X-10427333Y7417072D01*
X-10515170Y7395903D01*
X-10524042Y7392848D01*
X-10706540Y7309871D01*
X-10714672Y7305195D01*
X-10878187Y7189206D01*
X-10885287Y7183077D01*
X-11023920Y7038260D01*
X-11029734Y7030897D01*
X-11138483Y6862475D01*
X-11142794Y6854159D01*
X-11217735Y6668207D01*
X-11220399Y6659211D01*
X-11228176Y6619387D01*
X-11632147Y6619387D01*
X-11673559Y6760547D01*
X-11689856Y6792191D01*
X-11767553Y6943048D01*
X-11769710Y6947236D01*
X-11777684Y6957388D01*
X-11896515Y7108666D01*
X-11896517Y7108668D01*
X-11899428Y7112374D01*
X-11902984Y7115460D01*
X-11902988Y7115464D01*
X-12054473Y7246916D01*
X-12054474Y7246917D01*
X-12058033Y7250005D01*
X-12239802Y7355161D01*
X-12328853Y7386085D01*
X-12433730Y7422505D01*
X-12433736Y7422506D01*
X-12438175Y7424048D01*
X-12645997Y7454180D01*
X-12770711Y7448408D01*
X-12851058Y7444689D01*
X-12851059Y7444689D01*
X-12855766Y7444471D01*
X-13059916Y7395271D01*
X-13064204Y7393321D01*
X-13064205Y7393321D01*
X-13080119Y7386085D01*
X-13251078Y7308354D01*
X-13422356Y7186858D01*
X-13567570Y7035166D01*
X-13681480Y6858751D01*
X-13683238Y6854390D01*
X-13683238Y6854389D01*
X-13722955Y6755837D01*
X-13759975Y6663979D01*
X-13760876Y6659366D01*
X-13760877Y6659362D01*
X-13781384Y6554350D01*
X-13800224Y6457878D01*
X-13800774Y6247884D01*
X-14144215Y6247884D01*
X-14134515Y6344212D01*
X-14134500Y6350000D01*
X-14154445Y6559045D01*
X-14213559Y6760547D01*
X-14229856Y6792191D01*
X-14307553Y6943048D01*
X-14309710Y6947236D01*
X-14317684Y6957388D01*
X-14436515Y7108666D01*
X-14436517Y7108668D01*
X-14439428Y7112374D01*
X-14442984Y7115460D01*
X-14442988Y7115464D01*
X-14594473Y7246916D01*
X-14594474Y7246917D01*
X-14598033Y7250005D01*
X-14779802Y7355161D01*
X-14868853Y7386085D01*
X-14973730Y7422505D01*
X-14973736Y7422506D01*
X-14978175Y7424048D01*
X-15185997Y7454180D01*
X-15310711Y7448408D01*
X-15391058Y7444689D01*
X-15391059Y7444689D01*
X-15395766Y7444471D01*
X-15599916Y7395271D01*
X-15604204Y7393321D01*
X-15604205Y7393321D01*
X-15620119Y7386085D01*
X-15791078Y7308354D01*
X-15962356Y7186858D01*
X-16107570Y7035166D01*
X-16221480Y6858751D01*
X-16223238Y6854390D01*
X-16223238Y6854389D01*
X-16262955Y6755837D01*
X-16299975Y6663979D01*
X-16300876Y6659366D01*
X-16300877Y6659362D01*
X-16321384Y6554350D01*
X-16340224Y6457878D01*
X-16340774Y6247884D01*
X-16674500Y6247884D01*
X-16674500Y7200000D01*
X-16693949Y7297776D01*
X-16749334Y7380666D01*
X-16832224Y7436051D01*
X-16930000Y7455500D01*
X-18630000Y7455500D01*
X-18727776Y7436051D01*
X-18810666Y7380666D01*
X-18866051Y7297776D01*
X-18885500Y7200000D01*
X-19544399Y7200000D01*
X-19613246Y7263642D01*
X-19613247Y7263643D01*
X-19616576Y7266720D01*
X-19648944Y7287143D01*
X-19771044Y7364182D01*
X-19795414Y7379558D01*
X-19991820Y7457916D01*
X-20199217Y7499170D01*
X-20304938Y7500554D01*
X-20406120Y7501879D01*
X-20406125Y7501879D01*
X-20410659Y7501938D01*
X-20415134Y7501169D01*
X-20415135Y7501169D01*
X-20614596Y7466895D01*
X-20619065Y7466127D01*
X-20695434Y7437953D01*
X-20813193Y7394510D01*
X-20813196Y7394509D01*
X-20817456Y7392937D01*
X-20821359Y7390615D01*
X-20821361Y7390614D01*
X-20878357Y7356705D01*
X-20999186Y7284819D01*
X-21002601Y7281824D01*
X-21002604Y7281822D01*
X-21135725Y7165078D01*
X-21191942Y7140925D01*
X-21251618Y7154429D01*
X-21291960Y7200431D01*
X-21300000Y7239510D01*
X-21300000Y8601000D01*
X-21281093Y8659191D01*
X-21231593Y8695155D01*
X-21201000Y8700000D01*
X21201000Y8700000D01*
X21259191Y8681093D01*
G37*
%TD.AperFunction*%
%TD*%
%TA.AperFunction,Conductor*%
%TO.N,VDD*%
G36*
X9959191Y2481093D02*
G01*
X9995155Y2431593D01*
X10000000Y2401000D01*
X10000000Y1400000D01*
X12301000Y1400000D01*
X12359191Y1381093D01*
X12395155Y1331593D01*
X12400000Y1301000D01*
X12400000Y299000D01*
X12381093Y240809D01*
X12331593Y204845D01*
X12301000Y200000D01*
X11000000Y200000D01*
X11000000Y-1000D01*
X10981093Y-59191D01*
X10931593Y-95155D01*
X10901000Y-100000D01*
X9686622Y-100000D01*
X9628431Y-81093D01*
X9622194Y-76166D01*
X7934572Y1370367D01*
X7902695Y1422592D01*
X7900000Y1445533D01*
X7900000Y2401000D01*
X7918907Y2459191D01*
X7968407Y2495155D01*
X7999000Y2500000D01*
X9901000Y2500000D01*
X9959191Y2481093D01*
G37*
%TD.AperFunction*%
%TD*%
M02*
