%TF.GenerationSoftware,KiCad,Pcbnew,(5.99.0-8703-ge6b2699d93)*%
%TF.CreationDate,2021-02-16T00:04:42+01:00*%
%TF.ProjectId,ax5243-test-board,61783532-3433-42d7-9465-73742d626f61,B*%
%TF.SameCoordinates,PX8954400PY4e33880*%
%TF.FileFunction,Copper,L1,Top*%
%TF.FilePolarity,Positive*%
%FSLAX46Y46*%
G04 Gerber Fmt 4.6, Leading zero omitted, Abs format (unit mm)*
G04 Created by KiCad (PCBNEW (5.99.0-8703-ge6b2699d93)) date 2021-02-16 00:04:42*
%MOMM*%
%LPD*%
G01*
G04 APERTURE LIST*
G04 Aperture macros list*
%AMRoundRect*
0 Rectangle with rounded corners*
0 $1 Rounding radius*
0 $2 $3 $4 $5 $6 $7 $8 $9 X,Y pos of 4 corners*
0 Add a 4 corners polygon primitive as box body*
4,1,4,$2,$3,$4,$5,$6,$7,$8,$9,$2,$3,0*
0 Add four circle primitives for the rounded corners*
1,1,$1+$1,$2,$3*
1,1,$1+$1,$4,$5*
1,1,$1+$1,$6,$7*
1,1,$1+$1,$8,$9*
0 Add four rect primitives between the rounded corners*
20,1,$1+$1,$2,$3,$4,$5,0*
20,1,$1+$1,$4,$5,$6,$7,0*
20,1,$1+$1,$6,$7,$8,$9,0*
20,1,$1+$1,$8,$9,$2,$3,0*%
G04 Aperture macros list end*
%TA.AperFunction,SMDPad,CuDef*%
%ADD10RoundRect,0.140000X0.140000X0.170000X-0.140000X0.170000X-0.140000X-0.170000X0.140000X-0.170000X0*%
%TD*%
%TA.AperFunction,SMDPad,CuDef*%
%ADD11RoundRect,0.140000X0.170000X-0.140000X0.170000X0.140000X-0.170000X0.140000X-0.170000X-0.140000X0*%
%TD*%
%TA.AperFunction,SMDPad,CuDef*%
%ADD12RoundRect,0.147500X-0.147500X-0.172500X0.147500X-0.172500X0.147500X0.172500X-0.147500X0.172500X0*%
%TD*%
%TA.AperFunction,SMDPad,CuDef*%
%ADD13RoundRect,0.225000X0.250000X-0.225000X0.250000X0.225000X-0.250000X0.225000X-0.250000X-0.225000X0*%
%TD*%
%TA.AperFunction,SMDPad,CuDef*%
%ADD14R,0.850000X0.650000*%
%TD*%
%TA.AperFunction,SMDPad,CuDef*%
%ADD15RoundRect,0.218750X-0.256250X0.218750X-0.256250X-0.218750X0.256250X-0.218750X0.256250X0.218750X0*%
%TD*%
%TA.AperFunction,SMDPad,CuDef*%
%ADD16RoundRect,0.218750X0.218750X0.256250X-0.218750X0.256250X-0.218750X-0.256250X0.218750X-0.256250X0*%
%TD*%
%TA.AperFunction,ComponentPad*%
%ADD17C,2.050000*%
%TD*%
%TA.AperFunction,ComponentPad*%
%ADD18C,2.250000*%
%TD*%
%TA.AperFunction,SMDPad,CuDef*%
%ADD19RoundRect,0.140000X-0.140000X-0.170000X0.140000X-0.170000X0.140000X0.170000X-0.140000X0.170000X0*%
%TD*%
%TA.AperFunction,SMDPad,CuDef*%
%ADD20RoundRect,0.140000X-0.170000X0.140000X-0.170000X-0.140000X0.170000X-0.140000X0.170000X0.140000X0*%
%TD*%
%TA.AperFunction,SMDPad,CuDef*%
%ADD21RoundRect,0.135000X-0.185000X0.135000X-0.185000X-0.135000X0.185000X-0.135000X0.185000X0.135000X0*%
%TD*%
%TA.AperFunction,SMDPad,CuDef*%
%ADD22RoundRect,0.135000X0.135000X0.185000X-0.135000X0.185000X-0.135000X-0.185000X0.135000X-0.185000X0*%
%TD*%
%TA.AperFunction,SMDPad,CuDef*%
%ADD23O,0.750000X0.300000*%
%TD*%
%TA.AperFunction,SMDPad,CuDef*%
%ADD24O,0.300000X0.750000*%
%TD*%
%TA.AperFunction,SMDPad,CuDef*%
%ADD25RoundRect,0.195000X-0.130000X-0.130000X0.130000X-0.130000X0.130000X0.130000X-0.130000X0.130000X0*%
%TD*%
%TA.AperFunction,ComponentPad*%
%ADD26C,0.510000*%
%TD*%
%TA.AperFunction,SMDPad,CuDef*%
%ADD27R,2.550000X2.550000*%
%TD*%
%TA.AperFunction,SMDPad,CuDef*%
%ADD28RoundRect,0.147500X0.172500X-0.147500X0.172500X0.147500X-0.172500X0.147500X-0.172500X-0.147500X0*%
%TD*%
%TA.AperFunction,ComponentPad*%
%ADD29R,1.700000X1.700000*%
%TD*%
%TA.AperFunction,ComponentPad*%
%ADD30O,1.700000X1.700000*%
%TD*%
%TA.AperFunction,ViaPad*%
%ADD31C,0.500000*%
%TD*%
%TA.AperFunction,Conductor*%
%ADD32C,1.000000*%
%TD*%
%TA.AperFunction,Conductor*%
%ADD33C,0.250000*%
%TD*%
%TA.AperFunction,Conductor*%
%ADD34C,0.800000*%
%TD*%
%TA.AperFunction,Conductor*%
%ADD35C,0.550000*%
%TD*%
%TA.AperFunction,Conductor*%
%ADD36C,0.200000*%
%TD*%
%TA.AperFunction,Conductor*%
%ADD37C,0.400000*%
%TD*%
%TA.AperFunction,Conductor*%
%ADD38C,0.500000*%
%TD*%
G04 APERTURE END LIST*
D10*
%TO.P,C15,1*%
%TO.N,GND*%
X6160000Y3600000D03*
%TO.P,C15,2*%
%TO.N,/CLK16N*%
X5200000Y3600000D03*
%TD*%
D11*
%TO.P,C18,1*%
%TO.N,VDD*%
X10470000Y790000D03*
%TO.P,C18,2*%
%TO.N,GND*%
X10470000Y1750000D03*
%TD*%
D12*
%TO.P,L1,1*%
%TO.N,/ANT*%
X-8385000Y700000D03*
%TO.P,L1,2*%
%TO.N,/RF3*%
X-7415000Y700000D03*
%TD*%
D13*
%TO.P,C13,1*%
%TO.N,VDD*%
X8410000Y1775000D03*
%TO.P,C13,2*%
%TO.N,GND*%
X8410000Y3325000D03*
%TD*%
D12*
%TO.P,L4,1*%
%TO.N,/RF2P*%
X-2385000Y700000D03*
%TO.P,L4,2*%
%TO.N,/RF1P*%
X-1415000Y700000D03*
%TD*%
D11*
%TO.P,C10,1*%
%TO.N,GND*%
X3400000Y-3880000D03*
%TO.P,C10,2*%
%TO.N,/FILT*%
X3400000Y-2920000D03*
%TD*%
D14*
%TO.P,X1,1,Tri-State*%
%TO.N,TCXO_CTL*%
X13275000Y775000D03*
%TO.P,X1,2,GND*%
%TO.N,GND*%
X13275000Y2425000D03*
%TO.P,X1,3,OUT*%
%TO.N,/OSC*%
X11725000Y2425000D03*
%TO.P,X1,4,VDD*%
%TO.N,VDD*%
X11725000Y775000D03*
%TD*%
D15*
%TO.P,L6,1*%
%TO.N,GND*%
X500000Y3687500D03*
%TO.P,L6,2*%
%TO.N,/ANTP*%
X500000Y2112500D03*
%TD*%
D16*
%TO.P,L8,1*%
%TO.N,/L1*%
X6237500Y-3550000D03*
%TO.P,L8,2*%
%TO.N,/L2*%
X4662500Y-3550000D03*
%TD*%
D17*
%TO.P,J1,1,In*%
%TO.N,/ANT*%
X-15000000Y0D03*
D18*
%TO.P,J1,2,Ext*%
%TO.N,GND*%
X-12460000Y2540000D03*
X-17540000Y2540000D03*
X-12460000Y-2540000D03*
X-17540000Y-2540000D03*
%TD*%
D19*
%TO.P,C4,1*%
%TO.N,/RF3*%
X-5480000Y-700000D03*
%TO.P,C4,2*%
%TO.N,/RF2N*%
X-4520000Y-700000D03*
%TD*%
%TO.P,C7,1*%
%TO.N,/RF1N*%
X-480000Y-700000D03*
%TO.P,C7,2*%
%TO.N,/ANTN*%
X480000Y-700000D03*
%TD*%
D11*
%TO.P,C3,1*%
%TO.N,GND*%
X-6400000Y-1680000D03*
%TO.P,C3,2*%
%TO.N,/RF3*%
X-6400000Y-720000D03*
%TD*%
D20*
%TO.P,C9,1*%
%TO.N,/ANTN*%
X-800000Y-2290000D03*
%TO.P,C9,2*%
%TO.N,GND*%
X-800000Y-3250000D03*
%TD*%
D21*
%TO.P,R3,1*%
%TO.N,/CLK16P*%
X4200000Y4610000D03*
%TO.P,R3,2*%
%TO.N,/CLK16N*%
X4200000Y3590000D03*
%TD*%
D22*
%TO.P,R1,1*%
%TO.N,TCXO_CTL*%
X13210000Y-590000D03*
%TO.P,R1,2*%
%TO.N,/TCXO_EN*%
X12190000Y-590000D03*
%TD*%
D20*
%TO.P,C8,1*%
%TO.N,GND*%
X-800000Y3340000D03*
%TO.P,C8,2*%
%TO.N,/ANTP*%
X-800000Y2380000D03*
%TD*%
D23*
%TO.P,U1,1,VDD_ANA*%
%TO.N,/VDD_ANA1*%
X2800000Y1300000D03*
%TO.P,U1,2,GND*%
%TO.N,GND*%
X2800000Y800000D03*
%TO.P,U1,3,ANTP*%
%TO.N,/ANTP*%
X2800000Y300000D03*
%TO.P,U1,4,ANTN*%
%TO.N,/ANTN*%
X2800000Y-200000D03*
%TO.P,U1,5,VDD_ANA*%
%TO.N,/VDD_ANA2*%
X2800000Y-700000D03*
D24*
%TO.P,U1,6,FILT*%
%TO.N,/FILT*%
X3700000Y-1600000D03*
%TO.P,U1,7,L2*%
%TO.N,/L2*%
X4200000Y-1600000D03*
%TO.P,U1,8,L1*%
%TO.N,/L1*%
X4700000Y-1600000D03*
%TO.P,U1,9,SYSCLK*%
%TO.N,SYSCLK*%
X5200000Y-1600000D03*
%TO.P,U1,10,SEL*%
%TO.N,SEL*%
X5700000Y-1600000D03*
D23*
%TO.P,U1,11,CLK*%
%TO.N,CLK*%
X6600000Y-700000D03*
%TO.P,U1,12,MISO*%
%TO.N,MISO*%
X6600000Y-200000D03*
%TO.P,U1,13,MOSI*%
%TO.N,MOSI*%
X6600000Y300000D03*
%TO.P,U1,14,IRQ*%
%TO.N,IRQ*%
X6600000Y800000D03*
%TO.P,U1,15,TCXO_EN*%
%TO.N,/TCXO_EN*%
X6600000Y1300000D03*
D24*
%TO.P,U1,16,VDD_IO*%
%TO.N,VDD*%
X5700000Y2200000D03*
%TO.P,U1,17,GPADC1*%
%TO.N,GND*%
X5200000Y2200000D03*
%TO.P,U1,18,GPADC2*%
X4700000Y2200000D03*
%TO.P,U1,19,CLK16N*%
%TO.N,/CLK16N*%
X4200000Y2200000D03*
%TO.P,U1,20,CLK16P*%
%TO.N,/CLK16P*%
X3700000Y2200000D03*
D25*
%TO.P,U1,21,GND*%
%TO.N,GND*%
X5550000Y1150000D03*
X5550000Y-550000D03*
D26*
X4270000Y-130000D03*
D25*
X3850000Y1150000D03*
D26*
X5130000Y730000D03*
D25*
X4700000Y-550000D03*
X4700000Y300000D03*
X3850000Y-550000D03*
X3850000Y300000D03*
D27*
X4700000Y300000D03*
D26*
X4270000Y730000D03*
D25*
X4700000Y1150000D03*
D26*
X5130000Y-130000D03*
D25*
X5550000Y300000D03*
%TD*%
D22*
%TO.P,R4,1*%
%TO.N,GND*%
X15210000Y-610000D03*
%TO.P,R4,2*%
%TO.N,TCXO_CTL*%
X14190000Y-610000D03*
%TD*%
D12*
%TO.P,L2,1*%
%TO.N,/RF3*%
X-5485000Y700000D03*
%TO.P,L2,2*%
%TO.N,/RF2P*%
X-4515000Y700000D03*
%TD*%
D22*
%TO.P,R2,1*%
%TO.N,DAC_OUT*%
X13220000Y-1690000D03*
%TO.P,R2,2*%
%TO.N,/TCXO_EN*%
X12200000Y-1690000D03*
%TD*%
D11*
%TO.P,C12,1*%
%TO.N,GND*%
X1760000Y-2730000D03*
%TO.P,C12,2*%
%TO.N,/VDD_ANA2*%
X1760000Y-1770000D03*
%TD*%
D15*
%TO.P,L7,1*%
%TO.N,/ANTN*%
X500000Y-2012500D03*
%TO.P,L7,2*%
%TO.N,GND*%
X500000Y-3587500D03*
%TD*%
D19*
%TO.P,C17,1*%
%TO.N,/CLK16P*%
X10790000Y3860000D03*
%TO.P,C17,2*%
%TO.N,/OSC*%
X11750000Y3860000D03*
%TD*%
D28*
%TO.P,L3,1*%
%TO.N,GND*%
X-3450000Y-1635000D03*
%TO.P,L3,2*%
%TO.N,/RF2N*%
X-3450000Y-665000D03*
%TD*%
D19*
%TO.P,C2,1*%
%TO.N,/ANT*%
X-8380000Y-700000D03*
%TO.P,C2,2*%
%TO.N,/RF3*%
X-7420000Y-700000D03*
%TD*%
D11*
%TO.P,C1,1*%
%TO.N,GND*%
X-9600000Y-1190000D03*
%TO.P,C1,2*%
%TO.N,/ANT*%
X-9600000Y-230000D03*
%TD*%
D20*
%TO.P,C5,1*%
%TO.N,GND*%
X-3480000Y1670000D03*
%TO.P,C5,2*%
%TO.N,/RF2P*%
X-3480000Y710000D03*
%TD*%
%TO.P,C16,1*%
%TO.N,/CLK16P*%
X9700000Y3850000D03*
%TO.P,C16,2*%
%TO.N,GND*%
X9700000Y2890000D03*
%TD*%
D12*
%TO.P,L5,1*%
%TO.N,/RF2N*%
X-2385000Y-700000D03*
%TO.P,L5,2*%
%TO.N,/RF1N*%
X-1415000Y-700000D03*
%TD*%
D10*
%TO.P,C14,1*%
%TO.N,GND*%
X15180000Y-1700000D03*
%TO.P,C14,2*%
%TO.N,DAC_OUT*%
X14220000Y-1700000D03*
%TD*%
D20*
%TO.P,C11,1*%
%TO.N,GND*%
X1800000Y3610000D03*
%TO.P,C11,2*%
%TO.N,/VDD_ANA1*%
X1800000Y2650000D03*
%TD*%
D19*
%TO.P,C6,1*%
%TO.N,/RF1P*%
X-480000Y700000D03*
%TO.P,C6,2*%
%TO.N,/ANTP*%
X480000Y700000D03*
%TD*%
D29*
%TO.P,J2,1,Pin_1*%
%TO.N,unconnected-(J2-Pad1)*%
X-17780000Y7620000D03*
D30*
%TO.P,J2,2,Pin_2*%
%TO.N,unconnected-(J2-Pad2)*%
X-15240000Y7620000D03*
%TO.P,J2,3,Pin_3*%
%TO.N,unconnected-(J2-Pad3)*%
X-12700000Y7620000D03*
%TO.P,J2,4,Pin_4*%
%TO.N,GND*%
X-10160000Y7620000D03*
%TO.P,J2,5,Pin_5*%
%TO.N,unconnected-(J2-Pad5)*%
X-7620000Y7620000D03*
%TO.P,J2,6,Pin_6*%
%TO.N,unconnected-(J2-Pad6)*%
X-5080000Y7620000D03*
%TO.P,J2,7,Pin_7*%
%TO.N,unconnected-(J2-Pad7)*%
X-2540000Y7620000D03*
%TO.P,J2,8,Pin_8*%
%TO.N,unconnected-(J2-Pad8)*%
X0Y7620000D03*
%TO.P,J2,9,Pin_9*%
%TO.N,unconnected-(J2-Pad9)*%
X2540000Y7620000D03*
%TO.P,J2,10,Pin_10*%
%TO.N,unconnected-(J2-Pad10)*%
X5080000Y7620000D03*
%TO.P,J2,11,Pin_11*%
%TO.N,unconnected-(J2-Pad11)*%
X7620000Y7620000D03*
%TO.P,J2,12,Pin_12*%
%TO.N,IRQ*%
X10160000Y7620000D03*
%TO.P,J2,13,Pin_13*%
%TO.N,SEL*%
X12700000Y7620000D03*
%TO.P,J2,14,Pin_14*%
%TO.N,MOSI*%
X15240000Y7620000D03*
%TO.P,J2,15,Pin_15*%
%TO.N,MISO*%
X17780000Y7620000D03*
%TD*%
D29*
%TO.P,J3,1,Pin_1*%
%TO.N,unconnected-(J3-Pad1)*%
X-17780000Y-7620000D03*
D30*
%TO.P,J3,2,Pin_2*%
%TO.N,GND*%
X-15240000Y-7620000D03*
%TO.P,J3,3,Pin_3*%
%TO.N,unconnected-(J3-Pad3)*%
X-12700000Y-7620000D03*
%TO.P,J3,4,Pin_4*%
%TO.N,unconnected-(J3-Pad4)*%
X-10160000Y-7620000D03*
%TO.P,J3,5,Pin_5*%
%TO.N,unconnected-(J3-Pad5)*%
X-7620000Y-7620000D03*
%TO.P,J3,6,Pin_6*%
%TO.N,unconnected-(J3-Pad6)*%
X-5080000Y-7620000D03*
%TO.P,J3,7,Pin_7*%
%TO.N,unconnected-(J3-Pad7)*%
X-2540000Y-7620000D03*
%TO.P,J3,8,Pin_8*%
%TO.N,unconnected-(J3-Pad8)*%
X0Y-7620000D03*
%TO.P,J3,9,Pin_9*%
%TO.N,unconnected-(J3-Pad9)*%
X2540000Y-7620000D03*
%TO.P,J3,10,Pin_10*%
%TO.N,unconnected-(J3-Pad10)*%
X5080000Y-7620000D03*
%TO.P,J3,11,Pin_11*%
%TO.N,DAC_OUT*%
X7620000Y-7620000D03*
%TO.P,J3,12,Pin_12*%
%TO.N,SYSCLK*%
X10160000Y-7620000D03*
%TO.P,J3,13,Pin_13*%
%TO.N,unconnected-(J3-Pad13)*%
X12700000Y-7620000D03*
%TO.P,J3,14,Pin_14*%
%TO.N,VDD*%
X15240000Y-7620000D03*
%TO.P,J3,15,Pin_15*%
%TO.N,CLK*%
X17780000Y-7620000D03*
%TD*%
D31*
%TO.N,GND*%
X-20500000Y-2000000D03*
X13950000Y-6630000D03*
X2800000Y-3900000D03*
X-8910000Y-6630000D03*
X-5000000Y1600000D03*
X-6370000Y6730000D03*
X-20500000Y0D03*
X-800000Y3900000D03*
X200000Y-4300000D03*
X2350000Y-2750000D03*
X-9600000Y-1700000D03*
X20500000Y-5500000D03*
X2400000Y3600000D03*
X1800000Y4150000D03*
X6150000Y3000000D03*
X-20500000Y2000000D03*
X11410000Y-6630000D03*
X16490000Y6730000D03*
X-2850000Y-1650000D03*
X2900000Y-1450000D03*
X-1400000Y-3250000D03*
X-2900000Y1700000D03*
X-9600000Y1150000D03*
X13300000Y3050000D03*
X-8910000Y6730000D03*
X16490000Y-6630000D03*
X-13990000Y6730000D03*
X-3450000Y-2200000D03*
X-6370000Y-6630000D03*
X20500000Y-2000000D03*
X11410000Y6730000D03*
X-1400000Y3400000D03*
X-800000Y-3800000D03*
X19030000Y-6630000D03*
X-20500000Y-5500000D03*
X8800000Y-4050000D03*
X-7000000Y-1700000D03*
X20500000Y2000000D03*
X7300000Y-3000000D03*
X-7900000Y-1600000D03*
X13450000Y-2850000D03*
X-11450000Y6730000D03*
X-4050000Y-1650000D03*
X1250000Y-6630000D03*
X-6800000Y1550000D03*
X800000Y4400000D03*
X8870000Y6730000D03*
X-1900000Y1600000D03*
X6330000Y6730000D03*
X-5000000Y-1600000D03*
X-1290000Y6730000D03*
X13950000Y2450000D03*
X1250000Y6730000D03*
X3790000Y6730000D03*
X2000000Y950000D03*
X-3830000Y-6630000D03*
X20500000Y5500000D03*
X-3500000Y2200000D03*
X-1290000Y-6630000D03*
X7650000Y3700000D03*
X20500000Y0D03*
X7650000Y2950000D03*
X3790000Y-6630000D03*
X-4100000Y1700000D03*
X13950000Y6730000D03*
X1750000Y-3250000D03*
X-5800000Y-1700000D03*
X20500000Y4000000D03*
X6700000Y3600000D03*
X2700000Y2800000D03*
X10500000Y2300000D03*
X850000Y-4300000D03*
X15750000Y-600000D03*
X19030000Y6730000D03*
X-20500000Y4000000D03*
X15726107Y-1700000D03*
X6330000Y-6630000D03*
X-11450000Y-6630000D03*
X-8300000Y1700000D03*
X8870000Y-6630000D03*
X-20500000Y5500000D03*
X-1900000Y-1600000D03*
X250000Y4400000D03*
X-20500000Y-4000000D03*
X20500000Y-4000000D03*
X-3830000Y6730000D03*
X-10200000Y-1200000D03*
X-13990000Y-6630000D03*
X-6400000Y-2200000D03*
%TO.N,DAC_OUT*%
X12100000Y-2700000D03*
%TO.N,VDD*%
X9500000Y700000D03*
X9506885Y2010497D03*
X10500000Y250000D03*
X9506885Y1410497D03*
%TO.N,SEL*%
X16144938Y-2844938D03*
X6750000Y-1600000D03*
%TD*%
D32*
%TO.N,/ANT*%
X-15000000Y0D02*
X-10900000Y0D01*
D33*
X-10880000Y-20000D02*
X-10900000Y0D01*
D32*
X-10900000Y0D02*
X-10899939Y-61D01*
D34*
X-9105000Y-20000D02*
X-9060000Y-20000D01*
D32*
X-10899939Y-61D02*
X-9079939Y-61D01*
D35*
X-9060000Y-20000D02*
X-8380000Y-700000D01*
D32*
X-9079939Y-61D02*
X-9060000Y-20000D01*
D35*
X-9105000Y-20000D02*
X-8385000Y700000D01*
D36*
%TO.N,GND*%
X13275000Y2425000D02*
X13925000Y2425000D01*
D33*
X2800000Y800000D02*
X4200000Y800000D01*
X8675000Y3325000D02*
X9110000Y2890000D01*
X2000000Y950000D02*
X2150000Y800000D01*
D36*
X1950000Y-3250000D02*
X1750000Y-3250000D01*
D33*
X10470000Y1750000D02*
X12600000Y1750000D01*
X8410000Y3325000D02*
X8675000Y3325000D01*
X9110000Y2890000D02*
X9700000Y2890000D01*
D36*
X2600000Y-2600000D02*
X1950000Y-3250000D01*
D33*
X10500000Y2300000D02*
X10470000Y2270000D01*
X2150000Y800000D02*
X2800000Y800000D01*
D36*
X4700000Y2200000D02*
X4700000Y1160000D01*
X3224918Y2185082D02*
X1800000Y3610000D01*
X15726107Y-1700000D02*
X15180000Y-1700000D01*
X3224918Y1775082D02*
X3224918Y2185082D01*
X4270000Y-130000D02*
X2600000Y-1800000D01*
X2820000Y-3880000D02*
X2800000Y-3900000D01*
D33*
X8025000Y3325000D02*
X7650000Y2950000D01*
D36*
X6700000Y3600000D02*
X6160000Y3600000D01*
X15180000Y-1700000D02*
X15180000Y-640000D01*
X13925000Y2425000D02*
X13950000Y2450000D01*
X15740000Y-610000D02*
X15210000Y-610000D01*
X1760000Y-2730000D02*
X1760000Y-3240000D01*
X13275000Y3025000D02*
X13275000Y2425000D01*
X1760000Y-3240000D02*
X1750000Y-3250000D01*
X4700000Y1160000D02*
X4270000Y730000D01*
X13300000Y3050000D02*
X13275000Y3025000D01*
X15180000Y-640000D02*
X15210000Y-610000D01*
D33*
X8025000Y3325000D02*
X7650000Y3700000D01*
D36*
X5200000Y800000D02*
X5130000Y730000D01*
X3400000Y-3880000D02*
X2820000Y-3880000D01*
D33*
X4200000Y800000D02*
X4270000Y730000D01*
D36*
X15750000Y-600000D02*
X15740000Y-610000D01*
X4270000Y730000D02*
X3224918Y1775082D01*
X2600000Y-1800000D02*
X2600000Y-2600000D01*
X5200000Y2200000D02*
X5200000Y800000D01*
D33*
X10470000Y2270000D02*
X10470000Y1750000D01*
X8410000Y3325000D02*
X8025000Y3325000D01*
X12600000Y1750000D02*
X13275000Y2425000D01*
D37*
%TO.N,/RF3*%
X-7420000Y-700000D02*
X-6420000Y-700000D01*
D33*
X-5500000Y-720000D02*
X-5480000Y-700000D01*
X-7415000Y700000D02*
X-7415000Y-695000D01*
X-7415000Y-695000D02*
X-7420000Y-700000D01*
X-5485000Y-695000D02*
X-5480000Y-700000D01*
D37*
X-7415000Y700000D02*
X-5485000Y700000D01*
D33*
X-6420000Y-700000D02*
X-6400000Y-720000D01*
X-5485000Y700000D02*
X-5485000Y-695000D01*
D37*
X-6400000Y-720000D02*
X-5500000Y-720000D01*
%TO.N,/RF2N*%
X-4520000Y-700000D02*
X-3485000Y-700000D01*
D33*
X-3485000Y-700000D02*
X-3450000Y-665000D01*
X-2420000Y-665000D02*
X-2385000Y-700000D01*
D37*
X-3450000Y-665000D02*
X-2420000Y-665000D01*
D33*
%TO.N,/RF2P*%
X-3490000Y700000D02*
X-3480000Y710000D01*
D37*
X-4515000Y700000D02*
X-3490000Y700000D01*
D33*
X-2395000Y710000D02*
X-2385000Y700000D01*
D37*
X-3480000Y710000D02*
X-2395000Y710000D01*
D33*
%TO.N,/ANTP*%
X1100000Y700000D02*
X480000Y700000D01*
X1500000Y300000D02*
X1100000Y700000D01*
D37*
X480000Y700000D02*
X480000Y2092500D01*
D33*
X480000Y2092500D02*
X500000Y2112500D01*
X-800000Y2380000D02*
X232500Y2380000D01*
X232500Y2380000D02*
X500000Y2112500D01*
X2800000Y300000D02*
X1500000Y300000D01*
D37*
%TO.N,/RF1P*%
X-1415000Y700000D02*
X-480000Y700000D01*
D33*
%TO.N,/ANTN*%
X222500Y-2290000D02*
X500000Y-2012500D01*
X1100000Y-700000D02*
X480000Y-700000D01*
X1600000Y-200000D02*
X1100000Y-700000D01*
X490000Y-690000D02*
X480000Y-700000D01*
X2800000Y-200000D02*
X1600000Y-200000D01*
X-800000Y-2290000D02*
X222500Y-2290000D01*
D37*
X500000Y-2012500D02*
X500000Y-720000D01*
D33*
X500000Y-720000D02*
X480000Y-700000D01*
D37*
%TO.N,/RF1N*%
X-1415000Y-700000D02*
X-480000Y-700000D01*
D36*
%TO.N,/FILT*%
X3700000Y-2100000D02*
X3400000Y-2400000D01*
X3700000Y-1600000D02*
X3700000Y-2100000D01*
X3400000Y-2400000D02*
X3400000Y-2920000D01*
D33*
%TO.N,DAC_OUT*%
X12100000Y-2700000D02*
X12700000Y-2700000D01*
X12700000Y-2700000D02*
X13220000Y-2180000D01*
X14210000Y-1690000D02*
X14220000Y-1700000D01*
X13220000Y-2180000D02*
X13220000Y-1690000D01*
X13220000Y-1690000D02*
X14210000Y-1690000D01*
D36*
%TO.N,VDD*%
X11725000Y775000D02*
X10485000Y775000D01*
D33*
X7125000Y1775000D02*
X8410000Y1775000D01*
D38*
X8645497Y2010497D02*
X8410000Y1775000D01*
D36*
X10485000Y775000D02*
X10470000Y790000D01*
D38*
X10470000Y790000D02*
X9590000Y790000D01*
X9485000Y700000D02*
X8410000Y1775000D01*
X10470000Y280000D02*
X10470000Y790000D01*
X9500000Y700000D02*
X9485000Y700000D01*
X10500000Y250000D02*
X9950000Y250000D01*
D33*
X5700000Y2200000D02*
X6700000Y2200000D01*
X6700000Y2200000D02*
X7125000Y1775000D01*
D38*
X10500000Y250000D02*
X10470000Y280000D01*
X9590000Y790000D02*
X9500000Y700000D01*
X9500000Y700000D02*
X9500000Y2003612D01*
X9500000Y2003612D02*
X9506885Y2010497D01*
X9950000Y250000D02*
X9500000Y700000D01*
X9506885Y2010497D02*
X8645497Y2010497D01*
D33*
%TO.N,/CLK16P*%
X3810000Y4610000D02*
X3500000Y4300000D01*
X3500000Y4300000D02*
X3500000Y3000000D01*
X9700000Y4200000D02*
X9700000Y3850000D01*
X4200000Y4610000D02*
X9290000Y4610000D01*
X9290000Y4610000D02*
X9400000Y4500000D01*
X9700000Y3850000D02*
X10780000Y3850000D01*
X9290000Y4610000D02*
X9700000Y4200000D01*
X3500000Y3000000D02*
X3700000Y2800000D01*
X4200000Y4610000D02*
X3810000Y4610000D01*
X10780000Y3850000D02*
X10790000Y3860000D01*
X3700000Y2800000D02*
X3700000Y2200000D01*
%TO.N,/OSC*%
X11725000Y3835000D02*
X11750000Y3860000D01*
X11725000Y2425000D02*
X11725000Y3835000D01*
D36*
%TO.N,MISO*%
X11200000Y-4300000D02*
X16200000Y-4300000D01*
X18100000Y2250000D02*
X17780000Y2570000D01*
X16431219Y-4199918D02*
X16431222Y-4199918D01*
X6600000Y-200000D02*
X7100000Y-200000D01*
X18100000Y-2400000D02*
X18100000Y2250000D01*
X7100000Y-200000D02*
X11200000Y-4300000D01*
X16331300Y-4299836D02*
X16431219Y-4199918D01*
X18099918Y-2400082D02*
X18100000Y-2400000D01*
X16200000Y-4300000D02*
X16200164Y-4299836D01*
X16200164Y-4299836D02*
X16331300Y-4299836D01*
X18099918Y-2531222D02*
X18099918Y-2400082D01*
X17780000Y2570000D02*
X17780000Y7620000D01*
X17780000Y6350000D02*
X17780000Y7620000D01*
X16431222Y-4199918D02*
X18099918Y-2531222D01*
%TO.N,MOSI*%
X14900082Y-3899918D02*
X14600082Y-3899918D01*
X14900082Y-3899918D02*
X15200000Y-3600000D01*
X17700000Y-2365570D02*
X17700000Y1950000D01*
X15200000Y-3600000D02*
X16465570Y-3600000D01*
X15240000Y6350000D02*
X15240000Y7620000D01*
X15240000Y4410000D02*
X15240000Y7620000D01*
X11499918Y-3899918D02*
X7300000Y300000D01*
X16465570Y-3600000D02*
X17700000Y-2365570D01*
X14900082Y-3899918D02*
X11499918Y-3899918D01*
X7300000Y300000D02*
X6600000Y300000D01*
X17700000Y1950000D02*
X15240000Y4410000D01*
D33*
%TO.N,/VDD_ANA2*%
X1760000Y-1040000D02*
X1760000Y-1770000D01*
X2800000Y-700000D02*
X2100000Y-700000D01*
X2100000Y-700000D02*
X1760000Y-1040000D01*
%TO.N,/CLK16N*%
X4210000Y3600000D02*
X5200000Y3600000D01*
X4200000Y2200000D02*
X4200000Y3590000D01*
%TO.N,/VDD_ANA1*%
X2800000Y1300000D02*
X2800000Y1700000D01*
X2500000Y2000000D02*
X2100000Y2000000D01*
X1800000Y2300000D02*
X1800000Y2650000D01*
X2100000Y2000000D02*
X1800000Y2300000D01*
X2800000Y1700000D02*
X2500000Y2000000D01*
D36*
%TO.N,CLK*%
X11000000Y-4700000D02*
X16130000Y-4700000D01*
X7000000Y-700000D02*
X11000000Y-4700000D01*
X6600000Y-700000D02*
X7000000Y-700000D01*
X16130000Y-4700000D02*
X17780000Y-6350000D01*
X17780000Y-6350000D02*
X17780000Y-7620000D01*
%TO.N,SYSCLK*%
X5600000Y-2400000D02*
X8100000Y-2400000D01*
X10160000Y-6350000D02*
X10160000Y-7620000D01*
X10160000Y-4460000D02*
X10160000Y-7620000D01*
X5200000Y-2000000D02*
X5600000Y-2400000D01*
X8100000Y-2400000D02*
X10160000Y-4460000D01*
X5200000Y-1800000D02*
X5200000Y-2000000D01*
%TO.N,IRQ*%
X15876010Y-2300000D02*
X15700000Y-2300000D01*
X11500000Y5000000D02*
X13484430Y5000000D01*
X14500000Y-3500000D02*
X11700000Y-3500000D01*
X13984348Y4500082D02*
X13999918Y4500082D01*
X10160000Y6340000D02*
X11500000Y5000000D01*
X16900000Y1600000D02*
X16900000Y-1500000D01*
X15700000Y-2300000D02*
X14500000Y-3500000D01*
X16104971Y-2295029D02*
X15880981Y-2295029D01*
X10160000Y6350000D02*
X10160000Y6340000D01*
X13999918Y4500082D02*
X16900000Y1600000D01*
X7400000Y800000D02*
X6600000Y800000D01*
X16900000Y-1500000D02*
X16104971Y-2295029D01*
X11700000Y-3500000D02*
X7400000Y800000D01*
X15880981Y-2295029D02*
X15876010Y-2300000D01*
X10160000Y6340000D02*
X10160000Y7620000D01*
X13484430Y5000000D02*
X13984348Y4500082D01*
%TO.N,SEL*%
X12700000Y6350000D02*
X12700000Y7620000D01*
X14150000Y4900000D02*
X14165570Y4900000D01*
X12700000Y6350000D02*
X14150000Y4900000D01*
X17300000Y1600000D02*
X17300000Y-1689876D01*
X17299918Y1600082D02*
X17300000Y1600000D01*
X17300000Y-1689876D02*
X16144938Y-2844938D01*
X6624916Y-1600000D02*
X5700000Y-1600000D01*
X6750000Y-1600000D02*
X6624916Y-1600000D01*
X17299918Y1765652D02*
X17299918Y1600082D01*
X14165570Y4900000D02*
X17299918Y1765652D01*
%TO.N,/L2*%
X4662500Y-2812500D02*
X4662500Y-3550000D01*
X4200000Y-1600000D02*
X4200000Y-2350000D01*
X4200000Y-2350000D02*
X4662500Y-2812500D01*
%TO.N,/L1*%
X5315570Y-2900000D02*
X4700000Y-2284430D01*
X5600000Y-2900000D02*
X5315570Y-2900000D01*
X6237500Y-3537500D02*
X5600000Y-2900000D01*
X4700000Y-2284430D02*
X4700000Y-1600000D01*
X6237500Y-3550000D02*
X6237500Y-3537500D01*
%TO.N,/TCXO_EN*%
X12190000Y-590000D02*
X9355570Y-590000D01*
X7465570Y1300000D02*
X6600000Y1300000D01*
X9355570Y-590000D02*
X7465570Y1300000D01*
X12190000Y-590000D02*
X12190000Y-1680000D01*
X7465570Y1300000D02*
X7300000Y1300000D01*
X12190000Y-1680000D02*
X12200000Y-1690000D01*
D33*
%TO.N,TCXO_CTL*%
X13275000Y175000D02*
X13200000Y100000D01*
X14170000Y-590000D02*
X14190000Y-610000D01*
X13210000Y-590000D02*
X14170000Y-590000D01*
X13200000Y-580000D02*
X13210000Y-590000D01*
X13200000Y100000D02*
X13200000Y-580000D01*
X13275000Y775000D02*
X13275000Y175000D01*
%TD*%
%TA.AperFunction,Conductor*%
%TO.N,VDD*%
G36*
X9320760Y2481093D02*
G01*
X9326205Y2476838D01*
X9357250Y2450788D01*
X9470005Y2409749D01*
X9472851Y2409500D01*
X9898357Y2409500D01*
X9898357Y2407975D01*
X9951996Y2395586D01*
X9992133Y2349405D01*
X10000000Y2310731D01*
X10000000Y2078042D01*
X9994030Y2044183D01*
X9959749Y1949995D01*
X9959500Y1947149D01*
X9959500Y1581643D01*
X9975336Y1491832D01*
X9986737Y1472086D01*
X10000000Y1422587D01*
X10000000Y1400000D01*
X10008244Y1400000D01*
X10020993Y1390737D01*
X10045022Y1379786D01*
X10127250Y1310788D01*
X10240005Y1269749D01*
X10242851Y1269500D01*
X10668357Y1269500D01*
X10705302Y1276014D01*
X10749639Y1283832D01*
X10749640Y1283832D01*
X10758168Y1285336D01*
X10765668Y1289666D01*
X10765670Y1289667D01*
X10854578Y1340999D01*
X10862083Y1345332D01*
X10878281Y1364636D01*
X10930169Y1397059D01*
X10954119Y1400000D01*
X12301000Y1400000D01*
X12359191Y1381093D01*
X12395155Y1331593D01*
X12400000Y1301000D01*
X12400000Y299000D01*
X12381093Y240809D01*
X12331593Y204845D01*
X12301000Y200000D01*
X11000000Y200000D01*
X11000000Y-1000D01*
X10981093Y-59191D01*
X10931593Y-95155D01*
X10901000Y-100000D01*
X9686622Y-100000D01*
X9628431Y-81093D01*
X9622194Y-76166D01*
X7934572Y1370367D01*
X7902695Y1422592D01*
X7900000Y1445533D01*
X7900000Y2401000D01*
X7918907Y2459191D01*
X7968407Y2495155D01*
X7999000Y2500000D01*
X9262569Y2500000D01*
X9320760Y2481093D01*
G37*
%TD.AperFunction*%
%TD*%
%TA.AperFunction,Conductor*%
%TO.N,GND*%
G36*
X-18899196Y8681093D02*
G01*
X-18863232Y8631593D01*
X-18863232Y8571995D01*
X-18866051Y8567776D01*
X-18867953Y8558216D01*
X-18867953Y8558215D01*
X-18873437Y8530645D01*
X-18885500Y8470000D01*
X-18885500Y6770000D01*
X-18866051Y6672224D01*
X-18810666Y6589334D01*
X-18802556Y6583915D01*
X-18776666Y6566616D01*
X-18727776Y6533949D01*
X-18630000Y6514500D01*
X-16930000Y6514500D01*
X-16832224Y6533949D01*
X-16783334Y6566616D01*
X-16757444Y6583915D01*
X-16749334Y6589334D01*
X-16693949Y6672224D01*
X-16674500Y6770000D01*
X-16674500Y8470000D01*
X-16686563Y8530645D01*
X-16692047Y8558215D01*
X-16692047Y8558216D01*
X-16693949Y8567776D01*
X-16694509Y8568614D01*
X-16698878Y8624109D01*
X-16666910Y8676279D01*
X-16610382Y8699695D01*
X-16602613Y8700000D01*
X-15930265Y8700000D01*
X-15872074Y8681093D01*
X-15836110Y8631593D01*
X-15836110Y8570407D01*
X-15872987Y8520252D01*
X-15888130Y8509510D01*
X-15962356Y8456858D01*
X-16107570Y8305166D01*
X-16221480Y8128751D01*
X-16223238Y8124390D01*
X-16223238Y8124389D01*
X-16262955Y8025837D01*
X-16299975Y7933979D01*
X-16300876Y7929366D01*
X-16300877Y7929362D01*
X-16321384Y7824350D01*
X-16340224Y7727878D01*
X-16340774Y7517884D01*
X-16339896Y7513262D01*
X-16339896Y7513257D01*
X-16314637Y7380218D01*
X-16301605Y7311575D01*
X-16224130Y7116395D01*
X-16221590Y7112416D01*
X-16113684Y6943361D01*
X-16113680Y6943356D01*
X-16111146Y6939386D01*
X-15966728Y6786936D01*
X-15962898Y6784189D01*
X-15962897Y6784188D01*
X-15804570Y6670627D01*
X-15796089Y6664544D01*
X-15791808Y6662571D01*
X-15791809Y6662571D01*
X-15610685Y6579072D01*
X-15605384Y6576628D01*
X-15600817Y6575502D01*
X-15600814Y6575501D01*
X-15564776Y6566616D01*
X-15401495Y6526359D01*
X-15317073Y6522009D01*
X-15196484Y6515794D01*
X-15196479Y6515794D01*
X-15191779Y6515552D01*
X-15187118Y6516203D01*
X-15187115Y6516203D01*
X-14988470Y6543944D01*
X-14988467Y6543945D01*
X-14983803Y6544596D01*
X-14974456Y6547787D01*
X-14789531Y6610921D01*
X-14789528Y6610922D01*
X-14785071Y6612444D01*
X-14602754Y6716646D01*
X-14443431Y6853444D01*
X-14440497Y6857139D01*
X-14315781Y7014210D01*
X-14315779Y7014213D01*
X-14312850Y7017902D01*
X-14215723Y7204084D01*
X-14155554Y7405274D01*
X-14134515Y7614212D01*
X-14134500Y7620000D01*
X-14154445Y7829045D01*
X-14213559Y8030547D01*
X-14229856Y8062191D01*
X-14307553Y8213048D01*
X-14309710Y8217236D01*
X-14317684Y8227388D01*
X-14436515Y8378666D01*
X-14436517Y8378668D01*
X-14439428Y8382374D01*
X-14442984Y8385460D01*
X-14442988Y8385464D01*
X-14545898Y8474764D01*
X-14598033Y8520005D01*
X-14599840Y8521050D01*
X-14635755Y8569586D01*
X-14636289Y8630769D01*
X-14600759Y8680582D01*
X-14541871Y8700000D01*
X-13390265Y8700000D01*
X-13332074Y8681093D01*
X-13296110Y8631593D01*
X-13296110Y8570407D01*
X-13332987Y8520252D01*
X-13348130Y8509510D01*
X-13422356Y8456858D01*
X-13567570Y8305166D01*
X-13681480Y8128751D01*
X-13683238Y8124390D01*
X-13683238Y8124389D01*
X-13722955Y8025837D01*
X-13759975Y7933979D01*
X-13760876Y7929366D01*
X-13760877Y7929362D01*
X-13781384Y7824350D01*
X-13800224Y7727878D01*
X-13800774Y7517884D01*
X-13799896Y7513262D01*
X-13799896Y7513257D01*
X-13774637Y7380218D01*
X-13761605Y7311575D01*
X-13684130Y7116395D01*
X-13681590Y7112416D01*
X-13573684Y6943361D01*
X-13573680Y6943356D01*
X-13571146Y6939386D01*
X-13426728Y6786936D01*
X-13422898Y6784189D01*
X-13422897Y6784188D01*
X-13264570Y6670627D01*
X-13256089Y6664544D01*
X-13251808Y6662571D01*
X-13251809Y6662571D01*
X-13070685Y6579072D01*
X-13065384Y6576628D01*
X-13060817Y6575502D01*
X-13060814Y6575501D01*
X-13024776Y6566616D01*
X-12861495Y6526359D01*
X-12777073Y6522009D01*
X-12656484Y6515794D01*
X-12656479Y6515794D01*
X-12651779Y6515552D01*
X-12647118Y6516203D01*
X-12647115Y6516203D01*
X-12448470Y6543944D01*
X-12448467Y6543945D01*
X-12443803Y6544596D01*
X-12434456Y6547787D01*
X-12249531Y6610921D01*
X-12249528Y6610922D01*
X-12245071Y6612444D01*
X-12062754Y6716646D01*
X-11903431Y6853444D01*
X-11900497Y6857139D01*
X-11775781Y7014210D01*
X-11775779Y7014213D01*
X-11772850Y7017902D01*
X-11675723Y7204084D01*
X-11630967Y7353736D01*
X-11229103Y7353736D01*
X-11222004Y7316345D01*
X-11219386Y7307335D01*
X-11145425Y7121007D01*
X-11141145Y7112644D01*
X-11033289Y6943669D01*
X-11027511Y6936273D01*
X-10889641Y6790733D01*
X-10882571Y6784565D01*
X-10719666Y6667722D01*
X-10711559Y6663004D01*
X-10529496Y6579072D01*
X-10520648Y6575973D01*
X-10429222Y6553432D01*
X-10416620Y6554346D01*
X-10414000Y6563527D01*
X-10414000Y7350320D01*
X-10416417Y7357757D01*
X-9906000Y7357757D01*
X-9906000Y6560472D01*
X-9901878Y6547787D01*
X-9900598Y6546856D01*
X-9899108Y6546726D01*
X-9709732Y6611378D01*
X-9701188Y6615236D01*
X-9527133Y6714717D01*
X-9519468Y6720124D01*
X-9367370Y6850718D01*
X-9360857Y6857486D01*
X-9236200Y7014482D01*
X-9231089Y7022353D01*
X-9138368Y7200089D01*
X-9134834Y7208793D01*
X-9092312Y7350976D01*
X-9092590Y7362784D01*
X-9102901Y7366000D01*
X-9890320Y7366000D01*
X-9903005Y7361878D01*
X-9906000Y7357757D01*
X-10416417Y7357757D01*
X-10418122Y7363005D01*
X-10422243Y7366000D01*
X-11215751Y7366000D01*
X-11228436Y7361878D01*
X-11228601Y7361652D01*
X-11229103Y7353736D01*
X-11630967Y7353736D01*
X-11615554Y7405274D01*
X-11594515Y7614212D01*
X-11594500Y7620000D01*
X-11614445Y7829045D01*
X-11673559Y8030547D01*
X-11689856Y8062191D01*
X-11767553Y8213048D01*
X-11769710Y8217236D01*
X-11777684Y8227388D01*
X-11896515Y8378666D01*
X-11896517Y8378668D01*
X-11899428Y8382374D01*
X-11902984Y8385460D01*
X-11902988Y8385464D01*
X-12005898Y8474764D01*
X-12058033Y8520005D01*
X-12059840Y8521050D01*
X-12095755Y8569586D01*
X-12096289Y8630769D01*
X-12060759Y8680582D01*
X-12001871Y8700000D01*
X-10849406Y8700000D01*
X-10791215Y8681093D01*
X-10755251Y8631593D01*
X-10755251Y8570407D01*
X-10792128Y8520252D01*
X-10878187Y8459206D01*
X-10885287Y8453077D01*
X-11023920Y8308260D01*
X-11029734Y8300897D01*
X-11138483Y8132475D01*
X-11142794Y8124159D01*
X-11217735Y7938207D01*
X-11220399Y7929211D01*
X-11228176Y7889387D01*
X-11226563Y7876151D01*
X-11226466Y7876047D01*
X-11218565Y7874000D01*
X-9103832Y7874000D01*
X-9092514Y7877677D01*
X-9092361Y7888347D01*
X-9132696Y8025837D01*
X-9136180Y8034549D01*
X-9227974Y8212778D01*
X-9233044Y8220674D01*
X-9356878Y8378323D01*
X-9363347Y8385116D01*
X-9514763Y8516509D01*
X-9520220Y8520401D01*
X-9556615Y8569585D01*
X-9557151Y8630768D01*
X-9521621Y8680580D01*
X-9462732Y8700000D01*
X-8310265Y8700000D01*
X-8252074Y8681093D01*
X-8216110Y8631593D01*
X-8216110Y8570407D01*
X-8252987Y8520252D01*
X-8268130Y8509510D01*
X-8342356Y8456858D01*
X-8487570Y8305166D01*
X-8601480Y8128751D01*
X-8603238Y8124390D01*
X-8603238Y8124389D01*
X-8642955Y8025837D01*
X-8679975Y7933979D01*
X-8680876Y7929366D01*
X-8680877Y7929362D01*
X-8701384Y7824350D01*
X-8720224Y7727878D01*
X-8720774Y7517884D01*
X-8719896Y7513262D01*
X-8719896Y7513257D01*
X-8694637Y7380218D01*
X-8681605Y7311575D01*
X-8604130Y7116395D01*
X-8601590Y7112416D01*
X-8493684Y6943361D01*
X-8493680Y6943356D01*
X-8491146Y6939386D01*
X-8346728Y6786936D01*
X-8342898Y6784189D01*
X-8342897Y6784188D01*
X-8184570Y6670627D01*
X-8176089Y6664544D01*
X-8171808Y6662571D01*
X-8171809Y6662571D01*
X-7990685Y6579072D01*
X-7985384Y6576628D01*
X-7980817Y6575502D01*
X-7980814Y6575501D01*
X-7944776Y6566616D01*
X-7781495Y6526359D01*
X-7697073Y6522009D01*
X-7576484Y6515794D01*
X-7576479Y6515794D01*
X-7571779Y6515552D01*
X-7567118Y6516203D01*
X-7567115Y6516203D01*
X-7368470Y6543944D01*
X-7368467Y6543945D01*
X-7363803Y6544596D01*
X-7354456Y6547787D01*
X-7169531Y6610921D01*
X-7169528Y6610922D01*
X-7165071Y6612444D01*
X-6982754Y6716646D01*
X-6823431Y6853444D01*
X-6820497Y6857139D01*
X-6695781Y7014210D01*
X-6695779Y7014213D01*
X-6692850Y7017902D01*
X-6595723Y7204084D01*
X-6535554Y7405274D01*
X-6514515Y7614212D01*
X-6514500Y7620000D01*
X-6534445Y7829045D01*
X-6593559Y8030547D01*
X-6609856Y8062191D01*
X-6687553Y8213048D01*
X-6689710Y8217236D01*
X-6697684Y8227388D01*
X-6816515Y8378666D01*
X-6816517Y8378668D01*
X-6819428Y8382374D01*
X-6822984Y8385460D01*
X-6822988Y8385464D01*
X-6925898Y8474764D01*
X-6978033Y8520005D01*
X-6979840Y8521050D01*
X-7015755Y8569586D01*
X-7016289Y8630769D01*
X-6980759Y8680582D01*
X-6921871Y8700000D01*
X-5770265Y8700000D01*
X-5712074Y8681093D01*
X-5676110Y8631593D01*
X-5676110Y8570407D01*
X-5712987Y8520252D01*
X-5728130Y8509510D01*
X-5802356Y8456858D01*
X-5947570Y8305166D01*
X-6061480Y8128751D01*
X-6063238Y8124390D01*
X-6063238Y8124389D01*
X-6102955Y8025837D01*
X-6139975Y7933979D01*
X-6140876Y7929366D01*
X-6140877Y7929362D01*
X-6161384Y7824350D01*
X-6180224Y7727878D01*
X-6180774Y7517884D01*
X-6179896Y7513262D01*
X-6179896Y7513257D01*
X-6154637Y7380218D01*
X-6141605Y7311575D01*
X-6064130Y7116395D01*
X-6061590Y7112416D01*
X-5953684Y6943361D01*
X-5953680Y6943356D01*
X-5951146Y6939386D01*
X-5806728Y6786936D01*
X-5802898Y6784189D01*
X-5802897Y6784188D01*
X-5644570Y6670627D01*
X-5636089Y6664544D01*
X-5631808Y6662571D01*
X-5631809Y6662571D01*
X-5450685Y6579072D01*
X-5445384Y6576628D01*
X-5440817Y6575502D01*
X-5440814Y6575501D01*
X-5404776Y6566616D01*
X-5241495Y6526359D01*
X-5157073Y6522009D01*
X-5036484Y6515794D01*
X-5036479Y6515794D01*
X-5031779Y6515552D01*
X-5027118Y6516203D01*
X-5027115Y6516203D01*
X-4828470Y6543944D01*
X-4828467Y6543945D01*
X-4823803Y6544596D01*
X-4814456Y6547787D01*
X-4629531Y6610921D01*
X-4629528Y6610922D01*
X-4625071Y6612444D01*
X-4442754Y6716646D01*
X-4283431Y6853444D01*
X-4280497Y6857139D01*
X-4155781Y7014210D01*
X-4155779Y7014213D01*
X-4152850Y7017902D01*
X-4055723Y7204084D01*
X-3995554Y7405274D01*
X-3974515Y7614212D01*
X-3974500Y7620000D01*
X-3994445Y7829045D01*
X-4053559Y8030547D01*
X-4069856Y8062191D01*
X-4147553Y8213048D01*
X-4149710Y8217236D01*
X-4157684Y8227388D01*
X-4276515Y8378666D01*
X-4276517Y8378668D01*
X-4279428Y8382374D01*
X-4282984Y8385460D01*
X-4282988Y8385464D01*
X-4385898Y8474764D01*
X-4438033Y8520005D01*
X-4439840Y8521050D01*
X-4475755Y8569586D01*
X-4476289Y8630769D01*
X-4440759Y8680582D01*
X-4381871Y8700000D01*
X-3230265Y8700000D01*
X-3172074Y8681093D01*
X-3136110Y8631593D01*
X-3136110Y8570407D01*
X-3172987Y8520252D01*
X-3188130Y8509510D01*
X-3262356Y8456858D01*
X-3407570Y8305166D01*
X-3521480Y8128751D01*
X-3523238Y8124390D01*
X-3523238Y8124389D01*
X-3562955Y8025837D01*
X-3599975Y7933979D01*
X-3600876Y7929366D01*
X-3600877Y7929362D01*
X-3621384Y7824350D01*
X-3640224Y7727878D01*
X-3640774Y7517884D01*
X-3639896Y7513262D01*
X-3639896Y7513257D01*
X-3614637Y7380218D01*
X-3601605Y7311575D01*
X-3524130Y7116395D01*
X-3521590Y7112416D01*
X-3413684Y6943361D01*
X-3413680Y6943356D01*
X-3411146Y6939386D01*
X-3266728Y6786936D01*
X-3262898Y6784189D01*
X-3262897Y6784188D01*
X-3104570Y6670627D01*
X-3096089Y6664544D01*
X-3091808Y6662571D01*
X-3091809Y6662571D01*
X-2910685Y6579072D01*
X-2905384Y6576628D01*
X-2900817Y6575502D01*
X-2900814Y6575501D01*
X-2864776Y6566616D01*
X-2701495Y6526359D01*
X-2617073Y6522009D01*
X-2496484Y6515794D01*
X-2496479Y6515794D01*
X-2491779Y6515552D01*
X-2487118Y6516203D01*
X-2487115Y6516203D01*
X-2288470Y6543944D01*
X-2288467Y6543945D01*
X-2283803Y6544596D01*
X-2274456Y6547787D01*
X-2089531Y6610921D01*
X-2089528Y6610922D01*
X-2085071Y6612444D01*
X-1902754Y6716646D01*
X-1743431Y6853444D01*
X-1740497Y6857139D01*
X-1615781Y7014210D01*
X-1615779Y7014213D01*
X-1612850Y7017902D01*
X-1515723Y7204084D01*
X-1455554Y7405274D01*
X-1434515Y7614212D01*
X-1434500Y7620000D01*
X-1454445Y7829045D01*
X-1513559Y8030547D01*
X-1529856Y8062191D01*
X-1607553Y8213048D01*
X-1609710Y8217236D01*
X-1617684Y8227388D01*
X-1736515Y8378666D01*
X-1736517Y8378668D01*
X-1739428Y8382374D01*
X-1742984Y8385460D01*
X-1742988Y8385464D01*
X-1845898Y8474764D01*
X-1898033Y8520005D01*
X-1899840Y8521050D01*
X-1935755Y8569586D01*
X-1936289Y8630769D01*
X-1900759Y8680582D01*
X-1841871Y8700000D01*
X-690265Y8700000D01*
X-632074Y8681093D01*
X-596110Y8631593D01*
X-596110Y8570407D01*
X-632987Y8520252D01*
X-648130Y8509510D01*
X-722356Y8456858D01*
X-867570Y8305166D01*
X-981480Y8128751D01*
X-983238Y8124390D01*
X-983238Y8124389D01*
X-1022955Y8025837D01*
X-1059975Y7933979D01*
X-1060876Y7929366D01*
X-1060877Y7929362D01*
X-1081384Y7824350D01*
X-1100224Y7727878D01*
X-1100774Y7517884D01*
X-1099896Y7513262D01*
X-1099896Y7513257D01*
X-1074637Y7380218D01*
X-1061605Y7311575D01*
X-984130Y7116395D01*
X-981590Y7112416D01*
X-873684Y6943361D01*
X-873680Y6943356D01*
X-871146Y6939386D01*
X-726728Y6786936D01*
X-722898Y6784189D01*
X-722897Y6784188D01*
X-564570Y6670627D01*
X-556089Y6664544D01*
X-551808Y6662571D01*
X-551809Y6662571D01*
X-370685Y6579072D01*
X-365384Y6576628D01*
X-360817Y6575502D01*
X-360814Y6575501D01*
X-324776Y6566616D01*
X-161495Y6526359D01*
X-77073Y6522009D01*
X43516Y6515794D01*
X43521Y6515794D01*
X48221Y6515552D01*
X52882Y6516203D01*
X52885Y6516203D01*
X251530Y6543944D01*
X251533Y6543945D01*
X256197Y6544596D01*
X265544Y6547787D01*
X450469Y6610921D01*
X450472Y6610922D01*
X454929Y6612444D01*
X637246Y6716646D01*
X796569Y6853444D01*
X799503Y6857139D01*
X924219Y7014210D01*
X924221Y7014213D01*
X927150Y7017902D01*
X1024277Y7204084D01*
X1084446Y7405274D01*
X1105485Y7614212D01*
X1105500Y7620000D01*
X1085555Y7829045D01*
X1026441Y8030547D01*
X1010144Y8062191D01*
X932447Y8213048D01*
X930290Y8217236D01*
X922316Y8227388D01*
X803485Y8378666D01*
X803483Y8378668D01*
X800572Y8382374D01*
X797016Y8385460D01*
X797012Y8385464D01*
X694102Y8474764D01*
X641967Y8520005D01*
X640160Y8521050D01*
X604245Y8569586D01*
X603711Y8630769D01*
X639241Y8680582D01*
X698129Y8700000D01*
X1849735Y8700000D01*
X1907926Y8681093D01*
X1943890Y8631593D01*
X1943890Y8570407D01*
X1907013Y8520252D01*
X1891870Y8509510D01*
X1817644Y8456858D01*
X1672430Y8305166D01*
X1558520Y8128751D01*
X1556762Y8124390D01*
X1556762Y8124389D01*
X1517045Y8025837D01*
X1480025Y7933979D01*
X1479124Y7929366D01*
X1479123Y7929362D01*
X1458616Y7824350D01*
X1439776Y7727878D01*
X1439226Y7517884D01*
X1440104Y7513262D01*
X1440104Y7513257D01*
X1465363Y7380218D01*
X1478395Y7311575D01*
X1555870Y7116395D01*
X1558410Y7112416D01*
X1666316Y6943361D01*
X1666320Y6943356D01*
X1668854Y6939386D01*
X1813272Y6786936D01*
X1817102Y6784189D01*
X1817103Y6784188D01*
X1975430Y6670627D01*
X1983911Y6664544D01*
X1988192Y6662571D01*
X1988191Y6662571D01*
X2169315Y6579072D01*
X2174616Y6576628D01*
X2179183Y6575502D01*
X2179186Y6575501D01*
X2215224Y6566616D01*
X2378505Y6526359D01*
X2462927Y6522009D01*
X2583516Y6515794D01*
X2583521Y6515794D01*
X2588221Y6515552D01*
X2592882Y6516203D01*
X2592885Y6516203D01*
X2791530Y6543944D01*
X2791533Y6543945D01*
X2796197Y6544596D01*
X2805544Y6547787D01*
X2990469Y6610921D01*
X2990472Y6610922D01*
X2994929Y6612444D01*
X3177246Y6716646D01*
X3336569Y6853444D01*
X3339503Y6857139D01*
X3464219Y7014210D01*
X3464221Y7014213D01*
X3467150Y7017902D01*
X3564277Y7204084D01*
X3624446Y7405274D01*
X3645485Y7614212D01*
X3645500Y7620000D01*
X3625555Y7829045D01*
X3566441Y8030547D01*
X3550144Y8062191D01*
X3472447Y8213048D01*
X3470290Y8217236D01*
X3462316Y8227388D01*
X3343485Y8378666D01*
X3343483Y8378668D01*
X3340572Y8382374D01*
X3337016Y8385460D01*
X3337012Y8385464D01*
X3234102Y8474764D01*
X3181967Y8520005D01*
X3180160Y8521050D01*
X3144245Y8569586D01*
X3143711Y8630769D01*
X3179241Y8680582D01*
X3238129Y8700000D01*
X4389735Y8700000D01*
X4447926Y8681093D01*
X4483890Y8631593D01*
X4483890Y8570407D01*
X4447013Y8520252D01*
X4431870Y8509510D01*
X4357644Y8456858D01*
X4212430Y8305166D01*
X4098520Y8128751D01*
X4096762Y8124390D01*
X4096762Y8124389D01*
X4057045Y8025837D01*
X4020025Y7933979D01*
X4019124Y7929366D01*
X4019123Y7929362D01*
X3998616Y7824350D01*
X3979776Y7727878D01*
X3979226Y7517884D01*
X3980104Y7513262D01*
X3980104Y7513257D01*
X4005363Y7380218D01*
X4018395Y7311575D01*
X4095870Y7116395D01*
X4098410Y7112416D01*
X4206316Y6943361D01*
X4206320Y6943356D01*
X4208854Y6939386D01*
X4353272Y6786936D01*
X4357102Y6784189D01*
X4357103Y6784188D01*
X4515430Y6670627D01*
X4523911Y6664544D01*
X4528192Y6662571D01*
X4528191Y6662571D01*
X4709315Y6579072D01*
X4714616Y6576628D01*
X4719183Y6575502D01*
X4719186Y6575501D01*
X4755224Y6566616D01*
X4918505Y6526359D01*
X5002927Y6522009D01*
X5123516Y6515794D01*
X5123521Y6515794D01*
X5128221Y6515552D01*
X5132882Y6516203D01*
X5132885Y6516203D01*
X5331530Y6543944D01*
X5331533Y6543945D01*
X5336197Y6544596D01*
X5345544Y6547787D01*
X5530469Y6610921D01*
X5530472Y6610922D01*
X5534929Y6612444D01*
X5717246Y6716646D01*
X5876569Y6853444D01*
X5879503Y6857139D01*
X6004219Y7014210D01*
X6004221Y7014213D01*
X6007150Y7017902D01*
X6104277Y7204084D01*
X6164446Y7405274D01*
X6185485Y7614212D01*
X6185500Y7620000D01*
X6165555Y7829045D01*
X6106441Y8030547D01*
X6090144Y8062191D01*
X6012447Y8213048D01*
X6010290Y8217236D01*
X6002316Y8227388D01*
X5883485Y8378666D01*
X5883483Y8378668D01*
X5880572Y8382374D01*
X5877016Y8385460D01*
X5877012Y8385464D01*
X5774102Y8474764D01*
X5721967Y8520005D01*
X5720160Y8521050D01*
X5684245Y8569586D01*
X5683711Y8630769D01*
X5719241Y8680582D01*
X5778129Y8700000D01*
X6929735Y8700000D01*
X6987926Y8681093D01*
X7023890Y8631593D01*
X7023890Y8570407D01*
X6987013Y8520252D01*
X6971870Y8509510D01*
X6897644Y8456858D01*
X6752430Y8305166D01*
X6638520Y8128751D01*
X6636762Y8124390D01*
X6636762Y8124389D01*
X6597045Y8025837D01*
X6560025Y7933979D01*
X6559124Y7929366D01*
X6559123Y7929362D01*
X6538616Y7824350D01*
X6519776Y7727878D01*
X6519226Y7517884D01*
X6520104Y7513262D01*
X6520104Y7513257D01*
X6545363Y7380218D01*
X6558395Y7311575D01*
X6635870Y7116395D01*
X6638410Y7112416D01*
X6746316Y6943361D01*
X6746320Y6943356D01*
X6748854Y6939386D01*
X6893272Y6786936D01*
X6897102Y6784189D01*
X6897103Y6784188D01*
X7055430Y6670627D01*
X7063911Y6664544D01*
X7068192Y6662571D01*
X7068191Y6662571D01*
X7249315Y6579072D01*
X7254616Y6576628D01*
X7259183Y6575502D01*
X7259186Y6575501D01*
X7295224Y6566616D01*
X7458505Y6526359D01*
X7542927Y6522009D01*
X7663516Y6515794D01*
X7663521Y6515794D01*
X7668221Y6515552D01*
X7672882Y6516203D01*
X7672885Y6516203D01*
X7871530Y6543944D01*
X7871533Y6543945D01*
X7876197Y6544596D01*
X7885544Y6547787D01*
X8070469Y6610921D01*
X8070472Y6610922D01*
X8074929Y6612444D01*
X8257246Y6716646D01*
X8416569Y6853444D01*
X8419503Y6857139D01*
X8544219Y7014210D01*
X8544221Y7014213D01*
X8547150Y7017902D01*
X8644277Y7204084D01*
X8704446Y7405274D01*
X8725485Y7614212D01*
X8725500Y7620000D01*
X8705555Y7829045D01*
X8646441Y8030547D01*
X8630144Y8062191D01*
X8552447Y8213048D01*
X8550290Y8217236D01*
X8542316Y8227388D01*
X8423485Y8378666D01*
X8423483Y8378668D01*
X8420572Y8382374D01*
X8417016Y8385460D01*
X8417012Y8385464D01*
X8314102Y8474764D01*
X8261967Y8520005D01*
X8260160Y8521050D01*
X8224245Y8569586D01*
X8223711Y8630769D01*
X8259241Y8680582D01*
X8318129Y8700000D01*
X9469735Y8700000D01*
X9527926Y8681093D01*
X9563890Y8631593D01*
X9563890Y8570407D01*
X9527013Y8520252D01*
X9511870Y8509510D01*
X9437644Y8456858D01*
X9292430Y8305166D01*
X9178520Y8128751D01*
X9176762Y8124390D01*
X9176762Y8124389D01*
X9137045Y8025837D01*
X9100025Y7933979D01*
X9099124Y7929366D01*
X9099123Y7929362D01*
X9078616Y7824350D01*
X9059776Y7727878D01*
X9059226Y7517884D01*
X9060104Y7513262D01*
X9060104Y7513257D01*
X9085363Y7380218D01*
X9098395Y7311575D01*
X9175870Y7116395D01*
X9178410Y7112416D01*
X9286316Y6943361D01*
X9286320Y6943356D01*
X9288854Y6939386D01*
X9433272Y6786936D01*
X9437102Y6784189D01*
X9437103Y6784188D01*
X9595430Y6670627D01*
X9603911Y6664544D01*
X9751948Y6596298D01*
X9796877Y6554767D01*
X9809500Y6506393D01*
X9809500Y6388674D01*
X9807282Y6367838D01*
X9806617Y6364748D01*
X9806617Y6364744D01*
X9804895Y6356746D01*
X9805856Y6348626D01*
X9805856Y6348623D01*
X9808814Y6323635D01*
X9809140Y6318111D01*
X9809164Y6318113D01*
X9809500Y6314046D01*
X9809500Y6309961D01*
X9810170Y6305935D01*
X9810171Y6305924D01*
X9812344Y6292870D01*
X9813001Y6288258D01*
X9818616Y6240818D01*
X9821969Y6233836D01*
X9822395Y6232487D01*
X9823667Y6224847D01*
X9827552Y6217647D01*
X9846352Y6182803D01*
X9848468Y6178649D01*
X9861648Y6151204D01*
X9869148Y6135586D01*
X9871340Y6132978D01*
X9872851Y6131467D01*
X9874306Y6129880D01*
X9874189Y6129773D01*
X9876192Y6127501D01*
X9879100Y6122112D01*
X9885111Y6116556D01*
X9885112Y6116554D01*
X9918746Y6085463D01*
X9921548Y6082770D01*
X11217746Y4786572D01*
X11230909Y4770271D01*
X11237061Y4760744D01*
X11243487Y4755678D01*
X11243489Y4755676D01*
X11263244Y4740102D01*
X11267377Y4736430D01*
X11267392Y4736448D01*
X11270521Y4733797D01*
X11273400Y4730918D01*
X11276716Y4728549D01*
X11276720Y4728545D01*
X11287501Y4720841D01*
X11291210Y4718057D01*
X11328737Y4688473D01*
X11336048Y4685905D01*
X11337296Y4685257D01*
X11343602Y4680751D01*
X11389380Y4667061D01*
X11393808Y4665622D01*
X11433004Y4651857D01*
X11433005Y4651857D01*
X11438879Y4649794D01*
X11442273Y4649500D01*
X11444412Y4649500D01*
X11446545Y4649408D01*
X11446538Y4649249D01*
X11449580Y4649058D01*
X11455444Y4647304D01*
X11463618Y4647625D01*
X11463619Y4647625D01*
X11509414Y4649424D01*
X11513300Y4649500D01*
X13298240Y4649500D01*
X13356431Y4630593D01*
X13368244Y4620504D01*
X13702094Y4286654D01*
X13715257Y4270353D01*
X13721409Y4260826D01*
X13727835Y4255760D01*
X13727837Y4255758D01*
X13747592Y4240184D01*
X13751725Y4236512D01*
X13751740Y4236530D01*
X13754869Y4233879D01*
X13757748Y4231000D01*
X13761064Y4228631D01*
X13761068Y4228627D01*
X13771849Y4220923D01*
X13775558Y4218139D01*
X13813085Y4188555D01*
X13813086Y4188555D01*
X13812869Y4188280D01*
X13825590Y4178729D01*
X16520504Y1483815D01*
X16548281Y1429298D01*
X16549500Y1413811D01*
X16549500Y-1313810D01*
X16530593Y-1372001D01*
X16520504Y-1383814D01*
X15990711Y-1913607D01*
X15936194Y-1941384D01*
X15913959Y-1940771D01*
X15913900Y-1942031D01*
X15905722Y-1941645D01*
X15897727Y-1939924D01*
X15889607Y-1940885D01*
X15889604Y-1940885D01*
X15864616Y-1943843D01*
X15859092Y-1944169D01*
X15859094Y-1944193D01*
X15855028Y-1944529D01*
X15850942Y-1944529D01*
X15846914Y-1945199D01*
X15846907Y-1945200D01*
X15833849Y-1947373D01*
X15829243Y-1948029D01*
X15822624Y-1948813D01*
X15810979Y-1949500D01*
X15748670Y-1949500D01*
X15727833Y-1947282D01*
X15724747Y-1946617D01*
X15724743Y-1946617D01*
X15716746Y-1944895D01*
X15683643Y-1948813D01*
X15683635Y-1948814D01*
X15678111Y-1949140D01*
X15678113Y-1949164D01*
X15674046Y-1949500D01*
X15669961Y-1949500D01*
X15665935Y-1950170D01*
X15665924Y-1950171D01*
X15652870Y-1952344D01*
X15648258Y-1953001D01*
X15622505Y-1956049D01*
X15608945Y-1957654D01*
X15608944Y-1957654D01*
X15600818Y-1958616D01*
X15593836Y-1961969D01*
X15592487Y-1962395D01*
X15584847Y-1963667D01*
X15577646Y-1967552D01*
X15577647Y-1967552D01*
X15542803Y-1986352D01*
X15538649Y-1988468D01*
X15511533Y-2001490D01*
X15495586Y-2009148D01*
X15492978Y-2011340D01*
X15491467Y-2012851D01*
X15489880Y-2014306D01*
X15489773Y-2014189D01*
X15487501Y-2016192D01*
X15482112Y-2019100D01*
X15476556Y-2025111D01*
X15476554Y-2025112D01*
X15445463Y-2058746D01*
X15442770Y-2061548D01*
X14383814Y-3120504D01*
X14329297Y-3148281D01*
X14313810Y-3149500D01*
X13021952Y-3149500D01*
X12963761Y-3130593D01*
X12927797Y-3081093D01*
X12927797Y-3019907D01*
X12949254Y-2983299D01*
X12966454Y-2964692D01*
X12969148Y-2961889D01*
X13450363Y-2480674D01*
X13466659Y-2467514D01*
X13476081Y-2461430D01*
X13496573Y-2435436D01*
X13502883Y-2428334D01*
X13503881Y-2427156D01*
X13506759Y-2424278D01*
X13518880Y-2407316D01*
X13521661Y-2403612D01*
X13553435Y-2363307D01*
X13555970Y-2356089D01*
X13557254Y-2353617D01*
X13561699Y-2347396D01*
X13575423Y-2301508D01*
X13576395Y-2298258D01*
X13577836Y-2293825D01*
X13592771Y-2251295D01*
X13592772Y-2251291D01*
X13594834Y-2245419D01*
X13595500Y-2237729D01*
X13595500Y-2235582D01*
X13595506Y-2235443D01*
X13595634Y-2233927D01*
X13597500Y-2227689D01*
X13597179Y-2219512D01*
X13598205Y-2211391D01*
X13600523Y-2211684D01*
X13613930Y-2164158D01*
X13623543Y-2151964D01*
X13642988Y-2130928D01*
X13696371Y-2101032D01*
X13757132Y-2108222D01*
X13785690Y-2128125D01*
X13847531Y-2189966D01*
X13854468Y-2193501D01*
X13854470Y-2193502D01*
X13944509Y-2239379D01*
X13957784Y-2246143D01*
X13965478Y-2247362D01*
X13965479Y-2247362D01*
X14044585Y-2259891D01*
X14044587Y-2259891D01*
X14048431Y-2260500D01*
X14391569Y-2260500D01*
X14395413Y-2259891D01*
X14395415Y-2259891D01*
X14474521Y-2247362D01*
X14474522Y-2247362D01*
X14482216Y-2246143D01*
X14495491Y-2239379D01*
X14585530Y-2193502D01*
X14585532Y-2193501D01*
X14592469Y-2189966D01*
X14679966Y-2102469D01*
X14700817Y-2061548D01*
X14732607Y-1999156D01*
X14732607Y-1999155D01*
X14736143Y-1992216D01*
X14740050Y-1967552D01*
X14749891Y-1905415D01*
X14749891Y-1905413D01*
X14750500Y-1901569D01*
X14750500Y-1498431D01*
X14747762Y-1481146D01*
X14737362Y-1415479D01*
X14737362Y-1415478D01*
X14736143Y-1407784D01*
X14728113Y-1392025D01*
X14683502Y-1304470D01*
X14683501Y-1304468D01*
X14679966Y-1297531D01*
X14594012Y-1211577D01*
X14566235Y-1157060D01*
X14575806Y-1096628D01*
X14591318Y-1074372D01*
X14641675Y-1019895D01*
X14651383Y-1009393D01*
X14654692Y-1001909D01*
X14700319Y-898703D01*
X14700320Y-898700D01*
X14703232Y-892113D01*
X14710500Y-834580D01*
X14710500Y-394961D01*
X14697753Y-318376D01*
X14695790Y-306582D01*
X14695789Y-306580D01*
X14694446Y-298510D01*
X14633556Y-185660D01*
X14624923Y-177679D01*
X14575883Y-132348D01*
X14539393Y-98617D01*
X14531911Y-95309D01*
X14531909Y-95308D01*
X14428703Y-49681D01*
X14428700Y-49680D01*
X14422113Y-46768D01*
X14364580Y-39500D01*
X14024961Y-39500D01*
X13992092Y-44971D01*
X13936582Y-54210D01*
X13936580Y-54211D01*
X13928510Y-55554D01*
X13815660Y-116444D01*
X13783635Y-151089D01*
X13730254Y-180984D01*
X13669493Y-173793D01*
X13643738Y-156584D01*
X13622114Y-136595D01*
X13592217Y-83211D01*
X13599409Y-22450D01*
X13602561Y-16203D01*
X13603369Y-14733D01*
X13608435Y-8307D01*
X13610970Y-1089D01*
X13612254Y1383D01*
X13616699Y7604D01*
X13631395Y56742D01*
X13632836Y61175D01*
X13647771Y103705D01*
X13647772Y103709D01*
X13649834Y109581D01*
X13650371Y115782D01*
X13651683Y121876D01*
X13654084Y121359D01*
X13673869Y168107D01*
X13729340Y200336D01*
X13788214Y212047D01*
X13797776Y213949D01*
X13880666Y269334D01*
X13936051Y352224D01*
X13955500Y450000D01*
X13955500Y1100000D01*
X13936051Y1197776D01*
X13880666Y1280666D01*
X13863249Y1292304D01*
X13805883Y1330634D01*
X13797776Y1336051D01*
X13700000Y1355500D01*
X12850000Y1355500D01*
X12752224Y1336051D01*
X12751715Y1338609D01*
X12705108Y1334940D01*
X12652938Y1366908D01*
X12639665Y1390609D01*
X12638247Y1389955D01*
X12597409Y1478540D01*
X12567650Y1519500D01*
X12563153Y1525690D01*
X12563148Y1525697D01*
X12561445Y1528040D01*
X12557078Y1532765D01*
X12526843Y1565472D01*
X12521552Y1571196D01*
X12514752Y1575004D01*
X12514751Y1575005D01*
X12463841Y1603515D01*
X12436444Y1618858D01*
X12378253Y1637765D01*
X12374409Y1638374D01*
X12374404Y1638375D01*
X12304848Y1649391D01*
X12304843Y1649391D01*
X12301000Y1650000D01*
X12177348Y1650000D01*
X12119157Y1668907D01*
X12083193Y1718407D01*
X12083193Y1779593D01*
X12119157Y1829093D01*
X12158034Y1846098D01*
X12238214Y1862047D01*
X12247776Y1863949D01*
X12330666Y1919334D01*
X12386051Y2002224D01*
X12405500Y2100000D01*
X12405500Y2750000D01*
X12404419Y2755439D01*
X12387953Y2838214D01*
X12386051Y2847776D01*
X12330666Y2930666D01*
X12247776Y2986051D01*
X12234615Y2988669D01*
X12180185Y2999496D01*
X12126802Y3029393D01*
X12101186Y3084959D01*
X12100500Y3096594D01*
X12100500Y3307057D01*
X12119407Y3365248D01*
X12129496Y3377061D01*
X12209966Y3457531D01*
X12218613Y3474500D01*
X12262607Y3560844D01*
X12262607Y3560845D01*
X12266143Y3567784D01*
X12268212Y3580844D01*
X12279891Y3654585D01*
X12279891Y3654587D01*
X12280500Y3658431D01*
X12280500Y4061569D01*
X12276405Y4087426D01*
X12267362Y4144521D01*
X12267362Y4144522D01*
X12266143Y4152216D01*
X12259072Y4166093D01*
X12213502Y4255530D01*
X12213501Y4255532D01*
X12209966Y4262469D01*
X12122469Y4349966D01*
X12115532Y4353501D01*
X12115530Y4353502D01*
X12019156Y4402607D01*
X12019155Y4402607D01*
X12012216Y4406143D01*
X12004522Y4407362D01*
X12004521Y4407362D01*
X11925415Y4419891D01*
X11925413Y4419891D01*
X11921569Y4420500D01*
X11578431Y4420500D01*
X11574587Y4419891D01*
X11574585Y4419891D01*
X11495479Y4407362D01*
X11495478Y4407362D01*
X11487784Y4406143D01*
X11480845Y4402607D01*
X11480844Y4402607D01*
X11384470Y4353502D01*
X11384468Y4353501D01*
X11377531Y4349966D01*
X11340004Y4312439D01*
X11285487Y4284662D01*
X11225055Y4294233D01*
X11199996Y4312439D01*
X11162469Y4349966D01*
X11155532Y4353501D01*
X11155530Y4353502D01*
X11059156Y4402607D01*
X11059155Y4402607D01*
X11052216Y4406143D01*
X11044522Y4407362D01*
X11044521Y4407362D01*
X10965415Y4419891D01*
X10965413Y4419891D01*
X10961569Y4420500D01*
X10618431Y4420500D01*
X10614587Y4419891D01*
X10614585Y4419891D01*
X10535479Y4407362D01*
X10535478Y4407362D01*
X10527784Y4406143D01*
X10520845Y4402607D01*
X10520844Y4402607D01*
X10424470Y4353502D01*
X10424468Y4353501D01*
X10417531Y4349966D01*
X10330034Y4262469D01*
X10329617Y4262886D01*
X10284836Y4230347D01*
X10254238Y4225500D01*
X10227943Y4225500D01*
X10169752Y4244407D01*
X10157939Y4254496D01*
X10102469Y4309966D01*
X10095531Y4313501D01*
X10095527Y4313504D01*
X10081278Y4320764D01*
X10039101Y4361956D01*
X10035631Y4368386D01*
X10033510Y4372549D01*
X10014004Y4413171D01*
X10014003Y4413173D01*
X10011306Y4418789D01*
X10006339Y4424698D01*
X10004834Y4426203D01*
X10004712Y4426336D01*
X10003746Y4427481D01*
X10000654Y4433211D01*
X9964691Y4466455D01*
X9961889Y4469148D01*
X9590674Y4840363D01*
X9577514Y4856659D01*
X9571430Y4866081D01*
X9545436Y4886573D01*
X9538334Y4892883D01*
X9537156Y4893881D01*
X9534278Y4896759D01*
X9517316Y4908880D01*
X9513612Y4911661D01*
X9473307Y4943435D01*
X9466089Y4945970D01*
X9463617Y4947254D01*
X9457396Y4951699D01*
X9408258Y4966395D01*
X9403825Y4967836D01*
X9361295Y4982771D01*
X9361291Y4982772D01*
X9355419Y4984834D01*
X9347729Y4985500D01*
X9345613Y4985500D01*
X9345428Y4985508D01*
X9343924Y4985635D01*
X9337689Y4987500D01*
X9329515Y4987179D01*
X9329513Y4987179D01*
X9288726Y4985576D01*
X9284839Y4985500D01*
X4731049Y4985500D01*
X4672858Y5004407D01*
X4663848Y5011802D01*
X4632867Y5040440D01*
X4599393Y5071383D01*
X4591911Y5074691D01*
X4591909Y5074692D01*
X4488703Y5120319D01*
X4488700Y5120320D01*
X4482113Y5123232D01*
X4424580Y5130500D01*
X3984961Y5130500D01*
X3946721Y5124135D01*
X3896582Y5115790D01*
X3896580Y5115789D01*
X3888510Y5114446D01*
X3775660Y5053556D01*
X3718857Y4992106D01*
X3686266Y4970883D01*
X3686750Y4969985D01*
X3686749Y4969985D01*
X3641592Y4945619D01*
X3637466Y4943518D01*
X3591210Y4921306D01*
X3585302Y4916339D01*
X3583805Y4914842D01*
X3583660Y4914709D01*
X3582518Y4913745D01*
X3576789Y4910654D01*
X3571234Y4904645D01*
X3571233Y4904644D01*
X3543546Y4874692D01*
X3540852Y4871889D01*
X3269637Y4600674D01*
X3253341Y4587514D01*
X3243919Y4581430D01*
X3238850Y4575000D01*
X3223427Y4555436D01*
X3217117Y4548334D01*
X3216119Y4547156D01*
X3213241Y4544278D01*
X3210873Y4540964D01*
X3210872Y4540963D01*
X3201123Y4527320D01*
X3198339Y4523612D01*
X3166565Y4483307D01*
X3164030Y4476089D01*
X3162746Y4473617D01*
X3158301Y4467396D01*
X3155957Y4459557D01*
X3143605Y4418258D01*
X3142164Y4413825D01*
X3127229Y4371295D01*
X3125166Y4365419D01*
X3124500Y4357729D01*
X3124500Y4355613D01*
X3124492Y4355428D01*
X3124365Y4353924D01*
X3122500Y4347689D01*
X3122821Y4339515D01*
X3122821Y4339513D01*
X3124424Y4298726D01*
X3124500Y4294839D01*
X3124500Y3049723D01*
X3122282Y3028887D01*
X3119922Y3017924D01*
X3121755Y3002439D01*
X3123814Y2985041D01*
X3124368Y2975644D01*
X3124500Y2974047D01*
X3124500Y2969961D01*
X3125171Y2965930D01*
X3125171Y2965929D01*
X3127920Y2949409D01*
X3128577Y2944794D01*
X3133472Y2903442D01*
X3134608Y2893843D01*
X3137921Y2886945D01*
X3138760Y2884291D01*
X3140015Y2876749D01*
X3143899Y2869550D01*
X3143900Y2869548D01*
X3164370Y2831610D01*
X3166486Y2827456D01*
X3185996Y2786827D01*
X3186001Y2786820D01*
X3188694Y2781211D01*
X3193661Y2775302D01*
X3195166Y2773797D01*
X3195288Y2773664D01*
X3196254Y2772519D01*
X3199346Y2766789D01*
X3205355Y2761234D01*
X3205356Y2761233D01*
X3235306Y2733548D01*
X3238109Y2730854D01*
X3295504Y2673459D01*
X3323281Y2618942D01*
X3324500Y2603455D01*
X3324500Y2593288D01*
X3319654Y2562694D01*
X3317885Y2557249D01*
X3314347Y2550306D01*
X3313128Y2542611D01*
X3313128Y2542610D01*
X3300734Y2464356D01*
X3299500Y2456568D01*
X3299500Y1961721D01*
X3280593Y1903530D01*
X3231093Y1867566D01*
X3169907Y1867566D01*
X3117331Y1908019D01*
X3114002Y1913175D01*
X3111306Y1918789D01*
X3106339Y1924698D01*
X3104834Y1926203D01*
X3104712Y1926336D01*
X3103746Y1927481D01*
X3100654Y1933211D01*
X3064691Y1966455D01*
X3061889Y1969148D01*
X2800674Y2230363D01*
X2787514Y2246659D01*
X2781430Y2256081D01*
X2755436Y2276573D01*
X2748334Y2282883D01*
X2747156Y2283881D01*
X2744278Y2286759D01*
X2727316Y2298880D01*
X2723612Y2301661D01*
X2683307Y2333435D01*
X2676089Y2335970D01*
X2673617Y2337254D01*
X2667396Y2341699D01*
X2627736Y2353560D01*
X2618258Y2356395D01*
X2613825Y2357836D01*
X2571295Y2372771D01*
X2571291Y2372772D01*
X2565419Y2374834D01*
X2557729Y2375500D01*
X2555613Y2375500D01*
X2555428Y2375508D01*
X2553924Y2375635D01*
X2547689Y2377500D01*
X2539515Y2377179D01*
X2539513Y2377179D01*
X2498726Y2375576D01*
X2494839Y2375500D01*
X2459191Y2375500D01*
X2401000Y2394407D01*
X2365036Y2443907D01*
X2360948Y2478431D01*
X2360500Y2478431D01*
X2360500Y2821569D01*
X2359235Y2829559D01*
X2347362Y2904521D01*
X2347362Y2904522D01*
X2346143Y2912216D01*
X2342607Y2919156D01*
X2293502Y3015530D01*
X2293501Y3015532D01*
X2289966Y3022469D01*
X2202469Y3109966D01*
X2195532Y3113501D01*
X2195530Y3113502D01*
X2099156Y3162607D01*
X2099155Y3162607D01*
X2092216Y3166143D01*
X2084522Y3167362D01*
X2084521Y3167362D01*
X2005415Y3179891D01*
X2005413Y3179891D01*
X2001569Y3180500D01*
X1598431Y3180500D01*
X1594587Y3179891D01*
X1594585Y3179891D01*
X1515479Y3167362D01*
X1515478Y3167362D01*
X1507784Y3166143D01*
X1500845Y3162607D01*
X1500844Y3162607D01*
X1404470Y3113502D01*
X1404468Y3113501D01*
X1397531Y3109966D01*
X1310034Y3022469D01*
X1306499Y3015532D01*
X1306498Y3015530D01*
X1257393Y2919156D01*
X1253857Y2912216D01*
X1252638Y2904522D01*
X1252638Y2904521D01*
X1240765Y2829559D01*
X1239500Y2821569D01*
X1239500Y2755439D01*
X1220593Y2697248D01*
X1171093Y2661284D01*
X1109907Y2661284D01*
X1075421Y2680836D01*
X1072612Y2683287D01*
X1068010Y2688627D01*
X980818Y2745142D01*
X961092Y2757928D01*
X961091Y2757929D01*
X955175Y2761763D01*
X948421Y2763783D01*
X831486Y2798755D01*
X831483Y2798756D01*
X826349Y2800291D01*
X823536Y2800500D01*
X208836Y2800500D01*
X205346Y2800000D01*
X205343Y2800000D01*
X155326Y2792837D01*
X110644Y2786438D01*
X82549Y2773664D01*
X62126Y2764378D01*
X21150Y2755500D01*
X-272057Y2755500D01*
X-330248Y2774407D01*
X-342061Y2784496D01*
X-397531Y2839966D01*
X-404468Y2843501D01*
X-404470Y2843502D01*
X-500844Y2892607D01*
X-500845Y2892607D01*
X-507784Y2896143D01*
X-515478Y2897362D01*
X-515479Y2897362D01*
X-594585Y2909891D01*
X-594587Y2909891D01*
X-598431Y2910500D01*
X-1001569Y2910500D01*
X-1005413Y2909891D01*
X-1005415Y2909891D01*
X-1084521Y2897362D01*
X-1084522Y2897362D01*
X-1092216Y2896143D01*
X-1099155Y2892607D01*
X-1099156Y2892607D01*
X-1195530Y2843502D01*
X-1195532Y2843501D01*
X-1202469Y2839966D01*
X-1289966Y2752469D01*
X-1293501Y2745532D01*
X-1293502Y2745530D01*
X-1330224Y2673459D01*
X-1346143Y2642216D01*
X-1347362Y2634522D01*
X-1347362Y2634521D01*
X-1359579Y2557387D01*
X-1360500Y2551569D01*
X-1360500Y2208431D01*
X-1359891Y2204587D01*
X-1359891Y2204585D01*
X-1359509Y2202177D01*
X-1346143Y2117784D01*
X-1342607Y2110845D01*
X-1342607Y2110844D01*
X-1302542Y2032213D01*
X-1289966Y2007531D01*
X-1202469Y1920034D01*
X-1195532Y1916499D01*
X-1195530Y1916498D01*
X-1099156Y1867393D01*
X-1092216Y1863857D01*
X-1084522Y1862638D01*
X-1084521Y1862638D01*
X-1005415Y1850109D01*
X-1005413Y1850109D01*
X-1001569Y1849500D01*
X-598431Y1849500D01*
X-594587Y1850109D01*
X-594585Y1850109D01*
X-515479Y1862638D01*
X-515478Y1862638D01*
X-507784Y1863857D01*
X-500844Y1867393D01*
X-404470Y1916498D01*
X-404468Y1916499D01*
X-397531Y1920034D01*
X-392025Y1925540D01*
X-385717Y1930123D01*
X-384446Y1928374D01*
X-339603Y1951222D01*
X-279171Y1941651D01*
X-235906Y1898386D01*
X-225500Y1860959D01*
X-225500Y1858836D01*
X-225002Y1855361D01*
X-225002Y1855356D01*
X-224163Y1849500D01*
X-211438Y1760644D01*
X-206959Y1750793D01*
X-158908Y1645112D01*
X-155783Y1638238D01*
X-112605Y1588128D01*
X-76706Y1546465D01*
X-53045Y1490040D01*
X-67069Y1430484D01*
X-113420Y1390544D01*
X-174396Y1385477D01*
X-185234Y1388693D01*
X-226584Y1403580D01*
X-232519Y1404204D01*
X-232520Y1404204D01*
X-245785Y1405598D01*
X-292426Y1410500D01*
X-656501Y1410500D01*
X-659844Y1410042D01*
X-659845Y1410042D01*
X-760013Y1396321D01*
X-760017Y1396320D01*
X-766696Y1395405D01*
X-772883Y1392728D01*
X-772889Y1392726D01*
X-896245Y1339345D01*
X-957158Y1333587D01*
X-992910Y1349505D01*
X-1005795Y1358662D01*
X-1005801Y1358665D01*
X-1011297Y1362571D01*
X-1125204Y1403580D01*
X-1146908Y1411394D01*
X-1146910Y1411394D01*
X-1152525Y1413416D01*
X-1158460Y1414040D01*
X-1158461Y1414040D01*
X-1171804Y1415442D01*
X-1219927Y1420500D01*
X-1599001Y1420500D01*
X-1711213Y1405129D01*
X-1717400Y1402451D01*
X-1717402Y1402451D01*
X-1842779Y1348195D01*
X-1842781Y1348194D01*
X-1848969Y1345516D01*
X-1852150Y1342940D01*
X-1910585Y1329233D01*
X-1959651Y1347188D01*
X-1975799Y1358664D01*
X-1975800Y1358665D01*
X-1981297Y1362571D01*
X-2095204Y1403580D01*
X-2116908Y1411394D01*
X-2116910Y1411394D01*
X-2122525Y1413416D01*
X-2128460Y1414040D01*
X-2128461Y1414040D01*
X-2141804Y1415442D01*
X-2189927Y1420500D01*
X-2569001Y1420500D01*
X-2681213Y1405129D01*
X-2687400Y1402451D01*
X-2687402Y1402451D01*
X-2812779Y1348195D01*
X-2812781Y1348194D01*
X-2818969Y1345516D01*
X-2834966Y1332562D01*
X-2897268Y1310500D01*
X-2993421Y1310500D01*
X-3045419Y1327096D01*
X-3045790Y1326387D01*
X-3049851Y1328510D01*
X-3050770Y1328803D01*
X-3057272Y1333424D01*
X-3138230Y1362571D01*
X-3190967Y1381558D01*
X-3190969Y1381558D01*
X-3196584Y1383580D01*
X-3202519Y1384204D01*
X-3202520Y1384204D01*
X-3215785Y1385598D01*
X-3262426Y1390500D01*
X-3686501Y1390500D01*
X-3689844Y1390042D01*
X-3689845Y1390042D01*
X-3790013Y1376321D01*
X-3790017Y1376320D01*
X-3796696Y1375405D01*
X-3802882Y1372728D01*
X-3802886Y1372727D01*
X-3926390Y1319282D01*
X-3926394Y1319280D01*
X-3932584Y1316601D01*
X-3935324Y1314382D01*
X-3985043Y1300500D01*
X-3992359Y1300500D01*
X-4049708Y1318802D01*
X-4105799Y1358664D01*
X-4105800Y1358665D01*
X-4111297Y1362571D01*
X-4225204Y1403580D01*
X-4246908Y1411394D01*
X-4246910Y1411394D01*
X-4252525Y1413416D01*
X-4258460Y1414040D01*
X-4258461Y1414040D01*
X-4271804Y1415442D01*
X-4319927Y1420500D01*
X-4699001Y1420500D01*
X-4811213Y1405129D01*
X-4817400Y1402451D01*
X-4817402Y1402451D01*
X-4942779Y1348195D01*
X-4942781Y1348194D01*
X-4948969Y1345516D01*
X-4952150Y1342940D01*
X-5010585Y1329233D01*
X-5059651Y1347188D01*
X-5075799Y1358664D01*
X-5075800Y1358665D01*
X-5081297Y1362571D01*
X-5195204Y1403580D01*
X-5216908Y1411394D01*
X-5216910Y1411394D01*
X-5222525Y1413416D01*
X-5228460Y1414040D01*
X-5228461Y1414040D01*
X-5241804Y1415442D01*
X-5289927Y1420500D01*
X-5669001Y1420500D01*
X-5781213Y1405129D01*
X-5787400Y1402451D01*
X-5787402Y1402451D01*
X-5912779Y1348195D01*
X-5912781Y1348194D01*
X-5918969Y1345516D01*
X-5943812Y1325399D01*
X-5947315Y1322562D01*
X-6009617Y1300500D01*
X-6892359Y1300500D01*
X-6949708Y1318802D01*
X-7005799Y1358664D01*
X-7005800Y1358665D01*
X-7011297Y1362571D01*
X-7125204Y1403580D01*
X-7146908Y1411394D01*
X-7146910Y1411394D01*
X-7152525Y1413416D01*
X-7158460Y1414040D01*
X-7158461Y1414040D01*
X-7171804Y1415442D01*
X-7219927Y1420500D01*
X-7599001Y1420500D01*
X-7711213Y1405129D01*
X-7717400Y1402451D01*
X-7717402Y1402451D01*
X-7842779Y1348195D01*
X-7842781Y1348194D01*
X-7848969Y1345516D01*
X-7852150Y1342940D01*
X-7910585Y1329233D01*
X-7959651Y1347188D01*
X-7975799Y1358664D01*
X-7975800Y1358665D01*
X-7981297Y1362571D01*
X-8095204Y1403580D01*
X-8116908Y1411394D01*
X-8116910Y1411394D01*
X-8122525Y1413416D01*
X-8128460Y1414040D01*
X-8128461Y1414040D01*
X-8141804Y1415442D01*
X-8189927Y1420500D01*
X-8569001Y1420500D01*
X-8681213Y1405129D01*
X-8687400Y1402451D01*
X-8687402Y1402451D01*
X-8812779Y1348195D01*
X-8812781Y1348194D01*
X-8818969Y1345516D01*
X-8935620Y1251055D01*
X-8967722Y1205883D01*
X-9001746Y1158006D01*
X-9022571Y1128703D01*
X-9034918Y1094407D01*
X-9071395Y993090D01*
X-9071396Y993086D01*
X-9073416Y987475D01*
X-9073436Y987288D01*
X-9098717Y941584D01*
X-9110866Y929435D01*
X-9165383Y901658D01*
X-9180870Y900439D01*
X-10851264Y900439D01*
X-10852041Y900459D01*
X-10852427Y900500D01*
X-10873076Y900500D01*
X-10878257Y900636D01*
X-10942210Y903988D01*
X-10942214Y903988D01*
X-10947390Y904259D01*
X-10952509Y903448D01*
X-10952513Y903448D01*
X-10963427Y901719D01*
X-10978914Y900500D01*
X-13846729Y900500D01*
X-13904920Y919407D01*
X-13918362Y931165D01*
X-14017826Y1035430D01*
X-14052122Y1071381D01*
X-14165626Y1155830D01*
X-14242824Y1213267D01*
X-14242827Y1213269D01*
X-14246190Y1215771D01*
X-14378130Y1282853D01*
X-14458079Y1323502D01*
X-14458083Y1323504D01*
X-14461811Y1325399D01*
X-14692821Y1397130D01*
X-14726230Y1401558D01*
X-14742595Y1403727D01*
X-13231391Y1403727D01*
X-13225336Y1397078D01*
X-13100752Y1318167D01*
X-13093342Y1314310D01*
X-12885736Y1227678D01*
X-12877770Y1225121D01*
X-12658527Y1174706D01*
X-12650262Y1173530D01*
X-12425649Y1160775D01*
X-12417303Y1161009D01*
X-12193762Y1186281D01*
X-12185566Y1187918D01*
X-11969476Y1250494D01*
X-11961684Y1253485D01*
X-11759222Y1351577D01*
X-11752040Y1355842D01*
X-11696569Y1395482D01*
X-11688643Y1406213D01*
X-11688636Y1407101D01*
X-11692233Y1413023D01*
X-12448914Y2169704D01*
X-12460797Y2175758D01*
X-12465828Y2174962D01*
X-13225500Y1415290D01*
X-13231391Y1403727D01*
X-14742595Y1403727D01*
X-14928462Y1428362D01*
X-14928466Y1428362D01*
X-14932614Y1428912D01*
X-14936799Y1428755D01*
X-14936802Y1428755D01*
X-15028663Y1425306D01*
X-15174334Y1419837D01*
X-15411069Y1370165D01*
X-15636051Y1281316D01*
X-15639627Y1279146D01*
X-15639631Y1279144D01*
X-15799077Y1182389D01*
X-15842845Y1155830D01*
X-16025541Y997295D01*
X-16178913Y810244D01*
X-16298576Y600026D01*
X-16381109Y372652D01*
X-16424151Y134622D01*
X-16425160Y29500D01*
X-16426358Y-95308D01*
X-16426473Y-107257D01*
X-16388008Y-346069D01*
X-16309855Y-574986D01*
X-16194250Y-787463D01*
X-16044497Y-977423D01*
X-16041383Y-980231D01*
X-16041381Y-980234D01*
X-15870865Y-1134037D01*
X-15864879Y-1139436D01*
X-15660531Y-1268869D01*
X-15552832Y-1313810D01*
X-15441166Y-1360407D01*
X-15441161Y-1360409D01*
X-15437297Y-1362021D01*
X-15201559Y-1416229D01*
X-15073209Y-1423517D01*
X-14964239Y-1429705D01*
X-14964234Y-1429705D01*
X-14960058Y-1429942D01*
X-14737717Y-1404806D01*
X-13232309Y-1404806D01*
X-13227686Y-1413104D01*
X-12471086Y-2169704D01*
X-12459203Y-2175758D01*
X-12454172Y-2174962D01*
X-11694322Y-1415112D01*
X-11688268Y-1403229D01*
X-11688487Y-1401846D01*
X-11692408Y-1397202D01*
X-11729433Y-1369654D01*
X-11736542Y-1365246D01*
X-11937079Y-1263287D01*
X-11944809Y-1260149D01*
X-12159666Y-1193434D01*
X-12167815Y-1191642D01*
X-12390841Y-1162082D01*
X-12399181Y-1161689D01*
X-12623990Y-1170129D01*
X-12632283Y-1171147D01*
X-12852458Y-1217345D01*
X-12860452Y-1219743D01*
X-13069704Y-1302381D01*
X-13077177Y-1306090D01*
X-13224041Y-1395210D01*
X-13232309Y-1404806D01*
X-14737717Y-1404806D01*
X-14719699Y-1402769D01*
X-14715676Y-1401604D01*
X-14715671Y-1401603D01*
X-14491388Y-1336655D01*
X-14491387Y-1336654D01*
X-14487355Y-1335487D01*
X-14295951Y-1242753D01*
X-14273445Y-1231849D01*
X-14273444Y-1231849D01*
X-14269668Y-1230019D01*
X-14121192Y-1123917D01*
X-14076281Y-1091823D01*
X-14076280Y-1091822D01*
X-14072864Y-1089381D01*
X-13914673Y-929803D01*
X-13860279Y-901787D01*
X-13844365Y-900500D01*
X-10948675Y-900500D01*
X-10947898Y-900520D01*
X-10947512Y-900561D01*
X-10926863Y-900561D01*
X-10921682Y-900697D01*
X-10857729Y-904049D01*
X-10857725Y-904049D01*
X-10852549Y-904320D01*
X-10847430Y-903509D01*
X-10847426Y-903509D01*
X-10836512Y-901780D01*
X-10821025Y-900561D01*
X-9904577Y-900561D01*
X-9885950Y-902668D01*
X-9883416Y-903580D01*
X-9817574Y-910500D01*
X-9393499Y-910500D01*
X-9390156Y-910042D01*
X-9390155Y-910042D01*
X-9327630Y-901477D01*
X-9314194Y-900561D01*
X-9266154Y-900561D01*
X-9240531Y-903934D01*
X-9206664Y-913009D01*
X-9206662Y-913009D01*
X-9201651Y-914352D01*
X-9196466Y-914624D01*
X-9196464Y-914624D01*
X-9174068Y-915797D01*
X-9154438Y-916826D01*
X-9097316Y-938752D01*
X-9089612Y-945689D01*
X-9072830Y-962472D01*
X-9047483Y-1005849D01*
X-9046321Y-1010011D01*
X-9045405Y-1016696D01*
X-8986601Y-1152584D01*
X-8893420Y-1267652D01*
X-8887918Y-1271562D01*
X-8887917Y-1271563D01*
X-8781974Y-1346853D01*
X-8772728Y-1353424D01*
X-8736789Y-1366363D01*
X-8639033Y-1401558D01*
X-8639031Y-1401558D01*
X-8633416Y-1403580D01*
X-8627481Y-1404204D01*
X-8627480Y-1404204D01*
X-8618678Y-1405129D01*
X-8567574Y-1410500D01*
X-8203499Y-1410500D01*
X-8200156Y-1410042D01*
X-8200155Y-1410042D01*
X-8099987Y-1396321D01*
X-8099983Y-1396320D01*
X-8093304Y-1395405D01*
X-8087118Y-1392728D01*
X-8087114Y-1392727D01*
X-7963606Y-1339280D01*
X-7963604Y-1339279D01*
X-7957416Y-1336601D01*
X-7952174Y-1332356D01*
X-7948520Y-1330143D01*
X-7888951Y-1316170D01*
X-7839886Y-1334125D01*
X-7821503Y-1347188D01*
X-7812728Y-1353424D01*
X-7806383Y-1355708D01*
X-7806380Y-1355710D01*
X-7679033Y-1401558D01*
X-7679031Y-1401558D01*
X-7673416Y-1403580D01*
X-7667481Y-1404204D01*
X-7667480Y-1404204D01*
X-7658678Y-1405129D01*
X-7607574Y-1410500D01*
X-7243499Y-1410500D01*
X-7240156Y-1410042D01*
X-7240155Y-1410042D01*
X-7139987Y-1396321D01*
X-7139983Y-1396320D01*
X-7133304Y-1395405D01*
X-7127118Y-1392728D01*
X-7127114Y-1392727D01*
X-7031601Y-1351394D01*
X-6997416Y-1336601D01*
X-6980079Y-1322562D01*
X-6917778Y-1300500D01*
X-6914722Y-1300500D01*
X-6857375Y-1318801D01*
X-6822728Y-1343424D01*
X-6767696Y-1363237D01*
X-6689033Y-1391558D01*
X-6689031Y-1391558D01*
X-6683416Y-1393580D01*
X-6677481Y-1394204D01*
X-6677480Y-1394204D01*
X-6667907Y-1395210D01*
X-6617574Y-1400500D01*
X-6193499Y-1400500D01*
X-6190156Y-1400042D01*
X-6190155Y-1400042D01*
X-6089987Y-1386321D01*
X-6089983Y-1386320D01*
X-6083304Y-1385405D01*
X-6077116Y-1382727D01*
X-6077115Y-1382727D01*
X-6024694Y-1360042D01*
X-5975647Y-1338818D01*
X-5914735Y-1333060D01*
X-5884322Y-1346601D01*
X-5884210Y-1346387D01*
X-5880800Y-1348170D01*
X-5878983Y-1348979D01*
X-5872728Y-1353424D01*
X-5836789Y-1366363D01*
X-5739033Y-1401558D01*
X-5739031Y-1401558D01*
X-5733416Y-1403580D01*
X-5727481Y-1404204D01*
X-5727480Y-1404204D01*
X-5718678Y-1405129D01*
X-5667574Y-1410500D01*
X-5303499Y-1410500D01*
X-5300156Y-1410042D01*
X-5300155Y-1410042D01*
X-5199987Y-1396321D01*
X-5199983Y-1396320D01*
X-5193304Y-1395405D01*
X-5187118Y-1392728D01*
X-5187114Y-1392727D01*
X-5063606Y-1339280D01*
X-5063604Y-1339279D01*
X-5057416Y-1336601D01*
X-5052174Y-1332356D01*
X-5048520Y-1330143D01*
X-4988951Y-1316170D01*
X-4939886Y-1334125D01*
X-4921503Y-1347188D01*
X-4912728Y-1353424D01*
X-4906383Y-1355708D01*
X-4906380Y-1355710D01*
X-4779033Y-1401558D01*
X-4779031Y-1401558D01*
X-4773416Y-1403580D01*
X-4767481Y-1404204D01*
X-4767480Y-1404204D01*
X-4758678Y-1405129D01*
X-4707574Y-1410500D01*
X-4343499Y-1410500D01*
X-4340156Y-1410042D01*
X-4340155Y-1410042D01*
X-4239987Y-1396321D01*
X-4239983Y-1396320D01*
X-4233304Y-1395405D01*
X-4227118Y-1392728D01*
X-4227114Y-1392727D01*
X-4131601Y-1351394D01*
X-4097416Y-1336601D01*
X-4080079Y-1322562D01*
X-4017778Y-1300500D01*
X-3901733Y-1300500D01*
X-3868198Y-1306353D01*
X-3743092Y-1351394D01*
X-3743090Y-1351394D01*
X-3737475Y-1353416D01*
X-3731540Y-1354040D01*
X-3731539Y-1354040D01*
X-3718196Y-1355442D01*
X-3670073Y-1360500D01*
X-3240999Y-1360500D01*
X-3128787Y-1345129D01*
X-3122600Y-1342451D01*
X-3122598Y-1342451D01*
X-2997223Y-1288196D01*
X-2997220Y-1288194D01*
X-2996381Y-1287831D01*
X-2996380Y-1287831D01*
X-2991031Y-1285516D01*
X-2990614Y-1286479D01*
X-2937204Y-1273951D01*
X-2888139Y-1291906D01*
X-2798356Y-1355711D01*
X-2788703Y-1362571D01*
X-2713974Y-1389475D01*
X-2653092Y-1411394D01*
X-2653090Y-1411394D01*
X-2647475Y-1413416D01*
X-2641540Y-1414040D01*
X-2641539Y-1414040D01*
X-2628196Y-1415442D01*
X-2580073Y-1420500D01*
X-2200999Y-1420500D01*
X-2088787Y-1405129D01*
X-2082600Y-1402451D01*
X-2082598Y-1402451D01*
X-1957221Y-1348195D01*
X-1957219Y-1348194D01*
X-1951031Y-1345516D01*
X-1947850Y-1342940D01*
X-1889415Y-1329233D01*
X-1840349Y-1347188D01*
X-1828357Y-1355710D01*
X-1818703Y-1362571D01*
X-1743974Y-1389475D01*
X-1683092Y-1411394D01*
X-1683090Y-1411394D01*
X-1677475Y-1413416D01*
X-1671540Y-1414040D01*
X-1671539Y-1414040D01*
X-1658196Y-1415442D01*
X-1610073Y-1420500D01*
X-1230999Y-1420500D01*
X-1118787Y-1405129D01*
X-1112600Y-1402451D01*
X-1112598Y-1402451D01*
X-987225Y-1348197D01*
X-987222Y-1348195D01*
X-983043Y-1346387D01*
X-981031Y-1345516D01*
X-980872Y-1345883D01*
X-925438Y-1332880D01*
X-884906Y-1347712D01*
X-884213Y-1346387D01*
X-878225Y-1349518D01*
X-872728Y-1353424D01*
X-866383Y-1355708D01*
X-866380Y-1355710D01*
X-739033Y-1401558D01*
X-739031Y-1401558D01*
X-733416Y-1403580D01*
X-727481Y-1404204D01*
X-727480Y-1404204D01*
X-718678Y-1405129D01*
X-667574Y-1410500D01*
X-303499Y-1410500D01*
X-300156Y-1410042D01*
X-300155Y-1410042D01*
X-270970Y-1406044D01*
X-258261Y-1404303D01*
X-198043Y-1415138D01*
X-155694Y-1459299D01*
X-147390Y-1519918D01*
X-161749Y-1556233D01*
X-186763Y-1594825D01*
X-225291Y-1723651D01*
X-225500Y-1726464D01*
X-225500Y-1763057D01*
X-244407Y-1821248D01*
X-293907Y-1857212D01*
X-355093Y-1857212D01*
X-384874Y-1838962D01*
X-385717Y-1840123D01*
X-392025Y-1835540D01*
X-397531Y-1830034D01*
X-404468Y-1826499D01*
X-404470Y-1826498D01*
X-500844Y-1777393D01*
X-500845Y-1777393D01*
X-507784Y-1773857D01*
X-515478Y-1772638D01*
X-515479Y-1772638D01*
X-594585Y-1760109D01*
X-594587Y-1760109D01*
X-598431Y-1759500D01*
X-1001569Y-1759500D01*
X-1005413Y-1760109D01*
X-1005415Y-1760109D01*
X-1084521Y-1772638D01*
X-1084522Y-1772638D01*
X-1092216Y-1773857D01*
X-1099155Y-1777393D01*
X-1099156Y-1777393D01*
X-1195530Y-1826498D01*
X-1195532Y-1826499D01*
X-1202469Y-1830034D01*
X-1289966Y-1917531D01*
X-1293501Y-1924468D01*
X-1293502Y-1924470D01*
X-1337764Y-2011340D01*
X-1346143Y-2027784D01*
X-1347362Y-2035478D01*
X-1347362Y-2035479D01*
X-1350464Y-2055067D01*
X-1360500Y-2118431D01*
X-1360500Y-2461569D01*
X-1359891Y-2465413D01*
X-1359891Y-2465415D01*
X-1347706Y-2542345D01*
X-1346143Y-2552216D01*
X-1342607Y-2559155D01*
X-1342607Y-2559156D01*
X-1295889Y-2650844D01*
X-1289966Y-2662469D01*
X-1202469Y-2749966D01*
X-1195532Y-2753501D01*
X-1195530Y-2753502D01*
X-1103664Y-2800310D01*
X-1092216Y-2806143D01*
X-1084522Y-2807362D01*
X-1084521Y-2807362D01*
X-1005415Y-2819891D01*
X-1005413Y-2819891D01*
X-1001569Y-2820500D01*
X-598431Y-2820500D01*
X-594587Y-2819891D01*
X-594585Y-2819891D01*
X-515479Y-2807362D01*
X-515478Y-2807362D01*
X-507784Y-2806143D01*
X-496336Y-2800310D01*
X-404470Y-2753502D01*
X-404468Y-2753501D01*
X-397531Y-2749966D01*
X-342061Y-2694496D01*
X-287544Y-2666719D01*
X-272057Y-2665500D01*
X42834Y-2665500D01*
X71200Y-2669651D01*
X168511Y-2698754D01*
X168513Y-2698754D01*
X173651Y-2700291D01*
X176464Y-2700500D01*
X791164Y-2700500D01*
X794654Y-2700000D01*
X794657Y-2700000D01*
X851439Y-2691868D01*
X889356Y-2686438D01*
X957334Y-2655530D01*
X1005338Y-2633704D01*
X1005339Y-2633703D01*
X1011762Y-2630783D01*
X1092584Y-2561142D01*
X1108283Y-2547615D01*
X1108284Y-2547614D01*
X1113627Y-2543010D01*
X1156656Y-2476624D01*
X1182928Y-2436092D01*
X1182929Y-2436091D01*
X1186763Y-2430175D01*
X1225291Y-2301349D01*
X1225823Y-2301508D01*
X1253231Y-2250930D01*
X1308435Y-2224544D01*
X1366382Y-2234476D01*
X1376005Y-2239379D01*
X1467784Y-2286143D01*
X1475478Y-2287362D01*
X1475479Y-2287362D01*
X1554585Y-2299891D01*
X1554587Y-2299891D01*
X1558431Y-2300500D01*
X1961569Y-2300500D01*
X1965413Y-2299891D01*
X1965415Y-2299891D01*
X2044521Y-2287362D01*
X2044522Y-2287362D01*
X2052216Y-2286143D01*
X2102543Y-2260500D01*
X2155530Y-2233502D01*
X2155532Y-2233501D01*
X2162469Y-2229966D01*
X2249966Y-2142469D01*
X2254983Y-2132624D01*
X2302607Y-2039156D01*
X2302607Y-2039155D01*
X2306143Y-2032216D01*
X2308221Y-2019100D01*
X2319891Y-1945415D01*
X2319891Y-1945413D01*
X2320500Y-1941569D01*
X2320500Y-1598431D01*
X2313817Y-1556233D01*
X2307362Y-1515479D01*
X2307362Y-1515478D01*
X2306143Y-1507784D01*
X2302607Y-1500844D01*
X2253502Y-1404470D01*
X2253501Y-1404468D01*
X2249966Y-1397531D01*
X2164496Y-1312061D01*
X2136719Y-1257544D01*
X2135500Y-1242057D01*
X2135500Y-1236544D01*
X2154407Y-1178353D01*
X2164497Y-1166540D01*
X2226542Y-1104496D01*
X2281059Y-1076719D01*
X2296545Y-1075500D01*
X2406712Y-1075500D01*
X2437306Y-1080346D01*
X2442751Y-1082115D01*
X2449694Y-1085653D01*
X2457390Y-1086872D01*
X2539586Y-1099891D01*
X2539588Y-1099891D01*
X2543432Y-1100500D01*
X3056568Y-1100500D01*
X3060412Y-1099891D01*
X3060414Y-1099891D01*
X3142611Y-1086872D01*
X3142612Y-1086872D01*
X3150306Y-1085653D01*
X3157244Y-1082118D01*
X3157247Y-1082117D01*
X3213277Y-1053568D01*
X3273709Y-1043997D01*
X3328226Y-1071775D01*
X3356003Y-1126291D01*
X3346432Y-1186723D01*
X3317883Y-1242753D01*
X3317882Y-1242756D01*
X3314347Y-1249694D01*
X3313128Y-1257388D01*
X3313128Y-1257389D01*
X3300157Y-1339281D01*
X3299500Y-1343432D01*
X3299500Y-1856568D01*
X3300109Y-1860412D01*
X3300109Y-1860414D01*
X3311879Y-1934725D01*
X3302308Y-1995157D01*
X3284102Y-2020216D01*
X3186572Y-2117746D01*
X3170271Y-2130909D01*
X3160744Y-2137061D01*
X3155678Y-2143487D01*
X3155676Y-2143489D01*
X3140102Y-2163244D01*
X3136430Y-2167377D01*
X3136448Y-2167392D01*
X3133797Y-2170521D01*
X3130918Y-2173400D01*
X3128549Y-2176716D01*
X3128545Y-2176720D01*
X3120841Y-2187501D01*
X3118057Y-2191210D01*
X3088473Y-2228737D01*
X3085905Y-2236048D01*
X3085257Y-2237296D01*
X3080751Y-2243602D01*
X3078408Y-2251438D01*
X3067065Y-2289368D01*
X3065622Y-2293808D01*
X3054844Y-2324500D01*
X3049794Y-2338879D01*
X3049500Y-2342273D01*
X3049500Y-2344412D01*
X3049408Y-2346545D01*
X3049249Y-2346538D01*
X3049058Y-2349580D01*
X3047304Y-2355444D01*
X3047625Y-2363618D01*
X3047898Y-2370562D01*
X3031289Y-2429451D01*
X3007162Y-2454544D01*
X3004476Y-2456495D01*
X2997531Y-2460034D01*
X2910034Y-2547531D01*
X2906499Y-2554468D01*
X2906498Y-2554470D01*
X2869962Y-2626176D01*
X2853857Y-2657784D01*
X2852638Y-2665478D01*
X2852638Y-2665479D01*
X2847094Y-2700485D01*
X2839500Y-2748431D01*
X2839500Y-3091569D01*
X2840109Y-3095413D01*
X2840109Y-3095415D01*
X2852161Y-3171506D01*
X2853857Y-3182216D01*
X2857393Y-3189155D01*
X2857393Y-3189156D01*
X2875331Y-3224360D01*
X2910034Y-3292469D01*
X2997531Y-3379966D01*
X3004468Y-3383501D01*
X3004470Y-3383502D01*
X3100842Y-3432606D01*
X3107784Y-3436143D01*
X3115478Y-3437362D01*
X3115479Y-3437362D01*
X3194585Y-3449891D01*
X3194587Y-3449891D01*
X3198431Y-3450500D01*
X3601569Y-3450500D01*
X3605413Y-3449891D01*
X3605415Y-3449891D01*
X3684521Y-3437362D01*
X3684522Y-3437362D01*
X3692216Y-3436143D01*
X3699155Y-3432607D01*
X3699159Y-3432606D01*
X3756054Y-3403616D01*
X3816487Y-3394044D01*
X3871003Y-3421821D01*
X3898781Y-3476337D01*
X3900000Y-3491825D01*
X3900000Y-4300000D01*
X7000000Y-4300000D01*
X7000000Y-2849500D01*
X7018907Y-2791309D01*
X7068407Y-2755345D01*
X7099000Y-2750500D01*
X7913810Y-2750500D01*
X7972001Y-2769407D01*
X7983814Y-2779496D01*
X9780504Y-4576186D01*
X9808281Y-4630703D01*
X9809500Y-4646190D01*
X9809500Y-6506708D01*
X9790593Y-6564899D01*
X9751476Y-6596830D01*
X9608922Y-6661646D01*
X9437644Y-6783142D01*
X9292430Y-6934834D01*
X9178520Y-7111249D01*
X9176762Y-7115610D01*
X9176762Y-7115611D01*
X9137045Y-7214163D01*
X9100025Y-7306021D01*
X9099124Y-7310634D01*
X9099123Y-7310638D01*
X9078616Y-7415650D01*
X9059776Y-7512122D01*
X9059226Y-7722116D01*
X9060104Y-7726738D01*
X9060104Y-7726743D01*
X9085363Y-7859782D01*
X9098395Y-7928425D01*
X9175870Y-8123605D01*
X9178410Y-8127584D01*
X9286316Y-8296639D01*
X9286320Y-8296644D01*
X9288854Y-8300614D01*
X9433272Y-8453064D01*
X9527369Y-8520556D01*
X9563632Y-8569833D01*
X9564006Y-8631017D01*
X9528345Y-8680736D01*
X9469666Y-8700000D01*
X8318146Y-8700000D01*
X8259955Y-8681093D01*
X8223991Y-8631593D01*
X8223991Y-8570407D01*
X8258018Y-8524253D01*
X8257246Y-8523354D01*
X8412990Y-8389629D01*
X8416569Y-8386556D01*
X8419503Y-8382861D01*
X8544219Y-8225790D01*
X8544221Y-8225787D01*
X8547150Y-8222098D01*
X8644277Y-8035916D01*
X8704446Y-7834726D01*
X8725485Y-7625788D01*
X8725500Y-7620000D01*
X8705555Y-7410955D01*
X8646441Y-7209453D01*
X8630144Y-7177809D01*
X8552447Y-7026952D01*
X8550290Y-7022764D01*
X8542316Y-7012612D01*
X8423485Y-6861334D01*
X8423483Y-6861332D01*
X8420572Y-6857626D01*
X8417016Y-6854540D01*
X8417012Y-6854536D01*
X8265527Y-6723084D01*
X8265526Y-6723083D01*
X8261967Y-6719995D01*
X8080198Y-6614839D01*
X7991147Y-6583915D01*
X7886270Y-6547495D01*
X7886264Y-6547494D01*
X7881825Y-6545952D01*
X7674003Y-6515820D01*
X7549289Y-6521592D01*
X7468942Y-6525311D01*
X7468941Y-6525311D01*
X7464234Y-6525529D01*
X7260084Y-6574729D01*
X7255796Y-6576679D01*
X7255795Y-6576679D01*
X7239881Y-6583915D01*
X7068922Y-6661646D01*
X6897644Y-6783142D01*
X6752430Y-6934834D01*
X6638520Y-7111249D01*
X6636762Y-7115610D01*
X6636762Y-7115611D01*
X6597045Y-7214163D01*
X6560025Y-7306021D01*
X6559124Y-7310634D01*
X6559123Y-7310638D01*
X6538616Y-7415650D01*
X6519776Y-7512122D01*
X6519226Y-7722116D01*
X6520104Y-7726738D01*
X6520104Y-7726743D01*
X6545363Y-7859782D01*
X6558395Y-7928425D01*
X6635870Y-8123605D01*
X6638410Y-8127584D01*
X6746316Y-8296639D01*
X6746320Y-8296644D01*
X6748854Y-8300614D01*
X6893272Y-8453064D01*
X6987369Y-8520556D01*
X7023632Y-8569833D01*
X7024006Y-8631017D01*
X6988345Y-8680736D01*
X6929666Y-8700000D01*
X5778146Y-8700000D01*
X5719955Y-8681093D01*
X5683991Y-8631593D01*
X5683991Y-8570407D01*
X5718018Y-8524253D01*
X5717246Y-8523354D01*
X5872990Y-8389629D01*
X5876569Y-8386556D01*
X5879503Y-8382861D01*
X6004219Y-8225790D01*
X6004221Y-8225787D01*
X6007150Y-8222098D01*
X6104277Y-8035916D01*
X6164446Y-7834726D01*
X6185485Y-7625788D01*
X6185500Y-7620000D01*
X6165555Y-7410955D01*
X6106441Y-7209453D01*
X6090144Y-7177809D01*
X6012447Y-7026952D01*
X6010290Y-7022764D01*
X6002316Y-7012612D01*
X5883485Y-6861334D01*
X5883483Y-6861332D01*
X5880572Y-6857626D01*
X5877016Y-6854540D01*
X5877012Y-6854536D01*
X5725527Y-6723084D01*
X5725526Y-6723083D01*
X5721967Y-6719995D01*
X5540198Y-6614839D01*
X5451147Y-6583915D01*
X5346270Y-6547495D01*
X5346264Y-6547494D01*
X5341825Y-6545952D01*
X5134003Y-6515820D01*
X5009289Y-6521592D01*
X4928942Y-6525311D01*
X4928941Y-6525311D01*
X4924234Y-6525529D01*
X4720084Y-6574729D01*
X4715796Y-6576679D01*
X4715795Y-6576679D01*
X4699881Y-6583915D01*
X4528922Y-6661646D01*
X4357644Y-6783142D01*
X4212430Y-6934834D01*
X4098520Y-7111249D01*
X4096762Y-7115610D01*
X4096762Y-7115611D01*
X4057045Y-7214163D01*
X4020025Y-7306021D01*
X4019124Y-7310634D01*
X4019123Y-7310638D01*
X3998616Y-7415650D01*
X3979776Y-7512122D01*
X3979226Y-7722116D01*
X3980104Y-7726738D01*
X3980104Y-7726743D01*
X4005363Y-7859782D01*
X4018395Y-7928425D01*
X4095870Y-8123605D01*
X4098410Y-8127584D01*
X4206316Y-8296639D01*
X4206320Y-8296644D01*
X4208854Y-8300614D01*
X4353272Y-8453064D01*
X4447369Y-8520556D01*
X4483632Y-8569833D01*
X4484006Y-8631017D01*
X4448345Y-8680736D01*
X4389666Y-8700000D01*
X3238146Y-8700000D01*
X3179955Y-8681093D01*
X3143991Y-8631593D01*
X3143991Y-8570407D01*
X3178018Y-8524253D01*
X3177246Y-8523354D01*
X3332990Y-8389629D01*
X3336569Y-8386556D01*
X3339503Y-8382861D01*
X3464219Y-8225790D01*
X3464221Y-8225787D01*
X3467150Y-8222098D01*
X3564277Y-8035916D01*
X3624446Y-7834726D01*
X3645485Y-7625788D01*
X3645500Y-7620000D01*
X3625555Y-7410955D01*
X3566441Y-7209453D01*
X3550144Y-7177809D01*
X3472447Y-7026952D01*
X3470290Y-7022764D01*
X3462316Y-7012612D01*
X3343485Y-6861334D01*
X3343483Y-6861332D01*
X3340572Y-6857626D01*
X3337016Y-6854540D01*
X3337012Y-6854536D01*
X3185527Y-6723084D01*
X3185526Y-6723083D01*
X3181967Y-6719995D01*
X3000198Y-6614839D01*
X2911147Y-6583915D01*
X2806270Y-6547495D01*
X2806264Y-6547494D01*
X2801825Y-6545952D01*
X2594003Y-6515820D01*
X2469289Y-6521592D01*
X2388942Y-6525311D01*
X2388941Y-6525311D01*
X2384234Y-6525529D01*
X2180084Y-6574729D01*
X2175796Y-6576679D01*
X2175795Y-6576679D01*
X2159881Y-6583915D01*
X1988922Y-6661646D01*
X1817644Y-6783142D01*
X1672430Y-6934834D01*
X1558520Y-7111249D01*
X1556762Y-7115610D01*
X1556762Y-7115611D01*
X1517045Y-7214163D01*
X1480025Y-7306021D01*
X1479124Y-7310634D01*
X1479123Y-7310638D01*
X1458616Y-7415650D01*
X1439776Y-7512122D01*
X1439226Y-7722116D01*
X1440104Y-7726738D01*
X1440104Y-7726743D01*
X1465363Y-7859782D01*
X1478395Y-7928425D01*
X1555870Y-8123605D01*
X1558410Y-8127584D01*
X1666316Y-8296639D01*
X1666320Y-8296644D01*
X1668854Y-8300614D01*
X1813272Y-8453064D01*
X1907369Y-8520556D01*
X1943632Y-8569833D01*
X1944006Y-8631017D01*
X1908345Y-8680736D01*
X1849666Y-8700000D01*
X698146Y-8700000D01*
X639955Y-8681093D01*
X603991Y-8631593D01*
X603991Y-8570407D01*
X638018Y-8524253D01*
X637246Y-8523354D01*
X792990Y-8389629D01*
X796569Y-8386556D01*
X799503Y-8382861D01*
X924219Y-8225790D01*
X924221Y-8225787D01*
X927150Y-8222098D01*
X1024277Y-8035916D01*
X1084446Y-7834726D01*
X1105485Y-7625788D01*
X1105500Y-7620000D01*
X1085555Y-7410955D01*
X1026441Y-7209453D01*
X1010144Y-7177809D01*
X932447Y-7026952D01*
X930290Y-7022764D01*
X922316Y-7012612D01*
X803485Y-6861334D01*
X803483Y-6861332D01*
X800572Y-6857626D01*
X797016Y-6854540D01*
X797012Y-6854536D01*
X645527Y-6723084D01*
X645526Y-6723083D01*
X641967Y-6719995D01*
X460198Y-6614839D01*
X371147Y-6583915D01*
X266270Y-6547495D01*
X266264Y-6547494D01*
X261825Y-6545952D01*
X54003Y-6515820D01*
X-70711Y-6521592D01*
X-151058Y-6525311D01*
X-151059Y-6525311D01*
X-155766Y-6525529D01*
X-359916Y-6574729D01*
X-364204Y-6576679D01*
X-364205Y-6576679D01*
X-380119Y-6583915D01*
X-551078Y-6661646D01*
X-722356Y-6783142D01*
X-867570Y-6934834D01*
X-981480Y-7111249D01*
X-983238Y-7115610D01*
X-983238Y-7115611D01*
X-1022955Y-7214163D01*
X-1059975Y-7306021D01*
X-1060876Y-7310634D01*
X-1060877Y-7310638D01*
X-1081384Y-7415650D01*
X-1100224Y-7512122D01*
X-1100774Y-7722116D01*
X-1099896Y-7726738D01*
X-1099896Y-7726743D01*
X-1074637Y-7859782D01*
X-1061605Y-7928425D01*
X-984130Y-8123605D01*
X-981590Y-8127584D01*
X-873684Y-8296639D01*
X-873680Y-8296644D01*
X-871146Y-8300614D01*
X-726728Y-8453064D01*
X-632631Y-8520556D01*
X-596368Y-8569833D01*
X-595994Y-8631017D01*
X-631655Y-8680736D01*
X-690334Y-8700000D01*
X-1841854Y-8700000D01*
X-1900045Y-8681093D01*
X-1936009Y-8631593D01*
X-1936009Y-8570407D01*
X-1901982Y-8524253D01*
X-1902754Y-8523354D01*
X-1747010Y-8389629D01*
X-1743431Y-8386556D01*
X-1740497Y-8382861D01*
X-1615781Y-8225790D01*
X-1615779Y-8225787D01*
X-1612850Y-8222098D01*
X-1515723Y-8035916D01*
X-1455554Y-7834726D01*
X-1434515Y-7625788D01*
X-1434500Y-7620000D01*
X-1454445Y-7410955D01*
X-1513559Y-7209453D01*
X-1529856Y-7177809D01*
X-1607553Y-7026952D01*
X-1609710Y-7022764D01*
X-1617684Y-7012612D01*
X-1736515Y-6861334D01*
X-1736517Y-6861332D01*
X-1739428Y-6857626D01*
X-1742984Y-6854540D01*
X-1742988Y-6854536D01*
X-1894473Y-6723084D01*
X-1894474Y-6723083D01*
X-1898033Y-6719995D01*
X-2079802Y-6614839D01*
X-2168853Y-6583915D01*
X-2273730Y-6547495D01*
X-2273736Y-6547494D01*
X-2278175Y-6545952D01*
X-2485997Y-6515820D01*
X-2610711Y-6521592D01*
X-2691058Y-6525311D01*
X-2691059Y-6525311D01*
X-2695766Y-6525529D01*
X-2899916Y-6574729D01*
X-2904204Y-6576679D01*
X-2904205Y-6576679D01*
X-2920119Y-6583915D01*
X-3091078Y-6661646D01*
X-3262356Y-6783142D01*
X-3407570Y-6934834D01*
X-3521480Y-7111249D01*
X-3523238Y-7115610D01*
X-3523238Y-7115611D01*
X-3562955Y-7214163D01*
X-3599975Y-7306021D01*
X-3600876Y-7310634D01*
X-3600877Y-7310638D01*
X-3621384Y-7415650D01*
X-3640224Y-7512122D01*
X-3640774Y-7722116D01*
X-3639896Y-7726738D01*
X-3639896Y-7726743D01*
X-3614637Y-7859782D01*
X-3601605Y-7928425D01*
X-3524130Y-8123605D01*
X-3521590Y-8127584D01*
X-3413684Y-8296639D01*
X-3413680Y-8296644D01*
X-3411146Y-8300614D01*
X-3266728Y-8453064D01*
X-3172631Y-8520556D01*
X-3136368Y-8569833D01*
X-3135994Y-8631017D01*
X-3171655Y-8680736D01*
X-3230334Y-8700000D01*
X-4381854Y-8700000D01*
X-4440045Y-8681093D01*
X-4476009Y-8631593D01*
X-4476009Y-8570407D01*
X-4441982Y-8524253D01*
X-4442754Y-8523354D01*
X-4287010Y-8389629D01*
X-4283431Y-8386556D01*
X-4280497Y-8382861D01*
X-4155781Y-8225790D01*
X-4155779Y-8225787D01*
X-4152850Y-8222098D01*
X-4055723Y-8035916D01*
X-3995554Y-7834726D01*
X-3974515Y-7625788D01*
X-3974500Y-7620000D01*
X-3994445Y-7410955D01*
X-4053559Y-7209453D01*
X-4069856Y-7177809D01*
X-4147553Y-7026952D01*
X-4149710Y-7022764D01*
X-4157684Y-7012612D01*
X-4276515Y-6861334D01*
X-4276517Y-6861332D01*
X-4279428Y-6857626D01*
X-4282984Y-6854540D01*
X-4282988Y-6854536D01*
X-4434473Y-6723084D01*
X-4434474Y-6723083D01*
X-4438033Y-6719995D01*
X-4619802Y-6614839D01*
X-4708853Y-6583915D01*
X-4813730Y-6547495D01*
X-4813736Y-6547494D01*
X-4818175Y-6545952D01*
X-5025997Y-6515820D01*
X-5150711Y-6521592D01*
X-5231058Y-6525311D01*
X-5231059Y-6525311D01*
X-5235766Y-6525529D01*
X-5439916Y-6574729D01*
X-5444204Y-6576679D01*
X-5444205Y-6576679D01*
X-5460119Y-6583915D01*
X-5631078Y-6661646D01*
X-5802356Y-6783142D01*
X-5947570Y-6934834D01*
X-6061480Y-7111249D01*
X-6063238Y-7115610D01*
X-6063238Y-7115611D01*
X-6102955Y-7214163D01*
X-6139975Y-7306021D01*
X-6140876Y-7310634D01*
X-6140877Y-7310638D01*
X-6161384Y-7415650D01*
X-6180224Y-7512122D01*
X-6180774Y-7722116D01*
X-6179896Y-7726738D01*
X-6179896Y-7726743D01*
X-6154637Y-7859782D01*
X-6141605Y-7928425D01*
X-6064130Y-8123605D01*
X-6061590Y-8127584D01*
X-5953684Y-8296639D01*
X-5953680Y-8296644D01*
X-5951146Y-8300614D01*
X-5806728Y-8453064D01*
X-5712631Y-8520556D01*
X-5676368Y-8569833D01*
X-5675994Y-8631017D01*
X-5711655Y-8680736D01*
X-5770334Y-8700000D01*
X-6921854Y-8700000D01*
X-6980045Y-8681093D01*
X-7016009Y-8631593D01*
X-7016009Y-8570407D01*
X-6981982Y-8524253D01*
X-6982754Y-8523354D01*
X-6827010Y-8389629D01*
X-6823431Y-8386556D01*
X-6820497Y-8382861D01*
X-6695781Y-8225790D01*
X-6695779Y-8225787D01*
X-6692850Y-8222098D01*
X-6595723Y-8035916D01*
X-6535554Y-7834726D01*
X-6514515Y-7625788D01*
X-6514500Y-7620000D01*
X-6534445Y-7410955D01*
X-6593559Y-7209453D01*
X-6609856Y-7177809D01*
X-6687553Y-7026952D01*
X-6689710Y-7022764D01*
X-6697684Y-7012612D01*
X-6816515Y-6861334D01*
X-6816517Y-6861332D01*
X-6819428Y-6857626D01*
X-6822984Y-6854540D01*
X-6822988Y-6854536D01*
X-6974473Y-6723084D01*
X-6974474Y-6723083D01*
X-6978033Y-6719995D01*
X-7159802Y-6614839D01*
X-7248853Y-6583915D01*
X-7353730Y-6547495D01*
X-7353736Y-6547494D01*
X-7358175Y-6545952D01*
X-7565997Y-6515820D01*
X-7690711Y-6521592D01*
X-7771058Y-6525311D01*
X-7771059Y-6525311D01*
X-7775766Y-6525529D01*
X-7979916Y-6574729D01*
X-7984204Y-6576679D01*
X-7984205Y-6576679D01*
X-8000119Y-6583915D01*
X-8171078Y-6661646D01*
X-8342356Y-6783142D01*
X-8487570Y-6934834D01*
X-8601480Y-7111249D01*
X-8603238Y-7115610D01*
X-8603238Y-7115611D01*
X-8642955Y-7214163D01*
X-8679975Y-7306021D01*
X-8680876Y-7310634D01*
X-8680877Y-7310638D01*
X-8701384Y-7415650D01*
X-8720224Y-7512122D01*
X-8720774Y-7722116D01*
X-8719896Y-7726738D01*
X-8719896Y-7726743D01*
X-8694637Y-7859782D01*
X-8681605Y-7928425D01*
X-8604130Y-8123605D01*
X-8601590Y-8127584D01*
X-8493684Y-8296639D01*
X-8493680Y-8296644D01*
X-8491146Y-8300614D01*
X-8346728Y-8453064D01*
X-8252631Y-8520556D01*
X-8216368Y-8569833D01*
X-8215994Y-8631017D01*
X-8251655Y-8680736D01*
X-8310334Y-8700000D01*
X-9461854Y-8700000D01*
X-9520045Y-8681093D01*
X-9556009Y-8631593D01*
X-9556009Y-8570407D01*
X-9521982Y-8524253D01*
X-9522754Y-8523354D01*
X-9367010Y-8389629D01*
X-9363431Y-8386556D01*
X-9360497Y-8382861D01*
X-9235781Y-8225790D01*
X-9235779Y-8225787D01*
X-9232850Y-8222098D01*
X-9135723Y-8035916D01*
X-9075554Y-7834726D01*
X-9054515Y-7625788D01*
X-9054500Y-7620000D01*
X-9074445Y-7410955D01*
X-9133559Y-7209453D01*
X-9149856Y-7177809D01*
X-9227553Y-7026952D01*
X-9229710Y-7022764D01*
X-9237684Y-7012612D01*
X-9356515Y-6861334D01*
X-9356517Y-6861332D01*
X-9359428Y-6857626D01*
X-9362984Y-6854540D01*
X-9362988Y-6854536D01*
X-9514473Y-6723084D01*
X-9514474Y-6723083D01*
X-9518033Y-6719995D01*
X-9699802Y-6614839D01*
X-9788853Y-6583915D01*
X-9893730Y-6547495D01*
X-9893736Y-6547494D01*
X-9898175Y-6545952D01*
X-10105997Y-6515820D01*
X-10230711Y-6521592D01*
X-10311058Y-6525311D01*
X-10311059Y-6525311D01*
X-10315766Y-6525529D01*
X-10519916Y-6574729D01*
X-10524204Y-6576679D01*
X-10524205Y-6576679D01*
X-10540119Y-6583915D01*
X-10711078Y-6661646D01*
X-10882356Y-6783142D01*
X-11027570Y-6934834D01*
X-11141480Y-7111249D01*
X-11143238Y-7115610D01*
X-11143238Y-7115611D01*
X-11182955Y-7214163D01*
X-11219975Y-7306021D01*
X-11220876Y-7310634D01*
X-11220877Y-7310638D01*
X-11241384Y-7415650D01*
X-11260224Y-7512122D01*
X-11260774Y-7722116D01*
X-11259896Y-7726738D01*
X-11259896Y-7726743D01*
X-11234637Y-7859782D01*
X-11221605Y-7928425D01*
X-11144130Y-8123605D01*
X-11141590Y-8127584D01*
X-11033684Y-8296639D01*
X-11033680Y-8296644D01*
X-11031146Y-8300614D01*
X-10886728Y-8453064D01*
X-10792631Y-8520556D01*
X-10756368Y-8569833D01*
X-10755994Y-8631017D01*
X-10791655Y-8680736D01*
X-10850334Y-8700000D01*
X-12001854Y-8700000D01*
X-12060045Y-8681093D01*
X-12096009Y-8631593D01*
X-12096009Y-8570407D01*
X-12061982Y-8524253D01*
X-12062754Y-8523354D01*
X-11907010Y-8389629D01*
X-11903431Y-8386556D01*
X-11900497Y-8382861D01*
X-11775781Y-8225790D01*
X-11775779Y-8225787D01*
X-11772850Y-8222098D01*
X-11675723Y-8035916D01*
X-11615554Y-7834726D01*
X-11594515Y-7625788D01*
X-11594500Y-7620000D01*
X-11614445Y-7410955D01*
X-11673559Y-7209453D01*
X-11689856Y-7177809D01*
X-11767553Y-7026952D01*
X-11769710Y-7022764D01*
X-11777684Y-7012612D01*
X-11896515Y-6861334D01*
X-11896517Y-6861332D01*
X-11899428Y-6857626D01*
X-11902984Y-6854540D01*
X-11902988Y-6854536D01*
X-12054473Y-6723084D01*
X-12054474Y-6723083D01*
X-12058033Y-6719995D01*
X-12239802Y-6614839D01*
X-12328853Y-6583915D01*
X-12433730Y-6547495D01*
X-12433736Y-6547494D01*
X-12438175Y-6545952D01*
X-12645997Y-6515820D01*
X-12770711Y-6521592D01*
X-12851058Y-6525311D01*
X-12851059Y-6525311D01*
X-12855766Y-6525529D01*
X-13059916Y-6574729D01*
X-13064204Y-6576679D01*
X-13064205Y-6576679D01*
X-13080119Y-6583915D01*
X-13251078Y-6661646D01*
X-13422356Y-6783142D01*
X-13567570Y-6934834D01*
X-13681480Y-7111249D01*
X-13683238Y-7115610D01*
X-13683238Y-7115611D01*
X-13722955Y-7214163D01*
X-13759975Y-7306021D01*
X-13760876Y-7310634D01*
X-13760877Y-7310638D01*
X-13781384Y-7415650D01*
X-13800224Y-7512122D01*
X-13800774Y-7722116D01*
X-13799896Y-7726738D01*
X-13799896Y-7726743D01*
X-13774637Y-7859782D01*
X-13761605Y-7928425D01*
X-13684130Y-8123605D01*
X-13681590Y-8127584D01*
X-13573684Y-8296639D01*
X-13573680Y-8296644D01*
X-13571146Y-8300614D01*
X-13426728Y-8453064D01*
X-13332631Y-8520556D01*
X-13296368Y-8569833D01*
X-13295994Y-8631017D01*
X-13331655Y-8680736D01*
X-13390334Y-8700000D01*
X-14542722Y-8700000D01*
X-14600913Y-8681093D01*
X-14636877Y-8631593D01*
X-14636877Y-8570407D01*
X-14602420Y-8523670D01*
X-14603042Y-8522945D01*
X-14599889Y-8520238D01*
X-14599789Y-8520102D01*
X-14599463Y-8519872D01*
X-14447370Y-8389282D01*
X-14440857Y-8382514D01*
X-14316200Y-8225518D01*
X-14311089Y-8217647D01*
X-14218368Y-8039911D01*
X-14214834Y-8031207D01*
X-14172312Y-7889024D01*
X-14172590Y-7877216D01*
X-14182901Y-7874000D01*
X-16295751Y-7874000D01*
X-16308436Y-7878122D01*
X-16308601Y-7878348D01*
X-16309103Y-7886264D01*
X-16302004Y-7923655D01*
X-16299386Y-7932665D01*
X-16225425Y-8118993D01*
X-16221145Y-8127356D01*
X-16113289Y-8296331D01*
X-16107511Y-8303727D01*
X-15969641Y-8449267D01*
X-15962571Y-8455435D01*
X-15871781Y-8520553D01*
X-15835515Y-8569832D01*
X-15835141Y-8631017D01*
X-15870802Y-8680736D01*
X-15929481Y-8700000D01*
X-16602613Y-8700000D01*
X-16660804Y-8681093D01*
X-16696768Y-8631593D01*
X-16696768Y-8571995D01*
X-16693949Y-8567776D01*
X-16674500Y-8470000D01*
X-16674500Y-7350613D01*
X-16308176Y-7350613D01*
X-16306563Y-7363849D01*
X-16306466Y-7363953D01*
X-16298565Y-7366000D01*
X-15509680Y-7366000D01*
X-15496995Y-7361878D01*
X-15494000Y-7357757D01*
X-15494000Y-6565395D01*
X-15496822Y-6556708D01*
X-14986000Y-6556708D01*
X-14986000Y-7350320D01*
X-14981878Y-7363005D01*
X-14977757Y-7366000D01*
X-14183832Y-7366000D01*
X-14172514Y-7362323D01*
X-14172361Y-7351653D01*
X-14212696Y-7214163D01*
X-14216180Y-7205451D01*
X-14307974Y-7027222D01*
X-14313044Y-7019326D01*
X-14436878Y-6861677D01*
X-14443347Y-6854884D01*
X-14594763Y-6723491D01*
X-14602405Y-6718041D01*
X-14775934Y-6617652D01*
X-14784457Y-6613750D01*
X-14973527Y-6548093D01*
X-14983627Y-6549829D01*
X-14984638Y-6550867D01*
X-14986000Y-6556708D01*
X-15496822Y-6556708D01*
X-15497932Y-6553293D01*
X-15507333Y-6552928D01*
X-15595170Y-6574097D01*
X-15604042Y-6577152D01*
X-15786540Y-6660129D01*
X-15794672Y-6664805D01*
X-15958187Y-6780794D01*
X-15965287Y-6786923D01*
X-16103920Y-6931740D01*
X-16109734Y-6939103D01*
X-16218483Y-7107525D01*
X-16222794Y-7115841D01*
X-16297735Y-7301793D01*
X-16300399Y-7310789D01*
X-16308176Y-7350613D01*
X-16674500Y-7350613D01*
X-16674500Y-6770000D01*
X-16693949Y-6672224D01*
X-16749334Y-6589334D01*
X-16832224Y-6533949D01*
X-16930000Y-6514500D01*
X-18630000Y-6514500D01*
X-18727776Y-6533949D01*
X-18810666Y-6589334D01*
X-18866051Y-6672224D01*
X-18885500Y-6770000D01*
X-18885500Y-8470000D01*
X-18866051Y-8567776D01*
X-18865491Y-8568614D01*
X-18861122Y-8624109D01*
X-18893090Y-8676279D01*
X-18949618Y-8699695D01*
X-18957387Y-8700000D01*
X-19545230Y-8700000D01*
X-19603421Y-8681093D01*
X-19639385Y-8631593D01*
X-19639385Y-8570407D01*
X-19608534Y-8524885D01*
X-19602783Y-8520102D01*
X-19502938Y-8437062D01*
X-19367722Y-8274482D01*
X-19283227Y-8123605D01*
X-19266616Y-8093945D01*
X-19266615Y-8093943D01*
X-19264398Y-8089984D01*
X-19247401Y-8039911D01*
X-19197887Y-7894048D01*
X-19197886Y-7894045D01*
X-19196427Y-7889746D01*
X-19184162Y-7805155D01*
X-19166504Y-7683374D01*
X-19166503Y-7683366D01*
X-19166084Y-7680474D01*
X-19164714Y-7628197D01*
X-19164576Y-7622913D01*
X-19164576Y-7622908D01*
X-19164500Y-7620000D01*
X-19173979Y-7516835D01*
X-19183434Y-7413945D01*
X-19183849Y-7409427D01*
X-19241248Y-7205906D01*
X-19289877Y-7107295D01*
X-19332763Y-7020330D01*
X-19332765Y-7020326D01*
X-19334774Y-7016253D01*
X-19461296Y-6846820D01*
X-19506621Y-6804922D01*
X-19613246Y-6706358D01*
X-19613247Y-6706357D01*
X-19616576Y-6703280D01*
X-19648944Y-6682857D01*
X-19780510Y-6599846D01*
X-19795414Y-6590442D01*
X-19991820Y-6512084D01*
X-20199217Y-6470830D01*
X-20304938Y-6469446D01*
X-20406120Y-6468121D01*
X-20406125Y-6468121D01*
X-20410659Y-6468062D01*
X-20415134Y-6468831D01*
X-20415135Y-6468831D01*
X-20568481Y-6495181D01*
X-20619065Y-6503873D01*
X-20695434Y-6532047D01*
X-20813193Y-6575490D01*
X-20813196Y-6575491D01*
X-20817456Y-6577063D01*
X-20821359Y-6579385D01*
X-20821361Y-6579386D01*
X-20855751Y-6599846D01*
X-20999186Y-6685181D01*
X-21002601Y-6688176D01*
X-21002604Y-6688178D01*
X-21135725Y-6804922D01*
X-21191942Y-6829075D01*
X-21251618Y-6815571D01*
X-21291960Y-6769569D01*
X-21300000Y-6730490D01*
X-21300000Y-3676273D01*
X-18311391Y-3676273D01*
X-18305336Y-3682922D01*
X-18180752Y-3761833D01*
X-18173342Y-3765690D01*
X-17965736Y-3852322D01*
X-17957770Y-3854879D01*
X-17738527Y-3905294D01*
X-17730262Y-3906470D01*
X-17505649Y-3919225D01*
X-17497303Y-3918991D01*
X-17273762Y-3893719D01*
X-17265566Y-3892082D01*
X-17049476Y-3829506D01*
X-17041684Y-3826515D01*
X-16839222Y-3728423D01*
X-16832040Y-3724158D01*
X-16776569Y-3684518D01*
X-16770479Y-3676273D01*
X-13231391Y-3676273D01*
X-13225336Y-3682922D01*
X-13100752Y-3761833D01*
X-13093342Y-3765690D01*
X-12885736Y-3852322D01*
X-12877770Y-3854879D01*
X-12658527Y-3905294D01*
X-12650262Y-3906470D01*
X-12425649Y-3919225D01*
X-12417303Y-3918991D01*
X-12193762Y-3893719D01*
X-12185566Y-3892082D01*
X-11969476Y-3829506D01*
X-11961684Y-3826515D01*
X-11759222Y-3728423D01*
X-11752040Y-3724158D01*
X-11696569Y-3684518D01*
X-11688643Y-3673787D01*
X-11688636Y-3672899D01*
X-11692233Y-3666977D01*
X-12448914Y-2910296D01*
X-12460797Y-2904242D01*
X-12465828Y-2905038D01*
X-13225500Y-3664710D01*
X-13231391Y-3676273D01*
X-16770479Y-3676273D01*
X-16768643Y-3673787D01*
X-16768636Y-3672899D01*
X-16772233Y-3666977D01*
X-17528914Y-2910296D01*
X-17540797Y-2904242D01*
X-17545828Y-2905038D01*
X-18305500Y-3664710D01*
X-18311391Y-3676273D01*
X-21300000Y-3676273D01*
X-21300000Y-2639279D01*
X-18916075Y-2639279D01*
X-18915448Y-2647609D01*
X-18879675Y-2869711D01*
X-18877652Y-2877823D01*
X-18804970Y-3090715D01*
X-18801610Y-3098371D01*
X-18694094Y-3295980D01*
X-18689490Y-3302961D01*
X-18687155Y-3305923D01*
X-18676065Y-3313333D01*
X-18673919Y-3313248D01*
X-18669861Y-3310651D01*
X-17910296Y-2551086D01*
X-17905054Y-2540797D01*
X-17175758Y-2540797D01*
X-17174962Y-2545828D01*
X-16415827Y-3304963D01*
X-16403944Y-3311017D01*
X-16403298Y-3310915D01*
X-16397773Y-3306117D01*
X-16349706Y-3237597D01*
X-16345507Y-3230380D01*
X-16249185Y-3027071D01*
X-16246262Y-3019253D01*
X-16185574Y-2802621D01*
X-16184010Y-2794420D01*
X-16167840Y-2639279D01*
X-13836075Y-2639279D01*
X-13835448Y-2647609D01*
X-13799675Y-2869711D01*
X-13797652Y-2877823D01*
X-13724970Y-3090715D01*
X-13721610Y-3098371D01*
X-13614094Y-3295980D01*
X-13609490Y-3302961D01*
X-13607155Y-3305923D01*
X-13596065Y-3313333D01*
X-13593919Y-3313248D01*
X-13589861Y-3310651D01*
X-12830296Y-2551086D01*
X-12825054Y-2540797D01*
X-12095758Y-2540797D01*
X-12094962Y-2545828D01*
X-11335827Y-3304963D01*
X-11323944Y-3311017D01*
X-11323298Y-3310915D01*
X-11317773Y-3306117D01*
X-11269706Y-3237597D01*
X-11265507Y-3230380D01*
X-11169185Y-3027071D01*
X-11166262Y-3019253D01*
X-11105574Y-2802621D01*
X-11104010Y-2794420D01*
X-11080495Y-2568802D01*
X-11080232Y-2564160D01*
X-11080022Y-2542345D01*
X-11080197Y-2537673D01*
X-11099375Y-2311656D01*
X-11100781Y-2303431D01*
X-11157300Y-2085674D01*
X-11160073Y-2077800D01*
X-11252474Y-1872675D01*
X-11256533Y-1865382D01*
X-11316033Y-1777005D01*
X-11326535Y-1768785D01*
X-11326676Y-1768780D01*
X-11333709Y-1772919D01*
X-12089704Y-2528914D01*
X-12095758Y-2540797D01*
X-12825054Y-2540797D01*
X-12824242Y-2539203D01*
X-12825038Y-2534172D01*
X-13587498Y-1771712D01*
X-13598367Y-1766174D01*
X-13605761Y-1773235D01*
X-13710658Y-1957511D01*
X-13714164Y-1965098D01*
X-13790920Y-2176558D01*
X-13793099Y-2184634D01*
X-13833130Y-2406003D01*
X-13833916Y-2414329D01*
X-13836075Y-2639279D01*
X-16167840Y-2639279D01*
X-16160495Y-2568802D01*
X-16160232Y-2564160D01*
X-16160022Y-2542345D01*
X-16160197Y-2537673D01*
X-16179375Y-2311656D01*
X-16180781Y-2303431D01*
X-16237300Y-2085674D01*
X-16240073Y-2077800D01*
X-16332474Y-1872675D01*
X-16336533Y-1865382D01*
X-16396033Y-1777005D01*
X-16406535Y-1768785D01*
X-16406676Y-1768780D01*
X-16413709Y-1772919D01*
X-17169704Y-2528914D01*
X-17175758Y-2540797D01*
X-17905054Y-2540797D01*
X-17904242Y-2539203D01*
X-17905038Y-2534172D01*
X-18667498Y-1771712D01*
X-18678367Y-1766174D01*
X-18685761Y-1773235D01*
X-18790658Y-1957511D01*
X-18794164Y-1965098D01*
X-18870920Y-2176558D01*
X-18873099Y-2184634D01*
X-18913130Y-2406003D01*
X-18913916Y-2414329D01*
X-18916075Y-2639279D01*
X-21300000Y-2639279D01*
X-21300000Y-1404806D01*
X-18312309Y-1404806D01*
X-18307686Y-1413104D01*
X-17551086Y-2169704D01*
X-17539203Y-2175758D01*
X-17534172Y-2174962D01*
X-16774322Y-1415112D01*
X-16768268Y-1403229D01*
X-16768487Y-1401846D01*
X-16772408Y-1397202D01*
X-16809433Y-1369654D01*
X-16816542Y-1365246D01*
X-17017079Y-1263287D01*
X-17024809Y-1260149D01*
X-17239666Y-1193434D01*
X-17247815Y-1191642D01*
X-17470841Y-1162082D01*
X-17479181Y-1161689D01*
X-17703990Y-1170129D01*
X-17712283Y-1171147D01*
X-17932458Y-1217345D01*
X-17940452Y-1219743D01*
X-18149704Y-1302381D01*
X-18157177Y-1306090D01*
X-18304041Y-1395210D01*
X-18312309Y-1404806D01*
X-21300000Y-1404806D01*
X-21300000Y1403727D01*
X-18311391Y1403727D01*
X-18305336Y1397078D01*
X-18180752Y1318167D01*
X-18173342Y1314310D01*
X-17965736Y1227678D01*
X-17957770Y1225121D01*
X-17738527Y1174706D01*
X-17730262Y1173530D01*
X-17505649Y1160775D01*
X-17497303Y1161009D01*
X-17273762Y1186281D01*
X-17265566Y1187918D01*
X-17049476Y1250494D01*
X-17041684Y1253485D01*
X-16839222Y1351577D01*
X-16832040Y1355842D01*
X-16776569Y1395482D01*
X-16768643Y1406213D01*
X-16768636Y1407101D01*
X-16772233Y1413023D01*
X-17528914Y2169704D01*
X-17540797Y2175758D01*
X-17545828Y2174962D01*
X-18305500Y1415290D01*
X-18311391Y1403727D01*
X-21300000Y1403727D01*
X-21300000Y2440721D01*
X-18916075Y2440721D01*
X-18915448Y2432391D01*
X-18879675Y2210289D01*
X-18877652Y2202177D01*
X-18804970Y1989285D01*
X-18801610Y1981629D01*
X-18694094Y1784020D01*
X-18689490Y1777039D01*
X-18687155Y1774077D01*
X-18676065Y1766667D01*
X-18673919Y1766752D01*
X-18669861Y1769349D01*
X-17910296Y2528914D01*
X-17905054Y2539203D01*
X-17175758Y2539203D01*
X-17174962Y2534172D01*
X-16415827Y1775037D01*
X-16403944Y1768983D01*
X-16403298Y1769085D01*
X-16397773Y1773883D01*
X-16349706Y1842403D01*
X-16345507Y1849620D01*
X-16249185Y2052929D01*
X-16246262Y2060747D01*
X-16185574Y2277379D01*
X-16184010Y2285580D01*
X-16167840Y2440721D01*
X-13836075Y2440721D01*
X-13835448Y2432391D01*
X-13799675Y2210289D01*
X-13797652Y2202177D01*
X-13724970Y1989285D01*
X-13721610Y1981629D01*
X-13614094Y1784020D01*
X-13609490Y1777039D01*
X-13607155Y1774077D01*
X-13596065Y1766667D01*
X-13593919Y1766752D01*
X-13589861Y1769349D01*
X-12830296Y2528914D01*
X-12825054Y2539203D01*
X-12095758Y2539203D01*
X-12094962Y2534172D01*
X-11335827Y1775037D01*
X-11323944Y1768983D01*
X-11323298Y1769085D01*
X-11317773Y1773883D01*
X-11269706Y1842403D01*
X-11265507Y1849620D01*
X-11169185Y2052929D01*
X-11166262Y2060747D01*
X-11105574Y2277379D01*
X-11104010Y2285580D01*
X-11080495Y2511198D01*
X-11080232Y2515840D01*
X-11080022Y2537655D01*
X-11080197Y2542327D01*
X-11099375Y2768344D01*
X-11100781Y2776569D01*
X-11157300Y2994326D01*
X-11160073Y3002200D01*
X-11252474Y3207325D01*
X-11256533Y3214618D01*
X-11316033Y3302995D01*
X-11326535Y3311215D01*
X-11326676Y3311220D01*
X-11333709Y3307081D01*
X-12089704Y2551086D01*
X-12095758Y2539203D01*
X-12825054Y2539203D01*
X-12824242Y2540797D01*
X-12825038Y2545828D01*
X-13587498Y3308288D01*
X-13598367Y3313826D01*
X-13605761Y3306765D01*
X-13710658Y3122489D01*
X-13714164Y3114902D01*
X-13790920Y2903442D01*
X-13793099Y2895366D01*
X-13833130Y2673997D01*
X-13833916Y2665671D01*
X-13836075Y2440721D01*
X-16167840Y2440721D01*
X-16160495Y2511198D01*
X-16160232Y2515840D01*
X-16160022Y2537655D01*
X-16160197Y2542327D01*
X-16179375Y2768344D01*
X-16180781Y2776569D01*
X-16237300Y2994326D01*
X-16240073Y3002200D01*
X-16332474Y3207325D01*
X-16336533Y3214618D01*
X-16396033Y3302995D01*
X-16406535Y3311215D01*
X-16406676Y3311220D01*
X-16413709Y3307081D01*
X-17169704Y2551086D01*
X-17175758Y2539203D01*
X-17905054Y2539203D01*
X-17904242Y2540797D01*
X-17905038Y2545828D01*
X-18667498Y3308288D01*
X-18678367Y3313826D01*
X-18685761Y3306765D01*
X-18790658Y3122489D01*
X-18794164Y3114902D01*
X-18870920Y2903442D01*
X-18873099Y2895366D01*
X-18913130Y2673997D01*
X-18913916Y2665671D01*
X-18916075Y2440721D01*
X-21300000Y2440721D01*
X-21300000Y3675194D01*
X-18312309Y3675194D01*
X-18307686Y3666896D01*
X-17551086Y2910296D01*
X-17539203Y2904242D01*
X-17534172Y2905038D01*
X-16774322Y3664888D01*
X-16769071Y3675194D01*
X-13232309Y3675194D01*
X-13227686Y3666896D01*
X-12471086Y2910296D01*
X-12459203Y2904242D01*
X-12454172Y2905038D01*
X-11694322Y3664888D01*
X-11688268Y3676771D01*
X-11688487Y3678154D01*
X-11692408Y3682798D01*
X-11729433Y3710346D01*
X-11736542Y3714754D01*
X-11937079Y3816713D01*
X-11944809Y3819851D01*
X-12159666Y3886566D01*
X-12167815Y3888358D01*
X-12390841Y3917918D01*
X-12399181Y3918311D01*
X-12623990Y3909871D01*
X-12632283Y3908853D01*
X-12852458Y3862655D01*
X-12860452Y3860257D01*
X-13069704Y3777619D01*
X-13077177Y3773910D01*
X-13224041Y3684790D01*
X-13232309Y3675194D01*
X-16769071Y3675194D01*
X-16768268Y3676771D01*
X-16768487Y3678154D01*
X-16772408Y3682798D01*
X-16809433Y3710346D01*
X-16816542Y3714754D01*
X-17017079Y3816713D01*
X-17024809Y3819851D01*
X-17239666Y3886566D01*
X-17247815Y3888358D01*
X-17470841Y3917918D01*
X-17479181Y3918311D01*
X-17703990Y3909871D01*
X-17712283Y3908853D01*
X-17932458Y3862655D01*
X-17940452Y3860257D01*
X-18149704Y3777619D01*
X-18157177Y3773910D01*
X-18304041Y3684790D01*
X-18312309Y3675194D01*
X-21300000Y3675194D01*
X-21300000Y6733643D01*
X-21281093Y6791834D01*
X-21231593Y6827798D01*
X-21170407Y6827798D01*
X-21131919Y6804557D01*
X-21101432Y6774858D01*
X-21047180Y6722008D01*
X-21043405Y6719486D01*
X-21043403Y6719484D01*
X-20972673Y6672224D01*
X-20871357Y6604527D01*
X-20867190Y6602737D01*
X-20867185Y6602734D01*
X-20783117Y6566616D01*
X-20677069Y6521054D01*
X-20470823Y6474385D01*
X-20345850Y6469475D01*
X-20264059Y6466262D01*
X-20264058Y6466262D01*
X-20259526Y6466084D01*
X-20050254Y6496427D01*
X-20045955Y6497886D01*
X-20045952Y6497887D01*
X-19854317Y6562938D01*
X-19850016Y6564398D01*
X-19828177Y6576628D01*
X-19673943Y6663004D01*
X-19665518Y6667722D01*
X-19609012Y6714717D01*
X-19536701Y6774858D01*
X-19502938Y6802938D01*
X-19367722Y6965518D01*
X-19283227Y7116395D01*
X-19266616Y7146055D01*
X-19266615Y7146057D01*
X-19264398Y7150016D01*
X-19247401Y7200089D01*
X-19197887Y7345952D01*
X-19197886Y7345955D01*
X-19196427Y7350254D01*
X-19184162Y7434845D01*
X-19166504Y7556626D01*
X-19166503Y7556634D01*
X-19166084Y7559526D01*
X-19164714Y7611803D01*
X-19164576Y7617087D01*
X-19164576Y7617092D01*
X-19164500Y7620000D01*
X-19173979Y7723165D01*
X-19183434Y7826055D01*
X-19183849Y7830573D01*
X-19241248Y8034094D01*
X-19289877Y8132705D01*
X-19332763Y8219670D01*
X-19332765Y8219674D01*
X-19334774Y8223747D01*
X-19461296Y8393180D01*
X-19607471Y8528303D01*
X-19637366Y8581686D01*
X-19630174Y8642448D01*
X-19588641Y8687377D01*
X-19540268Y8700000D01*
X-18957387Y8700000D01*
X-18899196Y8681093D01*
G37*
%TD.AperFunction*%
%TA.AperFunction,Conductor*%
G36*
X19601516Y8681093D02*
G01*
X19637480Y8631593D01*
X19637480Y8570407D01*
X19608600Y8526568D01*
X19481830Y8415394D01*
X19350916Y8249330D01*
X19252457Y8062191D01*
X19251113Y8057862D01*
X19194658Y7876047D01*
X19189750Y7860242D01*
X19189216Y7855732D01*
X19189216Y7855731D01*
X19186239Y7830573D01*
X19164896Y7650247D01*
X19178726Y7439240D01*
X19179842Y7434847D01*
X19179842Y7434845D01*
X19209973Y7316206D01*
X19230778Y7234286D01*
X19319308Y7042250D01*
X19441351Y6869563D01*
X19592820Y6722008D01*
X19596595Y6719486D01*
X19596597Y6719484D01*
X19667327Y6672224D01*
X19768643Y6604527D01*
X19772810Y6602737D01*
X19772815Y6602734D01*
X19856883Y6566616D01*
X19962931Y6521054D01*
X20169177Y6474385D01*
X20294150Y6469475D01*
X20375941Y6466262D01*
X20375942Y6466262D01*
X20380474Y6466084D01*
X20589746Y6496427D01*
X20594045Y6497886D01*
X20594048Y6497887D01*
X20785683Y6562938D01*
X20789984Y6564398D01*
X20811823Y6576628D01*
X20966057Y6663004D01*
X20974482Y6667722D01*
X21030988Y6714717D01*
X21137062Y6802938D01*
X21138456Y6801262D01*
X21185513Y6825238D01*
X21245945Y6815667D01*
X21289210Y6772402D01*
X21300000Y6727457D01*
X21300000Y-6732612D01*
X21281093Y-6790803D01*
X21231593Y-6826767D01*
X21170407Y-6826767D01*
X21133799Y-6805310D01*
X21026754Y-6706358D01*
X21026753Y-6706357D01*
X21023424Y-6703280D01*
X20991056Y-6682857D01*
X20859490Y-6599846D01*
X20844586Y-6590442D01*
X20648180Y-6512084D01*
X20440783Y-6470830D01*
X20335062Y-6469446D01*
X20233880Y-6468121D01*
X20233875Y-6468121D01*
X20229341Y-6468062D01*
X20224866Y-6468831D01*
X20224865Y-6468831D01*
X20071519Y-6495181D01*
X20020935Y-6503873D01*
X19944566Y-6532047D01*
X19826807Y-6575490D01*
X19826804Y-6575491D01*
X19822544Y-6577063D01*
X19818641Y-6579385D01*
X19818639Y-6579386D01*
X19784249Y-6599846D01*
X19640814Y-6685181D01*
X19637399Y-6688176D01*
X19637396Y-6688178D01*
X19544588Y-6769569D01*
X19481830Y-6824606D01*
X19350916Y-6990670D01*
X19252457Y-7177809D01*
X19251113Y-7182138D01*
X19194658Y-7363953D01*
X19189750Y-7379758D01*
X19189216Y-7384268D01*
X19189216Y-7384269D01*
X19186239Y-7409427D01*
X19164896Y-7589753D01*
X19178726Y-7800760D01*
X19179842Y-7805153D01*
X19179842Y-7805155D01*
X19209973Y-7923794D01*
X19230778Y-8005714D01*
X19319308Y-8197750D01*
X19441351Y-8370437D01*
X19592820Y-8517992D01*
X19596598Y-8520516D01*
X19600123Y-8523371D01*
X19598818Y-8524983D01*
X19631731Y-8566720D01*
X19634142Y-8627858D01*
X19600157Y-8678737D01*
X19538855Y-8700000D01*
X18478146Y-8700000D01*
X18419955Y-8681093D01*
X18383991Y-8631593D01*
X18383991Y-8570407D01*
X18418018Y-8524253D01*
X18417246Y-8523354D01*
X18572990Y-8389629D01*
X18576569Y-8386556D01*
X18579503Y-8382861D01*
X18704219Y-8225790D01*
X18704221Y-8225787D01*
X18707150Y-8222098D01*
X18804277Y-8035916D01*
X18864446Y-7834726D01*
X18885485Y-7625788D01*
X18885500Y-7620000D01*
X18865555Y-7410955D01*
X18806441Y-7209453D01*
X18790144Y-7177809D01*
X18712447Y-7026952D01*
X18710290Y-7022764D01*
X18702316Y-7012612D01*
X18583485Y-6861334D01*
X18583483Y-6861332D01*
X18580572Y-6857626D01*
X18577016Y-6854540D01*
X18577012Y-6854536D01*
X18425527Y-6723084D01*
X18425526Y-6723083D01*
X18421967Y-6719995D01*
X18266987Y-6630337D01*
X18244281Y-6617201D01*
X18244280Y-6617201D01*
X18240198Y-6614839D01*
X18229621Y-6611166D01*
X18197024Y-6599846D01*
X18148255Y-6562895D01*
X18130500Y-6506324D01*
X18130500Y-6398670D01*
X18132718Y-6377833D01*
X18133383Y-6374747D01*
X18133383Y-6374743D01*
X18135105Y-6366746D01*
X18131186Y-6333635D01*
X18130860Y-6328111D01*
X18130836Y-6328113D01*
X18130500Y-6324046D01*
X18130500Y-6319961D01*
X18129830Y-6315935D01*
X18129829Y-6315924D01*
X18127656Y-6302870D01*
X18126998Y-6298251D01*
X18122346Y-6258945D01*
X18122346Y-6258944D01*
X18121384Y-6250818D01*
X18118031Y-6243836D01*
X18117605Y-6242487D01*
X18116333Y-6234847D01*
X18093648Y-6192803D01*
X18091532Y-6188649D01*
X18073550Y-6151204D01*
X18073549Y-6151203D01*
X18070852Y-6145586D01*
X18068660Y-6142978D01*
X18067149Y-6141467D01*
X18065694Y-6139880D01*
X18065811Y-6139773D01*
X18063808Y-6137501D01*
X18060900Y-6132112D01*
X18054889Y-6126556D01*
X18054888Y-6126554D01*
X18021254Y-6095463D01*
X18018452Y-6092770D01*
X16596254Y-4670572D01*
X16568477Y-4616055D01*
X16578048Y-4555623D01*
X16596254Y-4530564D01*
X16638224Y-4488595D01*
X16638244Y-4488578D01*
X16638443Y-4488379D01*
X16638522Y-4488310D01*
X16641107Y-4485829D01*
X16641158Y-4485782D01*
X16641261Y-4485894D01*
X16643720Y-4483726D01*
X16649110Y-4480818D01*
X16685759Y-4441172D01*
X16688452Y-4438370D01*
X18313346Y-2813476D01*
X18329647Y-2800313D01*
X18339174Y-2794161D01*
X18344240Y-2787735D01*
X18344242Y-2787733D01*
X18359816Y-2767978D01*
X18363488Y-2763845D01*
X18363470Y-2763830D01*
X18366121Y-2760701D01*
X18369000Y-2757822D01*
X18371369Y-2754506D01*
X18371373Y-2754502D01*
X18379077Y-2743721D01*
X18381861Y-2740012D01*
X18411445Y-2702485D01*
X18414011Y-2695179D01*
X18414664Y-2693922D01*
X18419167Y-2687620D01*
X18432871Y-2641795D01*
X18434290Y-2637431D01*
X18450124Y-2592343D01*
X18450418Y-2588949D01*
X18450418Y-2586809D01*
X18450510Y-2584677D01*
X18450669Y-2584684D01*
X18450860Y-2581645D01*
X18452615Y-2575778D01*
X18451690Y-2552216D01*
X18450494Y-2521783D01*
X18450418Y-2517897D01*
X18450418Y-2459625D01*
X18450445Y-2458359D01*
X18450500Y-2457727D01*
X18450500Y-2455816D01*
X18450510Y-2455352D01*
X18450592Y-2453454D01*
X18450751Y-2453461D01*
X18450942Y-2450420D01*
X18452696Y-2444556D01*
X18451900Y-2424278D01*
X18450576Y-2390586D01*
X18450500Y-2386700D01*
X18450500Y2201330D01*
X18452718Y2222167D01*
X18453383Y2225253D01*
X18453383Y2225257D01*
X18455105Y2233254D01*
X18451186Y2266365D01*
X18450860Y2271889D01*
X18450836Y2271887D01*
X18450500Y2275954D01*
X18450500Y2280039D01*
X18449830Y2284065D01*
X18449829Y2284076D01*
X18447656Y2297130D01*
X18446998Y2301749D01*
X18442346Y2341055D01*
X18442346Y2341056D01*
X18441384Y2349182D01*
X18438031Y2356164D01*
X18437605Y2357513D01*
X18436333Y2365153D01*
X18420549Y2394407D01*
X18413648Y2407197D01*
X18411532Y2411351D01*
X18393548Y2448800D01*
X18393548Y2448801D01*
X18390852Y2454414D01*
X18388660Y2457022D01*
X18387149Y2458533D01*
X18385694Y2460120D01*
X18385811Y2460227D01*
X18383808Y2462499D01*
X18380900Y2467888D01*
X18374889Y2473444D01*
X18374888Y2473446D01*
X18341254Y2504537D01*
X18338452Y2507230D01*
X18159496Y2686186D01*
X18131719Y2740703D01*
X18130500Y2756190D01*
X18130500Y6505980D01*
X18149407Y6564171D01*
X18197514Y6599670D01*
X18230470Y6610921D01*
X18230476Y6610924D01*
X18234929Y6612444D01*
X18417246Y6716646D01*
X18576569Y6853444D01*
X18579503Y6857139D01*
X18704219Y7014210D01*
X18704221Y7014213D01*
X18707150Y7017902D01*
X18804277Y7204084D01*
X18864446Y7405274D01*
X18885485Y7614212D01*
X18885500Y7620000D01*
X18865555Y7829045D01*
X18806441Y8030547D01*
X18790144Y8062191D01*
X18712447Y8213048D01*
X18710290Y8217236D01*
X18702316Y8227388D01*
X18583485Y8378666D01*
X18583483Y8378668D01*
X18580572Y8382374D01*
X18577016Y8385460D01*
X18577012Y8385464D01*
X18474102Y8474764D01*
X18421967Y8520005D01*
X18420160Y8521050D01*
X18384245Y8569586D01*
X18383711Y8630769D01*
X18419241Y8680582D01*
X18478129Y8700000D01*
X19543325Y8700000D01*
X19601516Y8681093D01*
G37*
%TD.AperFunction*%
%TA.AperFunction,Conductor*%
G36*
X10679504Y-4875186D02*
G01*
X10717746Y-4913428D01*
X10730909Y-4929729D01*
X10737061Y-4939256D01*
X10743487Y-4944322D01*
X10743489Y-4944324D01*
X10763244Y-4959898D01*
X10767377Y-4963570D01*
X10767392Y-4963552D01*
X10770521Y-4966203D01*
X10773400Y-4969082D01*
X10776716Y-4971451D01*
X10776720Y-4971455D01*
X10787501Y-4979159D01*
X10791210Y-4981943D01*
X10828737Y-5011527D01*
X10836048Y-5014095D01*
X10837296Y-5014743D01*
X10843602Y-5019249D01*
X10889380Y-5032939D01*
X10893808Y-5034378D01*
X10933004Y-5048143D01*
X10933005Y-5048143D01*
X10938879Y-5050206D01*
X10942273Y-5050500D01*
X10944412Y-5050500D01*
X10946545Y-5050592D01*
X10946538Y-5050751D01*
X10949580Y-5050942D01*
X10955444Y-5052696D01*
X10963618Y-5052375D01*
X10963619Y-5052375D01*
X11009414Y-5050576D01*
X11013300Y-5050500D01*
X15943810Y-5050500D01*
X16002001Y-5069407D01*
X16013814Y-5079496D01*
X17380238Y-6445919D01*
X17408015Y-6500436D01*
X17398444Y-6560868D01*
X17351211Y-6606044D01*
X17228922Y-6661646D01*
X17057644Y-6783142D01*
X16912430Y-6934834D01*
X16798520Y-7111249D01*
X16796762Y-7115610D01*
X16796762Y-7115611D01*
X16757045Y-7214163D01*
X16720025Y-7306021D01*
X16719124Y-7310634D01*
X16719123Y-7310638D01*
X16698616Y-7415650D01*
X16679776Y-7512122D01*
X16679226Y-7722116D01*
X16680104Y-7726738D01*
X16680104Y-7726743D01*
X16705363Y-7859782D01*
X16718395Y-7928425D01*
X16795870Y-8123605D01*
X16798410Y-8127584D01*
X16906316Y-8296639D01*
X16906320Y-8296644D01*
X16908854Y-8300614D01*
X17053272Y-8453064D01*
X17147369Y-8520556D01*
X17183632Y-8569833D01*
X17184006Y-8631017D01*
X17148345Y-8680736D01*
X17089666Y-8700000D01*
X15938146Y-8700000D01*
X15879955Y-8681093D01*
X15843991Y-8631593D01*
X15843991Y-8570407D01*
X15878018Y-8524253D01*
X15877246Y-8523354D01*
X16032990Y-8389629D01*
X16036569Y-8386556D01*
X16039503Y-8382861D01*
X16164219Y-8225790D01*
X16164221Y-8225787D01*
X16167150Y-8222098D01*
X16264277Y-8035916D01*
X16324446Y-7834726D01*
X16345485Y-7625788D01*
X16345500Y-7620000D01*
X16325555Y-7410955D01*
X16266441Y-7209453D01*
X16250144Y-7177809D01*
X16172447Y-7026952D01*
X16170290Y-7022764D01*
X16162316Y-7012612D01*
X16043485Y-6861334D01*
X16043483Y-6861332D01*
X16040572Y-6857626D01*
X16037016Y-6854540D01*
X16037012Y-6854536D01*
X15885527Y-6723084D01*
X15885526Y-6723083D01*
X15881967Y-6719995D01*
X15700198Y-6614839D01*
X15611147Y-6583915D01*
X15506270Y-6547495D01*
X15506264Y-6547494D01*
X15501825Y-6545952D01*
X15294003Y-6515820D01*
X15169289Y-6521592D01*
X15088942Y-6525311D01*
X15088941Y-6525311D01*
X15084234Y-6525529D01*
X14880084Y-6574729D01*
X14875796Y-6576679D01*
X14875795Y-6576679D01*
X14859881Y-6583915D01*
X14688922Y-6661646D01*
X14517644Y-6783142D01*
X14372430Y-6934834D01*
X14258520Y-7111249D01*
X14256762Y-7115610D01*
X14256762Y-7115611D01*
X14217045Y-7214163D01*
X14180025Y-7306021D01*
X14179124Y-7310634D01*
X14179123Y-7310638D01*
X14158616Y-7415650D01*
X14139776Y-7512122D01*
X14139226Y-7722116D01*
X14140104Y-7726738D01*
X14140104Y-7726743D01*
X14165363Y-7859782D01*
X14178395Y-7928425D01*
X14255870Y-8123605D01*
X14258410Y-8127584D01*
X14366316Y-8296639D01*
X14366320Y-8296644D01*
X14368854Y-8300614D01*
X14513272Y-8453064D01*
X14607369Y-8520556D01*
X14643632Y-8569833D01*
X14644006Y-8631017D01*
X14608345Y-8680736D01*
X14549666Y-8700000D01*
X13398146Y-8700000D01*
X13339955Y-8681093D01*
X13303991Y-8631593D01*
X13303991Y-8570407D01*
X13338018Y-8524253D01*
X13337246Y-8523354D01*
X13492990Y-8389629D01*
X13496569Y-8386556D01*
X13499503Y-8382861D01*
X13624219Y-8225790D01*
X13624221Y-8225787D01*
X13627150Y-8222098D01*
X13724277Y-8035916D01*
X13784446Y-7834726D01*
X13805485Y-7625788D01*
X13805500Y-7620000D01*
X13785555Y-7410955D01*
X13726441Y-7209453D01*
X13710144Y-7177809D01*
X13632447Y-7026952D01*
X13630290Y-7022764D01*
X13622316Y-7012612D01*
X13503485Y-6861334D01*
X13503483Y-6861332D01*
X13500572Y-6857626D01*
X13497016Y-6854540D01*
X13497012Y-6854536D01*
X13345527Y-6723084D01*
X13345526Y-6723083D01*
X13341967Y-6719995D01*
X13160198Y-6614839D01*
X13071147Y-6583915D01*
X12966270Y-6547495D01*
X12966264Y-6547494D01*
X12961825Y-6545952D01*
X12754003Y-6515820D01*
X12629289Y-6521592D01*
X12548942Y-6525311D01*
X12548941Y-6525311D01*
X12544234Y-6525529D01*
X12340084Y-6574729D01*
X12335796Y-6576679D01*
X12335795Y-6576679D01*
X12319881Y-6583915D01*
X12148922Y-6661646D01*
X11977644Y-6783142D01*
X11832430Y-6934834D01*
X11718520Y-7111249D01*
X11716762Y-7115610D01*
X11716762Y-7115611D01*
X11677045Y-7214163D01*
X11640025Y-7306021D01*
X11639124Y-7310634D01*
X11639123Y-7310638D01*
X11618616Y-7415650D01*
X11599776Y-7512122D01*
X11599226Y-7722116D01*
X11600104Y-7726738D01*
X11600104Y-7726743D01*
X11625363Y-7859782D01*
X11638395Y-7928425D01*
X11715870Y-8123605D01*
X11718410Y-8127584D01*
X11826316Y-8296639D01*
X11826320Y-8296644D01*
X11828854Y-8300614D01*
X11973272Y-8453064D01*
X12067369Y-8520556D01*
X12103632Y-8569833D01*
X12104006Y-8631017D01*
X12068345Y-8680736D01*
X12009666Y-8700000D01*
X10858146Y-8700000D01*
X10799955Y-8681093D01*
X10763991Y-8631593D01*
X10763991Y-8570407D01*
X10798018Y-8524253D01*
X10797246Y-8523354D01*
X10952990Y-8389629D01*
X10956569Y-8386556D01*
X10959503Y-8382861D01*
X11084219Y-8225790D01*
X11084221Y-8225787D01*
X11087150Y-8222098D01*
X11184277Y-8035916D01*
X11244446Y-7834726D01*
X11265485Y-7625788D01*
X11265500Y-7620000D01*
X11245555Y-7410955D01*
X11186441Y-7209453D01*
X11170144Y-7177809D01*
X11092447Y-7026952D01*
X11090290Y-7022764D01*
X11082316Y-7012612D01*
X10963485Y-6861334D01*
X10963483Y-6861332D01*
X10960572Y-6857626D01*
X10957016Y-6854540D01*
X10957012Y-6854536D01*
X10805527Y-6723084D01*
X10805526Y-6723083D01*
X10801967Y-6719995D01*
X10646987Y-6630337D01*
X10624281Y-6617201D01*
X10624280Y-6617201D01*
X10620198Y-6614839D01*
X10609621Y-6611166D01*
X10577024Y-6599846D01*
X10528255Y-6562895D01*
X10510500Y-6506324D01*
X10510500Y-4945190D01*
X10529407Y-4886999D01*
X10578907Y-4851035D01*
X10640093Y-4851035D01*
X10679504Y-4875186D01*
G37*
%TD.AperFunction*%
%TA.AperFunction,Conductor*%
G36*
X9116800Y4215593D02*
G01*
X9152764Y4166093D01*
X9152765Y4112389D01*
X9153857Y4112216D01*
X9152639Y4104526D01*
X9152638Y4104523D01*
X9144222Y4051383D01*
X9139500Y4021569D01*
X9139500Y3678431D01*
X9153857Y3587784D01*
X9157393Y3580845D01*
X9157393Y3580844D01*
X9164048Y3567784D01*
X9210034Y3477531D01*
X9297531Y3390034D01*
X9304468Y3386499D01*
X9304470Y3386498D01*
X9350584Y3363002D01*
X9407784Y3333857D01*
X9415478Y3332638D01*
X9415479Y3332638D01*
X9494585Y3320109D01*
X9494587Y3320109D01*
X9498431Y3319500D01*
X9901569Y3319500D01*
X9905413Y3320109D01*
X9905415Y3320109D01*
X9984521Y3332638D01*
X9984522Y3332638D01*
X9992216Y3333857D01*
X10049416Y3363002D01*
X10095530Y3386498D01*
X10095532Y3386499D01*
X10102469Y3390034D01*
X10157939Y3445504D01*
X10212456Y3473281D01*
X10227943Y3474500D01*
X10272057Y3474500D01*
X10330248Y3455593D01*
X10342061Y3445504D01*
X10417531Y3370034D01*
X10424468Y3366499D01*
X10424470Y3366498D01*
X10439500Y3358840D01*
X10527784Y3313857D01*
X10535478Y3312638D01*
X10535479Y3312638D01*
X10614585Y3300109D01*
X10614587Y3300109D01*
X10618431Y3299500D01*
X10961569Y3299500D01*
X10965413Y3300109D01*
X10965415Y3300109D01*
X11044521Y3312638D01*
X11044522Y3312638D01*
X11052216Y3313857D01*
X11140500Y3358840D01*
X11155530Y3366498D01*
X11155532Y3366499D01*
X11162469Y3370034D01*
X11180496Y3388061D01*
X11235013Y3415838D01*
X11295445Y3406267D01*
X11338710Y3363002D01*
X11349500Y3318057D01*
X11349500Y3096594D01*
X11330593Y3038403D01*
X11281093Y3002439D01*
X11269815Y2999496D01*
X11215385Y2988669D01*
X11202224Y2986051D01*
X11119334Y2930666D01*
X11063949Y2847776D01*
X11062047Y2838214D01*
X11045582Y2755439D01*
X11044500Y2750000D01*
X11044500Y2100000D01*
X11063949Y2002224D01*
X11119334Y1919334D01*
X11202224Y1863949D01*
X11211786Y1862047D01*
X11291966Y1846098D01*
X11345350Y1816201D01*
X11370966Y1760636D01*
X11359029Y1700626D01*
X11314099Y1659094D01*
X11272652Y1650000D01*
X10954119Y1650000D01*
X10952605Y1649907D01*
X10952592Y1649907D01*
X10925164Y1648229D01*
X10925154Y1648228D01*
X10923649Y1648136D01*
X10922158Y1647953D01*
X10922148Y1647952D01*
X10900258Y1645264D01*
X10900226Y1645260D01*
X10899699Y1645195D01*
X10899155Y1645116D01*
X10899124Y1645112D01*
X10894259Y1644407D01*
X10894255Y1644406D01*
X10888908Y1643631D01*
X10840563Y1625315D01*
X10802242Y1610796D01*
X10802239Y1610794D01*
X10797690Y1609071D01*
X10793565Y1606494D01*
X10793564Y1606493D01*
X10766125Y1589347D01*
X10745802Y1576648D01*
X10742864Y1574094D01*
X10719509Y1553792D01*
X10704062Y1542774D01*
X10686727Y1532765D01*
X10637225Y1519500D01*
X10308500Y1519500D01*
X10250309Y1538407D01*
X10214345Y1587907D01*
X10209500Y1618500D01*
X10209500Y1887772D01*
X10215470Y1921632D01*
X10216586Y1924698D01*
X10228954Y1958679D01*
X10231037Y1966454D01*
X10239670Y1998674D01*
X10239672Y1998682D01*
X10240232Y2000773D01*
X10245536Y2030852D01*
X10245827Y2032505D01*
X10245827Y2032506D01*
X10246202Y2034632D01*
X10248529Y2061233D01*
X10249811Y2075878D01*
X10249811Y2075886D01*
X10250000Y2078042D01*
X10250000Y2310731D01*
X10247624Y2334334D01*
X10245233Y2358083D01*
X10245233Y2358085D01*
X10244983Y2360565D01*
X10237116Y2399239D01*
X10236645Y2401000D01*
X10230872Y2422545D01*
X10229221Y2428709D01*
X10226058Y2434245D01*
X10226056Y2434249D01*
X10183235Y2509186D01*
X10180826Y2513402D01*
X10163415Y2533435D01*
X10142598Y2557387D01*
X10142594Y2557391D01*
X10140689Y2559583D01*
X10097191Y2599101D01*
X10053157Y2618942D01*
X10012690Y2637176D01*
X10012686Y2637177D01*
X10008257Y2639173D01*
X9954618Y2651562D01*
X9954147Y2649522D01*
X9946389Y2649946D01*
X9898357Y2659500D01*
X9532224Y2659500D01*
X9498348Y2665477D01*
X9497694Y2665714D01*
X9477864Y2675604D01*
X9474696Y2678080D01*
X9398013Y2718858D01*
X9339822Y2737765D01*
X9335978Y2738374D01*
X9335973Y2738375D01*
X9266417Y2749391D01*
X9266412Y2749391D01*
X9262569Y2750000D01*
X7999000Y2750000D01*
X7973730Y2748012D01*
X7961826Y2747075D01*
X7961825Y2747075D01*
X7959895Y2746923D01*
X7929302Y2742078D01*
X7928334Y2741885D01*
X7928326Y2741884D01*
X7925340Y2741290D01*
X7910045Y2738247D01*
X7904742Y2735802D01*
X7904741Y2735802D01*
X7894008Y2730854D01*
X7821460Y2697409D01*
X7817524Y2694549D01*
X7774310Y2663153D01*
X7774303Y2663148D01*
X7771960Y2661445D01*
X7769827Y2659473D01*
X7769823Y2659470D01*
X7759520Y2649946D01*
X7728804Y2621552D01*
X7724996Y2614752D01*
X7724995Y2614751D01*
X7716231Y2599101D01*
X7681142Y2536444D01*
X7672939Y2511198D01*
X7663523Y2482216D01*
X7662235Y2478253D01*
X7661626Y2474409D01*
X7661625Y2474404D01*
X7654972Y2432391D01*
X7650000Y2401000D01*
X7650000Y2249500D01*
X7631093Y2191309D01*
X7581593Y2155345D01*
X7551000Y2150500D01*
X7321545Y2150500D01*
X7263354Y2169407D01*
X7251541Y2179496D01*
X7000674Y2430363D01*
X6987514Y2446659D01*
X6981430Y2456081D01*
X6955436Y2476573D01*
X6948334Y2482883D01*
X6947156Y2483881D01*
X6944278Y2486759D01*
X6927316Y2498880D01*
X6923612Y2501661D01*
X6883307Y2533435D01*
X6876089Y2535970D01*
X6873617Y2537254D01*
X6867396Y2541699D01*
X6827736Y2553560D01*
X6818258Y2556395D01*
X6813825Y2557836D01*
X6771295Y2572771D01*
X6771291Y2572772D01*
X6765419Y2574834D01*
X6757729Y2575500D01*
X6755613Y2575500D01*
X6755428Y2575508D01*
X6753924Y2575635D01*
X6747689Y2577500D01*
X6739515Y2577179D01*
X6739513Y2577179D01*
X6698726Y2575576D01*
X6694839Y2575500D01*
X6133484Y2575500D01*
X6075293Y2594407D01*
X6045274Y2629555D01*
X6031592Y2656408D01*
X6031591Y2656410D01*
X6028056Y2663347D01*
X5938347Y2753056D01*
X5931410Y2756591D01*
X5931408Y2756592D01*
X5832246Y2807117D01*
X5825306Y2810653D01*
X5817612Y2811872D01*
X5817611Y2811872D01*
X5727298Y2826176D01*
X5700000Y2830500D01*
X5672702Y2826176D01*
X5582389Y2811872D01*
X5582388Y2811872D01*
X5574694Y2810653D01*
X5567754Y2807117D01*
X5468592Y2756592D01*
X5468590Y2756591D01*
X5461653Y2753056D01*
X5371944Y2663347D01*
X5368409Y2656410D01*
X5368408Y2656408D01*
X5325793Y2572771D01*
X5314347Y2550306D01*
X5313128Y2542612D01*
X5313128Y2542611D01*
X5300226Y2461150D01*
X5299500Y2456568D01*
X5299500Y1943432D01*
X5300109Y1939588D01*
X5300109Y1939586D01*
X5311544Y1867393D01*
X5314347Y1849694D01*
X5317883Y1842754D01*
X5368242Y1743919D01*
X5371944Y1736653D01*
X5461653Y1646944D01*
X5468590Y1643409D01*
X5468592Y1643408D01*
X5567754Y1592883D01*
X5574694Y1589347D01*
X5582388Y1588128D01*
X5582389Y1588128D01*
X5692304Y1570719D01*
X5700000Y1569500D01*
X5707696Y1570719D01*
X5817611Y1588128D01*
X5817612Y1588128D01*
X5825306Y1589347D01*
X5832244Y1592882D01*
X5832247Y1592883D01*
X5888277Y1621432D01*
X5948709Y1631003D01*
X6003226Y1603225D01*
X6031003Y1548709D01*
X6021432Y1488277D01*
X5992883Y1432247D01*
X5992882Y1432244D01*
X5989347Y1425306D01*
X5988128Y1417612D01*
X5988128Y1417611D01*
X5976974Y1347188D01*
X5969500Y1300000D01*
X5970719Y1292304D01*
X5987206Y1188214D01*
X5989347Y1174694D01*
X5992883Y1167754D01*
X6029981Y1094945D01*
X6039552Y1034513D01*
X6029981Y1005055D01*
X5995718Y937809D01*
X5989347Y925306D01*
X5988128Y917612D01*
X5988128Y917611D01*
X5973824Y827298D01*
X5969500Y800000D01*
X5970719Y792304D01*
X5985260Y700500D01*
X5989347Y674694D01*
X5992883Y667754D01*
X6029981Y594945D01*
X6039552Y534513D01*
X6029981Y505055D01*
X5989347Y425306D01*
X5969500Y300000D01*
X5970719Y292304D01*
X5985286Y200336D01*
X5989347Y174694D01*
X5992883Y167754D01*
X6029981Y94945D01*
X6039552Y34513D01*
X6029981Y5055D01*
X5989347Y-74694D01*
X5988128Y-82388D01*
X5988128Y-82389D01*
X5976377Y-156584D01*
X5969500Y-200000D01*
X5989347Y-325306D01*
X5992883Y-332246D01*
X6029981Y-405055D01*
X6039552Y-465487D01*
X6029981Y-494945D01*
X5989347Y-574694D01*
X5969500Y-700000D01*
X5989347Y-825306D01*
X5992882Y-832244D01*
X5992883Y-832247D01*
X6021432Y-888277D01*
X6031003Y-948709D01*
X6003225Y-1003226D01*
X5948709Y-1031003D01*
X5888277Y-1021432D01*
X5832247Y-992883D01*
X5832244Y-992882D01*
X5825306Y-989347D01*
X5817612Y-988128D01*
X5817611Y-988128D01*
X5707696Y-970719D01*
X5700000Y-969500D01*
X5692304Y-970719D01*
X5582389Y-988128D01*
X5582388Y-988128D01*
X5574694Y-989347D01*
X5567754Y-992883D01*
X5494945Y-1029981D01*
X5434513Y-1039552D01*
X5405055Y-1029981D01*
X5332246Y-992883D01*
X5325306Y-989347D01*
X5317612Y-988128D01*
X5317611Y-988128D01*
X5207696Y-970719D01*
X5200000Y-969500D01*
X5192304Y-970719D01*
X5082389Y-988128D01*
X5082388Y-988128D01*
X5074694Y-989347D01*
X5067754Y-992883D01*
X4994945Y-1029981D01*
X4934513Y-1039552D01*
X4905055Y-1029981D01*
X4832246Y-992883D01*
X4825306Y-989347D01*
X4817612Y-988128D01*
X4817611Y-988128D01*
X4707696Y-970719D01*
X4700000Y-969500D01*
X4692304Y-970719D01*
X4582389Y-988128D01*
X4582388Y-988128D01*
X4574694Y-989347D01*
X4567754Y-992883D01*
X4494945Y-1029981D01*
X4434513Y-1039552D01*
X4405055Y-1029981D01*
X4332246Y-992883D01*
X4325306Y-989347D01*
X4317612Y-988128D01*
X4317611Y-988128D01*
X4207696Y-970719D01*
X4200000Y-969500D01*
X4192304Y-970719D01*
X4082389Y-988128D01*
X4082388Y-988128D01*
X4074694Y-989347D01*
X4067754Y-992883D01*
X3994945Y-1029981D01*
X3934513Y-1039552D01*
X3905055Y-1029981D01*
X3832246Y-992883D01*
X3825306Y-989347D01*
X3817612Y-988128D01*
X3817611Y-988128D01*
X3707696Y-970719D01*
X3700000Y-969500D01*
X3692304Y-970719D01*
X3582389Y-988128D01*
X3582388Y-988128D01*
X3574694Y-989347D01*
X3567756Y-992882D01*
X3567753Y-992883D01*
X3511723Y-1021432D01*
X3451291Y-1031003D01*
X3396774Y-1003225D01*
X3368997Y-948709D01*
X3378568Y-888277D01*
X3407117Y-832247D01*
X3407118Y-832244D01*
X3410653Y-825306D01*
X3430500Y-700000D01*
X3410653Y-574694D01*
X3370019Y-494945D01*
X3360448Y-434513D01*
X3370019Y-405055D01*
X3407117Y-332246D01*
X3410653Y-325306D01*
X3430500Y-200000D01*
X3423623Y-156584D01*
X3411872Y-82389D01*
X3411872Y-82388D01*
X3410653Y-74694D01*
X3370019Y5055D01*
X3360448Y65487D01*
X3370019Y94945D01*
X3407117Y167754D01*
X3410653Y174694D01*
X3414715Y200336D01*
X3429281Y292304D01*
X3430500Y300000D01*
X3410653Y425306D01*
X3353056Y538347D01*
X3263347Y628056D01*
X3256410Y631591D01*
X3256408Y631592D01*
X3157246Y682117D01*
X3150306Y685653D01*
X3142612Y686872D01*
X3142611Y686872D01*
X3060414Y699891D01*
X3060412Y699891D01*
X3056568Y700500D01*
X2543432Y700500D01*
X2539588Y699891D01*
X2539586Y699891D01*
X2504963Y694407D01*
X2449694Y685653D01*
X2442751Y682115D01*
X2437306Y680346D01*
X2406712Y675500D01*
X1696545Y675500D01*
X1638354Y694407D01*
X1626541Y704496D01*
X1400674Y930363D01*
X1387514Y946659D01*
X1381430Y956081D01*
X1355436Y976573D01*
X1348334Y982883D01*
X1347156Y983881D01*
X1344278Y986759D01*
X1327316Y998880D01*
X1323612Y1001661D01*
X1283307Y1033435D01*
X1276089Y1035970D01*
X1273617Y1037254D01*
X1267396Y1041699D01*
X1218258Y1056395D01*
X1213825Y1057836D01*
X1171295Y1072771D01*
X1171291Y1072772D01*
X1165419Y1074834D01*
X1157729Y1075500D01*
X1155613Y1075500D01*
X1155428Y1075508D01*
X1153924Y1075635D01*
X1147689Y1077500D01*
X1139515Y1077179D01*
X1139513Y1077179D01*
X1098726Y1075576D01*
X1094839Y1075500D01*
X1029500Y1075500D01*
X971309Y1094407D01*
X935345Y1143907D01*
X930500Y1174500D01*
X930500Y1393529D01*
X949407Y1451720D01*
X988523Y1483650D01*
X1005335Y1491294D01*
X1005339Y1491297D01*
X1011762Y1494217D01*
X1099132Y1569500D01*
X1108283Y1577385D01*
X1108284Y1577386D01*
X1113627Y1581990D01*
X1186763Y1694825D01*
X1195317Y1723427D01*
X1223755Y1818514D01*
X1223756Y1818517D01*
X1225291Y1823651D01*
X1225500Y1826464D01*
X1225500Y2123057D01*
X1244407Y2181248D01*
X1293907Y2217212D01*
X1355093Y2217212D01*
X1384874Y2198962D01*
X1385717Y2200123D01*
X1392025Y2195540D01*
X1397531Y2190034D01*
X1404469Y2186499D01*
X1404473Y2186496D01*
X1418722Y2179236D01*
X1460899Y2138043D01*
X1464363Y2131624D01*
X1466476Y2127480D01*
X1488694Y2081211D01*
X1493661Y2075302D01*
X1495166Y2073797D01*
X1495288Y2073664D01*
X1496254Y2072519D01*
X1499346Y2066789D01*
X1505355Y2061234D01*
X1505356Y2061233D01*
X1535308Y2033546D01*
X1538111Y2030852D01*
X1799326Y1769637D01*
X1812486Y1753341D01*
X1818570Y1743919D01*
X1825000Y1738850D01*
X1844564Y1723427D01*
X1851666Y1717117D01*
X1852844Y1716119D01*
X1855722Y1713241D01*
X1859036Y1710873D01*
X1859037Y1710872D01*
X1872680Y1701123D01*
X1876388Y1698339D01*
X1916693Y1666565D01*
X1923911Y1664030D01*
X1926383Y1662746D01*
X1932604Y1658301D01*
X1967208Y1647952D01*
X1981742Y1643605D01*
X1986175Y1642164D01*
X2028705Y1627229D01*
X2028709Y1627228D01*
X2034581Y1625166D01*
X2042271Y1624500D01*
X2044387Y1624500D01*
X2044572Y1624492D01*
X2046076Y1624365D01*
X2052311Y1622500D01*
X2060485Y1622821D01*
X2060487Y1622821D01*
X2101274Y1624424D01*
X2105161Y1624500D01*
X2129288Y1624500D01*
X2187479Y1605593D01*
X2223443Y1556093D01*
X2223443Y1494907D01*
X2217497Y1480555D01*
X2192885Y1432252D01*
X2192883Y1432246D01*
X2189347Y1425306D01*
X2188128Y1417612D01*
X2188128Y1417611D01*
X2176974Y1347188D01*
X2169500Y1300000D01*
X2170719Y1292304D01*
X2187206Y1188214D01*
X2189347Y1174694D01*
X2192883Y1167754D01*
X2239972Y1075337D01*
X2246944Y1061653D01*
X2336653Y971944D01*
X2343590Y968409D01*
X2343592Y968408D01*
X2439763Y919407D01*
X2449694Y914347D01*
X2457388Y913128D01*
X2457389Y913128D01*
X2539586Y900109D01*
X2539588Y900109D01*
X2543432Y899500D01*
X3056568Y899500D01*
X3060412Y900109D01*
X3060414Y900109D01*
X3142611Y913128D01*
X3142612Y913128D01*
X3150306Y914347D01*
X3160237Y919407D01*
X3256408Y968408D01*
X3256410Y968409D01*
X3263347Y971944D01*
X3353056Y1061653D01*
X3360029Y1075337D01*
X3407117Y1167754D01*
X3410653Y1174694D01*
X3412795Y1188214D01*
X3429281Y1292304D01*
X3430500Y1300000D01*
X3423026Y1347188D01*
X3411872Y1417611D01*
X3411872Y1417612D01*
X3410653Y1425306D01*
X3407118Y1432244D01*
X3407117Y1432247D01*
X3378568Y1488277D01*
X3368997Y1548709D01*
X3396775Y1603226D01*
X3451291Y1631003D01*
X3511723Y1621432D01*
X3567753Y1592883D01*
X3567756Y1592882D01*
X3574694Y1589347D01*
X3582388Y1588128D01*
X3582389Y1588128D01*
X3692304Y1570719D01*
X3700000Y1569500D01*
X3707696Y1570719D01*
X3817611Y1588128D01*
X3817612Y1588128D01*
X3825306Y1589347D01*
X3905055Y1629981D01*
X3965487Y1639552D01*
X3994945Y1629981D01*
X4074694Y1589347D01*
X4082388Y1588128D01*
X4082389Y1588128D01*
X4192304Y1570719D01*
X4200000Y1569500D01*
X4207696Y1570719D01*
X4317611Y1588128D01*
X4317612Y1588128D01*
X4325306Y1589347D01*
X4332246Y1592883D01*
X4431408Y1643408D01*
X4431410Y1643409D01*
X4438347Y1646944D01*
X4528056Y1736653D01*
X4531759Y1743919D01*
X4582117Y1842754D01*
X4585653Y1849694D01*
X4588457Y1867393D01*
X4599891Y1939586D01*
X4599891Y1939588D01*
X4600500Y1943432D01*
X4600500Y2456568D01*
X4599267Y2464356D01*
X4586872Y2542610D01*
X4586872Y2542611D01*
X4585653Y2550306D01*
X4582115Y2557249D01*
X4580346Y2562694D01*
X4575500Y2593288D01*
X4575500Y3061760D01*
X4594407Y3119951D01*
X4613821Y3139984D01*
X4617143Y3142561D01*
X4624340Y3146444D01*
X4634560Y3157500D01*
X4687944Y3187397D01*
X4748705Y3180205D01*
X4777262Y3160303D01*
X4827531Y3110034D01*
X4834468Y3106499D01*
X4834470Y3106498D01*
X4930844Y3057393D01*
X4937784Y3053857D01*
X4945478Y3052638D01*
X4945479Y3052638D01*
X5024585Y3040109D01*
X5024587Y3040109D01*
X5028431Y3039500D01*
X5371569Y3039500D01*
X5375413Y3040109D01*
X5375415Y3040109D01*
X5454521Y3052638D01*
X5454522Y3052638D01*
X5462216Y3053857D01*
X5469156Y3057393D01*
X5565530Y3106498D01*
X5565532Y3106499D01*
X5572469Y3110034D01*
X5659966Y3197531D01*
X5664957Y3207325D01*
X5712607Y3300844D01*
X5712607Y3300845D01*
X5716143Y3307784D01*
X5720080Y3332638D01*
X5729891Y3394585D01*
X5729891Y3394587D01*
X5730500Y3398431D01*
X5730500Y3801569D01*
X5729891Y3805415D01*
X5717362Y3884521D01*
X5717362Y3884522D01*
X5716143Y3892216D01*
X5702847Y3918311D01*
X5663502Y3995530D01*
X5663501Y3995532D01*
X5659966Y4002469D01*
X5596939Y4065496D01*
X5569162Y4120013D01*
X5578733Y4180445D01*
X5621998Y4223710D01*
X5666943Y4234500D01*
X9058609Y4234500D01*
X9116800Y4215593D01*
G37*
%TD.AperFunction*%
%TA.AperFunction,Conductor*%
G36*
X17147926Y8681093D02*
G01*
X17183890Y8631593D01*
X17183890Y8570407D01*
X17147013Y8520252D01*
X17131870Y8509510D01*
X17057644Y8456858D01*
X16912430Y8305166D01*
X16798520Y8128751D01*
X16796762Y8124390D01*
X16796762Y8124389D01*
X16757045Y8025837D01*
X16720025Y7933979D01*
X16719124Y7929366D01*
X16719123Y7929362D01*
X16698616Y7824350D01*
X16679776Y7727878D01*
X16679226Y7517884D01*
X16680104Y7513262D01*
X16680104Y7513257D01*
X16705363Y7380218D01*
X16718395Y7311575D01*
X16795870Y7116395D01*
X16798410Y7112416D01*
X16906316Y6943361D01*
X16906320Y6943356D01*
X16908854Y6939386D01*
X17053272Y6786936D01*
X17057102Y6784189D01*
X17057103Y6784188D01*
X17215430Y6670627D01*
X17223911Y6664544D01*
X17371948Y6596298D01*
X17416877Y6554767D01*
X17429500Y6506393D01*
X17429500Y2955190D01*
X17410593Y2896999D01*
X17361093Y2861035D01*
X17299907Y2861035D01*
X17260496Y2885186D01*
X15619496Y4526186D01*
X15591719Y4580703D01*
X15590500Y4596190D01*
X15590500Y6505980D01*
X15609407Y6564171D01*
X15657514Y6599670D01*
X15690470Y6610921D01*
X15690476Y6610924D01*
X15694929Y6612444D01*
X15877246Y6716646D01*
X16036569Y6853444D01*
X16039503Y6857139D01*
X16164219Y7014210D01*
X16164221Y7014213D01*
X16167150Y7017902D01*
X16264277Y7204084D01*
X16324446Y7405274D01*
X16345485Y7614212D01*
X16345500Y7620000D01*
X16325555Y7829045D01*
X16266441Y8030547D01*
X16250144Y8062191D01*
X16172447Y8213048D01*
X16170290Y8217236D01*
X16162316Y8227388D01*
X16043485Y8378666D01*
X16043483Y8378668D01*
X16040572Y8382374D01*
X16037016Y8385460D01*
X16037012Y8385464D01*
X15934102Y8474764D01*
X15881967Y8520005D01*
X15880160Y8521050D01*
X15844245Y8569586D01*
X15843711Y8630769D01*
X15879241Y8680582D01*
X15938129Y8700000D01*
X17089735Y8700000D01*
X17147926Y8681093D01*
G37*
%TD.AperFunction*%
%TA.AperFunction,Conductor*%
G36*
X14607926Y8681093D02*
G01*
X14643890Y8631593D01*
X14643890Y8570407D01*
X14607013Y8520252D01*
X14591870Y8509510D01*
X14517644Y8456858D01*
X14372430Y8305166D01*
X14258520Y8128751D01*
X14256762Y8124390D01*
X14256762Y8124389D01*
X14217045Y8025837D01*
X14180025Y7933979D01*
X14179124Y7929366D01*
X14179123Y7929362D01*
X14158616Y7824350D01*
X14139776Y7727878D01*
X14139226Y7517884D01*
X14140104Y7513262D01*
X14140104Y7513257D01*
X14165363Y7380218D01*
X14178395Y7311575D01*
X14255870Y7116395D01*
X14258410Y7112416D01*
X14366316Y6943361D01*
X14366320Y6943356D01*
X14368854Y6939386D01*
X14513272Y6786936D01*
X14517102Y6784189D01*
X14517103Y6784188D01*
X14675430Y6670627D01*
X14683911Y6664544D01*
X14831948Y6596298D01*
X14876877Y6554767D01*
X14889500Y6506393D01*
X14889500Y4910760D01*
X14870593Y4852569D01*
X14821093Y4816605D01*
X14759907Y4816605D01*
X14720496Y4840756D01*
X14447824Y5113428D01*
X14434661Y5129729D01*
X14428509Y5139256D01*
X14422083Y5144322D01*
X14422081Y5144324D01*
X14402326Y5159898D01*
X14398193Y5163570D01*
X14398178Y5163552D01*
X14395049Y5166203D01*
X14392170Y5169082D01*
X14388854Y5171451D01*
X14388850Y5171455D01*
X14378069Y5179159D01*
X14374360Y5181943D01*
X14336833Y5211527D01*
X14336832Y5211527D01*
X14337049Y5211802D01*
X14324330Y5221352D01*
X13102017Y6443665D01*
X13074240Y6498182D01*
X13083811Y6558614D01*
X13127076Y6601879D01*
X13140029Y6607357D01*
X13154929Y6612444D01*
X13337246Y6716646D01*
X13496569Y6853444D01*
X13499503Y6857139D01*
X13624219Y7014210D01*
X13624221Y7014213D01*
X13627150Y7017902D01*
X13724277Y7204084D01*
X13784446Y7405274D01*
X13805485Y7614212D01*
X13805500Y7620000D01*
X13785555Y7829045D01*
X13726441Y8030547D01*
X13710144Y8062191D01*
X13632447Y8213048D01*
X13630290Y8217236D01*
X13622316Y8227388D01*
X13503485Y8378666D01*
X13503483Y8378668D01*
X13500572Y8382374D01*
X13497016Y8385460D01*
X13497012Y8385464D01*
X13394102Y8474764D01*
X13341967Y8520005D01*
X13340160Y8521050D01*
X13304245Y8569586D01*
X13303711Y8630769D01*
X13339241Y8680582D01*
X13398129Y8700000D01*
X14549735Y8700000D01*
X14607926Y8681093D01*
G37*
%TD.AperFunction*%
%TA.AperFunction,Conductor*%
G36*
X12067926Y8681093D02*
G01*
X12103890Y8631593D01*
X12103890Y8570407D01*
X12067013Y8520252D01*
X12051870Y8509510D01*
X11977644Y8456858D01*
X11832430Y8305166D01*
X11718520Y8128751D01*
X11716762Y8124390D01*
X11716762Y8124389D01*
X11677045Y8025837D01*
X11640025Y7933979D01*
X11639124Y7929366D01*
X11639123Y7929362D01*
X11618616Y7824350D01*
X11599776Y7727878D01*
X11599226Y7517884D01*
X11600104Y7513262D01*
X11600104Y7513257D01*
X11625363Y7380218D01*
X11638395Y7311575D01*
X11715870Y7116395D01*
X11718410Y7112416D01*
X11826316Y6943361D01*
X11826320Y6943356D01*
X11828854Y6939386D01*
X11973272Y6786936D01*
X11977102Y6784189D01*
X11977103Y6784188D01*
X12135430Y6670627D01*
X12143911Y6664544D01*
X12291948Y6596298D01*
X12336877Y6554767D01*
X12349500Y6506393D01*
X12349500Y6398674D01*
X12347282Y6377838D01*
X12346617Y6374748D01*
X12346617Y6374744D01*
X12344895Y6366746D01*
X12345856Y6358626D01*
X12345856Y6358623D01*
X12348814Y6333635D01*
X12349140Y6328111D01*
X12349164Y6328113D01*
X12349500Y6324046D01*
X12349500Y6319961D01*
X12350170Y6315935D01*
X12350171Y6315924D01*
X12352344Y6302870D01*
X12353001Y6298258D01*
X12358616Y6250818D01*
X12361969Y6243836D01*
X12362395Y6242487D01*
X12363667Y6234847D01*
X12367552Y6227647D01*
X12386352Y6192803D01*
X12388468Y6188649D01*
X12406450Y6151204D01*
X12409148Y6145586D01*
X12411340Y6142978D01*
X12412851Y6141467D01*
X12414306Y6139880D01*
X12414189Y6139773D01*
X12416192Y6137501D01*
X12419100Y6132112D01*
X12425111Y6126556D01*
X12425112Y6126554D01*
X12458746Y6095463D01*
X12461548Y6092770D01*
X13034814Y5519504D01*
X13062591Y5464987D01*
X13053020Y5404555D01*
X13009755Y5361290D01*
X12964810Y5350500D01*
X11686190Y5350500D01*
X11627999Y5369407D01*
X11616186Y5379496D01*
X10554562Y6441120D01*
X10526785Y6495637D01*
X10536356Y6556069D01*
X10579621Y6599334D01*
X10592571Y6604811D01*
X10614929Y6612444D01*
X10797246Y6716646D01*
X10956569Y6853444D01*
X10959503Y6857139D01*
X11084219Y7014210D01*
X11084221Y7014213D01*
X11087150Y7017902D01*
X11184277Y7204084D01*
X11244446Y7405274D01*
X11265485Y7614212D01*
X11265500Y7620000D01*
X11245555Y7829045D01*
X11186441Y8030547D01*
X11170144Y8062191D01*
X11092447Y8213048D01*
X11090290Y8217236D01*
X11082316Y8227388D01*
X10963485Y8378666D01*
X10963483Y8378668D01*
X10960572Y8382374D01*
X10957016Y8385460D01*
X10957012Y8385464D01*
X10854102Y8474764D01*
X10801967Y8520005D01*
X10800160Y8521050D01*
X10764245Y8569586D01*
X10763711Y8630769D01*
X10799241Y8680582D01*
X10858129Y8700000D01*
X12009735Y8700000D01*
X12067926Y8681093D01*
G37*
%TD.AperFunction*%
%TD*%
%TA.AperFunction,Conductor*%
%TO.N,/RF3*%
G36*
X-6821746Y899751D02*
G01*
X-6758841Y895793D01*
X-6748486Y897768D01*
X-6724878Y900000D01*
X-5426000Y900000D01*
X-5357879Y879998D01*
X-5311386Y826342D01*
X-5300000Y774000D01*
X-5300000Y-774000D01*
X-5320002Y-842121D01*
X-5373658Y-888614D01*
X-5426000Y-900000D01*
X-7474000Y-900000D01*
X-7542121Y-879998D01*
X-7588614Y-826342D01*
X-7600000Y-774000D01*
X-7600000Y774000D01*
X-7579998Y842121D01*
X-7526342Y888614D01*
X-7474000Y900000D01*
X-6829659Y900000D01*
X-6821746Y899751D01*
G37*
%TD.AperFunction*%
%TD*%
M02*
