M48
; DRILL file {KiCad (5.99.0-8408-g2f86419c55)} date Tuesday, January 19, 2021 at 10:19:47 PM
; FORMAT={-:-/ absolute / inch / decimal}
; #@! TF.CreationDate,2021-01-19T22:19:47+01:00
; #@! TF.GenerationSoftware,Kicad,Pcbnew,(5.99.0-8408-g2f86419c55)
; #@! TF.FileFunction,Plated,1,2,PTH
FMAT,2
INCH
T1C0.0098
T2C0.0394
T3C0.0591
T4C0.0669
%
G90
G05
T1
X-0.8071Y0.1575
X-0.8071Y0.0787
X-0.8071Y0.0
X-0.8071Y-0.0787
X-0.8071Y-0.1575
X-0.7508Y0.315
X-0.7508Y-0.311
X-0.6508Y0.315
X-0.6508Y-0.311
X-0.5508Y0.315
X-0.5508Y-0.311
X-0.4508Y0.315
X-0.4508Y-0.311
X-0.4016Y-0.0472
X-0.378Y0.0453
X-0.378Y-0.0669
X-0.3508Y0.315
X-0.3508Y-0.311
X-0.3268Y0.0669
X-0.311Y-0.063
X-0.2756Y-0.0669
X-0.2677Y0.061
X-0.252Y-0.0866
X-0.2508Y0.315
X-0.2508Y-0.311
X-0.2283Y-0.0669
X-0.1969Y0.063
X-0.1969Y-0.063
X-0.1614Y0.0669
X-0.1594Y-0.065
X-0.1508Y0.315
X-0.1508Y-0.311
X-0.1378Y0.0866
X-0.1358Y-0.0866
X-0.1142Y0.0669
X-0.1122Y-0.065
X-0.0748Y0.063
X-0.0748Y-0.063
X-0.0551Y0.1339
X-0.0551Y-0.128
X-0.0508Y0.315
X-0.0508Y-0.311
X-0.0315Y0.1535
X-0.0315Y-0.1496
X0.0079Y-0.1693
X0.0098Y0.1732
X0.0315Y0.1732
X0.0335Y-0.1693
X0.0492Y0.315
X0.0492Y-0.311
X0.0689Y-0.128
X0.0709Y0.1634
X0.0787Y0.0374
X0.0925Y-0.1083
X0.0945Y0.1417
X0.1063Y0.1102
X0.1102Y-0.1535
X0.1142Y-0.0571
X0.1492Y0.315
X0.1492Y-0.311
X0.1681Y0.0287
X0.1681Y-0.0051
X0.202Y0.0287
X0.202Y-0.0051
X0.2421Y0.1181
X0.2492Y0.315
X0.2492Y-0.311
X0.2638Y0.1417
X0.2657Y-0.063
X0.2874Y-0.1181
X0.3012Y0.1457
X0.3012Y0.1161
X0.3465Y-0.1594
X0.3492Y0.315
X0.3492Y-0.311
X0.374Y0.0276
X0.3743Y0.0792
X0.3743Y0.0555
X0.4134Y0.0906
X0.4134Y0.0098
X0.4492Y0.315
X0.4492Y-0.311
X0.4764Y-0.1063
X0.5236Y0.1201
X0.5295Y-0.1122
X0.5492Y0.315
X0.5492Y0.0965
X0.5492Y-0.311
X0.6191Y-0.0669
X0.6201Y-0.0236
X0.6356Y-0.112
X0.6492Y0.315
X0.6492Y-0.311
X0.7492Y0.315
X0.7492Y-0.311
X0.8071Y0.1575
X0.8071Y0.0787
X0.8071Y0.0
X0.8071Y-0.0787
X0.8071Y-0.1575
T2
X-0.7Y0.25
X-0.7Y-0.25
X-0.6Y0.25
X-0.6Y-0.25
X-0.5Y0.25
X-0.5Y-0.25
X-0.4Y0.25
X-0.4Y-0.25
X-0.3Y0.25
X-0.3Y-0.25
X-0.2Y0.25
X-0.2Y-0.25
X-0.1Y0.25
X-0.1Y-0.25
X0.0Y0.25
X0.0Y-0.25
X0.1Y0.25
X0.1Y-0.25
X0.2Y0.25
X0.2Y-0.25
X0.3Y0.25
X0.3Y-0.25
X0.4Y0.25
X0.4Y-0.25
X0.5Y0.25
X0.5Y-0.25
X0.6Y0.25
X0.6Y-0.25
X0.7Y0.25
X0.7Y-0.25
T3
X-0.5906Y0.0
T4
X-0.6906Y0.1
X-0.6906Y-0.1
X-0.4906Y0.1
X-0.4906Y-0.1
T0
M30
