%TF.GenerationSoftware,KiCad,Pcbnew,(5.99.0-8408-g2f86419c55)*%
%TF.CreationDate,2021-01-19T22:19:37+01:00*%
%TF.ProjectId,ax5243-test-board,61783532-3433-42d7-9465-73742d626f61,rev?*%
%TF.SameCoordinates,PX8954400PY4e33880*%
%TF.FileFunction,Soldermask,Top*%
%TF.FilePolarity,Negative*%
%FSLAX46Y46*%
G04 Gerber Fmt 4.6, Leading zero omitted, Abs format (unit mm)*
G04 Created by KiCad (PCBNEW (5.99.0-8408-g2f86419c55)) date 2021-01-19 22:19:37*
%MOMM*%
%LPD*%
G01*
G04 APERTURE LIST*
G04 Aperture macros list*
%AMRoundRect*
0 Rectangle with rounded corners*
0 $1 Rounding radius*
0 $2 $3 $4 $5 $6 $7 $8 $9 X,Y pos of 4 corners*
0 Add a 4 corners polygon primitive as box body*
4,1,4,$2,$3,$4,$5,$6,$7,$8,$9,$2,$3,0*
0 Add four circle primitives for the rounded corners*
1,1,$1+$1,$2,$3*
1,1,$1+$1,$4,$5*
1,1,$1+$1,$6,$7*
1,1,$1+$1,$8,$9*
0 Add four rect primitives between the rounded corners*
20,1,$1+$1,$2,$3,$4,$5,0*
20,1,$1+$1,$4,$5,$6,$7,0*
20,1,$1+$1,$6,$7,$8,$9,0*
20,1,$1+$1,$8,$9,$2,$3,0*%
G04 Aperture macros list end*
%ADD10RoundRect,0.195060X-0.130040X-0.130040X0.130040X-0.130040X0.130040X0.130040X-0.130040X0.130040X0*%
%ADD11O,0.300000X0.750000*%
%ADD12O,0.750000X0.300000*%
%ADD13RoundRect,0.140000X0.140000X0.170000X-0.140000X0.170000X-0.140000X-0.170000X0.140000X-0.170000X0*%
%ADD14RoundRect,0.140000X0.170000X-0.140000X0.170000X0.140000X-0.170000X0.140000X-0.170000X-0.140000X0*%
%ADD15C,1.800000*%
%ADD16RoundRect,0.147500X-0.147500X-0.172500X0.147500X-0.172500X0.147500X0.172500X-0.147500X0.172500X0*%
%ADD17RoundRect,0.225000X0.250000X-0.225000X0.250000X0.225000X-0.250000X0.225000X-0.250000X-0.225000X0*%
%ADD18R,0.850000X0.650000*%
%ADD19RoundRect,0.218750X-0.256250X0.218750X-0.256250X-0.218750X0.256250X-0.218750X0.256250X0.218750X0*%
%ADD20RoundRect,0.218750X0.218750X0.256250X-0.218750X0.256250X-0.218750X-0.256250X0.218750X-0.256250X0*%
%ADD21C,2.050000*%
%ADD22C,2.250000*%
%ADD23RoundRect,0.140000X-0.140000X-0.170000X0.140000X-0.170000X0.140000X0.170000X-0.140000X0.170000X0*%
%ADD24RoundRect,0.140000X-0.170000X0.140000X-0.170000X-0.140000X0.170000X-0.140000X0.170000X0.140000X0*%
%ADD25RoundRect,0.135000X-0.185000X0.135000X-0.185000X-0.135000X0.185000X-0.135000X0.185000X0.135000X0*%
%ADD26RoundRect,0.135000X0.135000X0.185000X-0.135000X0.185000X-0.135000X-0.185000X0.135000X-0.185000X0*%
%ADD27RoundRect,0.147500X0.172500X-0.147500X0.172500X0.147500X-0.172500X0.147500X-0.172500X-0.147500X0*%
%ADD28R,1.700000X1.700000*%
%ADD29O,1.700000X1.700000*%
G04 APERTURE END LIST*
D10*
%TO.C,U1*%
X4700000Y-550000D03*
X3850000Y-550000D03*
X3850000Y300000D03*
X5550000Y-550000D03*
X3850000Y1150000D03*
X5550000Y1150000D03*
X4700000Y1150000D03*
X4700000Y300000D03*
X5550000Y300000D03*
D11*
X3700000Y2200000D03*
X4200000Y2200000D03*
X4700000Y2200000D03*
X5200000Y2200000D03*
X5700000Y2200000D03*
D12*
X6600000Y1300000D03*
X6600000Y800000D03*
X6600000Y300000D03*
X6600000Y-200000D03*
X6600000Y-700000D03*
D11*
X5700000Y-1600000D03*
X5200000Y-1600000D03*
X4700000Y-1600000D03*
X4200000Y-1600000D03*
X3700000Y-1600000D03*
D12*
X2800000Y-700000D03*
X2800000Y-200000D03*
X2800000Y300000D03*
X2800000Y800000D03*
X2800000Y1300000D03*
%TD*%
D13*
%TO.C,C15*%
X6160000Y3600000D03*
X5200000Y3600000D03*
%TD*%
D14*
%TO.C,C18*%
X10470000Y790000D03*
X10470000Y1750000D03*
%TD*%
D15*
%TO.C,H1*%
X-20320000Y6350000D03*
%TD*%
D16*
%TO.C,L1*%
X-8385000Y700000D03*
X-7415000Y700000D03*
%TD*%
D17*
%TO.C,C13*%
X8410000Y1775000D03*
X8410000Y3325000D03*
%TD*%
D16*
%TO.C,L4*%
X-2385000Y700000D03*
X-1415000Y700000D03*
%TD*%
D14*
%TO.C,C10*%
X3400000Y-3880000D03*
X3400000Y-2920000D03*
%TD*%
D18*
%TO.C,X1*%
X13275000Y775000D03*
X13275000Y2425000D03*
X11725000Y2425000D03*
X11725000Y775000D03*
%TD*%
D19*
%TO.C,L6*%
X500000Y3687500D03*
X500000Y2112500D03*
%TD*%
D20*
%TO.C,L8*%
X6237500Y-3550000D03*
X4662500Y-3550000D03*
%TD*%
D21*
%TO.C,J1*%
X-15000000Y0D03*
D22*
X-12460000Y2540000D03*
X-17540000Y2540000D03*
X-12460000Y-2540000D03*
X-17540000Y-2540000D03*
%TD*%
D23*
%TO.C,C4*%
X-5480000Y-700000D03*
X-4520000Y-700000D03*
%TD*%
%TO.C,C7*%
X-480000Y-700000D03*
X480000Y-700000D03*
%TD*%
D14*
%TO.C,C3*%
X-6400000Y-1680000D03*
X-6400000Y-720000D03*
%TD*%
D24*
%TO.C,C9*%
X-800000Y-2290000D03*
X-800000Y-3250000D03*
%TD*%
D25*
%TO.C,R3*%
X4200000Y4610000D03*
X4200000Y3590000D03*
%TD*%
D26*
%TO.C,R1*%
X13210000Y-590000D03*
X12190000Y-590000D03*
%TD*%
D24*
%TO.C,C8*%
X-800000Y3340000D03*
X-800000Y2380000D03*
%TD*%
D26*
%TO.C,R4*%
X15210000Y-610000D03*
X14190000Y-610000D03*
%TD*%
D16*
%TO.C,L2*%
X-5485000Y700000D03*
X-4515000Y700000D03*
%TD*%
D26*
%TO.C,R2*%
X13220000Y-1690000D03*
X12200000Y-1690000D03*
%TD*%
D14*
%TO.C,C12*%
X1760000Y-2730000D03*
X1760000Y-1770000D03*
%TD*%
D19*
%TO.C,L7*%
X500000Y-2012500D03*
X500000Y-3587500D03*
%TD*%
D15*
%TO.C,H2*%
X20320000Y6350000D03*
%TD*%
D23*
%TO.C,C17*%
X10790000Y3860000D03*
X11750000Y3860000D03*
%TD*%
D27*
%TO.C,L3*%
X-3450000Y-1635000D03*
X-3450000Y-665000D03*
%TD*%
D23*
%TO.C,C2*%
X-8380000Y-700000D03*
X-7420000Y-700000D03*
%TD*%
D14*
%TO.C,C1*%
X-9600000Y-1190000D03*
X-9600000Y-230000D03*
%TD*%
D24*
%TO.C,C5*%
X-3480000Y1670000D03*
X-3480000Y710000D03*
%TD*%
%TO.C,C16*%
X9700000Y3850000D03*
X9700000Y2890000D03*
%TD*%
D16*
%TO.C,L5*%
X-2385000Y-700000D03*
X-1415000Y-700000D03*
%TD*%
D15*
%TO.C,H4*%
X20320000Y-6350000D03*
%TD*%
D13*
%TO.C,C14*%
X15180000Y-1700000D03*
X14220000Y-1700000D03*
%TD*%
D15*
%TO.C,H3*%
X-20320000Y-6350000D03*
%TD*%
D24*
%TO.C,C11*%
X1800000Y3610000D03*
X1800000Y2650000D03*
%TD*%
D23*
%TO.C,C6*%
X-480000Y700000D03*
X480000Y700000D03*
%TD*%
D28*
%TO.C,J2*%
X-17780000Y6350000D03*
D29*
X-15240000Y6350000D03*
X-12700000Y6350000D03*
X-10160000Y6350000D03*
X-7620000Y6350000D03*
X-5080000Y6350000D03*
X-2540000Y6350000D03*
X0Y6350000D03*
X2540000Y6350000D03*
X5080000Y6350000D03*
X7620000Y6350000D03*
X10160000Y6350000D03*
X12700000Y6350000D03*
X15240000Y6350000D03*
X17780000Y6350000D03*
%TD*%
D28*
%TO.C,J3*%
X-17780000Y-6350000D03*
D29*
X-15240000Y-6350000D03*
X-12700000Y-6350000D03*
X-10160000Y-6350000D03*
X-7620000Y-6350000D03*
X-5080000Y-6350000D03*
X-2540000Y-6350000D03*
X0Y-6350000D03*
X2540000Y-6350000D03*
X5080000Y-6350000D03*
X7620000Y-6350000D03*
X10160000Y-6350000D03*
X12700000Y-6350000D03*
X15240000Y-6350000D03*
X17780000Y-6350000D03*
%TD*%
M02*
