%TF.GenerationSoftware,KiCad,Pcbnew,(5.99.0-10369-gb59bf064b4)*%
%TF.CreationDate,2021-05-19T18:33:09+02:00*%
%TF.ProjectId,ax5243-test-board,61783532-3433-42d7-9465-73742d626f61,B*%
%TF.SameCoordinates,PX8954400PY4e33880*%
%TF.FileFunction,Legend,Bot*%
%TF.FilePolarity,Positive*%
%FSLAX46Y46*%
G04 Gerber Fmt 4.6, Leading zero omitted, Abs format (unit mm)*
G04 Created by KiCad (PCBNEW (5.99.0-10369-gb59bf064b4)) date 2021-05-19 18:33:09*
%MOMM*%
%LPD*%
G01*
G04 APERTURE LIST*
%ADD10C,0.150000*%
%ADD11C,0.250000*%
%ADD12C,0.120000*%
G04 APERTURE END LIST*
D10*
X-14100000Y-5630000D02*
X-16365000Y-5630000D01*
X-16365000Y-5630000D02*
X-16365000Y-8900000D01*
X-16365000Y-8900000D02*
X-14100000Y-8900000D01*
X-14100000Y-8900000D02*
X-14100000Y-5630000D01*
G36*
X-14100000Y-5630000D02*
G01*
X-16365000Y-5630000D01*
X-16365000Y-8900000D01*
X-14100000Y-8900000D01*
X-14100000Y-5630000D01*
G37*
X-9000000Y8900000D02*
X-11300000Y8900000D01*
X-11300000Y8900000D02*
X-11300000Y5800000D01*
X-11300000Y5800000D02*
X-9000000Y5800000D01*
X-9000000Y5800000D02*
X-9000000Y8900000D01*
G36*
X-9000000Y8900000D02*
G01*
X-11300000Y8900000D01*
X-11300000Y5800000D01*
X-9000000Y5800000D01*
X-9000000Y8900000D01*
G37*
D11*
X9514285Y-5746190D02*
X9457142Y-5574761D01*
X9457142Y-5289047D01*
X9514285Y-5174761D01*
X9571428Y-5117619D01*
X9685714Y-5060476D01*
X9800000Y-5060476D01*
X9914285Y-5117619D01*
X9971428Y-5174761D01*
X10028571Y-5289047D01*
X10085714Y-5517619D01*
X10142857Y-5631904D01*
X10200000Y-5689047D01*
X10314285Y-5746190D01*
X10428571Y-5746190D01*
X10542857Y-5689047D01*
X10600000Y-5631904D01*
X10657142Y-5517619D01*
X10657142Y-5231904D01*
X10600000Y-5060476D01*
X9571428Y-3860476D02*
X9514285Y-3917619D01*
X9457142Y-4089047D01*
X9457142Y-4203333D01*
X9514285Y-4374761D01*
X9628571Y-4489047D01*
X9742857Y-4546190D01*
X9971428Y-4603333D01*
X10142857Y-4603333D01*
X10371428Y-4546190D01*
X10485714Y-4489047D01*
X10600000Y-4374761D01*
X10657142Y-4203333D01*
X10657142Y-4089047D01*
X10600000Y-3917619D01*
X10542857Y-3860476D01*
X9457142Y-2774761D02*
X9457142Y-3346190D01*
X10657142Y-3346190D01*
X9457142Y-2374761D02*
X10657142Y-2374761D01*
X9457142Y-1689047D02*
X10142857Y-2203333D01*
X10657142Y-1689047D02*
X9971428Y-2374761D01*
X7057142Y-5598571D02*
X8257142Y-5598571D01*
X8257142Y-5312857D01*
X8200000Y-5141428D01*
X8085714Y-5027142D01*
X7971428Y-4970000D01*
X7742857Y-4912857D01*
X7571428Y-4912857D01*
X7342857Y-4970000D01*
X7228571Y-5027142D01*
X7114285Y-5141428D01*
X7057142Y-5312857D01*
X7057142Y-5598571D01*
X7400000Y-4455714D02*
X7400000Y-3884285D01*
X7057142Y-4570000D02*
X8257142Y-4170000D01*
X7057142Y-3770000D01*
X7171428Y-2684285D02*
X7114285Y-2741428D01*
X7057142Y-2912857D01*
X7057142Y-3027142D01*
X7114285Y-3198571D01*
X7228571Y-3312857D01*
X7342857Y-3370000D01*
X7571428Y-3427142D01*
X7742857Y-3427142D01*
X7971428Y-3370000D01*
X8085714Y-3312857D01*
X8200000Y-3198571D01*
X8257142Y-3027142D01*
X8257142Y-2912857D01*
X8200000Y-2741428D01*
X8142857Y-2684285D01*
X12314285Y3027144D02*
X12257142Y3198572D01*
X12257142Y3484287D01*
X12314285Y3598572D01*
X12371428Y3655715D01*
X12485714Y3712858D01*
X12600000Y3712858D01*
X12714285Y3655715D01*
X12771428Y3598572D01*
X12828571Y3484287D01*
X12885714Y3255715D01*
X12942857Y3141430D01*
X13000000Y3084287D01*
X13114285Y3027144D01*
X13228571Y3027144D01*
X13342857Y3084287D01*
X13400000Y3141430D01*
X13457142Y3255715D01*
X13457142Y3541430D01*
X13400000Y3712858D01*
X12885714Y4227144D02*
X12885714Y4627144D01*
X12257142Y4798572D02*
X12257142Y4227144D01*
X13457142Y4227144D01*
X13457142Y4798572D01*
X12257142Y5884287D02*
X12257142Y5312858D01*
X13457142Y5312858D01*
X17271428Y-4908095D02*
X17214285Y-4965238D01*
X17157142Y-5136667D01*
X17157142Y-5250952D01*
X17214285Y-5422381D01*
X17328571Y-5536667D01*
X17442857Y-5593810D01*
X17671428Y-5650952D01*
X17842857Y-5650952D01*
X18071428Y-5593810D01*
X18185714Y-5536667D01*
X18300000Y-5422381D01*
X18357142Y-5250952D01*
X18357142Y-5136667D01*
X18300000Y-4965238D01*
X18242857Y-4908095D01*
X17157142Y-3822381D02*
X17157142Y-4393810D01*
X18357142Y-4393810D01*
X17157142Y-3422381D02*
X18357142Y-3422381D01*
X17157142Y-2736667D02*
X17842857Y-3250952D01*
X18357142Y-2736667D02*
X17671428Y-3422381D01*
X14757142Y2036667D02*
X15957142Y2036667D01*
X15100000Y2436667D01*
X15957142Y2836667D01*
X14757142Y2836667D01*
X15957142Y3636667D02*
X15957142Y3865239D01*
X15900000Y3979524D01*
X15785714Y4093810D01*
X15557142Y4150953D01*
X15157142Y4150953D01*
X14928571Y4093810D01*
X14814285Y3979524D01*
X14757142Y3865239D01*
X14757142Y3636667D01*
X14814285Y3522381D01*
X14928571Y3408096D01*
X15157142Y3350953D01*
X15557142Y3350953D01*
X15785714Y3408096D01*
X15900000Y3522381D01*
X15957142Y3636667D01*
X14814285Y4608096D02*
X14757142Y4779524D01*
X14757142Y5065239D01*
X14814285Y5179524D01*
X14871428Y5236667D01*
X14985714Y5293810D01*
X15100000Y5293810D01*
X15214285Y5236667D01*
X15271428Y5179524D01*
X15328571Y5065239D01*
X15385714Y4836667D01*
X15442857Y4722381D01*
X15500000Y4665239D01*
X15614285Y4608096D01*
X15728571Y4608096D01*
X15842857Y4665239D01*
X15900000Y4722381D01*
X15957142Y4836667D01*
X15957142Y5122381D01*
X15900000Y5293810D01*
X14757142Y5808096D02*
X15957142Y5808096D01*
X17357142Y2036667D02*
X18557142Y2036667D01*
X17700000Y2436667D01*
X18557142Y2836667D01*
X17357142Y2836667D01*
X17357142Y3408096D02*
X18557142Y3408096D01*
X17414285Y3922381D02*
X17357142Y4093810D01*
X17357142Y4379524D01*
X17414285Y4493810D01*
X17471428Y4550953D01*
X17585714Y4608096D01*
X17700000Y4608096D01*
X17814285Y4550953D01*
X17871428Y4493810D01*
X17928571Y4379524D01*
X17985714Y4150953D01*
X18042857Y4036667D01*
X18100000Y3979524D01*
X18214285Y3922381D01*
X18328571Y3922381D01*
X18442857Y3979524D01*
X18500000Y4036667D01*
X18557142Y4150953D01*
X18557142Y4436667D01*
X18500000Y4608096D01*
X18557142Y5350953D02*
X18557142Y5579524D01*
X18500000Y5693810D01*
X18385714Y5808096D01*
X18157142Y5865239D01*
X17757142Y5865239D01*
X17528571Y5808096D01*
X17414285Y5693810D01*
X17357142Y5579524D01*
X17357142Y5350953D01*
X17414285Y5236667D01*
X17528571Y5122381D01*
X17757142Y5065239D01*
X18157142Y5065239D01*
X18385714Y5122381D01*
X18500000Y5236667D01*
X18557142Y5350953D01*
X4344285Y2392000D02*
X3772857Y2392000D01*
X4458571Y2049143D02*
X4058571Y3249143D01*
X3658571Y2049143D01*
X3372857Y3249143D02*
X2572857Y2049143D01*
X2572857Y3249143D02*
X3372857Y2049143D01*
X1544285Y3249143D02*
X2115714Y3249143D01*
X2172857Y2677715D01*
X2115714Y2734858D01*
X2001428Y2792000D01*
X1715714Y2792000D01*
X1601428Y2734858D01*
X1544285Y2677715D01*
X1487142Y2563429D01*
X1487142Y2277715D01*
X1544285Y2163429D01*
X1601428Y2106286D01*
X1715714Y2049143D01*
X2001428Y2049143D01*
X2115714Y2106286D01*
X2172857Y2163429D01*
X1030000Y3134858D02*
X972857Y3192000D01*
X858571Y3249143D01*
X572857Y3249143D01*
X458571Y3192000D01*
X401428Y3134858D01*
X344285Y3020572D01*
X344285Y2906286D01*
X401428Y2734858D01*
X1087142Y2049143D01*
X344285Y2049143D01*
X-684286Y2849143D02*
X-684286Y2049143D01*
X-398572Y3306286D02*
X-112858Y2449143D01*
X-855715Y2449143D01*
X-1198572Y3249143D02*
X-1941429Y3249143D01*
X-1541429Y2792000D01*
X-1712858Y2792000D01*
X-1827143Y2734858D01*
X-1884286Y2677715D01*
X-1941429Y2563429D01*
X-1941429Y2277715D01*
X-1884286Y2163429D01*
X-1827143Y2106286D01*
X-1712858Y2049143D01*
X-1370000Y2049143D01*
X-1255715Y2106286D01*
X-1198572Y2163429D01*
X-3312858Y2106286D02*
X-3484286Y2049143D01*
X-3770000Y2049143D01*
X-3884286Y2106286D01*
X-3941429Y2163429D01*
X-3998572Y2277715D01*
X-3998572Y2392000D01*
X-3941429Y2506286D01*
X-3884286Y2563429D01*
X-3770000Y2620572D01*
X-3541429Y2677715D01*
X-3427143Y2734858D01*
X-3370000Y2792000D01*
X-3312858Y2906286D01*
X-3312858Y3020572D01*
X-3370000Y3134858D01*
X-3427143Y3192000D01*
X-3541429Y3249143D01*
X-3827143Y3249143D01*
X-3998572Y3192000D01*
X-4512858Y2049143D02*
X-4512858Y3249143D01*
X-4512858Y2677715D02*
X-5198572Y2677715D01*
X-5198572Y2049143D02*
X-5198572Y3249143D01*
X-5770000Y2049143D02*
X-5770000Y3249143D01*
X-6341429Y2677715D02*
X-6741429Y2677715D01*
X-6912858Y2049143D02*
X-6341429Y2049143D01*
X-6341429Y3249143D01*
X-6912858Y3249143D01*
X-7998572Y2049143D02*
X-7427143Y2049143D01*
X-7427143Y3249143D01*
X-8398572Y2049143D02*
X-8398572Y3249143D01*
X-8684286Y3249143D01*
X-8855715Y3192000D01*
X-8970000Y3077715D01*
X-9027143Y2963429D01*
X-9084286Y2734858D01*
X-9084286Y2563429D01*
X-9027143Y2334858D01*
X-8970000Y2220572D01*
X-8855715Y2106286D01*
X-8684286Y2049143D01*
X-8398572Y2049143D01*
X6544285Y460000D02*
X5972857Y460000D01*
X6658571Y117143D02*
X6258571Y1317143D01*
X5858571Y117143D01*
X4772857Y117143D02*
X5172857Y688572D01*
X5458571Y117143D02*
X5458571Y1317143D01*
X5001428Y1317143D01*
X4887142Y1260000D01*
X4830000Y1202858D01*
X4772857Y1088572D01*
X4772857Y917143D01*
X4830000Y802858D01*
X4887142Y745715D01*
X5001428Y688572D01*
X5458571Y688572D01*
X4258571Y117143D02*
X4258571Y1317143D01*
X3972857Y1317143D01*
X3801428Y1260000D01*
X3687142Y1145715D01*
X3630000Y1031429D01*
X3572857Y802858D01*
X3572857Y631429D01*
X3630000Y402858D01*
X3687142Y288572D01*
X3801428Y174286D01*
X3972857Y117143D01*
X4258571Y117143D01*
X3058571Y1317143D02*
X3058571Y345715D01*
X3001428Y231429D01*
X2944285Y174286D01*
X2830000Y117143D01*
X2601428Y117143D01*
X2487142Y174286D01*
X2430000Y231429D01*
X2372857Y345715D01*
X2372857Y1317143D01*
X1801428Y117143D02*
X1801428Y1317143D01*
X1230000Y117143D02*
X1230000Y1317143D01*
X544285Y117143D01*
X544285Y1317143D01*
X-255715Y1317143D02*
X-484286Y1317143D01*
X-598572Y1260000D01*
X-712858Y1145715D01*
X-770000Y917143D01*
X-770000Y517143D01*
X-712858Y288572D01*
X-598572Y174286D01*
X-484286Y117143D01*
X-255715Y117143D01*
X-141429Y174286D01*
X-27143Y288572D01*
X30000Y517143D01*
X30000Y917143D01*
X-27143Y1145715D01*
X-141429Y1260000D01*
X-255715Y1317143D01*
X-2198572Y117143D02*
X-2198572Y1317143D01*
X-2884286Y117143D01*
X-2884286Y1317143D01*
X-3398572Y460000D02*
X-3970000Y460000D01*
X-3284286Y117143D02*
X-3684286Y1317143D01*
X-4084286Y117143D01*
X-4484286Y117143D02*
X-4484286Y1317143D01*
X-5170000Y117143D01*
X-5170000Y1317143D01*
X-5970000Y1317143D02*
X-6198572Y1317143D01*
X-6312858Y1260000D01*
X-6427143Y1145715D01*
X-6484286Y917143D01*
X-6484286Y517143D01*
X-6427143Y288572D01*
X-6312858Y174286D01*
X-6198572Y117143D01*
X-5970000Y117143D01*
X-5855715Y174286D01*
X-5741429Y288572D01*
X-5684286Y517143D01*
X-5684286Y917143D01*
X-5741429Y1145715D01*
X-5855715Y1260000D01*
X-5970000Y1317143D01*
X-7798572Y1317143D02*
X-8541429Y1317143D01*
X-8141429Y860000D01*
X-8312858Y860000D01*
X-8427143Y802858D01*
X-8484286Y745715D01*
X-8541429Y631429D01*
X-8541429Y345715D01*
X-8484286Y231429D01*
X-8427143Y174286D01*
X-8312858Y117143D01*
X-7970000Y117143D01*
X-7855715Y174286D01*
X-7798572Y231429D01*
X-9055715Y231429D02*
X-9112858Y174286D01*
X-9055715Y117143D01*
X-8998572Y174286D01*
X-9055715Y231429D01*
X-9055715Y117143D01*
X-9512858Y1317143D02*
X-10255715Y1317143D01*
X-9855715Y860000D01*
X-10027143Y860000D01*
X-10141429Y802858D01*
X-10198572Y745715D01*
X-10255715Y631429D01*
X-10255715Y345715D01*
X-10198572Y231429D01*
X-10141429Y174286D01*
X-10027143Y117143D01*
X-9684286Y117143D01*
X-9570000Y174286D01*
X-9512858Y231429D01*
X-10598572Y1317143D02*
X-10998572Y117143D01*
X-11398572Y1317143D01*
X4515714Y-1186285D02*
X4915714Y-1186285D01*
X4915714Y-1814857D02*
X4915714Y-614857D01*
X4344285Y-614857D01*
X3887142Y-1186285D02*
X3487142Y-1186285D01*
X3315714Y-1814857D02*
X3887142Y-1814857D01*
X3887142Y-614857D01*
X3315714Y-614857D01*
X2401428Y-1186285D02*
X2230000Y-1243428D01*
X2172857Y-1300571D01*
X2115714Y-1414857D01*
X2115714Y-1586285D01*
X2172857Y-1700571D01*
X2230000Y-1757714D01*
X2344285Y-1814857D01*
X2801428Y-1814857D01*
X2801428Y-614857D01*
X2401428Y-614857D01*
X2287142Y-672000D01*
X2230000Y-729142D01*
X2172857Y-843428D01*
X2172857Y-957714D01*
X2230000Y-1072000D01*
X2287142Y-1129142D01*
X2401428Y-1186285D01*
X2801428Y-1186285D01*
X744285Y-729142D02*
X687142Y-672000D01*
X572857Y-614857D01*
X287142Y-614857D01*
X172857Y-672000D01*
X115714Y-729142D01*
X58571Y-843428D01*
X58571Y-957714D01*
X115714Y-1129142D01*
X801428Y-1814857D01*
X58571Y-1814857D01*
X-684286Y-614857D02*
X-798572Y-614857D01*
X-912858Y-672000D01*
X-970000Y-729142D01*
X-1027143Y-843428D01*
X-1084286Y-1072000D01*
X-1084286Y-1357714D01*
X-1027143Y-1586285D01*
X-970000Y-1700571D01*
X-912858Y-1757714D01*
X-798572Y-1814857D01*
X-684286Y-1814857D01*
X-570000Y-1757714D01*
X-512858Y-1700571D01*
X-455715Y-1586285D01*
X-398572Y-1357714D01*
X-398572Y-1072000D01*
X-455715Y-843428D01*
X-512858Y-729142D01*
X-570000Y-672000D01*
X-684286Y-614857D01*
X-1541429Y-729142D02*
X-1598572Y-672000D01*
X-1712858Y-614857D01*
X-1998572Y-614857D01*
X-2112858Y-672000D01*
X-2170000Y-729142D01*
X-2227143Y-843428D01*
X-2227143Y-957714D01*
X-2170000Y-1129142D01*
X-1484286Y-1814857D01*
X-2227143Y-1814857D01*
X-3370000Y-1814857D02*
X-2684286Y-1814857D01*
X-3027143Y-1814857D02*
X-3027143Y-614857D01*
X-2912858Y-786285D01*
X-2798572Y-900571D01*
X-2684286Y-957714D01*
X-5484286Y-1814857D02*
X-5084286Y-1243428D01*
X-4798572Y-1814857D02*
X-4798572Y-614857D01*
X-5255715Y-614857D01*
X-5370000Y-672000D01*
X-5427143Y-729142D01*
X-5484286Y-843428D01*
X-5484286Y-1014857D01*
X-5427143Y-1129142D01*
X-5370000Y-1186285D01*
X-5255715Y-1243428D01*
X-4798572Y-1243428D01*
X-5998572Y-1186285D02*
X-6398572Y-1186285D01*
X-6570000Y-1814857D02*
X-5998572Y-1814857D01*
X-5998572Y-614857D01*
X-6570000Y-614857D01*
X-6912858Y-614857D02*
X-7312858Y-1814857D01*
X-7712858Y-614857D01*
X-9427143Y-1186285D02*
X-9598572Y-1243428D01*
X-9655715Y-1300571D01*
X-9712858Y-1414857D01*
X-9712858Y-1586285D01*
X-9655715Y-1700571D01*
X-9598572Y-1757714D01*
X-9484286Y-1814857D01*
X-9027143Y-1814857D01*
X-9027143Y-614857D01*
X-9427143Y-614857D01*
X-9541429Y-672000D01*
X-9598572Y-729142D01*
X-9655715Y-843428D01*
X-9655715Y-957714D01*
X-9598572Y-1072000D01*
X-9541429Y-1129142D01*
X-9427143Y-1186285D01*
X-9027143Y-1186285D01*
X15857142Y-5770000D02*
X14657142Y-5370000D01*
X15857142Y-4970000D01*
X14657142Y-4570000D02*
X15857142Y-4570000D01*
X15857142Y-4284285D01*
X15800000Y-4112857D01*
X15685714Y-3998571D01*
X15571428Y-3941428D01*
X15342857Y-3884285D01*
X15171428Y-3884285D01*
X14942857Y-3941428D01*
X14828571Y-3998571D01*
X14714285Y-4112857D01*
X14657142Y-4284285D01*
X14657142Y-4570000D01*
X14657142Y-3370000D02*
X15857142Y-3370000D01*
X15857142Y-3084285D01*
X15800000Y-2912857D01*
X15685714Y-2798571D01*
X15571428Y-2741428D01*
X15342857Y-2684285D01*
X15171428Y-2684285D01*
X14942857Y-2741428D01*
X14828571Y-2798571D01*
X14714285Y-2912857D01*
X14657142Y-3084285D01*
X14657142Y-3370000D01*
X9657142Y3241429D02*
X10857142Y3241429D01*
X9657142Y4498572D02*
X10228571Y4098572D01*
X9657142Y3812858D02*
X10857142Y3812858D01*
X10857142Y4270000D01*
X10800000Y4384286D01*
X10742857Y4441429D01*
X10628571Y4498572D01*
X10457142Y4498572D01*
X10342857Y4441429D01*
X10285714Y4384286D01*
X10228571Y4270000D01*
X10228571Y3812858D01*
X9542857Y5812858D02*
X9600000Y5698572D01*
X9714285Y5584286D01*
X9885714Y5412858D01*
X9942857Y5298572D01*
X9942857Y5184286D01*
X9657142Y5241429D02*
X9714285Y5127143D01*
X9828571Y5012858D01*
X10057142Y4955715D01*
X10457142Y4955715D01*
X10685714Y5012858D01*
X10800000Y5127143D01*
X10857142Y5241429D01*
X10857142Y5470000D01*
X10800000Y5584286D01*
X10685714Y5698572D01*
X10457142Y5755715D01*
X10057142Y5755715D01*
X9828571Y5698572D01*
X9714285Y5584286D01*
X9657142Y5470000D01*
X9657142Y5241429D01*
D12*
%TO.C,J2*%
X-16510000Y8950000D02*
X19110000Y8950000D01*
X-19110000Y7620000D02*
X-19110000Y6290000D01*
X-19110000Y6290000D02*
X-17780000Y6290000D01*
X19110000Y8950000D02*
X19110000Y6290000D01*
X-16510000Y8950000D02*
X-16510000Y6290000D01*
X-16510000Y6290000D02*
X19110000Y6290000D01*
%TO.C,J3*%
X-19110000Y-7620000D02*
X-19110000Y-8950000D01*
X-16510000Y-6290000D02*
X-16510000Y-8950000D01*
X19110000Y-6290000D02*
X19110000Y-8950000D01*
X-19110000Y-8950000D02*
X-17780000Y-8950000D01*
X-16510000Y-8950000D02*
X19110000Y-8950000D01*
X-16510000Y-6290000D02*
X19110000Y-6290000D01*
%TD*%
M02*
