M48
; DRILL file {KiCad (5.99.0-10369-gb59bf064b4)} date Wednesday, May 19, 2021 at 06:33:21 PM
; FORMAT={2:4/ absolute / inch / keep zeros}
; #@! TF.CreationDate,2021-05-19T18:33:21+02:00
; #@! TF.GenerationSoftware,Kicad,Pcbnew,(5.99.0-10369-gb59bf064b4)
; #@! TF.FileFunction,Plated,1,2,PTH
FMAT,2
INCH
; #@! TA.AperFunction,Plated,PTH,ViaDrill
T1C0.0098
; #@! TA.AperFunction,Plated,PTH,ComponentDrill
T2C0.0098
; #@! TA.AperFunction,Plated,PTH,ComponentDrill
T3C0.0394
; #@! TA.AperFunction,Plated,PTH,ComponentDrill
T4C0.0591
; #@! TA.AperFunction,Plated,PTH,ComponentDrill
T5C0.0669
%
G90
G05
T1
X-008071Y002165
X-008071Y001575
X-008071Y000787
X-008071Y000000
X-008071Y-000787
X-008071Y-001575
X-008071Y-002165
X-005508Y002650
X-005508Y-002610
X-004508Y002650
X-004508Y-002610
X-004016Y-000472
X-003780Y000453
X-003780Y-000669
X-003508Y002650
X-003508Y-002610
X-003268Y000669
X-003110Y-000630
X-002756Y-000669
X-002677Y000610
X-002520Y-000866
X-002508Y002650
X-002508Y-002610
X-002283Y-000669
X-001969Y000630
X-001969Y-000630
X-001909Y-001063
X-001752Y-001299
X-001614Y000669
X-001508Y002650
X-001508Y-002610
X-001398Y-001260
X-001378Y000866
X-001142Y000669
X-001043Y-001299
X-000886Y-001063
X-000748Y000630
X-000748Y-000630
X-000551Y001339
X-000551Y-001280
X-000508Y002650
X-000508Y-002610
X-000315Y001535
X-000315Y-001496
X000079Y-001693
X000098Y001732
X000315Y001732
X000335Y-001693
X000492Y002650
X000492Y-002610
X000689Y-001280
X000709Y001634
X000787Y000374
X000925Y-001083
X000945Y001417
X001063Y001102
X001102Y-001535
X001142Y-000571
X001492Y002650
X001492Y-002610
X002421Y001181
X002492Y002650
X002492Y-002610
X002638Y001417
X002657Y-000630
X002874Y-001181
X003012Y001457
X003012Y001161
X003465Y-001594
X003492Y002650
X003492Y-002610
X003740Y000276
X003743Y000792
X003743Y000555
X004134Y000906
X004134Y000098
X004492Y002650
X004492Y-002610
X004764Y-001063
X005236Y001201
X005295Y-001122
X005492Y002650
X005492Y000965
X005492Y-002610
X006191Y-000669
X006201Y-000236
X006356Y-001120
X006492Y002650
X006492Y-002610
X007492Y002650
X007492Y-002610
X008071Y002165
X008071Y001575
X008071Y000787
X008071Y000000
X008071Y-000787
X008071Y-001575
X008071Y-002165
T2
X001681Y000287
X001681Y-000051
X002020Y000287
X002020Y-000051
T3
X-007000Y003000
X-007000Y-003000
X-006000Y003000
X-006000Y-003000
X-005000Y003000
X-005000Y-003000
X-004000Y003000
X-004000Y-003000
X-003000Y003000
X-003000Y-003000
X-002000Y003000
X-002000Y-003000
X-001000Y003000
X-001000Y-003000
X000000Y003000
X000000Y-003000
X001000Y003000
X001000Y-003000
X002000Y003000
X002000Y-003000
X003000Y003000
X003000Y-003000
X004000Y003000
X004000Y-003000
X005000Y003000
X005000Y-003000
X006000Y003000
X006000Y-003000
X007000Y003000
X007000Y-003000
T4
X-005906Y000000
T5
X-006906Y001000
X-006906Y-001000
X-004906Y001000
X-004906Y-001000
T0
M30
