%TF.GenerationSoftware,KiCad,Pcbnew,(5.99.0-10369-gb59bf064b4)*%
%TF.CreationDate,2021-05-19T18:33:09+02:00*%
%TF.ProjectId,ax5243-test-board,61783532-3433-42d7-9465-73742d626f61,B*%
%TF.SameCoordinates,PX8954400PY4e33880*%
%TF.FileFunction,Copper,L2,Bot*%
%TF.FilePolarity,Positive*%
%FSLAX46Y46*%
G04 Gerber Fmt 4.6, Leading zero omitted, Abs format (unit mm)*
G04 Created by KiCad (PCBNEW (5.99.0-10369-gb59bf064b4)) date 2021-05-19 18:33:09*
%MOMM*%
%LPD*%
G01*
G04 APERTURE LIST*
%TA.AperFunction,ComponentPad*%
%ADD10C,2.050000*%
%TD*%
%TA.AperFunction,ComponentPad*%
%ADD11C,2.250000*%
%TD*%
%TA.AperFunction,ComponentPad*%
%ADD12C,0.510000*%
%TD*%
%TA.AperFunction,ComponentPad*%
%ADD13R,1.700000X1.700000*%
%TD*%
%TA.AperFunction,ComponentPad*%
%ADD14O,1.700000X1.700000*%
%TD*%
%TA.AperFunction,ViaPad*%
%ADD15C,0.500000*%
%TD*%
%TA.AperFunction,Conductor*%
%ADD16C,0.250000*%
%TD*%
%TA.AperFunction,Conductor*%
%ADD17C,0.500000*%
%TD*%
%TA.AperFunction,Conductor*%
%ADD18C,0.200000*%
%TD*%
G04 APERTURE END LIST*
D10*
%TO.P,J1,1,In*%
%TO.N,/ANT*%
X-15000000Y0D03*
D11*
%TO.P,J1,2,Ext*%
%TO.N,GND*%
X-12460000Y2540000D03*
X-17540000Y2540000D03*
X-12460000Y-2540000D03*
X-17540000Y-2540000D03*
%TD*%
D12*
%TO.P,U1,21,GND*%
%TO.N,GND*%
X4270000Y-130000D03*
X5130000Y730000D03*
X4270000Y730000D03*
X5130000Y-130000D03*
%TD*%
D13*
%TO.P,J2,1,Pin_1*%
%TO.N,unconnected-(J2-Pad1)*%
X-17780000Y7620000D03*
D14*
%TO.P,J2,2,Pin_2*%
%TO.N,unconnected-(J2-Pad2)*%
X-15240000Y7620000D03*
%TO.P,J2,3,Pin_3*%
%TO.N,unconnected-(J2-Pad3)*%
X-12700000Y7620000D03*
%TO.P,J2,4,Pin_4*%
%TO.N,GND*%
X-10160000Y7620000D03*
%TO.P,J2,5,Pin_5*%
%TO.N,unconnected-(J2-Pad5)*%
X-7620000Y7620000D03*
%TO.P,J2,6,Pin_6*%
%TO.N,unconnected-(J2-Pad6)*%
X-5080000Y7620000D03*
%TO.P,J2,7,Pin_7*%
%TO.N,unconnected-(J2-Pad7)*%
X-2540000Y7620000D03*
%TO.P,J2,8,Pin_8*%
%TO.N,unconnected-(J2-Pad8)*%
X0Y7620000D03*
%TO.P,J2,9,Pin_9*%
%TO.N,unconnected-(J2-Pad9)*%
X2540000Y7620000D03*
%TO.P,J2,10,Pin_10*%
%TO.N,unconnected-(J2-Pad10)*%
X5080000Y7620000D03*
%TO.P,J2,11,Pin_11*%
%TO.N,unconnected-(J2-Pad11)*%
X7620000Y7620000D03*
%TO.P,J2,12,Pin_12*%
%TO.N,IRQ*%
X10160000Y7620000D03*
%TO.P,J2,13,Pin_13*%
%TO.N,SEL*%
X12700000Y7620000D03*
%TO.P,J2,14,Pin_14*%
%TO.N,MOSI*%
X15240000Y7620000D03*
%TO.P,J2,15,Pin_15*%
%TO.N,MISO*%
X17780000Y7620000D03*
%TD*%
D13*
%TO.P,J3,1,Pin_1*%
%TO.N,unconnected-(J3-Pad1)*%
X-17780000Y-7620000D03*
D14*
%TO.P,J3,2,Pin_2*%
%TO.N,GND*%
X-15240000Y-7620000D03*
%TO.P,J3,3,Pin_3*%
%TO.N,unconnected-(J3-Pad3)*%
X-12700000Y-7620000D03*
%TO.P,J3,4,Pin_4*%
%TO.N,unconnected-(J3-Pad4)*%
X-10160000Y-7620000D03*
%TO.P,J3,5,Pin_5*%
%TO.N,unconnected-(J3-Pad5)*%
X-7620000Y-7620000D03*
%TO.P,J3,6,Pin_6*%
%TO.N,unconnected-(J3-Pad6)*%
X-5080000Y-7620000D03*
%TO.P,J3,7,Pin_7*%
%TO.N,unconnected-(J3-Pad7)*%
X-2540000Y-7620000D03*
%TO.P,J3,8,Pin_8*%
%TO.N,unconnected-(J3-Pad8)*%
X0Y-7620000D03*
%TO.P,J3,9,Pin_9*%
%TO.N,unconnected-(J3-Pad9)*%
X2540000Y-7620000D03*
%TO.P,J3,10,Pin_10*%
%TO.N,unconnected-(J3-Pad10)*%
X5080000Y-7620000D03*
%TO.P,J3,11,Pin_11*%
%TO.N,DAC_OUT*%
X7620000Y-7620000D03*
%TO.P,J3,12,Pin_12*%
%TO.N,SYSCLK*%
X10160000Y-7620000D03*
%TO.P,J3,13,Pin_13*%
%TO.N,unconnected-(J3-Pad13)*%
X12700000Y-7620000D03*
%TO.P,J3,14,Pin_14*%
%TO.N,VDD*%
X15240000Y-7620000D03*
%TO.P,J3,15,Pin_15*%
%TO.N,CLK*%
X17780000Y-7620000D03*
%TD*%
D15*
%TO.N,GND*%
X-4850000Y-2700000D03*
X-2250000Y-2700000D03*
X-2650000Y-3300000D03*
X-3550000Y-3200000D03*
X-20500000Y-2000000D03*
X13950000Y-6630000D03*
X2800000Y-3900000D03*
X-8910000Y-6630000D03*
X-5000000Y1600000D03*
X-6370000Y6730000D03*
X-20500000Y0D03*
X-800000Y3900000D03*
X200000Y-4300000D03*
X2350000Y-2750000D03*
X-9600000Y-1700000D03*
X20500000Y-5500000D03*
X2400000Y3600000D03*
X1800000Y4150000D03*
X6150000Y3000000D03*
X-20500000Y2000000D03*
X11410000Y-6630000D03*
X16490000Y6730000D03*
X2900000Y-1450000D03*
X-1400000Y-3250000D03*
X-2900000Y1700000D03*
X-9600000Y1150000D03*
X13300000Y3050000D03*
X-8910000Y6730000D03*
X16490000Y-6630000D03*
X-13990000Y6730000D03*
X-4450000Y-3300000D03*
X-6370000Y-6630000D03*
X20500000Y-2000000D03*
X11410000Y6730000D03*
X-1400000Y3400000D03*
X-800000Y-3800000D03*
X19030000Y-6630000D03*
X-20500000Y-5500000D03*
X8800000Y-4050000D03*
X-7000000Y-1700000D03*
X20500000Y2000000D03*
X7300000Y-3000000D03*
X-7900000Y-1600000D03*
X13450000Y-2850000D03*
X-11450000Y6730000D03*
X1250000Y-6630000D03*
X-6800000Y1550000D03*
X800000Y4400000D03*
X8870000Y6730000D03*
X-1900000Y1600000D03*
X6330000Y6730000D03*
X-5000000Y-1600000D03*
X-1290000Y6730000D03*
X13950000Y2450000D03*
X1250000Y6730000D03*
X3790000Y6730000D03*
X2000000Y950000D03*
X-3830000Y-6630000D03*
X20500000Y5500000D03*
X-3500000Y2200000D03*
X-1290000Y-6630000D03*
X7650000Y3700000D03*
X20500000Y0D03*
X7650000Y2950000D03*
X3790000Y-6630000D03*
X-4100000Y1700000D03*
X13950000Y6730000D03*
X1750000Y-3250000D03*
X-5800000Y-1700000D03*
X20500000Y4000000D03*
X6700000Y3600000D03*
X2700000Y2800000D03*
X10500000Y2300000D03*
X850000Y-4300000D03*
X15750000Y-600000D03*
X19030000Y6730000D03*
X-20500000Y4000000D03*
X15726107Y-1700000D03*
X6330000Y-6630000D03*
X-11450000Y-6630000D03*
X-8300000Y1700000D03*
X8870000Y-6630000D03*
X-20500000Y5500000D03*
X-1900000Y-1600000D03*
X250000Y4400000D03*
X-20500000Y-4000000D03*
X20500000Y-4000000D03*
X-3830000Y6730000D03*
X-10200000Y-1200000D03*
X-13990000Y-6630000D03*
X-6400000Y-2200000D03*
%TO.N,DAC_OUT*%
X12100000Y-2700000D03*
%TO.N,VDD*%
X9500000Y700000D03*
X9506885Y2010497D03*
X10500000Y250000D03*
X9506885Y1410497D03*
%TO.N,SEL*%
X16144938Y-2844938D03*
X6750000Y-1600000D03*
%TD*%
D16*
%TO.N,DAC_OUT*%
X7620000Y-6350000D02*
X7620000Y-7620000D01*
X12100000Y-2700000D02*
X11270000Y-2700000D01*
X11270000Y-2700000D02*
X7620000Y-6350000D01*
D17*
%TO.N,VDD*%
X17900000Y-3700000D02*
X17450000Y-4150000D01*
X14500000Y900000D02*
X12000000Y900000D01*
X17900000Y-500000D02*
X17900000Y-3700000D01*
X15250000Y-6350000D02*
X15240000Y-6350000D01*
X17450000Y-4150000D02*
X15250000Y-6350000D01*
X15240000Y-6350000D02*
X15240000Y-7620000D01*
X17450000Y-4150000D02*
X17150000Y-4450000D01*
X14100000Y900000D02*
X14500000Y900000D01*
X11800000Y700000D02*
X9500000Y700000D01*
X14500000Y900000D02*
X16500000Y900000D01*
X12000000Y900000D02*
X11800000Y700000D01*
X16500000Y900000D02*
X17900000Y-500000D01*
D18*
%TO.N,SEL*%
X12900000Y-1300000D02*
X14444938Y-2844938D01*
X6750000Y-1600000D02*
X10124916Y-1675084D01*
X10124916Y-1675084D02*
X10500000Y-1300000D01*
X14444938Y-2844938D02*
X16144938Y-2844938D01*
X10500000Y-1300000D02*
X12900000Y-1300000D01*
%TD*%
%TA.AperFunction,Conductor*%
%TO.N,VDD*%
G36*
X9959191Y2481093D02*
G01*
X9995155Y2431593D01*
X10000000Y2401000D01*
X10000000Y1400000D01*
X12301000Y1400000D01*
X12359191Y1381093D01*
X12395155Y1331593D01*
X12400000Y1301000D01*
X12400000Y299000D01*
X12381093Y240809D01*
X12331593Y204845D01*
X12301000Y200000D01*
X11000000Y200000D01*
X11000000Y-1000D01*
X10981093Y-59191D01*
X10931593Y-95155D01*
X10901000Y-100000D01*
X9686622Y-100000D01*
X9628431Y-81093D01*
X9622194Y-76166D01*
X7934572Y1370367D01*
X7902695Y1422592D01*
X7900000Y1445533D01*
X7900000Y2401000D01*
X7918907Y2459191D01*
X7968407Y2495155D01*
X7999000Y2500000D01*
X9901000Y2500000D01*
X9959191Y2481093D01*
G37*
%TD.AperFunction*%
%TD*%
%TA.AperFunction,Conductor*%
%TO.N,GND*%
G36*
X-18899196Y8681093D02*
G01*
X-18863232Y8631593D01*
X-18863232Y8571995D01*
X-18866051Y8567776D01*
X-18867953Y8558216D01*
X-18867953Y8558215D01*
X-18873437Y8530645D01*
X-18885500Y8470000D01*
X-18885500Y6770000D01*
X-18866051Y6672224D01*
X-18810666Y6589334D01*
X-18727776Y6533949D01*
X-18630000Y6514500D01*
X-16930000Y6514500D01*
X-16832224Y6533949D01*
X-16749334Y6589334D01*
X-16693949Y6672224D01*
X-16674500Y6770000D01*
X-16674500Y8470000D01*
X-16686563Y8530645D01*
X-16692047Y8558215D01*
X-16692047Y8558216D01*
X-16693949Y8567776D01*
X-16694509Y8568614D01*
X-16698878Y8624109D01*
X-16666910Y8676279D01*
X-16610382Y8699695D01*
X-16602613Y8700000D01*
X-15930265Y8700000D01*
X-15872074Y8681093D01*
X-15836110Y8631593D01*
X-15836110Y8570407D01*
X-15872987Y8520252D01*
X-15888130Y8509510D01*
X-15962356Y8456858D01*
X-16107570Y8305166D01*
X-16221480Y8128751D01*
X-16223238Y8124390D01*
X-16223238Y8124389D01*
X-16262955Y8025837D01*
X-16299975Y7933979D01*
X-16300876Y7929366D01*
X-16300877Y7929362D01*
X-16321384Y7824350D01*
X-16340224Y7727878D01*
X-16340774Y7517884D01*
X-16339896Y7513262D01*
X-16339896Y7513257D01*
X-16314637Y7380218D01*
X-16301605Y7311575D01*
X-16224130Y7116395D01*
X-16221590Y7112416D01*
X-16113684Y6943361D01*
X-16113680Y6943356D01*
X-16111146Y6939386D01*
X-15966728Y6786936D01*
X-15962898Y6784189D01*
X-15962897Y6784188D01*
X-15804570Y6670627D01*
X-15796089Y6664544D01*
X-15791808Y6662571D01*
X-15791809Y6662571D01*
X-15610685Y6579072D01*
X-15605384Y6576628D01*
X-15600817Y6575502D01*
X-15600814Y6575501D01*
X-15564776Y6566616D01*
X-15401495Y6526359D01*
X-15317073Y6522009D01*
X-15196484Y6515794D01*
X-15196479Y6515794D01*
X-15191779Y6515552D01*
X-15187118Y6516203D01*
X-15187115Y6516203D01*
X-14988470Y6543944D01*
X-14988467Y6543945D01*
X-14983803Y6544596D01*
X-14974456Y6547787D01*
X-14789531Y6610921D01*
X-14789528Y6610922D01*
X-14785071Y6612444D01*
X-14602754Y6716646D01*
X-14443431Y6853444D01*
X-14440497Y6857139D01*
X-14315781Y7014210D01*
X-14315779Y7014213D01*
X-14312850Y7017902D01*
X-14215723Y7204084D01*
X-14155554Y7405274D01*
X-14134515Y7614212D01*
X-14134500Y7620000D01*
X-14154445Y7829045D01*
X-14213559Y8030547D01*
X-14229856Y8062191D01*
X-14307553Y8213048D01*
X-14309710Y8217236D01*
X-14317684Y8227388D01*
X-14436515Y8378666D01*
X-14436517Y8378668D01*
X-14439428Y8382374D01*
X-14442984Y8385460D01*
X-14442988Y8385464D01*
X-14545898Y8474764D01*
X-14598033Y8520005D01*
X-14599840Y8521050D01*
X-14635755Y8569586D01*
X-14636289Y8630769D01*
X-14600759Y8680582D01*
X-14541871Y8700000D01*
X-13390265Y8700000D01*
X-13332074Y8681093D01*
X-13296110Y8631593D01*
X-13296110Y8570407D01*
X-13332987Y8520252D01*
X-13348130Y8509510D01*
X-13422356Y8456858D01*
X-13567570Y8305166D01*
X-13681480Y8128751D01*
X-13683238Y8124390D01*
X-13683238Y8124389D01*
X-13722955Y8025837D01*
X-13759975Y7933979D01*
X-13760876Y7929366D01*
X-13760877Y7929362D01*
X-13781384Y7824350D01*
X-13800224Y7727878D01*
X-13800774Y7517884D01*
X-13799896Y7513262D01*
X-13799896Y7513257D01*
X-13774637Y7380218D01*
X-13761605Y7311575D01*
X-13684130Y7116395D01*
X-13681590Y7112416D01*
X-13573684Y6943361D01*
X-13573680Y6943356D01*
X-13571146Y6939386D01*
X-13426728Y6786936D01*
X-13422898Y6784189D01*
X-13422897Y6784188D01*
X-13264570Y6670627D01*
X-13256089Y6664544D01*
X-13251808Y6662571D01*
X-13251809Y6662571D01*
X-13070685Y6579072D01*
X-13065384Y6576628D01*
X-13060817Y6575502D01*
X-13060814Y6575501D01*
X-13024776Y6566616D01*
X-12861495Y6526359D01*
X-12777073Y6522009D01*
X-12656484Y6515794D01*
X-12656479Y6515794D01*
X-12651779Y6515552D01*
X-12647118Y6516203D01*
X-12647115Y6516203D01*
X-12448470Y6543944D01*
X-12448467Y6543945D01*
X-12443803Y6544596D01*
X-12434456Y6547787D01*
X-12249531Y6610921D01*
X-12249528Y6610922D01*
X-12245071Y6612444D01*
X-12062754Y6716646D01*
X-11903431Y6853444D01*
X-11900497Y6857139D01*
X-11775781Y7014210D01*
X-11775779Y7014213D01*
X-11772850Y7017902D01*
X-11675723Y7204084D01*
X-11630967Y7353736D01*
X-11229103Y7353736D01*
X-11222004Y7316345D01*
X-11219386Y7307335D01*
X-11145425Y7121007D01*
X-11141145Y7112644D01*
X-11033289Y6943669D01*
X-11027511Y6936273D01*
X-10889641Y6790733D01*
X-10882571Y6784565D01*
X-10719666Y6667722D01*
X-10711559Y6663004D01*
X-10529496Y6579072D01*
X-10520648Y6575973D01*
X-10429222Y6553432D01*
X-10416620Y6554346D01*
X-10414000Y6563527D01*
X-10414000Y7350320D01*
X-10416417Y7357757D01*
X-9906000Y7357757D01*
X-9906000Y6560472D01*
X-9901878Y6547787D01*
X-9900598Y6546856D01*
X-9899108Y6546726D01*
X-9709732Y6611378D01*
X-9701188Y6615236D01*
X-9527133Y6714717D01*
X-9519468Y6720124D01*
X-9367370Y6850718D01*
X-9360857Y6857486D01*
X-9236200Y7014482D01*
X-9231089Y7022353D01*
X-9138368Y7200089D01*
X-9134834Y7208793D01*
X-9092312Y7350976D01*
X-9092590Y7362784D01*
X-9102901Y7366000D01*
X-9890320Y7366000D01*
X-9903005Y7361878D01*
X-9906000Y7357757D01*
X-10416417Y7357757D01*
X-10418122Y7363005D01*
X-10422243Y7366000D01*
X-11215751Y7366000D01*
X-11228436Y7361878D01*
X-11228601Y7361652D01*
X-11229103Y7353736D01*
X-11630967Y7353736D01*
X-11615554Y7405274D01*
X-11594515Y7614212D01*
X-11594500Y7620000D01*
X-11614445Y7829045D01*
X-11673559Y8030547D01*
X-11689856Y8062191D01*
X-11767553Y8213048D01*
X-11769710Y8217236D01*
X-11777684Y8227388D01*
X-11896515Y8378666D01*
X-11896517Y8378668D01*
X-11899428Y8382374D01*
X-11902984Y8385460D01*
X-11902988Y8385464D01*
X-12005898Y8474764D01*
X-12058033Y8520005D01*
X-12059840Y8521050D01*
X-12095755Y8569586D01*
X-12096289Y8630769D01*
X-12060759Y8680582D01*
X-12001871Y8700000D01*
X-10849406Y8700000D01*
X-10791215Y8681093D01*
X-10755251Y8631593D01*
X-10755251Y8570407D01*
X-10792128Y8520252D01*
X-10878187Y8459206D01*
X-10885287Y8453077D01*
X-11023920Y8308260D01*
X-11029734Y8300897D01*
X-11138483Y8132475D01*
X-11142794Y8124159D01*
X-11217735Y7938207D01*
X-11220399Y7929211D01*
X-11228176Y7889387D01*
X-11226563Y7876151D01*
X-11226466Y7876047D01*
X-11218565Y7874000D01*
X-9103832Y7874000D01*
X-9092514Y7877677D01*
X-9092361Y7888347D01*
X-9132696Y8025837D01*
X-9136180Y8034549D01*
X-9227974Y8212778D01*
X-9233044Y8220674D01*
X-9356878Y8378323D01*
X-9363347Y8385116D01*
X-9514763Y8516509D01*
X-9520220Y8520401D01*
X-9556615Y8569585D01*
X-9557151Y8630768D01*
X-9521621Y8680580D01*
X-9462732Y8700000D01*
X-8310265Y8700000D01*
X-8252074Y8681093D01*
X-8216110Y8631593D01*
X-8216110Y8570407D01*
X-8252987Y8520252D01*
X-8268130Y8509510D01*
X-8342356Y8456858D01*
X-8487570Y8305166D01*
X-8601480Y8128751D01*
X-8603238Y8124390D01*
X-8603238Y8124389D01*
X-8642955Y8025837D01*
X-8679975Y7933979D01*
X-8680876Y7929366D01*
X-8680877Y7929362D01*
X-8701384Y7824350D01*
X-8720224Y7727878D01*
X-8720774Y7517884D01*
X-8719896Y7513262D01*
X-8719896Y7513257D01*
X-8694637Y7380218D01*
X-8681605Y7311575D01*
X-8604130Y7116395D01*
X-8601590Y7112416D01*
X-8493684Y6943361D01*
X-8493680Y6943356D01*
X-8491146Y6939386D01*
X-8346728Y6786936D01*
X-8342898Y6784189D01*
X-8342897Y6784188D01*
X-8184570Y6670627D01*
X-8176089Y6664544D01*
X-8171808Y6662571D01*
X-8171809Y6662571D01*
X-7990685Y6579072D01*
X-7985384Y6576628D01*
X-7980817Y6575502D01*
X-7980814Y6575501D01*
X-7944776Y6566616D01*
X-7781495Y6526359D01*
X-7697073Y6522009D01*
X-7576484Y6515794D01*
X-7576479Y6515794D01*
X-7571779Y6515552D01*
X-7567118Y6516203D01*
X-7567115Y6516203D01*
X-7368470Y6543944D01*
X-7368467Y6543945D01*
X-7363803Y6544596D01*
X-7354456Y6547787D01*
X-7169531Y6610921D01*
X-7169528Y6610922D01*
X-7165071Y6612444D01*
X-6982754Y6716646D01*
X-6823431Y6853444D01*
X-6820497Y6857139D01*
X-6695781Y7014210D01*
X-6695779Y7014213D01*
X-6692850Y7017902D01*
X-6595723Y7204084D01*
X-6535554Y7405274D01*
X-6514515Y7614212D01*
X-6514500Y7620000D01*
X-6534445Y7829045D01*
X-6593559Y8030547D01*
X-6609856Y8062191D01*
X-6687553Y8213048D01*
X-6689710Y8217236D01*
X-6697684Y8227388D01*
X-6816515Y8378666D01*
X-6816517Y8378668D01*
X-6819428Y8382374D01*
X-6822984Y8385460D01*
X-6822988Y8385464D01*
X-6925898Y8474764D01*
X-6978033Y8520005D01*
X-6979840Y8521050D01*
X-7015755Y8569586D01*
X-7016289Y8630769D01*
X-6980759Y8680582D01*
X-6921871Y8700000D01*
X-5770265Y8700000D01*
X-5712074Y8681093D01*
X-5676110Y8631593D01*
X-5676110Y8570407D01*
X-5712987Y8520252D01*
X-5728130Y8509510D01*
X-5802356Y8456858D01*
X-5947570Y8305166D01*
X-6061480Y8128751D01*
X-6063238Y8124390D01*
X-6063238Y8124389D01*
X-6102955Y8025837D01*
X-6139975Y7933979D01*
X-6140876Y7929366D01*
X-6140877Y7929362D01*
X-6161384Y7824350D01*
X-6180224Y7727878D01*
X-6180774Y7517884D01*
X-6179896Y7513262D01*
X-6179896Y7513257D01*
X-6154637Y7380218D01*
X-6141605Y7311575D01*
X-6064130Y7116395D01*
X-6061590Y7112416D01*
X-5953684Y6943361D01*
X-5953680Y6943356D01*
X-5951146Y6939386D01*
X-5806728Y6786936D01*
X-5802898Y6784189D01*
X-5802897Y6784188D01*
X-5644570Y6670627D01*
X-5636089Y6664544D01*
X-5631808Y6662571D01*
X-5631809Y6662571D01*
X-5450685Y6579072D01*
X-5445384Y6576628D01*
X-5440817Y6575502D01*
X-5440814Y6575501D01*
X-5404776Y6566616D01*
X-5241495Y6526359D01*
X-5157073Y6522009D01*
X-5036484Y6515794D01*
X-5036479Y6515794D01*
X-5031779Y6515552D01*
X-5027118Y6516203D01*
X-5027115Y6516203D01*
X-4828470Y6543944D01*
X-4828467Y6543945D01*
X-4823803Y6544596D01*
X-4814456Y6547787D01*
X-4629531Y6610921D01*
X-4629528Y6610922D01*
X-4625071Y6612444D01*
X-4442754Y6716646D01*
X-4283431Y6853444D01*
X-4280497Y6857139D01*
X-4155781Y7014210D01*
X-4155779Y7014213D01*
X-4152850Y7017902D01*
X-4055723Y7204084D01*
X-3995554Y7405274D01*
X-3974515Y7614212D01*
X-3974500Y7620000D01*
X-3994445Y7829045D01*
X-4053559Y8030547D01*
X-4069856Y8062191D01*
X-4147553Y8213048D01*
X-4149710Y8217236D01*
X-4157684Y8227388D01*
X-4276515Y8378666D01*
X-4276517Y8378668D01*
X-4279428Y8382374D01*
X-4282984Y8385460D01*
X-4282988Y8385464D01*
X-4385898Y8474764D01*
X-4438033Y8520005D01*
X-4439840Y8521050D01*
X-4475755Y8569586D01*
X-4476289Y8630769D01*
X-4440759Y8680582D01*
X-4381871Y8700000D01*
X-3230265Y8700000D01*
X-3172074Y8681093D01*
X-3136110Y8631593D01*
X-3136110Y8570407D01*
X-3172987Y8520252D01*
X-3188130Y8509510D01*
X-3262356Y8456858D01*
X-3407570Y8305166D01*
X-3521480Y8128751D01*
X-3523238Y8124390D01*
X-3523238Y8124389D01*
X-3562955Y8025837D01*
X-3599975Y7933979D01*
X-3600876Y7929366D01*
X-3600877Y7929362D01*
X-3621384Y7824350D01*
X-3640224Y7727878D01*
X-3640774Y7517884D01*
X-3639896Y7513262D01*
X-3639896Y7513257D01*
X-3614637Y7380218D01*
X-3601605Y7311575D01*
X-3524130Y7116395D01*
X-3521590Y7112416D01*
X-3413684Y6943361D01*
X-3413680Y6943356D01*
X-3411146Y6939386D01*
X-3266728Y6786936D01*
X-3262898Y6784189D01*
X-3262897Y6784188D01*
X-3104570Y6670627D01*
X-3096089Y6664544D01*
X-3091808Y6662571D01*
X-3091809Y6662571D01*
X-2910685Y6579072D01*
X-2905384Y6576628D01*
X-2900817Y6575502D01*
X-2900814Y6575501D01*
X-2864776Y6566616D01*
X-2701495Y6526359D01*
X-2617073Y6522009D01*
X-2496484Y6515794D01*
X-2496479Y6515794D01*
X-2491779Y6515552D01*
X-2487118Y6516203D01*
X-2487115Y6516203D01*
X-2288470Y6543944D01*
X-2288467Y6543945D01*
X-2283803Y6544596D01*
X-2274456Y6547787D01*
X-2089531Y6610921D01*
X-2089528Y6610922D01*
X-2085071Y6612444D01*
X-1902754Y6716646D01*
X-1743431Y6853444D01*
X-1740497Y6857139D01*
X-1615781Y7014210D01*
X-1615779Y7014213D01*
X-1612850Y7017902D01*
X-1515723Y7204084D01*
X-1455554Y7405274D01*
X-1434515Y7614212D01*
X-1434500Y7620000D01*
X-1454445Y7829045D01*
X-1513559Y8030547D01*
X-1529856Y8062191D01*
X-1607553Y8213048D01*
X-1609710Y8217236D01*
X-1617684Y8227388D01*
X-1736515Y8378666D01*
X-1736517Y8378668D01*
X-1739428Y8382374D01*
X-1742984Y8385460D01*
X-1742988Y8385464D01*
X-1845898Y8474764D01*
X-1898033Y8520005D01*
X-1899840Y8521050D01*
X-1935755Y8569586D01*
X-1936289Y8630769D01*
X-1900759Y8680582D01*
X-1841871Y8700000D01*
X-690265Y8700000D01*
X-632074Y8681093D01*
X-596110Y8631593D01*
X-596110Y8570407D01*
X-632987Y8520252D01*
X-648130Y8509510D01*
X-722356Y8456858D01*
X-867570Y8305166D01*
X-981480Y8128751D01*
X-983238Y8124390D01*
X-983238Y8124389D01*
X-1022955Y8025837D01*
X-1059975Y7933979D01*
X-1060876Y7929366D01*
X-1060877Y7929362D01*
X-1081384Y7824350D01*
X-1100224Y7727878D01*
X-1100774Y7517884D01*
X-1099896Y7513262D01*
X-1099896Y7513257D01*
X-1074637Y7380218D01*
X-1061605Y7311575D01*
X-984130Y7116395D01*
X-981590Y7112416D01*
X-873684Y6943361D01*
X-873680Y6943356D01*
X-871146Y6939386D01*
X-726728Y6786936D01*
X-722898Y6784189D01*
X-722897Y6784188D01*
X-564570Y6670627D01*
X-556089Y6664544D01*
X-551808Y6662571D01*
X-551809Y6662571D01*
X-370685Y6579072D01*
X-365384Y6576628D01*
X-360817Y6575502D01*
X-360814Y6575501D01*
X-324776Y6566616D01*
X-161495Y6526359D01*
X-77073Y6522009D01*
X43516Y6515794D01*
X43521Y6515794D01*
X48221Y6515552D01*
X52882Y6516203D01*
X52885Y6516203D01*
X251530Y6543944D01*
X251533Y6543945D01*
X256197Y6544596D01*
X265544Y6547787D01*
X450469Y6610921D01*
X450472Y6610922D01*
X454929Y6612444D01*
X637246Y6716646D01*
X796569Y6853444D01*
X799503Y6857139D01*
X924219Y7014210D01*
X924221Y7014213D01*
X927150Y7017902D01*
X1024277Y7204084D01*
X1084446Y7405274D01*
X1105485Y7614212D01*
X1105500Y7620000D01*
X1085555Y7829045D01*
X1026441Y8030547D01*
X1010144Y8062191D01*
X932447Y8213048D01*
X930290Y8217236D01*
X922316Y8227388D01*
X803485Y8378666D01*
X803483Y8378668D01*
X800572Y8382374D01*
X797016Y8385460D01*
X797012Y8385464D01*
X694102Y8474764D01*
X641967Y8520005D01*
X640160Y8521050D01*
X604245Y8569586D01*
X603711Y8630769D01*
X639241Y8680582D01*
X698129Y8700000D01*
X1849735Y8700000D01*
X1907926Y8681093D01*
X1943890Y8631593D01*
X1943890Y8570407D01*
X1907013Y8520252D01*
X1891870Y8509510D01*
X1817644Y8456858D01*
X1672430Y8305166D01*
X1558520Y8128751D01*
X1556762Y8124390D01*
X1556762Y8124389D01*
X1517045Y8025837D01*
X1480025Y7933979D01*
X1479124Y7929366D01*
X1479123Y7929362D01*
X1458616Y7824350D01*
X1439776Y7727878D01*
X1439226Y7517884D01*
X1440104Y7513262D01*
X1440104Y7513257D01*
X1465363Y7380218D01*
X1478395Y7311575D01*
X1555870Y7116395D01*
X1558410Y7112416D01*
X1666316Y6943361D01*
X1666320Y6943356D01*
X1668854Y6939386D01*
X1813272Y6786936D01*
X1817102Y6784189D01*
X1817103Y6784188D01*
X1975430Y6670627D01*
X1983911Y6664544D01*
X1988192Y6662571D01*
X1988191Y6662571D01*
X2169315Y6579072D01*
X2174616Y6576628D01*
X2179183Y6575502D01*
X2179186Y6575501D01*
X2215224Y6566616D01*
X2378505Y6526359D01*
X2462927Y6522009D01*
X2583516Y6515794D01*
X2583521Y6515794D01*
X2588221Y6515552D01*
X2592882Y6516203D01*
X2592885Y6516203D01*
X2791530Y6543944D01*
X2791533Y6543945D01*
X2796197Y6544596D01*
X2805544Y6547787D01*
X2990469Y6610921D01*
X2990472Y6610922D01*
X2994929Y6612444D01*
X3177246Y6716646D01*
X3336569Y6853444D01*
X3339503Y6857139D01*
X3464219Y7014210D01*
X3464221Y7014213D01*
X3467150Y7017902D01*
X3564277Y7204084D01*
X3624446Y7405274D01*
X3645485Y7614212D01*
X3645500Y7620000D01*
X3625555Y7829045D01*
X3566441Y8030547D01*
X3550144Y8062191D01*
X3472447Y8213048D01*
X3470290Y8217236D01*
X3462316Y8227388D01*
X3343485Y8378666D01*
X3343483Y8378668D01*
X3340572Y8382374D01*
X3337016Y8385460D01*
X3337012Y8385464D01*
X3234102Y8474764D01*
X3181967Y8520005D01*
X3180160Y8521050D01*
X3144245Y8569586D01*
X3143711Y8630769D01*
X3179241Y8680582D01*
X3238129Y8700000D01*
X4389735Y8700000D01*
X4447926Y8681093D01*
X4483890Y8631593D01*
X4483890Y8570407D01*
X4447013Y8520252D01*
X4431870Y8509510D01*
X4357644Y8456858D01*
X4212430Y8305166D01*
X4098520Y8128751D01*
X4096762Y8124390D01*
X4096762Y8124389D01*
X4057045Y8025837D01*
X4020025Y7933979D01*
X4019124Y7929366D01*
X4019123Y7929362D01*
X3998616Y7824350D01*
X3979776Y7727878D01*
X3979226Y7517884D01*
X3980104Y7513262D01*
X3980104Y7513257D01*
X4005363Y7380218D01*
X4018395Y7311575D01*
X4095870Y7116395D01*
X4098410Y7112416D01*
X4206316Y6943361D01*
X4206320Y6943356D01*
X4208854Y6939386D01*
X4353272Y6786936D01*
X4357102Y6784189D01*
X4357103Y6784188D01*
X4515430Y6670627D01*
X4523911Y6664544D01*
X4528192Y6662571D01*
X4528191Y6662571D01*
X4709315Y6579072D01*
X4714616Y6576628D01*
X4719183Y6575502D01*
X4719186Y6575501D01*
X4755224Y6566616D01*
X4918505Y6526359D01*
X5002927Y6522009D01*
X5123516Y6515794D01*
X5123521Y6515794D01*
X5128221Y6515552D01*
X5132882Y6516203D01*
X5132885Y6516203D01*
X5331530Y6543944D01*
X5331533Y6543945D01*
X5336197Y6544596D01*
X5345544Y6547787D01*
X5530469Y6610921D01*
X5530472Y6610922D01*
X5534929Y6612444D01*
X5717246Y6716646D01*
X5876569Y6853444D01*
X5879503Y6857139D01*
X6004219Y7014210D01*
X6004221Y7014213D01*
X6007150Y7017902D01*
X6104277Y7204084D01*
X6164446Y7405274D01*
X6185485Y7614212D01*
X6185500Y7620000D01*
X6165555Y7829045D01*
X6106441Y8030547D01*
X6090144Y8062191D01*
X6012447Y8213048D01*
X6010290Y8217236D01*
X6002316Y8227388D01*
X5883485Y8378666D01*
X5883483Y8378668D01*
X5880572Y8382374D01*
X5877016Y8385460D01*
X5877012Y8385464D01*
X5774102Y8474764D01*
X5721967Y8520005D01*
X5720160Y8521050D01*
X5684245Y8569586D01*
X5683711Y8630769D01*
X5719241Y8680582D01*
X5778129Y8700000D01*
X6929735Y8700000D01*
X6987926Y8681093D01*
X7023890Y8631593D01*
X7023890Y8570407D01*
X6987013Y8520252D01*
X6971870Y8509510D01*
X6897644Y8456858D01*
X6752430Y8305166D01*
X6638520Y8128751D01*
X6636762Y8124390D01*
X6636762Y8124389D01*
X6597045Y8025837D01*
X6560025Y7933979D01*
X6559124Y7929366D01*
X6559123Y7929362D01*
X6538616Y7824350D01*
X6519776Y7727878D01*
X6519226Y7517884D01*
X6520104Y7513262D01*
X6520104Y7513257D01*
X6545363Y7380218D01*
X6558395Y7311575D01*
X6635870Y7116395D01*
X6638410Y7112416D01*
X6746316Y6943361D01*
X6746320Y6943356D01*
X6748854Y6939386D01*
X6893272Y6786936D01*
X6897102Y6784189D01*
X6897103Y6784188D01*
X7055430Y6670627D01*
X7063911Y6664544D01*
X7068192Y6662571D01*
X7068191Y6662571D01*
X7249315Y6579072D01*
X7254616Y6576628D01*
X7259183Y6575502D01*
X7259186Y6575501D01*
X7295224Y6566616D01*
X7458505Y6526359D01*
X7542927Y6522009D01*
X7663516Y6515794D01*
X7663521Y6515794D01*
X7668221Y6515552D01*
X7672882Y6516203D01*
X7672885Y6516203D01*
X7871530Y6543944D01*
X7871533Y6543945D01*
X7876197Y6544596D01*
X7885544Y6547787D01*
X8070469Y6610921D01*
X8070472Y6610922D01*
X8074929Y6612444D01*
X8257246Y6716646D01*
X8416569Y6853444D01*
X8419503Y6857139D01*
X8544219Y7014210D01*
X8544221Y7014213D01*
X8547150Y7017902D01*
X8644277Y7204084D01*
X8704446Y7405274D01*
X8725485Y7614212D01*
X8725500Y7620000D01*
X8705555Y7829045D01*
X8646441Y8030547D01*
X8630144Y8062191D01*
X8552447Y8213048D01*
X8550290Y8217236D01*
X8542316Y8227388D01*
X8423485Y8378666D01*
X8423483Y8378668D01*
X8420572Y8382374D01*
X8417016Y8385460D01*
X8417012Y8385464D01*
X8314102Y8474764D01*
X8261967Y8520005D01*
X8260160Y8521050D01*
X8224245Y8569586D01*
X8223711Y8630769D01*
X8259241Y8680582D01*
X8318129Y8700000D01*
X9469735Y8700000D01*
X9527926Y8681093D01*
X9563890Y8631593D01*
X9563890Y8570407D01*
X9527013Y8520252D01*
X9511870Y8509510D01*
X9437644Y8456858D01*
X9292430Y8305166D01*
X9178520Y8128751D01*
X9176762Y8124390D01*
X9176762Y8124389D01*
X9137045Y8025837D01*
X9100025Y7933979D01*
X9099124Y7929366D01*
X9099123Y7929362D01*
X9078616Y7824350D01*
X9059776Y7727878D01*
X9059226Y7517884D01*
X9060104Y7513262D01*
X9060104Y7513257D01*
X9085363Y7380218D01*
X9098395Y7311575D01*
X9175870Y7116395D01*
X9178410Y7112416D01*
X9286316Y6943361D01*
X9286320Y6943356D01*
X9288854Y6939386D01*
X9433272Y6786936D01*
X9437102Y6784189D01*
X9437103Y6784188D01*
X9595430Y6670627D01*
X9603911Y6664544D01*
X9608192Y6662571D01*
X9608191Y6662571D01*
X9789315Y6579072D01*
X9794616Y6576628D01*
X9799183Y6575502D01*
X9799186Y6575501D01*
X9835224Y6566616D01*
X9998505Y6526359D01*
X10082927Y6522009D01*
X10203516Y6515794D01*
X10203521Y6515794D01*
X10208221Y6515552D01*
X10212882Y6516203D01*
X10212885Y6516203D01*
X10411530Y6543944D01*
X10411533Y6543945D01*
X10416197Y6544596D01*
X10425544Y6547787D01*
X10610469Y6610921D01*
X10610472Y6610922D01*
X10614929Y6612444D01*
X10797246Y6716646D01*
X10956569Y6853444D01*
X10959503Y6857139D01*
X11084219Y7014210D01*
X11084221Y7014213D01*
X11087150Y7017902D01*
X11184277Y7204084D01*
X11244446Y7405274D01*
X11265485Y7614212D01*
X11265500Y7620000D01*
X11245555Y7829045D01*
X11186441Y8030547D01*
X11170144Y8062191D01*
X11092447Y8213048D01*
X11090290Y8217236D01*
X11082316Y8227388D01*
X10963485Y8378666D01*
X10963483Y8378668D01*
X10960572Y8382374D01*
X10957016Y8385460D01*
X10957012Y8385464D01*
X10854102Y8474764D01*
X10801967Y8520005D01*
X10800160Y8521050D01*
X10764245Y8569586D01*
X10763711Y8630769D01*
X10799241Y8680582D01*
X10858129Y8700000D01*
X12009735Y8700000D01*
X12067926Y8681093D01*
X12103890Y8631593D01*
X12103890Y8570407D01*
X12067013Y8520252D01*
X12051870Y8509510D01*
X11977644Y8456858D01*
X11832430Y8305166D01*
X11718520Y8128751D01*
X11716762Y8124390D01*
X11716762Y8124389D01*
X11677045Y8025837D01*
X11640025Y7933979D01*
X11639124Y7929366D01*
X11639123Y7929362D01*
X11618616Y7824350D01*
X11599776Y7727878D01*
X11599226Y7517884D01*
X11600104Y7513262D01*
X11600104Y7513257D01*
X11625363Y7380218D01*
X11638395Y7311575D01*
X11715870Y7116395D01*
X11718410Y7112416D01*
X11826316Y6943361D01*
X11826320Y6943356D01*
X11828854Y6939386D01*
X11973272Y6786936D01*
X11977102Y6784189D01*
X11977103Y6784188D01*
X12135430Y6670627D01*
X12143911Y6664544D01*
X12148192Y6662571D01*
X12148191Y6662571D01*
X12329315Y6579072D01*
X12334616Y6576628D01*
X12339183Y6575502D01*
X12339186Y6575501D01*
X12375224Y6566616D01*
X12538505Y6526359D01*
X12622927Y6522009D01*
X12743516Y6515794D01*
X12743521Y6515794D01*
X12748221Y6515552D01*
X12752882Y6516203D01*
X12752885Y6516203D01*
X12951530Y6543944D01*
X12951533Y6543945D01*
X12956197Y6544596D01*
X12965544Y6547787D01*
X13150469Y6610921D01*
X13150472Y6610922D01*
X13154929Y6612444D01*
X13337246Y6716646D01*
X13496569Y6853444D01*
X13499503Y6857139D01*
X13624219Y7014210D01*
X13624221Y7014213D01*
X13627150Y7017902D01*
X13724277Y7204084D01*
X13784446Y7405274D01*
X13805485Y7614212D01*
X13805500Y7620000D01*
X13785555Y7829045D01*
X13726441Y8030547D01*
X13710144Y8062191D01*
X13632447Y8213048D01*
X13630290Y8217236D01*
X13622316Y8227388D01*
X13503485Y8378666D01*
X13503483Y8378668D01*
X13500572Y8382374D01*
X13497016Y8385460D01*
X13497012Y8385464D01*
X13394102Y8474764D01*
X13341967Y8520005D01*
X13340160Y8521050D01*
X13304245Y8569586D01*
X13303711Y8630769D01*
X13339241Y8680582D01*
X13398129Y8700000D01*
X14549735Y8700000D01*
X14607926Y8681093D01*
X14643890Y8631593D01*
X14643890Y8570407D01*
X14607013Y8520252D01*
X14591870Y8509510D01*
X14517644Y8456858D01*
X14372430Y8305166D01*
X14258520Y8128751D01*
X14256762Y8124390D01*
X14256762Y8124389D01*
X14217045Y8025837D01*
X14180025Y7933979D01*
X14179124Y7929366D01*
X14179123Y7929362D01*
X14158616Y7824350D01*
X14139776Y7727878D01*
X14139226Y7517884D01*
X14140104Y7513262D01*
X14140104Y7513257D01*
X14165363Y7380218D01*
X14178395Y7311575D01*
X14255870Y7116395D01*
X14258410Y7112416D01*
X14366316Y6943361D01*
X14366320Y6943356D01*
X14368854Y6939386D01*
X14513272Y6786936D01*
X14517102Y6784189D01*
X14517103Y6784188D01*
X14675430Y6670627D01*
X14683911Y6664544D01*
X14688192Y6662571D01*
X14688191Y6662571D01*
X14869315Y6579072D01*
X14874616Y6576628D01*
X14879183Y6575502D01*
X14879186Y6575501D01*
X14915224Y6566616D01*
X15078505Y6526359D01*
X15162927Y6522009D01*
X15283516Y6515794D01*
X15283521Y6515794D01*
X15288221Y6515552D01*
X15292882Y6516203D01*
X15292885Y6516203D01*
X15491530Y6543944D01*
X15491533Y6543945D01*
X15496197Y6544596D01*
X15505544Y6547787D01*
X15690469Y6610921D01*
X15690472Y6610922D01*
X15694929Y6612444D01*
X15877246Y6716646D01*
X16036569Y6853444D01*
X16039503Y6857139D01*
X16164219Y7014210D01*
X16164221Y7014213D01*
X16167150Y7017902D01*
X16264277Y7204084D01*
X16324446Y7405274D01*
X16345485Y7614212D01*
X16345500Y7620000D01*
X16325555Y7829045D01*
X16266441Y8030547D01*
X16250144Y8062191D01*
X16172447Y8213048D01*
X16170290Y8217236D01*
X16162316Y8227388D01*
X16043485Y8378666D01*
X16043483Y8378668D01*
X16040572Y8382374D01*
X16037016Y8385460D01*
X16037012Y8385464D01*
X15934102Y8474764D01*
X15881967Y8520005D01*
X15880160Y8521050D01*
X15844245Y8569586D01*
X15843711Y8630769D01*
X15879241Y8680582D01*
X15938129Y8700000D01*
X17089735Y8700000D01*
X17147926Y8681093D01*
X17183890Y8631593D01*
X17183890Y8570407D01*
X17147013Y8520252D01*
X17131870Y8509510D01*
X17057644Y8456858D01*
X16912430Y8305166D01*
X16798520Y8128751D01*
X16796762Y8124390D01*
X16796762Y8124389D01*
X16757045Y8025837D01*
X16720025Y7933979D01*
X16719124Y7929366D01*
X16719123Y7929362D01*
X16698616Y7824350D01*
X16679776Y7727878D01*
X16679226Y7517884D01*
X16680104Y7513262D01*
X16680104Y7513257D01*
X16705363Y7380218D01*
X16718395Y7311575D01*
X16795870Y7116395D01*
X16798410Y7112416D01*
X16906316Y6943361D01*
X16906320Y6943356D01*
X16908854Y6939386D01*
X17053272Y6786936D01*
X17057102Y6784189D01*
X17057103Y6784188D01*
X17215430Y6670627D01*
X17223911Y6664544D01*
X17228192Y6662571D01*
X17228191Y6662571D01*
X17409315Y6579072D01*
X17414616Y6576628D01*
X17419183Y6575502D01*
X17419186Y6575501D01*
X17455224Y6566616D01*
X17618505Y6526359D01*
X17702927Y6522009D01*
X17823516Y6515794D01*
X17823521Y6515794D01*
X17828221Y6515552D01*
X17832882Y6516203D01*
X17832885Y6516203D01*
X18031530Y6543944D01*
X18031533Y6543945D01*
X18036197Y6544596D01*
X18045544Y6547787D01*
X18230469Y6610921D01*
X18230472Y6610922D01*
X18234929Y6612444D01*
X18417246Y6716646D01*
X18576569Y6853444D01*
X18579503Y6857139D01*
X18704219Y7014210D01*
X18704221Y7014213D01*
X18707150Y7017902D01*
X18804277Y7204084D01*
X18864446Y7405274D01*
X18885485Y7614212D01*
X18885500Y7620000D01*
X18865555Y7829045D01*
X18806441Y8030547D01*
X18790144Y8062191D01*
X18712447Y8213048D01*
X18710290Y8217236D01*
X18702316Y8227388D01*
X18583485Y8378666D01*
X18583483Y8378668D01*
X18580572Y8382374D01*
X18577016Y8385460D01*
X18577012Y8385464D01*
X18474102Y8474764D01*
X18421967Y8520005D01*
X18420160Y8521050D01*
X18384245Y8569586D01*
X18383711Y8630769D01*
X18419241Y8680582D01*
X18478129Y8700000D01*
X19543325Y8700000D01*
X19601516Y8681093D01*
X19637480Y8631593D01*
X19637480Y8570407D01*
X19608600Y8526568D01*
X19481830Y8415394D01*
X19350916Y8249330D01*
X19252457Y8062191D01*
X19251113Y8057862D01*
X19194658Y7876047D01*
X19189750Y7860242D01*
X19189216Y7855732D01*
X19189216Y7855731D01*
X19186239Y7830573D01*
X19164896Y7650247D01*
X19178726Y7439240D01*
X19179842Y7434847D01*
X19179842Y7434845D01*
X19209973Y7316206D01*
X19230778Y7234286D01*
X19319308Y7042250D01*
X19441351Y6869563D01*
X19592820Y6722008D01*
X19596595Y6719486D01*
X19596597Y6719484D01*
X19667327Y6672224D01*
X19768643Y6604527D01*
X19772810Y6602737D01*
X19772815Y6602734D01*
X19856883Y6566616D01*
X19962931Y6521054D01*
X20169177Y6474385D01*
X20294150Y6469475D01*
X20375941Y6466262D01*
X20375942Y6466262D01*
X20380474Y6466084D01*
X20589746Y6496427D01*
X20594045Y6497886D01*
X20594048Y6497887D01*
X20785683Y6562938D01*
X20789984Y6564398D01*
X20811823Y6576628D01*
X20966057Y6663004D01*
X20974482Y6667722D01*
X21030988Y6714717D01*
X21137062Y6802938D01*
X21138456Y6801262D01*
X21185513Y6825238D01*
X21245945Y6815667D01*
X21289210Y6772402D01*
X21300000Y6727457D01*
X21300000Y-6732612D01*
X21281093Y-6790803D01*
X21231593Y-6826767D01*
X21170407Y-6826767D01*
X21133799Y-6805310D01*
X21026754Y-6706358D01*
X21026753Y-6706357D01*
X21023424Y-6703280D01*
X20991056Y-6682857D01*
X20868956Y-6605818D01*
X20844586Y-6590442D01*
X20648180Y-6512084D01*
X20440783Y-6470830D01*
X20335062Y-6469446D01*
X20233880Y-6468121D01*
X20233875Y-6468121D01*
X20229341Y-6468062D01*
X20224866Y-6468831D01*
X20224865Y-6468831D01*
X20025404Y-6503105D01*
X20020935Y-6503873D01*
X19944566Y-6532047D01*
X19826807Y-6575490D01*
X19826804Y-6575491D01*
X19822544Y-6577063D01*
X19818641Y-6579385D01*
X19818639Y-6579386D01*
X19770212Y-6608197D01*
X19640814Y-6685181D01*
X19637399Y-6688176D01*
X19637396Y-6688178D01*
X19544588Y-6769569D01*
X19481830Y-6824606D01*
X19350916Y-6990670D01*
X19252457Y-7177809D01*
X19251113Y-7182138D01*
X19194658Y-7363953D01*
X19189750Y-7379758D01*
X19189216Y-7384268D01*
X19189216Y-7384269D01*
X19186239Y-7409427D01*
X19164896Y-7589753D01*
X19178726Y-7800760D01*
X19179842Y-7805153D01*
X19179842Y-7805155D01*
X19209973Y-7923794D01*
X19230778Y-8005714D01*
X19319308Y-8197750D01*
X19441351Y-8370437D01*
X19592820Y-8517992D01*
X19596598Y-8520516D01*
X19600123Y-8523371D01*
X19598818Y-8524983D01*
X19631731Y-8566720D01*
X19634142Y-8627858D01*
X19600157Y-8678737D01*
X19538855Y-8700000D01*
X18478146Y-8700000D01*
X18419955Y-8681093D01*
X18383991Y-8631593D01*
X18383991Y-8570407D01*
X18418018Y-8524253D01*
X18417246Y-8523354D01*
X18572990Y-8389629D01*
X18576569Y-8386556D01*
X18579503Y-8382861D01*
X18704219Y-8225790D01*
X18704221Y-8225787D01*
X18707150Y-8222098D01*
X18804277Y-8035916D01*
X18864446Y-7834726D01*
X18885485Y-7625788D01*
X18885500Y-7620000D01*
X18865555Y-7410955D01*
X18806441Y-7209453D01*
X18790144Y-7177809D01*
X18712447Y-7026952D01*
X18710290Y-7022764D01*
X18702316Y-7012612D01*
X18583485Y-6861334D01*
X18583483Y-6861332D01*
X18580572Y-6857626D01*
X18577016Y-6854540D01*
X18577012Y-6854536D01*
X18425527Y-6723084D01*
X18425526Y-6723083D01*
X18421967Y-6719995D01*
X18240198Y-6614839D01*
X18151147Y-6583915D01*
X18046270Y-6547495D01*
X18046264Y-6547494D01*
X18041825Y-6545952D01*
X17834003Y-6515820D01*
X17709289Y-6521592D01*
X17628942Y-6525311D01*
X17628941Y-6525311D01*
X17624234Y-6525529D01*
X17420084Y-6574729D01*
X17415796Y-6576679D01*
X17415795Y-6576679D01*
X17404499Y-6581815D01*
X17228922Y-6661646D01*
X17057644Y-6783142D01*
X16912430Y-6934834D01*
X16798520Y-7111249D01*
X16796762Y-7115610D01*
X16796762Y-7115611D01*
X16757045Y-7214163D01*
X16720025Y-7306021D01*
X16719124Y-7310634D01*
X16719123Y-7310638D01*
X16698616Y-7415650D01*
X16679776Y-7512122D01*
X16679226Y-7722116D01*
X16680104Y-7726738D01*
X16680104Y-7726743D01*
X16705363Y-7859782D01*
X16718395Y-7928425D01*
X16795870Y-8123605D01*
X16798410Y-8127584D01*
X16906316Y-8296639D01*
X16906320Y-8296644D01*
X16908854Y-8300614D01*
X17053272Y-8453064D01*
X17147369Y-8520556D01*
X17183632Y-8569833D01*
X17184006Y-8631017D01*
X17148345Y-8680736D01*
X17089666Y-8700000D01*
X15938146Y-8700000D01*
X15879955Y-8681093D01*
X15843991Y-8631593D01*
X15843991Y-8570407D01*
X15878018Y-8524253D01*
X15877246Y-8523354D01*
X16032990Y-8389629D01*
X16036569Y-8386556D01*
X16039503Y-8382861D01*
X16164219Y-8225790D01*
X16164221Y-8225787D01*
X16167150Y-8222098D01*
X16264277Y-8035916D01*
X16324446Y-7834726D01*
X16345485Y-7625788D01*
X16345500Y-7620000D01*
X16325555Y-7410955D01*
X16266441Y-7209453D01*
X16250144Y-7177809D01*
X16172447Y-7026952D01*
X16170290Y-7022764D01*
X16162316Y-7012612D01*
X16043485Y-6861334D01*
X16043483Y-6861332D01*
X16040572Y-6857626D01*
X16037016Y-6854540D01*
X16037012Y-6854536D01*
X15885527Y-6723084D01*
X15885526Y-6723083D01*
X15881967Y-6719995D01*
X15826970Y-6688178D01*
X15807200Y-6676741D01*
X15766298Y-6631236D01*
X15759955Y-6570381D01*
X15786770Y-6521044D01*
X18206882Y-4100932D01*
X18216351Y-4093366D01*
X18216289Y-4093293D01*
X18221661Y-4088721D01*
X18227625Y-4084958D01*
X18261642Y-4046441D01*
X18265842Y-4041972D01*
X18278595Y-4029219D01*
X18280707Y-4026401D01*
X18280714Y-4026393D01*
X18285987Y-4019357D01*
X18291003Y-4013196D01*
X18322501Y-3977531D01*
X18325495Y-3971153D01*
X18325498Y-3971149D01*
X18326858Y-3968251D01*
X18337252Y-3950953D01*
X18339169Y-3948395D01*
X18343398Y-3942753D01*
X18360105Y-3898188D01*
X18363190Y-3890867D01*
X18370991Y-3874251D01*
X18383412Y-3847794D01*
X18384989Y-3837664D01*
X18390108Y-3818152D01*
X18391233Y-3815152D01*
X18391233Y-3815150D01*
X18393708Y-3808549D01*
X18397235Y-3761086D01*
X18398141Y-3753194D01*
X18400500Y-3738045D01*
X18400500Y-3720822D01*
X18400772Y-3713486D01*
X18400983Y-3710651D01*
X18404329Y-3665618D01*
X18402681Y-3657898D01*
X18400500Y-3637230D01*
X18400500Y-566504D01*
X18401846Y-554459D01*
X18401750Y-554451D01*
X18402316Y-547419D01*
X18403872Y-540541D01*
X18400690Y-489252D01*
X18400500Y-483122D01*
X18400500Y-465086D01*
X18398754Y-452892D01*
X18397944Y-444990D01*
X18395434Y-404529D01*
X18395434Y-404527D01*
X18394997Y-397491D01*
X18391518Y-387854D01*
X18386635Y-368270D01*
X18385182Y-358123D01*
X18380090Y-346923D01*
X18365481Y-314792D01*
X18362485Y-307432D01*
X18348726Y-269318D01*
X18348725Y-269316D01*
X18346330Y-262682D01*
X18342169Y-256986D01*
X18342166Y-256981D01*
X18340286Y-254408D01*
X18330103Y-236982D01*
X18328780Y-234073D01*
X18328779Y-234072D01*
X18325860Y-227651D01*
X18321258Y-222310D01*
X18321256Y-222307D01*
X18294789Y-191590D01*
X18289850Y-185370D01*
X18283064Y-176081D01*
X18283060Y-176077D01*
X18280809Y-172995D01*
X18268629Y-160815D01*
X18263634Y-155435D01*
X18236906Y-124416D01*
X18232303Y-119074D01*
X18225679Y-114780D01*
X18209526Y-101712D01*
X16900932Y1206882D01*
X16893366Y1216351D01*
X16893293Y1216289D01*
X16888721Y1221661D01*
X16884958Y1227625D01*
X16846441Y1261642D01*
X16841972Y1265842D01*
X16829219Y1278595D01*
X16826401Y1280707D01*
X16826393Y1280714D01*
X16819357Y1285987D01*
X16813196Y1291003D01*
X16805955Y1297398D01*
X16777531Y1322501D01*
X16771153Y1325495D01*
X16771149Y1325498D01*
X16768251Y1326858D01*
X16750953Y1337252D01*
X16748395Y1339169D01*
X16742753Y1343398D01*
X16709559Y1355842D01*
X16698188Y1360105D01*
X16690867Y1363190D01*
X16674178Y1371025D01*
X16647794Y1383412D01*
X16637664Y1384989D01*
X16618152Y1390108D01*
X16615152Y1391233D01*
X16615150Y1391233D01*
X16608549Y1393708D01*
X16578253Y1395959D01*
X16561086Y1397235D01*
X16553197Y1398141D01*
X16538045Y1400500D01*
X16520822Y1400500D01*
X16513486Y1400772D01*
X16510651Y1400983D01*
X16465618Y1404329D01*
X16458717Y1402856D01*
X16457895Y1402681D01*
X16437230Y1400500D01*
X12696760Y1400500D01*
X12638569Y1419407D01*
X12606855Y1458049D01*
X12597409Y1478540D01*
X12583905Y1497127D01*
X12563153Y1525690D01*
X12563148Y1525697D01*
X12561445Y1528040D01*
X12521552Y1571196D01*
X12514752Y1575004D01*
X12514751Y1575005D01*
X12489183Y1589323D01*
X12436444Y1618858D01*
X12378253Y1637765D01*
X12374409Y1638374D01*
X12374404Y1638375D01*
X12304848Y1649391D01*
X12304843Y1649391D01*
X12301000Y1650000D01*
X10349000Y1650000D01*
X10290809Y1668907D01*
X10254845Y1718407D01*
X10250000Y1749000D01*
X10250000Y2401000D01*
X10246923Y2440105D01*
X10242078Y2470698D01*
X10238247Y2489955D01*
X10197409Y2578540D01*
X10166159Y2621552D01*
X10163153Y2625690D01*
X10163148Y2625697D01*
X10161445Y2628040D01*
X10121552Y2671196D01*
X10114752Y2675004D01*
X10114751Y2675005D01*
X10089183Y2689323D01*
X10036444Y2718858D01*
X9978253Y2737765D01*
X9974409Y2738374D01*
X9974404Y2738375D01*
X9904848Y2749391D01*
X9904843Y2749391D01*
X9901000Y2750000D01*
X7999000Y2750000D01*
X7973730Y2748012D01*
X7961826Y2747075D01*
X7961825Y2747075D01*
X7959895Y2746923D01*
X7929302Y2742078D01*
X7928334Y2741885D01*
X7928326Y2741884D01*
X7925340Y2741290D01*
X7910045Y2738247D01*
X7821460Y2697409D01*
X7817524Y2694549D01*
X7774310Y2663153D01*
X7774303Y2663148D01*
X7771960Y2661445D01*
X7728804Y2621552D01*
X7681142Y2536444D01*
X7662235Y2478253D01*
X7661626Y2474409D01*
X7661625Y2474404D01*
X7654972Y2432391D01*
X7650000Y2401000D01*
X7650000Y1445533D01*
X7651707Y1416365D01*
X7654402Y1393424D01*
X7656143Y1388381D01*
X7656144Y1388378D01*
X7687559Y1297398D01*
X7687561Y1297394D01*
X7689305Y1292343D01*
X7721182Y1240118D01*
X7771874Y1180553D01*
X7774828Y1178021D01*
X7774831Y1178018D01*
X8688755Y394655D01*
X9459496Y-265980D01*
X9467224Y-272340D01*
X9467599Y-272636D01*
X9470017Y-274547D01*
X9470022Y-274550D01*
X9473461Y-277267D01*
X9551178Y-318858D01*
X9609369Y-337765D01*
X9613213Y-338374D01*
X9613218Y-338375D01*
X9682774Y-349391D01*
X9682779Y-349391D01*
X9686622Y-350000D01*
X10901000Y-350000D01*
X10926270Y-348012D01*
X10938174Y-347075D01*
X10938175Y-347075D01*
X10940105Y-346923D01*
X10970698Y-342078D01*
X10971666Y-341885D01*
X10971674Y-341884D01*
X10974660Y-341290D01*
X10989955Y-338247D01*
X11078540Y-297409D01*
X11112637Y-272636D01*
X11125690Y-263153D01*
X11125697Y-263148D01*
X11128040Y-261445D01*
X11132870Y-256981D01*
X11165472Y-226843D01*
X11171196Y-221552D01*
X11218858Y-136444D01*
X11220360Y-131820D01*
X11220363Y-131814D01*
X11224718Y-118409D01*
X11260681Y-68908D01*
X11318873Y-50000D01*
X12301000Y-50000D01*
X12326270Y-48012D01*
X12338174Y-47075D01*
X12338175Y-47075D01*
X12340105Y-46923D01*
X12370698Y-42078D01*
X12371666Y-41885D01*
X12371674Y-41884D01*
X12374660Y-41290D01*
X12389955Y-38247D01*
X12478540Y2591D01*
X12497127Y16095D01*
X12525690Y36847D01*
X12525697Y36852D01*
X12528040Y38555D01*
X12571196Y78448D01*
X12618858Y163556D01*
X12637765Y221747D01*
X12638375Y225596D01*
X12649391Y295152D01*
X12649391Y295157D01*
X12650000Y299000D01*
X12650000Y302892D01*
X12650305Y306769D01*
X12651994Y306636D01*
X12668907Y358691D01*
X12718407Y394655D01*
X12749000Y399500D01*
X16251678Y399500D01*
X16309869Y380593D01*
X16321682Y370504D01*
X17370504Y-678318D01*
X17398281Y-732835D01*
X17399500Y-748322D01*
X17399500Y-3451678D01*
X17380593Y-3509869D01*
X17370504Y-3521682D01*
X14973057Y-5919129D01*
X14967313Y-5923748D01*
X14967651Y-5924140D01*
X14947108Y-5941841D01*
X14935313Y-5950569D01*
X14918343Y-5961276D01*
X14918341Y-5961278D01*
X14912375Y-5965042D01*
X14907703Y-5970332D01*
X14891984Y-5988130D01*
X14882412Y-5997587D01*
X14859074Y-6017697D01*
X14855239Y-6023614D01*
X14855238Y-6023615D01*
X14844323Y-6040455D01*
X14835452Y-6052141D01*
X14817499Y-6072469D01*
X14814501Y-6078855D01*
X14814500Y-6078856D01*
X14804413Y-6100341D01*
X14797875Y-6112114D01*
X14781118Y-6137967D01*
X14779098Y-6144723D01*
X14773348Y-6163948D01*
X14768114Y-6177655D01*
X14759586Y-6195820D01*
X14756588Y-6202206D01*
X14755503Y-6209176D01*
X14751850Y-6232634D01*
X14748879Y-6245766D01*
X14740052Y-6275282D01*
X14740009Y-6282332D01*
X14739852Y-6307983D01*
X14739755Y-6310317D01*
X14739500Y-6311955D01*
X14739500Y-6365422D01*
X14739498Y-6366025D01*
X14739177Y-6418604D01*
X14739446Y-6419543D01*
X14739500Y-6420343D01*
X14739500Y-6575805D01*
X14720593Y-6633996D01*
X14690761Y-6660810D01*
X14688922Y-6661646D01*
X14685086Y-6664367D01*
X14591870Y-6730490D01*
X14517644Y-6783142D01*
X14372430Y-6934834D01*
X14258520Y-7111249D01*
X14256762Y-7115610D01*
X14256762Y-7115611D01*
X14217045Y-7214163D01*
X14180025Y-7306021D01*
X14179124Y-7310634D01*
X14179123Y-7310638D01*
X14158616Y-7415650D01*
X14139776Y-7512122D01*
X14139226Y-7722116D01*
X14140104Y-7726738D01*
X14140104Y-7726743D01*
X14165363Y-7859782D01*
X14178395Y-7928425D01*
X14255870Y-8123605D01*
X14258410Y-8127584D01*
X14366316Y-8296639D01*
X14366320Y-8296644D01*
X14368854Y-8300614D01*
X14513272Y-8453064D01*
X14607369Y-8520556D01*
X14643632Y-8569833D01*
X14644006Y-8631017D01*
X14608345Y-8680736D01*
X14549666Y-8700000D01*
X13398146Y-8700000D01*
X13339955Y-8681093D01*
X13303991Y-8631593D01*
X13303991Y-8570407D01*
X13338018Y-8524253D01*
X13337246Y-8523354D01*
X13492990Y-8389629D01*
X13496569Y-8386556D01*
X13499503Y-8382861D01*
X13624219Y-8225790D01*
X13624221Y-8225787D01*
X13627150Y-8222098D01*
X13724277Y-8035916D01*
X13784446Y-7834726D01*
X13805485Y-7625788D01*
X13805500Y-7620000D01*
X13785555Y-7410955D01*
X13726441Y-7209453D01*
X13710144Y-7177809D01*
X13632447Y-7026952D01*
X13630290Y-7022764D01*
X13622316Y-7012612D01*
X13503485Y-6861334D01*
X13503483Y-6861332D01*
X13500572Y-6857626D01*
X13497016Y-6854540D01*
X13497012Y-6854536D01*
X13345527Y-6723084D01*
X13345526Y-6723083D01*
X13341967Y-6719995D01*
X13160198Y-6614839D01*
X13071147Y-6583915D01*
X12966270Y-6547495D01*
X12966264Y-6547494D01*
X12961825Y-6545952D01*
X12754003Y-6515820D01*
X12629289Y-6521592D01*
X12548942Y-6525311D01*
X12548941Y-6525311D01*
X12544234Y-6525529D01*
X12340084Y-6574729D01*
X12335796Y-6576679D01*
X12335795Y-6576679D01*
X12324499Y-6581815D01*
X12148922Y-6661646D01*
X11977644Y-6783142D01*
X11832430Y-6934834D01*
X11718520Y-7111249D01*
X11716762Y-7115610D01*
X11716762Y-7115611D01*
X11677045Y-7214163D01*
X11640025Y-7306021D01*
X11639124Y-7310634D01*
X11639123Y-7310638D01*
X11618616Y-7415650D01*
X11599776Y-7512122D01*
X11599226Y-7722116D01*
X11600104Y-7726738D01*
X11600104Y-7726743D01*
X11625363Y-7859782D01*
X11638395Y-7928425D01*
X11715870Y-8123605D01*
X11718410Y-8127584D01*
X11826316Y-8296639D01*
X11826320Y-8296644D01*
X11828854Y-8300614D01*
X11973272Y-8453064D01*
X12067369Y-8520556D01*
X12103632Y-8569833D01*
X12104006Y-8631017D01*
X12068345Y-8680736D01*
X12009666Y-8700000D01*
X10858146Y-8700000D01*
X10799955Y-8681093D01*
X10763991Y-8631593D01*
X10763991Y-8570407D01*
X10798018Y-8524253D01*
X10797246Y-8523354D01*
X10952990Y-8389629D01*
X10956569Y-8386556D01*
X10959503Y-8382861D01*
X11084219Y-8225790D01*
X11084221Y-8225787D01*
X11087150Y-8222098D01*
X11184277Y-8035916D01*
X11244446Y-7834726D01*
X11265485Y-7625788D01*
X11265500Y-7620000D01*
X11245555Y-7410955D01*
X11186441Y-7209453D01*
X11170144Y-7177809D01*
X11092447Y-7026952D01*
X11090290Y-7022764D01*
X11082316Y-7012612D01*
X10963485Y-6861334D01*
X10963483Y-6861332D01*
X10960572Y-6857626D01*
X10957016Y-6854540D01*
X10957012Y-6854536D01*
X10805527Y-6723084D01*
X10805526Y-6723083D01*
X10801967Y-6719995D01*
X10620198Y-6614839D01*
X10531147Y-6583915D01*
X10426270Y-6547495D01*
X10426264Y-6547494D01*
X10421825Y-6545952D01*
X10214003Y-6515820D01*
X10089289Y-6521592D01*
X10008942Y-6525311D01*
X10008941Y-6525311D01*
X10004234Y-6525529D01*
X9800084Y-6574729D01*
X9795796Y-6576679D01*
X9795795Y-6576679D01*
X9784499Y-6581815D01*
X9608922Y-6661646D01*
X9437644Y-6783142D01*
X9292430Y-6934834D01*
X9178520Y-7111249D01*
X9176762Y-7115610D01*
X9176762Y-7115611D01*
X9137045Y-7214163D01*
X9100025Y-7306021D01*
X9099124Y-7310634D01*
X9099123Y-7310638D01*
X9078616Y-7415650D01*
X9059776Y-7512122D01*
X9059226Y-7722116D01*
X9060104Y-7726738D01*
X9060104Y-7726743D01*
X9085363Y-7859782D01*
X9098395Y-7928425D01*
X9175870Y-8123605D01*
X9178410Y-8127584D01*
X9286316Y-8296639D01*
X9286320Y-8296644D01*
X9288854Y-8300614D01*
X9433272Y-8453064D01*
X9527369Y-8520556D01*
X9563632Y-8569833D01*
X9564006Y-8631017D01*
X9528345Y-8680736D01*
X9469666Y-8700000D01*
X8318146Y-8700000D01*
X8259955Y-8681093D01*
X8223991Y-8631593D01*
X8223991Y-8570407D01*
X8258018Y-8524253D01*
X8257246Y-8523354D01*
X8412990Y-8389629D01*
X8416569Y-8386556D01*
X8419503Y-8382861D01*
X8544219Y-8225790D01*
X8544221Y-8225787D01*
X8547150Y-8222098D01*
X8644277Y-8035916D01*
X8704446Y-7834726D01*
X8725485Y-7625788D01*
X8725500Y-7620000D01*
X8705555Y-7410955D01*
X8646441Y-7209453D01*
X8630144Y-7177809D01*
X8552447Y-7026952D01*
X8550290Y-7022764D01*
X8542316Y-7012612D01*
X8423485Y-6861334D01*
X8423483Y-6861332D01*
X8420572Y-6857626D01*
X8417016Y-6854540D01*
X8417012Y-6854536D01*
X8265527Y-6723084D01*
X8265526Y-6723083D01*
X8261967Y-6719995D01*
X8121355Y-6638649D01*
X8084276Y-6617198D01*
X8084274Y-6617197D01*
X8080198Y-6614839D01*
X8076191Y-6613448D01*
X8031260Y-6572126D01*
X8019170Y-6512147D01*
X8047509Y-6453528D01*
X11396541Y-3104496D01*
X11451058Y-3076719D01*
X11466545Y-3075500D01*
X11731121Y-3075500D01*
X11785979Y-3092089D01*
X11882377Y-3156257D01*
X11889104Y-3158359D01*
X11889107Y-3158360D01*
X12012448Y-3196894D01*
X12012449Y-3196894D01*
X12019180Y-3198997D01*
X12090831Y-3200311D01*
X12155427Y-3201495D01*
X12155429Y-3201495D01*
X12162481Y-3201624D01*
X12169284Y-3199769D01*
X12169286Y-3199769D01*
X12216065Y-3187015D01*
X12300758Y-3163925D01*
X12422897Y-3088931D01*
X12435054Y-3075500D01*
X12514346Y-2987900D01*
X12514346Y-2987899D01*
X12519078Y-2982672D01*
X12581570Y-2853689D01*
X12583043Y-2844938D01*
X12604715Y-2716120D01*
X12604715Y-2716117D01*
X12605349Y-2712350D01*
X12605500Y-2700000D01*
X12585182Y-2558123D01*
X12581983Y-2551086D01*
X12528780Y-2434073D01*
X12528780Y-2434072D01*
X12525860Y-2427651D01*
X12432303Y-2319074D01*
X12312033Y-2241118D01*
X12305275Y-2239097D01*
X12305273Y-2239096D01*
X12181479Y-2202074D01*
X12174718Y-2200052D01*
X12088694Y-2199527D01*
X12038448Y-2199220D01*
X12031396Y-2199177D01*
X12024620Y-2201114D01*
X12024617Y-2201114D01*
X11900369Y-2236624D01*
X11900367Y-2236625D01*
X11893589Y-2238562D01*
X11887627Y-2242323D01*
X11887624Y-2242325D01*
X11781591Y-2309227D01*
X11728763Y-2324500D01*
X11319724Y-2324500D01*
X11298888Y-2322282D01*
X11297284Y-2321937D01*
X11287925Y-2319922D01*
X11255042Y-2323814D01*
X11245622Y-2324369D01*
X11244037Y-2324500D01*
X11239961Y-2324500D01*
X11235939Y-2325169D01*
X11235933Y-2325170D01*
X11219415Y-2327920D01*
X11214795Y-2328578D01*
X11171971Y-2333646D01*
X11171970Y-2333646D01*
X11163844Y-2334608D01*
X11156941Y-2337923D01*
X11154297Y-2338759D01*
X11146749Y-2340015D01*
X11101608Y-2364372D01*
X11097458Y-2366487D01*
X11051211Y-2388694D01*
X11045302Y-2393660D01*
X11043799Y-2395163D01*
X11043643Y-2395306D01*
X11042519Y-2396254D01*
X11036789Y-2399346D01*
X11022939Y-2414329D01*
X11003558Y-2435295D01*
X11000864Y-2438098D01*
X7389637Y-6049326D01*
X7373341Y-6062486D01*
X7363919Y-6068570D01*
X7358850Y-6075000D01*
X7343427Y-6094564D01*
X7337117Y-6101666D01*
X7336119Y-6102844D01*
X7333241Y-6105722D01*
X7330873Y-6109036D01*
X7330872Y-6109037D01*
X7321123Y-6122680D01*
X7318339Y-6126388D01*
X7286565Y-6166693D01*
X7284030Y-6173911D01*
X7282746Y-6176383D01*
X7278301Y-6182604D01*
X7272439Y-6202206D01*
X7263605Y-6231742D01*
X7262164Y-6236175D01*
X7247229Y-6278705D01*
X7245166Y-6284581D01*
X7244500Y-6292271D01*
X7244500Y-6294387D01*
X7244492Y-6294572D01*
X7244365Y-6296076D01*
X7242500Y-6302311D01*
X7242821Y-6310485D01*
X7242821Y-6310487D01*
X7244424Y-6351274D01*
X7244500Y-6355161D01*
X7244500Y-6518075D01*
X7225593Y-6576266D01*
X7186476Y-6608197D01*
X7068922Y-6661646D01*
X6897644Y-6783142D01*
X6752430Y-6934834D01*
X6638520Y-7111249D01*
X6636762Y-7115610D01*
X6636762Y-7115611D01*
X6597045Y-7214163D01*
X6560025Y-7306021D01*
X6559124Y-7310634D01*
X6559123Y-7310638D01*
X6538616Y-7415650D01*
X6519776Y-7512122D01*
X6519226Y-7722116D01*
X6520104Y-7726738D01*
X6520104Y-7726743D01*
X6545363Y-7859782D01*
X6558395Y-7928425D01*
X6635870Y-8123605D01*
X6638410Y-8127584D01*
X6746316Y-8296639D01*
X6746320Y-8296644D01*
X6748854Y-8300614D01*
X6893272Y-8453064D01*
X6987369Y-8520556D01*
X7023632Y-8569833D01*
X7024006Y-8631017D01*
X6988345Y-8680736D01*
X6929666Y-8700000D01*
X5778146Y-8700000D01*
X5719955Y-8681093D01*
X5683991Y-8631593D01*
X5683991Y-8570407D01*
X5718018Y-8524253D01*
X5717246Y-8523354D01*
X5872990Y-8389629D01*
X5876569Y-8386556D01*
X5879503Y-8382861D01*
X6004219Y-8225790D01*
X6004221Y-8225787D01*
X6007150Y-8222098D01*
X6104277Y-8035916D01*
X6164446Y-7834726D01*
X6185485Y-7625788D01*
X6185500Y-7620000D01*
X6165555Y-7410955D01*
X6106441Y-7209453D01*
X6090144Y-7177809D01*
X6012447Y-7026952D01*
X6010290Y-7022764D01*
X6002316Y-7012612D01*
X5883485Y-6861334D01*
X5883483Y-6861332D01*
X5880572Y-6857626D01*
X5877016Y-6854540D01*
X5877012Y-6854536D01*
X5725527Y-6723084D01*
X5725526Y-6723083D01*
X5721967Y-6719995D01*
X5540198Y-6614839D01*
X5451147Y-6583915D01*
X5346270Y-6547495D01*
X5346264Y-6547494D01*
X5341825Y-6545952D01*
X5134003Y-6515820D01*
X5009289Y-6521592D01*
X4928942Y-6525311D01*
X4928941Y-6525311D01*
X4924234Y-6525529D01*
X4720084Y-6574729D01*
X4715796Y-6576679D01*
X4715795Y-6576679D01*
X4704499Y-6581815D01*
X4528922Y-6661646D01*
X4357644Y-6783142D01*
X4212430Y-6934834D01*
X4098520Y-7111249D01*
X4096762Y-7115610D01*
X4096762Y-7115611D01*
X4057045Y-7214163D01*
X4020025Y-7306021D01*
X4019124Y-7310634D01*
X4019123Y-7310638D01*
X3998616Y-7415650D01*
X3979776Y-7512122D01*
X3979226Y-7722116D01*
X3980104Y-7726738D01*
X3980104Y-7726743D01*
X4005363Y-7859782D01*
X4018395Y-7928425D01*
X4095870Y-8123605D01*
X4098410Y-8127584D01*
X4206316Y-8296639D01*
X4206320Y-8296644D01*
X4208854Y-8300614D01*
X4353272Y-8453064D01*
X4447369Y-8520556D01*
X4483632Y-8569833D01*
X4484006Y-8631017D01*
X4448345Y-8680736D01*
X4389666Y-8700000D01*
X3238146Y-8700000D01*
X3179955Y-8681093D01*
X3143991Y-8631593D01*
X3143991Y-8570407D01*
X3178018Y-8524253D01*
X3177246Y-8523354D01*
X3332990Y-8389629D01*
X3336569Y-8386556D01*
X3339503Y-8382861D01*
X3464219Y-8225790D01*
X3464221Y-8225787D01*
X3467150Y-8222098D01*
X3564277Y-8035916D01*
X3624446Y-7834726D01*
X3645485Y-7625788D01*
X3645500Y-7620000D01*
X3625555Y-7410955D01*
X3566441Y-7209453D01*
X3550144Y-7177809D01*
X3472447Y-7026952D01*
X3470290Y-7022764D01*
X3462316Y-7012612D01*
X3343485Y-6861334D01*
X3343483Y-6861332D01*
X3340572Y-6857626D01*
X3337016Y-6854540D01*
X3337012Y-6854536D01*
X3185527Y-6723084D01*
X3185526Y-6723083D01*
X3181967Y-6719995D01*
X3000198Y-6614839D01*
X2911147Y-6583915D01*
X2806270Y-6547495D01*
X2806264Y-6547494D01*
X2801825Y-6545952D01*
X2594003Y-6515820D01*
X2469289Y-6521592D01*
X2388942Y-6525311D01*
X2388941Y-6525311D01*
X2384234Y-6525529D01*
X2180084Y-6574729D01*
X2175796Y-6576679D01*
X2175795Y-6576679D01*
X2164499Y-6581815D01*
X1988922Y-6661646D01*
X1817644Y-6783142D01*
X1672430Y-6934834D01*
X1558520Y-7111249D01*
X1556762Y-7115610D01*
X1556762Y-7115611D01*
X1517045Y-7214163D01*
X1480025Y-7306021D01*
X1479124Y-7310634D01*
X1479123Y-7310638D01*
X1458616Y-7415650D01*
X1439776Y-7512122D01*
X1439226Y-7722116D01*
X1440104Y-7726738D01*
X1440104Y-7726743D01*
X1465363Y-7859782D01*
X1478395Y-7928425D01*
X1555870Y-8123605D01*
X1558410Y-8127584D01*
X1666316Y-8296639D01*
X1666320Y-8296644D01*
X1668854Y-8300614D01*
X1813272Y-8453064D01*
X1907369Y-8520556D01*
X1943632Y-8569833D01*
X1944006Y-8631017D01*
X1908345Y-8680736D01*
X1849666Y-8700000D01*
X698146Y-8700000D01*
X639955Y-8681093D01*
X603991Y-8631593D01*
X603991Y-8570407D01*
X638018Y-8524253D01*
X637246Y-8523354D01*
X792990Y-8389629D01*
X796569Y-8386556D01*
X799503Y-8382861D01*
X924219Y-8225790D01*
X924221Y-8225787D01*
X927150Y-8222098D01*
X1024277Y-8035916D01*
X1084446Y-7834726D01*
X1105485Y-7625788D01*
X1105500Y-7620000D01*
X1085555Y-7410955D01*
X1026441Y-7209453D01*
X1010144Y-7177809D01*
X932447Y-7026952D01*
X930290Y-7022764D01*
X922316Y-7012612D01*
X803485Y-6861334D01*
X803483Y-6861332D01*
X800572Y-6857626D01*
X797016Y-6854540D01*
X797012Y-6854536D01*
X645527Y-6723084D01*
X645526Y-6723083D01*
X641967Y-6719995D01*
X460198Y-6614839D01*
X371147Y-6583915D01*
X266270Y-6547495D01*
X266264Y-6547494D01*
X261825Y-6545952D01*
X54003Y-6515820D01*
X-70711Y-6521592D01*
X-151058Y-6525311D01*
X-151059Y-6525311D01*
X-155766Y-6525529D01*
X-359916Y-6574729D01*
X-364204Y-6576679D01*
X-364205Y-6576679D01*
X-375501Y-6581815D01*
X-551078Y-6661646D01*
X-722356Y-6783142D01*
X-867570Y-6934834D01*
X-981480Y-7111249D01*
X-983238Y-7115610D01*
X-983238Y-7115611D01*
X-1022955Y-7214163D01*
X-1059975Y-7306021D01*
X-1060876Y-7310634D01*
X-1060877Y-7310638D01*
X-1081384Y-7415650D01*
X-1100224Y-7512122D01*
X-1100774Y-7722116D01*
X-1099896Y-7726738D01*
X-1099896Y-7726743D01*
X-1074637Y-7859782D01*
X-1061605Y-7928425D01*
X-984130Y-8123605D01*
X-981590Y-8127584D01*
X-873684Y-8296639D01*
X-873680Y-8296644D01*
X-871146Y-8300614D01*
X-726728Y-8453064D01*
X-632631Y-8520556D01*
X-596368Y-8569833D01*
X-595994Y-8631017D01*
X-631655Y-8680736D01*
X-690334Y-8700000D01*
X-1841854Y-8700000D01*
X-1900045Y-8681093D01*
X-1936009Y-8631593D01*
X-1936009Y-8570407D01*
X-1901982Y-8524253D01*
X-1902754Y-8523354D01*
X-1747010Y-8389629D01*
X-1743431Y-8386556D01*
X-1740497Y-8382861D01*
X-1615781Y-8225790D01*
X-1615779Y-8225787D01*
X-1612850Y-8222098D01*
X-1515723Y-8035916D01*
X-1455554Y-7834726D01*
X-1434515Y-7625788D01*
X-1434500Y-7620000D01*
X-1454445Y-7410955D01*
X-1513559Y-7209453D01*
X-1529856Y-7177809D01*
X-1607553Y-7026952D01*
X-1609710Y-7022764D01*
X-1617684Y-7012612D01*
X-1736515Y-6861334D01*
X-1736517Y-6861332D01*
X-1739428Y-6857626D01*
X-1742984Y-6854540D01*
X-1742988Y-6854536D01*
X-1894473Y-6723084D01*
X-1894474Y-6723083D01*
X-1898033Y-6719995D01*
X-2079802Y-6614839D01*
X-2168853Y-6583915D01*
X-2273730Y-6547495D01*
X-2273736Y-6547494D01*
X-2278175Y-6545952D01*
X-2485997Y-6515820D01*
X-2610711Y-6521592D01*
X-2691058Y-6525311D01*
X-2691059Y-6525311D01*
X-2695766Y-6525529D01*
X-2899916Y-6574729D01*
X-2904204Y-6576679D01*
X-2904205Y-6576679D01*
X-2915501Y-6581815D01*
X-3091078Y-6661646D01*
X-3262356Y-6783142D01*
X-3407570Y-6934834D01*
X-3521480Y-7111249D01*
X-3523238Y-7115610D01*
X-3523238Y-7115611D01*
X-3562955Y-7214163D01*
X-3599975Y-7306021D01*
X-3600876Y-7310634D01*
X-3600877Y-7310638D01*
X-3621384Y-7415650D01*
X-3640224Y-7512122D01*
X-3640774Y-7722116D01*
X-3639896Y-7726738D01*
X-3639896Y-7726743D01*
X-3614637Y-7859782D01*
X-3601605Y-7928425D01*
X-3524130Y-8123605D01*
X-3521590Y-8127584D01*
X-3413684Y-8296639D01*
X-3413680Y-8296644D01*
X-3411146Y-8300614D01*
X-3266728Y-8453064D01*
X-3172631Y-8520556D01*
X-3136368Y-8569833D01*
X-3135994Y-8631017D01*
X-3171655Y-8680736D01*
X-3230334Y-8700000D01*
X-4381854Y-8700000D01*
X-4440045Y-8681093D01*
X-4476009Y-8631593D01*
X-4476009Y-8570407D01*
X-4441982Y-8524253D01*
X-4442754Y-8523354D01*
X-4287010Y-8389629D01*
X-4283431Y-8386556D01*
X-4280497Y-8382861D01*
X-4155781Y-8225790D01*
X-4155779Y-8225787D01*
X-4152850Y-8222098D01*
X-4055723Y-8035916D01*
X-3995554Y-7834726D01*
X-3974515Y-7625788D01*
X-3974500Y-7620000D01*
X-3994445Y-7410955D01*
X-4053559Y-7209453D01*
X-4069856Y-7177809D01*
X-4147553Y-7026952D01*
X-4149710Y-7022764D01*
X-4157684Y-7012612D01*
X-4276515Y-6861334D01*
X-4276517Y-6861332D01*
X-4279428Y-6857626D01*
X-4282984Y-6854540D01*
X-4282988Y-6854536D01*
X-4434473Y-6723084D01*
X-4434474Y-6723083D01*
X-4438033Y-6719995D01*
X-4619802Y-6614839D01*
X-4708853Y-6583915D01*
X-4813730Y-6547495D01*
X-4813736Y-6547494D01*
X-4818175Y-6545952D01*
X-5025997Y-6515820D01*
X-5150711Y-6521592D01*
X-5231058Y-6525311D01*
X-5231059Y-6525311D01*
X-5235766Y-6525529D01*
X-5439916Y-6574729D01*
X-5444204Y-6576679D01*
X-5444205Y-6576679D01*
X-5455501Y-6581815D01*
X-5631078Y-6661646D01*
X-5802356Y-6783142D01*
X-5947570Y-6934834D01*
X-6061480Y-7111249D01*
X-6063238Y-7115610D01*
X-6063238Y-7115611D01*
X-6102955Y-7214163D01*
X-6139975Y-7306021D01*
X-6140876Y-7310634D01*
X-6140877Y-7310638D01*
X-6161384Y-7415650D01*
X-6180224Y-7512122D01*
X-6180774Y-7722116D01*
X-6179896Y-7726738D01*
X-6179896Y-7726743D01*
X-6154637Y-7859782D01*
X-6141605Y-7928425D01*
X-6064130Y-8123605D01*
X-6061590Y-8127584D01*
X-5953684Y-8296639D01*
X-5953680Y-8296644D01*
X-5951146Y-8300614D01*
X-5806728Y-8453064D01*
X-5712631Y-8520556D01*
X-5676368Y-8569833D01*
X-5675994Y-8631017D01*
X-5711655Y-8680736D01*
X-5770334Y-8700000D01*
X-6921854Y-8700000D01*
X-6980045Y-8681093D01*
X-7016009Y-8631593D01*
X-7016009Y-8570407D01*
X-6981982Y-8524253D01*
X-6982754Y-8523354D01*
X-6827010Y-8389629D01*
X-6823431Y-8386556D01*
X-6820497Y-8382861D01*
X-6695781Y-8225790D01*
X-6695779Y-8225787D01*
X-6692850Y-8222098D01*
X-6595723Y-8035916D01*
X-6535554Y-7834726D01*
X-6514515Y-7625788D01*
X-6514500Y-7620000D01*
X-6534445Y-7410955D01*
X-6593559Y-7209453D01*
X-6609856Y-7177809D01*
X-6687553Y-7026952D01*
X-6689710Y-7022764D01*
X-6697684Y-7012612D01*
X-6816515Y-6861334D01*
X-6816517Y-6861332D01*
X-6819428Y-6857626D01*
X-6822984Y-6854540D01*
X-6822988Y-6854536D01*
X-6974473Y-6723084D01*
X-6974474Y-6723083D01*
X-6978033Y-6719995D01*
X-7159802Y-6614839D01*
X-7248853Y-6583915D01*
X-7353730Y-6547495D01*
X-7353736Y-6547494D01*
X-7358175Y-6545952D01*
X-7565997Y-6515820D01*
X-7690711Y-6521592D01*
X-7771058Y-6525311D01*
X-7771059Y-6525311D01*
X-7775766Y-6525529D01*
X-7979916Y-6574729D01*
X-7984204Y-6576679D01*
X-7984205Y-6576679D01*
X-7995501Y-6581815D01*
X-8171078Y-6661646D01*
X-8342356Y-6783142D01*
X-8487570Y-6934834D01*
X-8601480Y-7111249D01*
X-8603238Y-7115610D01*
X-8603238Y-7115611D01*
X-8642955Y-7214163D01*
X-8679975Y-7306021D01*
X-8680876Y-7310634D01*
X-8680877Y-7310638D01*
X-8701384Y-7415650D01*
X-8720224Y-7512122D01*
X-8720774Y-7722116D01*
X-8719896Y-7726738D01*
X-8719896Y-7726743D01*
X-8694637Y-7859782D01*
X-8681605Y-7928425D01*
X-8604130Y-8123605D01*
X-8601590Y-8127584D01*
X-8493684Y-8296639D01*
X-8493680Y-8296644D01*
X-8491146Y-8300614D01*
X-8346728Y-8453064D01*
X-8252631Y-8520556D01*
X-8216368Y-8569833D01*
X-8215994Y-8631017D01*
X-8251655Y-8680736D01*
X-8310334Y-8700000D01*
X-9461854Y-8700000D01*
X-9520045Y-8681093D01*
X-9556009Y-8631593D01*
X-9556009Y-8570407D01*
X-9521982Y-8524253D01*
X-9522754Y-8523354D01*
X-9367010Y-8389629D01*
X-9363431Y-8386556D01*
X-9360497Y-8382861D01*
X-9235781Y-8225790D01*
X-9235779Y-8225787D01*
X-9232850Y-8222098D01*
X-9135723Y-8035916D01*
X-9075554Y-7834726D01*
X-9054515Y-7625788D01*
X-9054500Y-7620000D01*
X-9074445Y-7410955D01*
X-9133559Y-7209453D01*
X-9149856Y-7177809D01*
X-9227553Y-7026952D01*
X-9229710Y-7022764D01*
X-9237684Y-7012612D01*
X-9356515Y-6861334D01*
X-9356517Y-6861332D01*
X-9359428Y-6857626D01*
X-9362984Y-6854540D01*
X-9362988Y-6854536D01*
X-9514473Y-6723084D01*
X-9514474Y-6723083D01*
X-9518033Y-6719995D01*
X-9699802Y-6614839D01*
X-9788853Y-6583915D01*
X-9893730Y-6547495D01*
X-9893736Y-6547494D01*
X-9898175Y-6545952D01*
X-10105997Y-6515820D01*
X-10230711Y-6521592D01*
X-10311058Y-6525311D01*
X-10311059Y-6525311D01*
X-10315766Y-6525529D01*
X-10519916Y-6574729D01*
X-10524204Y-6576679D01*
X-10524205Y-6576679D01*
X-10535501Y-6581815D01*
X-10711078Y-6661646D01*
X-10882356Y-6783142D01*
X-11027570Y-6934834D01*
X-11141480Y-7111249D01*
X-11143238Y-7115610D01*
X-11143238Y-7115611D01*
X-11182955Y-7214163D01*
X-11219975Y-7306021D01*
X-11220876Y-7310634D01*
X-11220877Y-7310638D01*
X-11241384Y-7415650D01*
X-11260224Y-7512122D01*
X-11260774Y-7722116D01*
X-11259896Y-7726738D01*
X-11259896Y-7726743D01*
X-11234637Y-7859782D01*
X-11221605Y-7928425D01*
X-11144130Y-8123605D01*
X-11141590Y-8127584D01*
X-11033684Y-8296639D01*
X-11033680Y-8296644D01*
X-11031146Y-8300614D01*
X-10886728Y-8453064D01*
X-10792631Y-8520556D01*
X-10756368Y-8569833D01*
X-10755994Y-8631017D01*
X-10791655Y-8680736D01*
X-10850334Y-8700000D01*
X-12001854Y-8700000D01*
X-12060045Y-8681093D01*
X-12096009Y-8631593D01*
X-12096009Y-8570407D01*
X-12061982Y-8524253D01*
X-12062754Y-8523354D01*
X-11907010Y-8389629D01*
X-11903431Y-8386556D01*
X-11900497Y-8382861D01*
X-11775781Y-8225790D01*
X-11775779Y-8225787D01*
X-11772850Y-8222098D01*
X-11675723Y-8035916D01*
X-11615554Y-7834726D01*
X-11594515Y-7625788D01*
X-11594500Y-7620000D01*
X-11614445Y-7410955D01*
X-11673559Y-7209453D01*
X-11689856Y-7177809D01*
X-11767553Y-7026952D01*
X-11769710Y-7022764D01*
X-11777684Y-7012612D01*
X-11896515Y-6861334D01*
X-11896517Y-6861332D01*
X-11899428Y-6857626D01*
X-11902984Y-6854540D01*
X-11902988Y-6854536D01*
X-12054473Y-6723084D01*
X-12054474Y-6723083D01*
X-12058033Y-6719995D01*
X-12239802Y-6614839D01*
X-12328853Y-6583915D01*
X-12433730Y-6547495D01*
X-12433736Y-6547494D01*
X-12438175Y-6545952D01*
X-12645997Y-6515820D01*
X-12770711Y-6521592D01*
X-12851058Y-6525311D01*
X-12851059Y-6525311D01*
X-12855766Y-6525529D01*
X-13059916Y-6574729D01*
X-13064204Y-6576679D01*
X-13064205Y-6576679D01*
X-13075501Y-6581815D01*
X-13251078Y-6661646D01*
X-13422356Y-6783142D01*
X-13567570Y-6934834D01*
X-13681480Y-7111249D01*
X-13683238Y-7115610D01*
X-13683238Y-7115611D01*
X-13722955Y-7214163D01*
X-13759975Y-7306021D01*
X-13760876Y-7310634D01*
X-13760877Y-7310638D01*
X-13781384Y-7415650D01*
X-13800224Y-7512122D01*
X-13800774Y-7722116D01*
X-13799896Y-7726738D01*
X-13799896Y-7726743D01*
X-13774637Y-7859782D01*
X-13761605Y-7928425D01*
X-13684130Y-8123605D01*
X-13681590Y-8127584D01*
X-13573684Y-8296639D01*
X-13573680Y-8296644D01*
X-13571146Y-8300614D01*
X-13426728Y-8453064D01*
X-13332631Y-8520556D01*
X-13296368Y-8569833D01*
X-13295994Y-8631017D01*
X-13331655Y-8680736D01*
X-13390334Y-8700000D01*
X-14542722Y-8700000D01*
X-14600913Y-8681093D01*
X-14636877Y-8631593D01*
X-14636877Y-8570407D01*
X-14602420Y-8523670D01*
X-14603042Y-8522945D01*
X-14599889Y-8520238D01*
X-14599789Y-8520102D01*
X-14599463Y-8519872D01*
X-14447370Y-8389282D01*
X-14440857Y-8382514D01*
X-14316200Y-8225518D01*
X-14311089Y-8217647D01*
X-14218368Y-8039911D01*
X-14214834Y-8031207D01*
X-14172312Y-7889024D01*
X-14172590Y-7877216D01*
X-14182901Y-7874000D01*
X-16295751Y-7874000D01*
X-16308436Y-7878122D01*
X-16308601Y-7878348D01*
X-16309103Y-7886264D01*
X-16302004Y-7923655D01*
X-16299386Y-7932665D01*
X-16225425Y-8118993D01*
X-16221145Y-8127356D01*
X-16113289Y-8296331D01*
X-16107511Y-8303727D01*
X-15969641Y-8449267D01*
X-15962571Y-8455435D01*
X-15871781Y-8520553D01*
X-15835515Y-8569832D01*
X-15835141Y-8631017D01*
X-15870802Y-8680736D01*
X-15929481Y-8700000D01*
X-16602613Y-8700000D01*
X-16660804Y-8681093D01*
X-16696768Y-8631593D01*
X-16696768Y-8571995D01*
X-16693949Y-8567776D01*
X-16674500Y-8470000D01*
X-16674500Y-7350613D01*
X-16308176Y-7350613D01*
X-16306563Y-7363849D01*
X-16306466Y-7363953D01*
X-16298565Y-7366000D01*
X-15509680Y-7366000D01*
X-15496995Y-7361878D01*
X-15494000Y-7357757D01*
X-15494000Y-6565395D01*
X-15496822Y-6556708D01*
X-14986000Y-6556708D01*
X-14986000Y-7350320D01*
X-14981878Y-7363005D01*
X-14977757Y-7366000D01*
X-14183832Y-7366000D01*
X-14172514Y-7362323D01*
X-14172361Y-7351653D01*
X-14212696Y-7214163D01*
X-14216180Y-7205451D01*
X-14307974Y-7027222D01*
X-14313044Y-7019326D01*
X-14436878Y-6861677D01*
X-14443347Y-6854884D01*
X-14594763Y-6723491D01*
X-14602405Y-6718041D01*
X-14775934Y-6617652D01*
X-14784457Y-6613750D01*
X-14973527Y-6548093D01*
X-14983627Y-6549829D01*
X-14984638Y-6550867D01*
X-14986000Y-6556708D01*
X-15496822Y-6556708D01*
X-15497932Y-6553293D01*
X-15507333Y-6552928D01*
X-15595170Y-6574097D01*
X-15604042Y-6577152D01*
X-15786540Y-6660129D01*
X-15794672Y-6664805D01*
X-15958187Y-6780794D01*
X-15965287Y-6786923D01*
X-16103920Y-6931740D01*
X-16109734Y-6939103D01*
X-16218483Y-7107525D01*
X-16222794Y-7115841D01*
X-16297735Y-7301793D01*
X-16300399Y-7310789D01*
X-16308176Y-7350613D01*
X-16674500Y-7350613D01*
X-16674500Y-6770000D01*
X-16693949Y-6672224D01*
X-16749334Y-6589334D01*
X-16832224Y-6533949D01*
X-16930000Y-6514500D01*
X-18630000Y-6514500D01*
X-18727776Y-6533949D01*
X-18810666Y-6589334D01*
X-18866051Y-6672224D01*
X-18885500Y-6770000D01*
X-18885500Y-8470000D01*
X-18866051Y-8567776D01*
X-18865491Y-8568614D01*
X-18861122Y-8624109D01*
X-18893090Y-8676279D01*
X-18949618Y-8699695D01*
X-18957387Y-8700000D01*
X-19545230Y-8700000D01*
X-19603421Y-8681093D01*
X-19639385Y-8631593D01*
X-19639385Y-8570407D01*
X-19608534Y-8524885D01*
X-19602783Y-8520102D01*
X-19502938Y-8437062D01*
X-19367722Y-8274482D01*
X-19283227Y-8123605D01*
X-19266616Y-8093945D01*
X-19266615Y-8093943D01*
X-19264398Y-8089984D01*
X-19247401Y-8039911D01*
X-19197887Y-7894048D01*
X-19197886Y-7894045D01*
X-19196427Y-7889746D01*
X-19184162Y-7805155D01*
X-19166504Y-7683374D01*
X-19166503Y-7683366D01*
X-19166084Y-7680474D01*
X-19164714Y-7628197D01*
X-19164576Y-7622913D01*
X-19164576Y-7622908D01*
X-19164500Y-7620000D01*
X-19173979Y-7516835D01*
X-19183434Y-7413945D01*
X-19183849Y-7409427D01*
X-19241248Y-7205906D01*
X-19289877Y-7107295D01*
X-19332763Y-7020330D01*
X-19332765Y-7020326D01*
X-19334774Y-7016253D01*
X-19461296Y-6846820D01*
X-19506621Y-6804922D01*
X-19613246Y-6706358D01*
X-19613247Y-6706357D01*
X-19616576Y-6703280D01*
X-19648944Y-6682857D01*
X-19771044Y-6605818D01*
X-19795414Y-6590442D01*
X-19991820Y-6512084D01*
X-20199217Y-6470830D01*
X-20304938Y-6469446D01*
X-20406120Y-6468121D01*
X-20406125Y-6468121D01*
X-20410659Y-6468062D01*
X-20415134Y-6468831D01*
X-20415135Y-6468831D01*
X-20614596Y-6503105D01*
X-20619065Y-6503873D01*
X-20695434Y-6532047D01*
X-20813193Y-6575490D01*
X-20813196Y-6575491D01*
X-20817456Y-6577063D01*
X-20821359Y-6579385D01*
X-20821361Y-6579386D01*
X-20869788Y-6608197D01*
X-20999186Y-6685181D01*
X-21002601Y-6688176D01*
X-21002604Y-6688178D01*
X-21135725Y-6804922D01*
X-21191942Y-6829075D01*
X-21251618Y-6815571D01*
X-21291960Y-6769569D01*
X-21300000Y-6730490D01*
X-21300000Y-3676273D01*
X-18311391Y-3676273D01*
X-18305336Y-3682922D01*
X-18180752Y-3761833D01*
X-18173342Y-3765690D01*
X-17965736Y-3852322D01*
X-17957770Y-3854879D01*
X-17738527Y-3905294D01*
X-17730262Y-3906470D01*
X-17505649Y-3919225D01*
X-17497303Y-3918991D01*
X-17273762Y-3893719D01*
X-17265566Y-3892082D01*
X-17049476Y-3829506D01*
X-17041684Y-3826515D01*
X-16839222Y-3728423D01*
X-16832040Y-3724158D01*
X-16776569Y-3684518D01*
X-16770479Y-3676273D01*
X-13231391Y-3676273D01*
X-13225336Y-3682922D01*
X-13100752Y-3761833D01*
X-13093342Y-3765690D01*
X-12885736Y-3852322D01*
X-12877770Y-3854879D01*
X-12658527Y-3905294D01*
X-12650262Y-3906470D01*
X-12425649Y-3919225D01*
X-12417303Y-3918991D01*
X-12193762Y-3893719D01*
X-12185566Y-3892082D01*
X-11969476Y-3829506D01*
X-11961684Y-3826515D01*
X-11759222Y-3728423D01*
X-11752040Y-3724158D01*
X-11696569Y-3684518D01*
X-11688643Y-3673787D01*
X-11688636Y-3672899D01*
X-11692233Y-3666977D01*
X-12448914Y-2910296D01*
X-12460797Y-2904242D01*
X-12465828Y-2905038D01*
X-13225500Y-3664710D01*
X-13231391Y-3676273D01*
X-16770479Y-3676273D01*
X-16768643Y-3673787D01*
X-16768636Y-3672899D01*
X-16772233Y-3666977D01*
X-17528914Y-2910296D01*
X-17540797Y-2904242D01*
X-17545828Y-2905038D01*
X-18305500Y-3664710D01*
X-18311391Y-3676273D01*
X-21300000Y-3676273D01*
X-21300000Y-2639279D01*
X-18916075Y-2639279D01*
X-18915448Y-2647609D01*
X-18879675Y-2869711D01*
X-18877652Y-2877823D01*
X-18804970Y-3090715D01*
X-18801610Y-3098371D01*
X-18694094Y-3295980D01*
X-18689490Y-3302961D01*
X-18687155Y-3305923D01*
X-18676065Y-3313333D01*
X-18673919Y-3313248D01*
X-18669861Y-3310651D01*
X-17910296Y-2551086D01*
X-17905054Y-2540797D01*
X-17175758Y-2540797D01*
X-17174962Y-2545828D01*
X-16415827Y-3304963D01*
X-16403944Y-3311017D01*
X-16403298Y-3310915D01*
X-16397773Y-3306117D01*
X-16349706Y-3237597D01*
X-16345507Y-3230380D01*
X-16249185Y-3027071D01*
X-16246262Y-3019253D01*
X-16185574Y-2802621D01*
X-16184010Y-2794420D01*
X-16167840Y-2639279D01*
X-13836075Y-2639279D01*
X-13835448Y-2647609D01*
X-13799675Y-2869711D01*
X-13797652Y-2877823D01*
X-13724970Y-3090715D01*
X-13721610Y-3098371D01*
X-13614094Y-3295980D01*
X-13609490Y-3302961D01*
X-13607155Y-3305923D01*
X-13596065Y-3313333D01*
X-13593919Y-3313248D01*
X-13589861Y-3310651D01*
X-12830296Y-2551086D01*
X-12825054Y-2540797D01*
X-12095758Y-2540797D01*
X-12094962Y-2545828D01*
X-11335827Y-3304963D01*
X-11323944Y-3311017D01*
X-11323298Y-3310915D01*
X-11317773Y-3306117D01*
X-11269706Y-3237597D01*
X-11265507Y-3230380D01*
X-11169185Y-3027071D01*
X-11166262Y-3019253D01*
X-11105574Y-2802621D01*
X-11104010Y-2794420D01*
X-11080495Y-2568802D01*
X-11080232Y-2564160D01*
X-11080022Y-2542345D01*
X-11080197Y-2537673D01*
X-11099375Y-2311656D01*
X-11100781Y-2303431D01*
X-11157300Y-2085674D01*
X-11160073Y-2077800D01*
X-11252474Y-1872675D01*
X-11256533Y-1865382D01*
X-11316033Y-1777005D01*
X-11326535Y-1768785D01*
X-11326676Y-1768780D01*
X-11333709Y-1772919D01*
X-12089704Y-2528914D01*
X-12095758Y-2540797D01*
X-12825054Y-2540797D01*
X-12824242Y-2539203D01*
X-12825038Y-2534172D01*
X-13587498Y-1771712D01*
X-13598367Y-1766174D01*
X-13605761Y-1773235D01*
X-13710658Y-1957511D01*
X-13714164Y-1965098D01*
X-13790920Y-2176558D01*
X-13793099Y-2184634D01*
X-13833130Y-2406003D01*
X-13833916Y-2414329D01*
X-13836075Y-2639279D01*
X-16167840Y-2639279D01*
X-16160495Y-2568802D01*
X-16160232Y-2564160D01*
X-16160022Y-2542345D01*
X-16160197Y-2537673D01*
X-16179375Y-2311656D01*
X-16180781Y-2303431D01*
X-16237300Y-2085674D01*
X-16240073Y-2077800D01*
X-16332474Y-1872675D01*
X-16336533Y-1865382D01*
X-16396033Y-1777005D01*
X-16406535Y-1768785D01*
X-16406676Y-1768780D01*
X-16413709Y-1772919D01*
X-17169704Y-2528914D01*
X-17175758Y-2540797D01*
X-17905054Y-2540797D01*
X-17904242Y-2539203D01*
X-17905038Y-2534172D01*
X-18667498Y-1771712D01*
X-18678367Y-1766174D01*
X-18685761Y-1773235D01*
X-18790658Y-1957511D01*
X-18794164Y-1965098D01*
X-18870920Y-2176558D01*
X-18873099Y-2184634D01*
X-18913130Y-2406003D01*
X-18913916Y-2414329D01*
X-18916075Y-2639279D01*
X-21300000Y-2639279D01*
X-21300000Y-1404806D01*
X-18312309Y-1404806D01*
X-18307686Y-1413104D01*
X-17551086Y-2169704D01*
X-17539203Y-2175758D01*
X-17534172Y-2174962D01*
X-16774322Y-1415112D01*
X-16768268Y-1403229D01*
X-16768487Y-1401846D01*
X-16772408Y-1397202D01*
X-16809433Y-1369654D01*
X-16816542Y-1365246D01*
X-17017079Y-1263287D01*
X-17024809Y-1260149D01*
X-17239666Y-1193434D01*
X-17247815Y-1191642D01*
X-17470841Y-1162082D01*
X-17479181Y-1161689D01*
X-17703990Y-1170129D01*
X-17712283Y-1171147D01*
X-17932458Y-1217345D01*
X-17940452Y-1219743D01*
X-18149704Y-1302381D01*
X-18157177Y-1306090D01*
X-18304041Y-1395210D01*
X-18312309Y-1404806D01*
X-21300000Y-1404806D01*
X-21300000Y-107257D01*
X-16426473Y-107257D01*
X-16388008Y-346069D01*
X-16309855Y-574986D01*
X-16307850Y-578671D01*
X-16231189Y-719570D01*
X-16194250Y-787463D01*
X-16044497Y-977423D01*
X-16041383Y-980231D01*
X-16041381Y-980234D01*
X-15906301Y-1102074D01*
X-15864879Y-1139436D01*
X-15660531Y-1268869D01*
X-15580221Y-1302381D01*
X-15441166Y-1360407D01*
X-15441161Y-1360409D01*
X-15437297Y-1362021D01*
X-15201559Y-1416229D01*
X-15073209Y-1423517D01*
X-14964239Y-1429705D01*
X-14964234Y-1429705D01*
X-14960058Y-1429942D01*
X-14737717Y-1404806D01*
X-13232309Y-1404806D01*
X-13227686Y-1413104D01*
X-12471086Y-2169704D01*
X-12459203Y-2175758D01*
X-12454172Y-2174962D01*
X-11873034Y-1593824D01*
X6244538Y-1593824D01*
X6263121Y-1735939D01*
X6265962Y-1742395D01*
X6265962Y-1742396D01*
X6281191Y-1777005D01*
X6320845Y-1867126D01*
X6325382Y-1872523D01*
X6325383Y-1872525D01*
X6379003Y-1936313D01*
X6413068Y-1976838D01*
X6418939Y-1980746D01*
X6418940Y-1980747D01*
X6436778Y-1992621D01*
X6532377Y-2056257D01*
X6539104Y-2058359D01*
X6539107Y-2058360D01*
X6662448Y-2096894D01*
X6662449Y-2096894D01*
X6669180Y-2098997D01*
X6740831Y-2100311D01*
X6805427Y-2101495D01*
X6805429Y-2101495D01*
X6812481Y-2101624D01*
X6819284Y-2099769D01*
X6819286Y-2099769D01*
X6870984Y-2085674D01*
X6950758Y-2063925D01*
X7007269Y-2029227D01*
X7066888Y-1992621D01*
X7066890Y-1992619D01*
X7072897Y-1988931D01*
X7077629Y-1983703D01*
X7079466Y-1982178D01*
X7136315Y-1959554D01*
X7144906Y-1959372D01*
X10073416Y-2024525D01*
X10092047Y-2026718D01*
X10108170Y-2030189D01*
X10139978Y-2026425D01*
X10143739Y-2026089D01*
X10147152Y-2026165D01*
X10154293Y-2025139D01*
X10169252Y-2022990D01*
X10171695Y-2022670D01*
X10215971Y-2017430D01*
X10215972Y-2017430D01*
X10224098Y-2016468D01*
X10228131Y-2014531D01*
X10232560Y-2013895D01*
X10279573Y-1989862D01*
X10281769Y-1988774D01*
X10329330Y-1965936D01*
X10331938Y-1963744D01*
X10333268Y-1962414D01*
X10336502Y-1960761D01*
X10381558Y-1914145D01*
X10382738Y-1912944D01*
X10616186Y-1679496D01*
X10670703Y-1651719D01*
X10686190Y-1650500D01*
X12713810Y-1650500D01*
X12772001Y-1669407D01*
X12783814Y-1679496D01*
X14162684Y-3058366D01*
X14175847Y-3074667D01*
X14181999Y-3084194D01*
X14188425Y-3089260D01*
X14188427Y-3089262D01*
X14208182Y-3104836D01*
X14212315Y-3108508D01*
X14212330Y-3108490D01*
X14215459Y-3111141D01*
X14218338Y-3114020D01*
X14221654Y-3116389D01*
X14221658Y-3116393D01*
X14232439Y-3124097D01*
X14236148Y-3126881D01*
X14273675Y-3156465D01*
X14280986Y-3159033D01*
X14282234Y-3159681D01*
X14288540Y-3164187D01*
X14334318Y-3177877D01*
X14338746Y-3179316D01*
X14377942Y-3193081D01*
X14377943Y-3193081D01*
X14383817Y-3195144D01*
X14387211Y-3195438D01*
X14389350Y-3195438D01*
X14391483Y-3195530D01*
X14391476Y-3195689D01*
X14394518Y-3195880D01*
X14400382Y-3197634D01*
X14408556Y-3197313D01*
X14408557Y-3197313D01*
X14454352Y-3195514D01*
X14458238Y-3195438D01*
X15742244Y-3195438D01*
X15800435Y-3214345D01*
X15804552Y-3217667D01*
X15808006Y-3221776D01*
X15813877Y-3225684D01*
X15813878Y-3225685D01*
X15826173Y-3233869D01*
X15927315Y-3301195D01*
X15934042Y-3303297D01*
X15934045Y-3303298D01*
X16057386Y-3341832D01*
X16057387Y-3341832D01*
X16064118Y-3343935D01*
X16135769Y-3345249D01*
X16200365Y-3346433D01*
X16200367Y-3346433D01*
X16207419Y-3346562D01*
X16214222Y-3344707D01*
X16214224Y-3344707D01*
X16261003Y-3331953D01*
X16345696Y-3308863D01*
X16467835Y-3233869D01*
X16534302Y-3160438D01*
X16559284Y-3132838D01*
X16559284Y-3132837D01*
X16564016Y-3127610D01*
X16626508Y-2998627D01*
X16629193Y-2982672D01*
X16649653Y-2861058D01*
X16649653Y-2861055D01*
X16650287Y-2857288D01*
X16650438Y-2844938D01*
X16630120Y-2703061D01*
X16627005Y-2696208D01*
X16573718Y-2579011D01*
X16573718Y-2579010D01*
X16570798Y-2572589D01*
X16477241Y-2464012D01*
X16356971Y-2386056D01*
X16350213Y-2384035D01*
X16350211Y-2384034D01*
X16226417Y-2347012D01*
X16219656Y-2344990D01*
X16133632Y-2344465D01*
X16083386Y-2344158D01*
X16076334Y-2344115D01*
X16069558Y-2346052D01*
X16069555Y-2346052D01*
X15945307Y-2381562D01*
X15945305Y-2381563D01*
X15938527Y-2383500D01*
X15817313Y-2459980D01*
X15812644Y-2465267D01*
X15807274Y-2469837D01*
X15805315Y-2467536D01*
X15763751Y-2492071D01*
X15742233Y-2494438D01*
X14631128Y-2494438D01*
X14572937Y-2475531D01*
X14561124Y-2465442D01*
X13182254Y-1086572D01*
X13169091Y-1070271D01*
X13162939Y-1060744D01*
X13156513Y-1055678D01*
X13156511Y-1055676D01*
X13136756Y-1040102D01*
X13132623Y-1036430D01*
X13132608Y-1036448D01*
X13129479Y-1033797D01*
X13126600Y-1030918D01*
X13123284Y-1028549D01*
X13123280Y-1028545D01*
X13112499Y-1020841D01*
X13108790Y-1018057D01*
X13071263Y-988473D01*
X13063952Y-985905D01*
X13062704Y-985257D01*
X13056398Y-980751D01*
X13010620Y-967061D01*
X13006192Y-965622D01*
X12966996Y-951857D01*
X12966995Y-951857D01*
X12961121Y-949794D01*
X12957727Y-949500D01*
X12955588Y-949500D01*
X12953455Y-949408D01*
X12953462Y-949249D01*
X12950420Y-949058D01*
X12944556Y-947304D01*
X12936382Y-947625D01*
X12936381Y-947625D01*
X12890586Y-949424D01*
X12886700Y-949500D01*
X10548675Y-949500D01*
X10527839Y-947282D01*
X10526166Y-946922D01*
X10516746Y-944894D01*
X10483629Y-948814D01*
X10478116Y-949139D01*
X10478118Y-949163D01*
X10474043Y-949500D01*
X10469961Y-949500D01*
X10452864Y-952346D01*
X10448285Y-952998D01*
X10423894Y-955885D01*
X10408944Y-957654D01*
X10408943Y-957654D01*
X10400818Y-958616D01*
X10393836Y-961969D01*
X10392487Y-962395D01*
X10384847Y-963667D01*
X10377646Y-967552D01*
X10377647Y-967552D01*
X10342803Y-986352D01*
X10338649Y-988468D01*
X10301204Y-1006450D01*
X10295586Y-1009148D01*
X10292978Y-1011340D01*
X10291467Y-1012851D01*
X10289880Y-1014306D01*
X10289773Y-1014189D01*
X10287501Y-1016192D01*
X10282112Y-1019100D01*
X10276556Y-1025111D01*
X10276554Y-1025112D01*
X10245463Y-1058746D01*
X10242770Y-1061548D01*
X10012891Y-1291427D01*
X9958374Y-1319204D01*
X9940685Y-1320399D01*
X9130802Y-1302381D01*
X7159491Y-1258524D01*
X7101736Y-1238327D01*
X7087588Y-1225012D01*
X7086910Y-1224420D01*
X7082303Y-1219074D01*
X6962033Y-1141118D01*
X6955275Y-1139097D01*
X6955273Y-1139096D01*
X6831479Y-1102074D01*
X6824718Y-1100052D01*
X6738694Y-1099527D01*
X6688448Y-1099220D01*
X6681396Y-1099177D01*
X6674620Y-1101114D01*
X6674617Y-1101114D01*
X6550369Y-1136624D01*
X6550367Y-1136625D01*
X6543589Y-1138562D01*
X6422375Y-1215042D01*
X6327499Y-1322469D01*
X6266588Y-1452206D01*
X6244538Y-1593824D01*
X-11873034Y-1593824D01*
X-11694322Y-1415112D01*
X-11688268Y-1403229D01*
X-11688487Y-1401846D01*
X-11692408Y-1397202D01*
X-11729433Y-1369654D01*
X-11736542Y-1365246D01*
X-11937079Y-1263287D01*
X-11944809Y-1260149D01*
X-12159666Y-1193434D01*
X-12167815Y-1191642D01*
X-12390841Y-1162082D01*
X-12399181Y-1161689D01*
X-12623990Y-1170129D01*
X-12632283Y-1171147D01*
X-12852458Y-1217345D01*
X-12860452Y-1219743D01*
X-13069704Y-1302381D01*
X-13077177Y-1306090D01*
X-13224041Y-1395210D01*
X-13232309Y-1404806D01*
X-14737717Y-1404806D01*
X-14719699Y-1402769D01*
X-14715676Y-1401604D01*
X-14715671Y-1401603D01*
X-14491388Y-1336655D01*
X-14491387Y-1336654D01*
X-14487355Y-1335487D01*
X-14269668Y-1230019D01*
X-14089283Y-1101114D01*
X-14076281Y-1091823D01*
X-14076280Y-1091822D01*
X-14072864Y-1089381D01*
X-13970054Y-985670D01*
X-13905520Y-920570D01*
X-13905519Y-920569D01*
X-13902570Y-917594D01*
X-13811282Y-787463D01*
X-13766060Y-722999D01*
X-13766058Y-722995D01*
X-13763655Y-719570D01*
X-13660090Y-500972D01*
X-13594838Y-268049D01*
X-13580640Y-131814D01*
X-13570005Y-29776D01*
X-13570005Y-29773D01*
X-13569764Y-27462D01*
X-13569500Y0D01*
X-13569719Y2591D01*
X-13589597Y236853D01*
X-13589597Y236854D01*
X-13589951Y241024D01*
X-13604000Y295152D01*
X-13649667Y471100D01*
X-13649668Y471103D01*
X-13650720Y475156D01*
X-13750069Y695703D01*
X-13885157Y896357D01*
X-14052122Y1071381D01*
X-14165626Y1155830D01*
X-14242824Y1213267D01*
X-14242827Y1213269D01*
X-14246190Y1215771D01*
X-14357701Y1272466D01*
X-14458079Y1323502D01*
X-14458083Y1323504D01*
X-14461811Y1325399D01*
X-14692821Y1397130D01*
X-14742595Y1403727D01*
X-13231391Y1403727D01*
X-13225336Y1397078D01*
X-13100752Y1318167D01*
X-13093342Y1314310D01*
X-12885736Y1227678D01*
X-12877770Y1225121D01*
X-12658527Y1174706D01*
X-12650262Y1173530D01*
X-12425649Y1160775D01*
X-12417303Y1161009D01*
X-12193762Y1186281D01*
X-12185566Y1187918D01*
X-11969476Y1250494D01*
X-11961684Y1253485D01*
X-11759222Y1351577D01*
X-11752040Y1355842D01*
X-11696569Y1395482D01*
X-11688643Y1406213D01*
X-11688636Y1407101D01*
X-11692233Y1413023D01*
X-12448914Y2169704D01*
X-12460797Y2175758D01*
X-12465828Y2174962D01*
X-13225500Y1415290D01*
X-13231391Y1403727D01*
X-14742595Y1403727D01*
X-14747137Y1404329D01*
X-14928462Y1428362D01*
X-14928466Y1428362D01*
X-14932614Y1428912D01*
X-14936799Y1428755D01*
X-14936802Y1428755D01*
X-15030678Y1425230D01*
X-15174334Y1419837D01*
X-15411069Y1370165D01*
X-15636051Y1281316D01*
X-15639627Y1279146D01*
X-15639631Y1279144D01*
X-15797218Y1183517D01*
X-15842845Y1155830D01*
X-16025541Y997295D01*
X-16178913Y810244D01*
X-16298576Y600026D01*
X-16381109Y372652D01*
X-16424151Y134622D01*
X-16424191Y130424D01*
X-16425845Y-41884D01*
X-16426473Y-107257D01*
X-21300000Y-107257D01*
X-21300000Y1403727D01*
X-18311391Y1403727D01*
X-18305336Y1397078D01*
X-18180752Y1318167D01*
X-18173342Y1314310D01*
X-17965736Y1227678D01*
X-17957770Y1225121D01*
X-17738527Y1174706D01*
X-17730262Y1173530D01*
X-17505649Y1160775D01*
X-17497303Y1161009D01*
X-17273762Y1186281D01*
X-17265566Y1187918D01*
X-17049476Y1250494D01*
X-17041684Y1253485D01*
X-16839222Y1351577D01*
X-16832040Y1355842D01*
X-16776569Y1395482D01*
X-16768643Y1406213D01*
X-16768636Y1407101D01*
X-16772233Y1413023D01*
X-17528914Y2169704D01*
X-17540797Y2175758D01*
X-17545828Y2174962D01*
X-18305500Y1415290D01*
X-18311391Y1403727D01*
X-21300000Y1403727D01*
X-21300000Y2440721D01*
X-18916075Y2440721D01*
X-18915448Y2432391D01*
X-18879675Y2210289D01*
X-18877652Y2202177D01*
X-18804970Y1989285D01*
X-18801610Y1981629D01*
X-18694094Y1784020D01*
X-18689490Y1777039D01*
X-18687155Y1774077D01*
X-18676065Y1766667D01*
X-18673919Y1766752D01*
X-18669861Y1769349D01*
X-17910296Y2528914D01*
X-17905054Y2539203D01*
X-17175758Y2539203D01*
X-17174962Y2534172D01*
X-16415827Y1775037D01*
X-16403944Y1768983D01*
X-16403298Y1769085D01*
X-16397773Y1773883D01*
X-16349706Y1842403D01*
X-16345507Y1849620D01*
X-16249185Y2052929D01*
X-16246262Y2060747D01*
X-16185574Y2277379D01*
X-16184010Y2285580D01*
X-16167840Y2440721D01*
X-13836075Y2440721D01*
X-13835448Y2432391D01*
X-13799675Y2210289D01*
X-13797652Y2202177D01*
X-13724970Y1989285D01*
X-13721610Y1981629D01*
X-13614094Y1784020D01*
X-13609490Y1777039D01*
X-13607155Y1774077D01*
X-13596065Y1766667D01*
X-13593919Y1766752D01*
X-13589861Y1769349D01*
X-12830296Y2528914D01*
X-12825054Y2539203D01*
X-12095758Y2539203D01*
X-12094962Y2534172D01*
X-11335827Y1775037D01*
X-11323944Y1768983D01*
X-11323298Y1769085D01*
X-11317773Y1773883D01*
X-11269706Y1842403D01*
X-11265507Y1849620D01*
X-11169185Y2052929D01*
X-11166262Y2060747D01*
X-11105574Y2277379D01*
X-11104010Y2285580D01*
X-11080495Y2511198D01*
X-11080232Y2515840D01*
X-11080022Y2537655D01*
X-11080197Y2542327D01*
X-11099375Y2768344D01*
X-11100781Y2776569D01*
X-11157300Y2994326D01*
X-11160073Y3002200D01*
X-11252474Y3207325D01*
X-11256533Y3214618D01*
X-11316033Y3302995D01*
X-11326535Y3311215D01*
X-11326676Y3311220D01*
X-11333709Y3307081D01*
X-12089704Y2551086D01*
X-12095758Y2539203D01*
X-12825054Y2539203D01*
X-12824242Y2540797D01*
X-12825038Y2545828D01*
X-13587498Y3308288D01*
X-13598367Y3313826D01*
X-13605761Y3306765D01*
X-13710658Y3122489D01*
X-13714164Y3114902D01*
X-13790920Y2903442D01*
X-13793099Y2895366D01*
X-13833130Y2673997D01*
X-13833916Y2665671D01*
X-13836075Y2440721D01*
X-16167840Y2440721D01*
X-16160495Y2511198D01*
X-16160232Y2515840D01*
X-16160022Y2537655D01*
X-16160197Y2542327D01*
X-16179375Y2768344D01*
X-16180781Y2776569D01*
X-16237300Y2994326D01*
X-16240073Y3002200D01*
X-16332474Y3207325D01*
X-16336533Y3214618D01*
X-16396033Y3302995D01*
X-16406535Y3311215D01*
X-16406676Y3311220D01*
X-16413709Y3307081D01*
X-17169704Y2551086D01*
X-17175758Y2539203D01*
X-17905054Y2539203D01*
X-17904242Y2540797D01*
X-17905038Y2545828D01*
X-18667498Y3308288D01*
X-18678367Y3313826D01*
X-18685761Y3306765D01*
X-18790658Y3122489D01*
X-18794164Y3114902D01*
X-18870920Y2903442D01*
X-18873099Y2895366D01*
X-18913130Y2673997D01*
X-18913916Y2665671D01*
X-18916075Y2440721D01*
X-21300000Y2440721D01*
X-21300000Y3675194D01*
X-18312309Y3675194D01*
X-18307686Y3666896D01*
X-17551086Y2910296D01*
X-17539203Y2904242D01*
X-17534172Y2905038D01*
X-16774322Y3664888D01*
X-16769071Y3675194D01*
X-13232309Y3675194D01*
X-13227686Y3666896D01*
X-12471086Y2910296D01*
X-12459203Y2904242D01*
X-12454172Y2905038D01*
X-11694322Y3664888D01*
X-11688268Y3676771D01*
X-11688487Y3678154D01*
X-11692408Y3682798D01*
X-11729433Y3710346D01*
X-11736542Y3714754D01*
X-11937079Y3816713D01*
X-11944809Y3819851D01*
X-12159666Y3886566D01*
X-12167815Y3888358D01*
X-12390841Y3917918D01*
X-12399181Y3918311D01*
X-12623990Y3909871D01*
X-12632283Y3908853D01*
X-12852458Y3862655D01*
X-12860452Y3860257D01*
X-13069704Y3777619D01*
X-13077177Y3773910D01*
X-13224041Y3684790D01*
X-13232309Y3675194D01*
X-16769071Y3675194D01*
X-16768268Y3676771D01*
X-16768487Y3678154D01*
X-16772408Y3682798D01*
X-16809433Y3710346D01*
X-16816542Y3714754D01*
X-17017079Y3816713D01*
X-17024809Y3819851D01*
X-17239666Y3886566D01*
X-17247815Y3888358D01*
X-17470841Y3917918D01*
X-17479181Y3918311D01*
X-17703990Y3909871D01*
X-17712283Y3908853D01*
X-17932458Y3862655D01*
X-17940452Y3860257D01*
X-18149704Y3777619D01*
X-18157177Y3773910D01*
X-18304041Y3684790D01*
X-18312309Y3675194D01*
X-21300000Y3675194D01*
X-21300000Y6733643D01*
X-21281093Y6791834D01*
X-21231593Y6827798D01*
X-21170407Y6827798D01*
X-21131919Y6804557D01*
X-21101432Y6774858D01*
X-21047180Y6722008D01*
X-21043405Y6719486D01*
X-21043403Y6719484D01*
X-20972673Y6672224D01*
X-20871357Y6604527D01*
X-20867190Y6602737D01*
X-20867185Y6602734D01*
X-20783117Y6566616D01*
X-20677069Y6521054D01*
X-20470823Y6474385D01*
X-20345850Y6469475D01*
X-20264059Y6466262D01*
X-20264058Y6466262D01*
X-20259526Y6466084D01*
X-20050254Y6496427D01*
X-20045955Y6497886D01*
X-20045952Y6497887D01*
X-19854317Y6562938D01*
X-19850016Y6564398D01*
X-19828177Y6576628D01*
X-19673943Y6663004D01*
X-19665518Y6667722D01*
X-19609012Y6714717D01*
X-19536701Y6774858D01*
X-19502938Y6802938D01*
X-19367722Y6965518D01*
X-19283227Y7116395D01*
X-19266616Y7146055D01*
X-19266615Y7146057D01*
X-19264398Y7150016D01*
X-19247401Y7200089D01*
X-19197887Y7345952D01*
X-19197886Y7345955D01*
X-19196427Y7350254D01*
X-19184162Y7434845D01*
X-19166504Y7556626D01*
X-19166503Y7556634D01*
X-19166084Y7559526D01*
X-19164714Y7611803D01*
X-19164576Y7617087D01*
X-19164576Y7617092D01*
X-19164500Y7620000D01*
X-19173979Y7723165D01*
X-19183434Y7826055D01*
X-19183849Y7830573D01*
X-19241248Y8034094D01*
X-19289877Y8132705D01*
X-19332763Y8219670D01*
X-19332765Y8219674D01*
X-19334774Y8223747D01*
X-19461296Y8393180D01*
X-19607471Y8528303D01*
X-19637366Y8581686D01*
X-19630174Y8642448D01*
X-19588641Y8687377D01*
X-19540268Y8700000D01*
X-18957387Y8700000D01*
X-18899196Y8681093D01*
G37*
%TD.AperFunction*%
%TD*%
M02*
